<?xml version="1.0" encoding="UTF-8"?>
<!DOCTYPE svg PUBLIC "-//W3C//DTD SVG 1.1//EN" "http://www.w3.org/Graphics/SVG/1.1/DTD/svg11.dtd">
<!-- Creator: CorelDRAW 2017 -->
<svg xmlns="http://www.w3.org/2000/svg" xml:space="preserve" width="75.5669mm" height="34.6461mm" version="1.1" style="shape-rendering:geometricPrecision; text-rendering:geometricPrecision; image-rendering:optimizeQuality; fill-rule:evenodd; clip-rule:evenodd"
viewBox="0 0 6776 3106"
 xmlns:xlink="http://www.w3.org/1999/xlink">
 <defs>
  <style type="text/css">
   <![CDATA[
    .str0 {stroke:#4A4A4A;stroke-width:44.8315;stroke-opacity:0.701961}
    .str1 {stroke:#949494;stroke-width:44.8315}
    .str3 {stroke:#D7B56D;stroke-width:15.2427}
    .str2 {stroke:#D7B56D;stroke-width:22.4157}
    .fil2 {fill:none}
    .fil1 {fill:none}
    .fil5 {fill:#D7B56D}
    .fil4 {fill:#D7B56D;fill-rule:nonzero}
    .fil3 {fill:#7F7D7A;fill-rule:nonzero}
    .fil0 {fill:#4A4A4A;fill-opacity:0.701961}
   ]]>
  </style>
 </defs>
<symbol id="Footer" viewBox="1967 13575 3624 1111">
 <path class="fil0" d="M4802 14348l11 11c4,4 8,8 11,11l34 34c30,30 61,60 91,90 13,12 26,24 47,20 13,-2 22,-10 29,-17l76 -71c1,-1 2,-2 3,-3l44 -41c2,-2 4,-3 6,-5l23 -22c4,-4 8,-7 12,-11 0,-1 -1,0 1,-1l0 238c-3,1 -91,0 -97,0l-267 0c-5,0 -21,1 -24,0l0 -233c2,0 0,0 1,0zm176 102c-2,-2 -3,-3 -5,-5l-26 -26c-7,-7 -14,-14 -21,-21l-103 -102 339 0c0,1 -9,9 -11,10 -9,8 -19,18 -27,26l-65 61c-2,2 -4,3 -5,5 -2,2 -4,3 -5,5 -2,2 -3,3 -5,5l-27 26c-2,2 -3,3 -5,5 -2,2 -4,3 -6,5 -4,4 -13,13 -16,15l-11 -10zm-180 -205c-18,1 -29,9 -37,18 -12,13 -12,26 -12,43l0 220c0,18 0,37 0,55 0,15 6,29 17,38 12,10 21,14 41,14l357 0c26,0 45,3 64,-18 4,-4 8,-11 10,-18 3,-9 2,-16 2,-25l0 -220c0,-18 0,-37 0,-55 0,-15 -6,-30 -17,-38 -12,-10 -21,-14 -41,-14l-357 0c-9,0 -19,0 -27,0z"/>
 <path class="fil0" d="M4802 14348c-1,-1 1,-1 -1,0l0 233c4,1 19,0 24,0l267 0c6,0 94,1 97,0l0 -238c-1,0 0,0 -1,1 1,1 0,2 0,3 0,1 0,2 0,4 0,77 0,154 0,230l-387 0 0 -231c0,-1 0,-1 1,-1z"/>
 <path class="fil1 str0" d="M3999 14270c5,3 13,3 19,6 19,9 19,32 22,53 3,23 0,73 -9,91 -12,23 -35,-1 -44,-13 -4,-4 -7,-9 -10,-15 -12,-19 -41,-76 -52,-100 -6,-14 -8,-23 -21,-29 -12,-5 -81,-2 -99,-2 -43,1 -23,25 -9,58 10,23 22,46 34,67 25,46 50,86 79,123 31,40 36,45 77,74 8,6 22,14 32,19 23,11 52,19 82,19 12,0 39,1 50,-1 30,-7 8,-43 28,-73 30,-45 61,38 111,67 14,8 23,9 40,8 74,-2 155,15 91,-66 -25,-32 -50,-50 -75,-77 -21,-24 -5,-40 15,-66 23,-31 69,-88 81,-122 13,-39 -26,-30 -64,-30l-75 0c-14,2 -17,15 -22,28 -15,37 -41,83 -64,114 -4,5 -20,23 -27,25 -29,9 -22,-61 -22,-76 0,-25 6,-75 -5,-94 -13,-20 -106,-15 -133,-10 -11,2 -29,12 -29,22z"/>
 <path class="fil0" d="M3279 14632l-105 0c-12,0 -24,0 -35,-1 -11,-1 -39,-3 -48,-6 -1,0 -2,-1 -3,-1 -11,-3 -24,-10 -32,-18 -6,-6 -12,-13 -15,-21 -2,-4 -4,-8 -6,-12 -1,-2 -1,-5 -2,-7l-3 -15c0,-1 -1,-2 -1,-3l-2 -12c0,-2 0,-6 -1,-8 0,-3 0,-6 0,-9 0,-2 -1,-6 -1,-8 0,-6 0,-12 0,-18 0,-13 -1,-120 0,-124 0,-3 0,-6 0,-9 1,-5 1,-17 1,-18 1,-6 1,-11 2,-17 0,-3 0,-6 1,-9 2,-15 3,-22 10,-37 1,-2 2,-4 3,-6 3,-6 8,-12 13,-16 8,-6 19,-14 29,-18 5,-2 10,-3 15,-4l16 -3c10,-2 21,-1 31,-2 4,0 9,0 14,0 2,0 3,0 4,0l110 0c6,0 11,0 17,0l34 2 24 3c11,1 21,5 31,10l9 5c4,2 7,5 10,8 4,4 12,16 15,21 3,6 6,12 8,19 2,11 5,24 5,35 0,2 0,3 0,5l1 26 0 126c0,10 -1,16 -1,26 0,3 0,6 -1,9 0,3 0,6 -1,8l-2 16c-1,9 -3,17 -6,26 0,1 -1,2 -1,3 -3,8 -8,17 -14,23 -3,3 -6,6 -10,9l-5 4c-2,1 -3,2 -6,3l-12 6c-7,3 -22,6 -30,7 -5,1 -11,2 -16,2 -2,0 -2,0 -4,0 -2,0 -3,0 -5,0 -2,0 -2,0 -4,0 -2,0 -3,0 -5,0l-18 1c-3,0 -6,0 -9,0zm-298 -269l0 134c0,8 0,15 0,24l2 23c2,15 4,22 7,35 4,15 17,40 28,51l15 15 10 8c2,2 5,3 8,5 18,9 26,12 45,15 2,0 3,1 5,1 2,0 3,0 5,1 2,0 3,0 5,1 6,1 12,1 17,1 2,0 4,0 6,0 2,0 3,0 6,0 16,0 31,0 48,0l76 0c7,0 20,1 26,0 8,-1 19,1 26,0 4,-1 13,0 19,-1 2,0 4,0 6,-1 8,-1 15,-2 23,-4 4,-1 7,-2 10,-3l5 -2c2,-1 3,-1 5,-2 12,-4 28,-13 38,-22 1,-1 2,-2 4,-3 7,-5 14,-14 19,-21 6,-8 13,-22 16,-31 1,-2 1,-3 2,-5l5 -22c3,-13 4,-30 3,-43 0,-3 0,-4 0,-6l0 -73c0,-19 0,-37 0,-56 0,-5 0,-9 0,-14 0,-5 0,-9 0,-14 0,-9 -1,-33 -2,-41 -1,-6 -2,-12 -3,-18l-1 -6c-3,-9 -4,-12 -7,-21 -3,-8 -10,-21 -15,-27 -3,-4 -6,-8 -9,-12 -1,-1 -2,-2 -4,-4l-5 -5c-1,-1 -1,-1 -2,-2 -4,-3 -8,-6 -12,-9 -2,-1 -3,-2 -4,-3l-30 -13c-5,-1 -11,-3 -17,-4 -11,-2 -21,-4 -32,-4 -4,0 -9,-1 -13,-1 -5,0 -9,0 -14,0 -5,0 -9,0 -14,0 -18,0 -123,-1 -128,0 -7,1 -17,0 -23,0 -4,0 -8,0 -11,0l-11 1c-7,1 -14,2 -21,3 -6,2 -12,3 -18,5l-13 5c-9,4 -18,9 -26,15 -8,6 -15,13 -21,20l-5 7c-9,14 -14,24 -19,41 -4,12 -5,23 -6,35 -1,3 0,8 -1,11 0,3 -1,8 -1,11 0,8 0,15 0,24z"/>
 <path class="fil0" d="M3230 14511c-9,0 -14,0 -22,-1 -16,-3 -28,-10 -39,-21 -4,-3 -5,-5 -8,-9l-3 -4c0,-1 -1,-1 -1,-1l-8 -16c-1,-2 -2,-5 -2,-7 -4,-14 -3,-32 1,-46 2,-8 7,-16 12,-23 6,-8 16,-19 26,-24 1,-1 2,-1 3,-2 15,-8 32,-10 50,-8 5,1 11,2 16,4 8,3 7,3 14,6 6,3 14,10 19,16 5,5 10,13 13,19 4,7 7,17 8,25 1,10 1,22 -2,32l-2 5c-3,9 -5,13 -11,21 -1,1 -1,2 -2,3 -11,14 -26,25 -44,29 -5,1 -11,3 -17,3zm-5 45c12,0 25,-2 37,-5 1,0 2,0 3,-1 17,-6 26,-11 40,-22l14 -13 9 -11c1,-1 2,-3 3,-4l3 -5c11,-16 18,-41 18,-60 0,-13 0,-13 -1,-27 0,-2 -1,-4 -1,-6 -1,-5 -2,-11 -4,-15 0,-1 -1,-2 -1,-3 -5,-17 -19,-34 -31,-46 -17,-17 -35,-27 -60,-33 -2,0 -4,-1 -6,-1 -6,-1 -16,-2 -22,-2l-15 1 -13 2c-9,2 -18,5 -27,9l-8 4c-10,6 -22,15 -30,24l-5 5c-1,1 -2,3 -4,4 -5,7 -11,17 -15,25 -3,7 -6,16 -8,24 -1,4 -2,9 -2,13 0,3 0,5 0,7 0,3 0,5 0,8 0,12 1,23 4,35 2,8 3,10 6,18 1,2 2,3 3,5 1,1 1,2 1,3 5,10 8,13 15,21 7,9 18,18 27,24l7 5c7,5 20,9 28,12 2,1 5,1 7,2 2,1 4,1 7,1 1,0 2,0 3,1l19 1z"/>
 <path class="fil0" d="M3327 14297c0,9 2,15 9,22l0 0c0,0 1,0 1,1 6,5 11,9 20,9 4,0 9,-1 12,-3 9,-4 18,-15 18,-26 0,-6 0,-9 -3,-14 -4,-8 -15,-17 -25,-17l-4 0c-13,0 -28,15 -28,28z"/>
 <path class="fil2 str1" d="M2530 14355l0 35 50 0 -4 34c0,2 -1,5 -1,7 0,4 -1,11 -2,14l-44 0 0 164 -74 0 0 -163c0,-1 0,-1 -1,-1l-28 0 0 -55 29 0c0,-15 -1,-41 1,-55 2,-11 5,-21 12,-30 3,-4 3,-4 7,-7 4,-4 12,-8 17,-10 9,-3 14,-4 23,-5l68 -1 0 55 -33 0c-14,0 -21,5 -21,18zm-327 -78l0 301c0,13 4,24 8,35 3,6 10,17 15,22l3 3c2,2 4,4 6,5 4,4 8,6 13,9 12,7 29,12 43,12l297 0c13,0 27,-4 36,-8 6,-3 9,-5 14,-8 8,-6 16,-14 22,-22 10,-15 16,-32 16,-50l0 -297c0,-10 -2,-19 -5,-28 -4,-11 -9,-19 -15,-28 -2,-2 -4,-4 -5,-6l-6 -5c-10,-9 -22,-15 -35,-18 -6,-1 -12,-3 -19,-3l-301 0c-13,0 -26,4 -35,8 -4,2 -10,5 -13,8 -5,4 -5,4 -9,7 -1,1 -2,1 -3,3 -15,15 -26,38 -26,60z"/>
 <path class="fil3" d="M2101 13592c-75,0 -135,61 -135,136 0,76 59,137 135,137 75,0 133,-61 133,-137 0,-75 -58,-136 -133,-136zm0 18c62,0 111,52 111,118 0,67 -49,119 -111,119 -64,0 -112,-52 -112,-118 0,-67 49,-120 112,-120zm59 50c-6,-5 -26,-12 -49,-12 -45,0 -85,32 -85,82 0,45 30,80 81,80 19,0 39,-4 54,-14l-5 -17c-10,7 -27,12 -45,12 -41,0 -62,-28 -62,-62 0,-35 20,-62 62,-62 21,0 37,7 43,10l5 -17z"/>
 <polygon id="1" class="fil3" points="2378,13879 2416,13879 2416,13743 2529,13743 2529,13712 2416,13712 2416,13612 2539,13612 2539,13580 2378,13580 "/>
 <path id="2" class="fil3" d="M2756 13664l-39 0 0 132c0,7 -1,14 -4,20 -7,17 -25,35 -51,35 -35,0 -48,-27 -48,-68l0 -119 -39 0 0 125c0,75 40,94 74,94 38,0 61,-23 71,-40l1 0 2 35 35 0c-1,-17 -2,-36 -2,-58l0 -156z"/>
 <path id="3" class="fil3" d="M2830 13613l0 51 -33 0 0 30 33 0 0 117c0,25 4,44 15,56 9,11 24,16 42,16 15,0 27,-2 35,-5l-2 -29c-5,1 -12,3 -23,3 -22,0 -29,-15 -29,-42l0 -116 56 0 0 -30 -56 0 0 -62 -38 10z"/>
 <path id="4" class="fil3" d="M3147 13664l-39 0 0 132c0,7 -1,14 -4,20 -7,17 -25,35 -51,35 -35,0 -48,-27 -48,-68l0 -119 -39 0 0 125c0,75 40,94 74,94 38,0 61,-23 71,-40l1 0 2 35 35 0c-1,-17 -2,-36 -2,-58l0 -156z"/>
 <path id="5" class="fil3" d="M3211 13879l39 0 0 -114c0,-7 1,-13 2,-18 5,-29 25,-50 52,-50 5,0 9,0 13,1l0 -37c-4,-1 -7,-1 -11,-1 -26,0 -50,18 -59,47l-2 0 -1 -42 -34 0c1,20 2,42 2,67l0 147z"/>
 <path id="6" class="fil3" d="M3442 13659c-59,0 -106,42 -106,114 0,68 45,110 103,110 52,0 107,-35 107,-114 0,-66 -42,-110 -103,-110zm-1 29c46,0 64,46 64,82 0,48 -28,83 -65,83 -38,0 -65,-35 -65,-82 0,-41 20,-83 66,-83z"/>
 <path id="7" class="fil3" d="M3891 13838c-15,8 -39,12 -63,12 -73,0 -115,-47 -115,-120 0,-78 46,-123 116,-123 25,0 46,5 60,12l9 -31c-10,-5 -34,-13 -71,-13 -93,0 -156,63 -156,157 0,98 63,151 147,151 36,0 65,-7 79,-14l-8 -31z"/>
 <path id="8" class="fil3" d="M4097 13879c-3,-15 -4,-33 -4,-51l0 -80c0,-43 -16,-88 -81,-88 -27,0 -53,8 -70,19l9 26c15,-10 36,-16 56,-16 44,0 49,32 49,50l0 4c-83,0 -129,28 -129,80 0,31 22,62 66,62 31,0 54,-15 66,-32l1 0 3 27 35 0zm-41 -72c0,4 -1,8 -2,12 -6,18 -24,36 -52,36 -20,0 -37,-12 -37,-37 0,-42 48,-49 91,-48l0 37z"/>
 <path id="9" class="fil3" d="M4141 13868c15,9 37,15 60,15 51,0 80,-27 80,-64 0,-32 -19,-50 -56,-65 -28,-11 -41,-19 -41,-36 0,-16 13,-29 36,-29 20,0 35,7 44,12l10 -28c-12,-7 -31,-13 -53,-13 -46,0 -74,28 -74,63 0,26 18,47 57,61 29,11 40,21 40,39 0,18 -13,32 -42,32 -19,0 -40,-8 -51,-16l-10 30z"/>
 <path id="10" class="fil3" d="M4485 13879c-3,-15 -4,-33 -4,-51l0 -80c0,-43 -16,-88 -81,-88 -27,0 -53,8 -70,19l9 26c15,-10 36,-16 56,-16 44,0 49,32 49,50l0 4c-83,0 -129,28 -129,80 0,31 22,62 66,62 31,0 54,-15 66,-32l1 0 3 27 35 0zm-41 -72c0,4 -1,8 -2,12 -6,18 -24,36 -52,36 -20,0 -37,-12 -37,-37 0,-42 48,-49 91,-48l0 37z"/>
 <path id="11" class="fil3" d="M4547 13930c12,-21 32,-70 42,-108l-43 4c-5,32 -17,80 -27,106l28 -3z"/>
 <path id="12" class="fil3" d="M4902 13879l0 -32 -129 0 0 -1 23 -21c61,-58 99,-101 99,-155 0,-41 -26,-84 -88,-84 -33,0 -62,12 -81,29l12 27c13,-11 35,-24 61,-24 43,0 57,27 57,56 0,43 -34,81 -107,151l-31 30 0 24 184 0z"/>
 <path id="13" class="fil3" d="M5041 13586c-58,0 -100,53 -100,150 1,95 39,148 95,148 64,0 100,-54 100,-152 0,-92 -35,-146 -95,-146zm-2 30c40,0 58,46 58,117 0,74 -19,120 -59,120 -35,0 -58,-43 -58,-117 0,-78 25,-120 59,-120z"/>
 <polygon id="14" class="fil3" points="5257,13879 5294,13879 5294,13591 5261,13591 5198,13624 5206,13654 5256,13627 5257,13627 "/>
 <path id="15" class="fil3" d="M5492 13883c55,0 98,-34 98,-84 0,-35 -22,-60 -58,-74l0 -1c35,-17 47,-43 47,-67 0,-36 -28,-71 -84,-71 -50,0 -89,31 -89,77 0,25 14,50 46,65l0 1c-35,15 -57,41 -57,77 0,42 36,78 97,78zm1 -28c-37,0 -59,-26 -58,-55 0,-27 18,-50 52,-59 39,11 63,28 63,63 0,30 -23,51 -58,51zm0 -241c35,0 49,24 49,47 0,26 -19,44 -44,52 -33,-9 -55,-24 -55,-53 0,-25 18,-46 50,-46z"/>
</symbol>
 <g id="Слой_x0020_1">
  <metadata id="CorelCorpID_0Corel-Layer"/>
  <path class="fil4" d="M718 2153c119,0 283,31 371,50 77,18 138,33 189,44 -68,40 -213,158 -318,272 -48,55 -81,94 -112,136 -35,0 -94,0 -119,2 -53,4 -72,11 -75,20 0,13 11,4 57,2 26,-2 72,-2 121,-2 -39,55 -79,103 -134,162 -116,127 -277,213 -439,213 -68,0 -147,-22 -149,-70 0,-15 9,-31 29,-50 15,-15 29,-31 33,-55 4,-37 -26,-68 -66,-68 -68,0 -108,55 -105,110 4,116 138,154 263,154 250,0 472,-136 654,-334 18,-20 35,-40 50,-59 75,0 149,-4 189,-15 -9,11 -29,37 -40,61 -9,18 -18,42 -9,44 4,2 9,-9 22,-24 26,-31 55,-61 101,-101 51,-46 79,-72 44,-81 -40,-9 -81,50 -101,75 -46,15 -136,20 -187,18 61,-77 105,-140 173,-224 48,-59 129,-143 173,-173 86,13 154,22 244,22 72,0 123,-24 125,-61 2,-46 -59,-68 -136,-68 -88,0 -184,31 -241,61 -75,-20 -151,-42 -224,-61 -136,-37 -281,-66 -373,-66 -274,-2 -454,125 -476,288 -15,116 42,230 171,277 22,7 39,9 42,2 2,-7 -7,-4 -29,-13 -138,-59 -162,-169 -145,-250 39,-165 219,-235 426,-235zm847 18c72,0 119,18 116,46 -2,29 -44,44 -94,44 -46,0 -132,-13 -213,-35 48,-31 121,-55 191,-55zm-233 549c-68,64 -112,116 -156,176 -20,26 -40,59 -42,90 -2,39 26,61 72,61 66,0 145,-53 235,-121 57,-44 132,-103 176,-138l2 2c-37,37 -79,79 -103,114 -20,29 -35,59 -35,90 0,33 24,53 68,53 72,0 149,-57 189,-88 53,-42 108,-88 134,-114 7,-7 24,-24 18,-29 -4,-7 -18,2 -31,15 -24,22 -61,55 -105,90 -35,29 -77,55 -99,66 -22,11 -39,15 -50,7 -9,-7 -7,-26 7,-48 15,-26 44,-66 81,-112 44,-57 77,-92 116,-140 26,-31 4,-35 -33,-35 -33,0 -46,11 -64,24 -70,55 -132,110 -237,191 -68,53 -116,88 -165,114 -22,11 -42,13 -50,4 -7,-7 -7,-22 2,-40 11,-24 46,-72 81,-119 44,-55 86,-105 114,-136 26,-29 22,-35 -24,-35 -42,0 -70,9 -127,48 -53,35 -132,101 -156,123 -24,22 -29,31 -24,35 7,4 15,-2 33,-18 22,-20 46,-40 79,-66 33,-26 79,-59 94,-66zm626 51c-64,83 -114,162 -119,217 -2,33 15,61 66,61 83,0 162,-59 202,-90 46,-35 110,-92 134,-116 15,-15 20,-22 15,-26 -7,-7 -20,7 -31,15 -26,22 -64,57 -103,88 -35,29 -72,53 -99,66 -18,9 -42,15 -55,9 -18,-9 -11,-39 2,-64 40,-77 114,-189 158,-241 50,-2 86,-2 134,-2 18,0 37,2 39,-11 2,-11 -13,-13 -31,-13 -35,0 -75,0 -125,2 44,-57 83,-105 134,-162 50,-57 108,-119 134,-143 -2,-7 -11,-13 -33,-13 -46,0 -99,50 -138,90 -50,48 -138,145 -206,228 -9,0 -33,0 -61,2 -35,2 -57,4 -59,13 -2,11 9,11 24,11 26,0 50,-2 79,-2 -42,37 -101,90 -160,143 -15,13 -20,22 -15,26 4,4 11,2 26,-11 26,-24 53,-48 88,-77zm448 -51c-68,64 -112,116 -156,176 -20,26 -40,59 -42,90 -2,39 26,61 72,61 66,0 145,-53 235,-121 57,-44 132,-103 176,-138l2 2c-37,37 -79,79 -103,114 -20,29 -35,59 -35,90 0,33 24,53 68,53 72,0 149,-57 189,-88 53,-42 108,-88 134,-114 7,-7 24,-24 18,-29 -4,-7 -18,2 -31,15 -24,22 -61,55 -105,90 -35,29 -77,55 -99,66 -22,11 -39,15 -50,7 -9,-7 -7,-26 7,-48 15,-26 44,-66 81,-112 44,-57 77,-92 116,-140 26,-31 4,-35 -33,-35 -33,0 -46,11 -64,24 -70,55 -132,110 -237,191 -68,53 -116,88 -165,114 -22,11 -42,13 -50,4 -7,-7 -7,-22 2,-40 11,-24 46,-72 81,-119 44,-55 86,-105 114,-136 26,-29 22,-35 -24,-35 -42,0 -70,9 -127,48 -53,35 -132,101 -156,123 -24,22 -29,31 -24,35 7,4 15,-2 33,-18 22,-20 46,-40 79,-66 33,-26 79,-59 94,-66zm904 -4c0,-40 -64,-42 -125,-44 -29,-2 -35,-18 -7,-48 13,-13 22,-20 37,-31 -2,-13 -22,-22 -40,-22 -35,0 -66,15 -83,37 -22,26 -20,57 0,70 -18,20 -46,48 -77,77 -40,37 -59,55 -86,79 -22,20 -29,31 -24,35 4,4 13,0 33,-18 24,-22 51,-46 88,-81 35,-33 66,-64 83,-83 11,4 29,4 50,4 55,0 97,-7 88,18 -7,15 -90,75 -143,125 -48,46 -103,108 -105,156 -2,33 22,57 68,57 72,0 149,-53 195,-88 55,-42 99,-81 125,-105 18,-18 33,-31 26,-37 -4,-4 -18,2 -33,18 -29,26 -55,48 -103,86 -35,29 -75,53 -99,66 -24,13 -40,15 -48,9 -9,-7 -9,-22 2,-42 11,-22 37,-59 75,-103 48,-57 101,-103 101,-132l0 -2zm123 99l2 2c-42,44 -68,97 -70,140 -2,64 40,97 108,97 90,0 193,-64 250,-108 13,9 39,9 59,4 22,-4 48,-15 83,-39 29,-20 50,-40 70,-57 22,-20 35,-33 29,-39 -7,-7 -18,4 -37,22 -24,22 -42,37 -70,57 -31,22 -55,33 -75,37 -9,2 -33,4 -42,0 68,-61 119,-125 125,-178 4,-33 -9,-59 -26,-77 -9,-9 -22,-18 -31,-13 -7,4 2,11 2,35 0,11 0,35 -7,51 -15,7 -46,24 -70,57 -29,37 -37,70 -40,92 -68,75 -156,134 -204,134 -24,0 -33,-15 -31,-37 4,-44 64,-129 127,-193 61,-59 105,-97 158,-121 18,-9 24,-9 24,-13 0,-9 -18,-9 -33,-9 -50,2 -119,26 -182,59 -46,24 -77,44 -105,64 -22,15 -53,40 -68,55 -9,9 -20,20 -15,26 4,4 13,0 29,-13 15,-13 24,-22 40,-35z"/>
  <path class="fil4" d="M4708 2011c-119,0 -224,81 -224,204 0,50 24,99 55,138 -182,132 -367,339 -360,532 7,162 134,228 316,221 129,-7 241,-61 331,-125 48,-33 105,-83 158,-131 11,-11 22,-24 18,-28 -7,-7 -18,2 -48,30 -26,24 -79,70 -136,109 -86,57 -189,114 -318,114 -110,0 -189,-50 -189,-177 0,-142 119,-341 285,-490 79,59 209,88 331,88 167,0 397,-66 421,-202 24,-134 -116,-173 -255,-165 -40,2 -86,11 -116,20 -59,-86 -165,-138 -270,-138zm224 463c-119,0 -241,-24 -318,-81 94,-86 226,-171 342,-215 20,26 44,77 53,121 7,31 4,42 9,44 7,2 11,-20 7,-55 -4,-40 -20,-90 -37,-121 26,-11 83,-22 116,-22 116,-2 187,44 165,145 -24,108 -176,184 -336,184zm-241 -435c92,0 184,44 252,119 -123,35 -268,103 -386,182 -29,-37 -44,-81 -44,-123 0,-110 83,-178 178,-178zm718 702c13,-37 -2,-77 -46,-83 -57,-9 -134,18 -219,61 -42,22 -79,46 -101,61 -22,15 -59,46 -66,53 -24,22 -35,35 -31,42 4,4 11,0 20,-7 13,-11 22,-20 29,-26l2 2c-40,46 -57,81 -61,114 -9,70 42,90 90,88 83,-4 184,-77 241,-127l2 2c-20,24 -33,55 -31,79 2,26 22,46 64,46 72,0 145,-53 189,-88 42,-33 94,-79 123,-105 24,-22 35,-33 29,-39 -7,-7 -18,4 -31,15 -24,22 -59,53 -105,90 -35,29 -77,57 -99,68 -18,9 -39,18 -50,9 -9,-7 -9,-24 7,-50 20,-35 48,-72 77,-108 46,-57 94,-112 123,-145 22,-26 18,-37 -29,-35 -35,0 -72,29 -125,83zm-55 -61c24,0 42,11 39,39 -2,35 -81,130 -151,191 -59,55 -143,103 -184,103 -15,0 -26,-7 -29,-22 -4,-29 33,-86 123,-173 79,-79 158,-138 202,-138zm518 307c26,-18 57,-59 70,-90 26,-61 22,-119 20,-180 0,-24 -2,-42 15,-59 11,-11 33,-20 53,-33 29,-18 61,-46 11,-46 -15,0 -40,7 -64,24 -15,11 -31,29 -35,37 -50,44 -90,77 -129,105 -35,26 -70,48 -92,61 -11,7 -13,11 -11,18 4,7 13,2 22,-2 18,-9 53,-31 83,-53 37,-26 83,-61 105,-83l0 2c-24,29 -64,160 -103,224 -48,83 -103,119 -147,119 -40,0 -66,-20 -64,-55 2,-31 31,-55 50,-66 29,-15 44,-33 48,-55 4,-24 -11,-46 -42,-48 -53,-2 -103,50 -112,114 -9,61 15,132 132,132 66,0 145,-22 184,-39 42,-18 90,-42 138,-75 48,-33 90,-68 112,-88 20,-18 29,-31 24,-35 -7,-7 -18,4 -29,13 -37,33 -83,72 -145,110 -35,22 -72,39 -97,48zm669 -246c13,-37 -2,-77 -46,-83 -57,-9 -134,18 -219,61 -42,22 -79,46 -101,61 -22,15 -59,46 -66,53 -24,22 -35,35 -31,42 4,4 11,0 20,-7 13,-11 22,-20 29,-26l2 2c-40,46 -57,81 -61,114 -9,70 42,90 90,88 83,-4 184,-77 241,-127l2 2c-20,24 -33,55 -31,79 2,26 22,46 64,46 72,0 145,-53 189,-88 42,-33 94,-79 123,-105 24,-22 35,-33 29,-39 -7,-7 -18,4 -31,15 -24,22 -59,53 -105,90 -35,29 -77,57 -99,68 -18,9 -39,18 -50,9 -9,-7 -9,-24 7,-50 20,-35 48,-72 77,-108 46,-57 94,-112 123,-145 22,-26 18,-37 -29,-35 -35,0 -72,29 -125,83zm-55 -61c24,0 42,11 39,39 -2,35 -81,130 -151,191 -59,55 -143,103 -184,103 -15,0 -26,-7 -29,-22 -4,-29 33,-86 123,-173 79,-79 158,-138 202,-138z"/>
  <g id="_693099072">
   <path class="fil2 str2" d="M3280 11c651,0 1178,528 1178,1178 0,651 -528,1178 -1178,1178 -651,0 -1178,-528 -1178,-1178 0,-651 528,-1178 1178,-1178z"/>
   <polygon class="fil2 str2" points="2271,210 4291,210 4291,2230 2271,2230 "/>
   <g>
    <path class="fil4" d="M2486 1903c-2,0 -3,-8 -3,-17 0,-9 1,-17 3,-17l0 34zm676 0l-676 0 0 -34 676 0 0 34zm0 -34c2,0 3,8 3,17 0,9 -1,17 -3,17l0 -34z"/>
   </g>
   <g>
    <path class="fil4" d="M3413 1903c-2,0 -3,-8 -3,-17 0,-9 1,-17 3,-17l0 34zm663 0l-663 0 0 -34 663 0 0 34zm0 -34c2,0 3,8 3,17 0,9 -1,17 -3,17l0 -34z"/>
   </g>
   <path class="fil5" d="M3408 1892l-4 4c-2,-2 -3,-2 -5,-3 -2,0 -4,1 -7,2l-3 1c-6,3 -12,4 -17,2 3,4 4,8 4,12 0,4 -2,7 -5,10 -4,4 -9,6 -14,5 -6,0 -11,-3 -15,-8 -7,-7 -9,-15 -7,-25l6 1c0,5 1,9 4,12 2,2 5,3 8,3 3,0 5,-1 7,-3 2,-2 3,-4 3,-6 0,-2 -1,-4 -2,-6 -3,-3 -9,-5 -19,-6l-5 -1c-3,0 -5,-1 -7,-1 0,1 0,2 0,3 0,7 -2,13 -7,18 -5,5 -10,8 -16,8 -4,0 -8,-1 -11,-4 -3,-3 -5,-6 -5,-10 0,-5 3,-9 8,-14 0,1 0,2 0,3 0,4 1,8 4,12 3,3 6,5 10,5 2,0 4,-1 6,-3 2,-2 3,-4 3,-6 0,-5 -4,-12 -13,-22 -2,-1 -4,-3 -6,-5 -2,-2 -4,-4 -5,-6l-6 -6c-4,5 -7,12 -9,21 -3,9 -4,17 -4,24 0,12 4,22 11,30 7,8 16,12 27,12 2,0 5,0 7,-1 -2,12 -7,17 -15,17 -10,0 -19,-5 -27,-16 -8,-11 -11,-23 -11,-38 0,-8 3,-19 8,-33l-1 1 -5 5c-6,6 -11,12 -15,19 -4,7 -6,12 -6,16 0,3 1,6 3,8 2,2 4,3 7,3 1,0 1,0 2,0 -3,8 -7,11 -11,11 -3,0 -6,-2 -8,-5 -2,-3 -3,-7 -3,-12 0,-1 0,-2 0,-3 -4,4 -9,7 -15,7 -6,0 -10,-1 -14,-5 -3,-3 -4,-6 -5,-10 0,-4 1,-8 4,-12 -5,2 -11,2 -17,-2l-3 -1c-3,-2 -6,-2 -7,-2 -2,0 -3,1 -5,3l-4 -4 9 -9c7,-7 14,-12 19,-14 5,-2 11,-2 17,1 -1,-3 -1,-6 0,-9 1,-3 2,-5 4,-7 3,-3 7,-5 12,-4 5,0 9,2 12,5 3,3 5,7 8,13l-6 2c-1,-2 -2,-4 -3,-5 -2,-2 -4,-3 -5,-3 -2,0 -3,1 -5,2 -2,2 -2,4 -2,6 0,2 1,4 3,6 4,4 9,5 16,4 7,-1 12,-4 17,-8 5,-5 7,-11 8,-18 0,-7 -2,-12 -7,-17 -5,-5 -10,-7 -16,-7 -6,0 -11,2 -16,6l-4 -4 1 -1c8,-8 16,-12 25,-13 6,-1 11,0 15,3 1,-2 2,-4 3,-5 3,-4 7,-6 11,-6 4,0 8,2 11,5 2,3 3,6 4,9 6,-5 13,-7 21,-6 9,1 17,5 25,13l1 1 -4 4c-5,-4 -10,-7 -16,-6 -6,0 -11,3 -16,7 -5,5 -7,10 -7,17l0 0c9,9 14,16 17,20 1,1 2,3 2,4 2,0 3,1 5,1 7,1 12,-1 16,-4 2,-2 3,-4 3,-6 0,-2 -1,-4 -2,-6 -2,-2 -3,-3 -5,-2 -2,0 -4,1 -5,3 -1,1 -2,3 -3,5l-6 -2c2,-6 5,-10 8,-13 3,-3 8,-5 12,-5 5,0 9,1 12,4 2,2 3,4 4,7 1,3 1,6 0,9 6,-2 11,-3 17,-1 5,2 12,7 19,14l9 9zm-147 -8c-5,2 -10,3 -16,4l-5 1c-9,1 -16,3 -19,6 -2,2 -2,4 -2,6 0,2 1,4 3,6 2,2 4,3 7,3 3,0 5,-1 8,-3 3,-3 4,-6 4,-12l6 -1c1,3 1,5 1,8 3,-5 8,-11 14,-17zm30 -45c1,-4 3,-7 5,-10 0,-4 -1,-7 -2,-9 -1,-2 -3,-3 -5,-3 -2,0 -3,1 -4,2 -1,1 -1,3 -1,5 0,4 2,9 7,14zm-67 42c-5,3 -12,4 -22,1l-2 -1c-4,-1 -8,-1 -11,0 11,-11 23,-11 35,-1zm130 0c5,3 12,4 22,1l2 -1c4,-1 8,-1 11,0 -11,-11 -23,-11 -35,-1z"/>
   <path class="fil4 str3" d="M3005 652c-36,0 -71,3 -105,9 -34,6 -64,16 -90,29 -26,13 -49,31 -67,52 -19,21 -31,46 -39,75 -3,14 -4,30 -3,46 1,16 5,32 13,48 8,16 19,31 33,46 14,14 34,27 59,37 8,3 14,5 17,5 3,1 4,2 3,4 -1,2 -4,3 -9,2 -5,-1 -12,-2 -20,-4 -46,-17 -80,-43 -99,-79 -20,-36 -27,-75 -22,-116 4,-29 15,-56 32,-81 17,-25 40,-46 69,-64 29,-18 63,-32 103,-43 40,-10 84,-16 132,-16 33,0 73,4 120,13 47,9 95,20 143,33 26,7 52,14 78,22 26,7 53,14 80,22 21,-11 46,-21 77,-30 31,-9 62,-13 93,-13 27,0 50,4 69,12 19,8 28,20 27,36 -1,13 -10,24 -26,32 -16,8 -37,12 -63,12 -32,0 -61,-1 -88,-4 -26,-3 -54,-6 -84,-12 -8,5 -18,13 -28,22 -10,10 -21,20 -33,32 -11,11 -22,23 -33,35 -11,12 -20,23 -29,33 -24,30 -45,57 -63,81 -18,24 -38,50 -60,77 9,0 20,0 31,0 11,0 23,-1 36,-2 12,-1 24,-2 36,-4 11,-2 21,-4 29,-7 3,-4 7,-10 13,-16 6,-7 12,-13 18,-19 6,-6 13,-10 19,-14 7,-4 14,-5 21,-4 12,3 15,9 7,19 -8,9 -20,22 -38,39 -17,14 -30,27 -41,38 -11,11 -21,22 -30,33 -5,5 -9,10 -10,13 -2,4 -3,5 -5,4 -3,-1 -4,-5 -2,-12 2,-7 5,-13 8,-19 4,-8 9,-17 15,-25 6,-8 10,-14 13,-19 -14,4 -34,7 -57,9 -24,2 -49,2 -76,2 -5,7 -11,14 -17,21 -6,7 -12,14 -19,21 -65,70 -136,127 -213,170 -77,43 -160,65 -249,65 -22,0 -44,-2 -66,-6 -22,-4 -42,-10 -60,-19 -18,-9 -32,-20 -43,-34 -11,-14 -17,-31 -18,-52 -1,-20 5,-37 19,-53 13,-16 32,-24 56,-24 14,0 26,5 36,14 9,9 13,21 11,34 -2,8 -5,15 -9,22 -4,6 -9,12 -14,17 -13,13 -20,25 -20,36 0,8 3,15 10,22 7,6 15,11 25,15 10,4 21,7 33,9 12,2 25,3 37,3 58,0 114,-14 167,-41 54,-27 101,-64 143,-109 20,-20 37,-40 51,-58 14,-18 29,-37 43,-56 -18,0 -34,0 -49,0 -15,0 -27,1 -36,2 -17,1 -27,2 -33,4 -5,2 -8,0 -8,-5 1,-3 5,-6 13,-8 8,-2 21,-4 40,-6 8,-1 21,-2 39,-2 18,0 33,0 45,0 11,-14 23,-29 35,-44 12,-15 27,-32 44,-52 19,-20 38,-40 60,-60 21,-20 42,-39 63,-56 21,-17 40,-32 57,-46 18,-13 33,-24 45,-31 -18,-4 -37,-9 -60,-14 -22,-5 -47,-11 -74,-17 -16,-3 -34,-7 -55,-11 -21,-4 -44,-8 -67,-12 -24,-4 -48,-7 -72,-9 -24,-3 -47,-4 -67,-4zm598 14c-25,0 -49,3 -73,10 -24,7 -44,16 -62,27 29,8 57,13 84,17 27,4 49,6 66,6 18,0 33,-3 46,-7 13,-5 20,-12 21,-22 1,-10 -6,-18 -21,-23 -15,-5 -35,-8 -61,-8z"/>
   <path class="fil4 str3" d="M3576 948c40,0 78,9 115,28 37,19 66,44 89,76 12,-3 26,-6 41,-9 15,-3 31,-5 46,-6 26,-1 52,0 77,2 25,3 47,9 65,19 19,10 33,23 42,40 9,17 12,38 7,63 -4,25 -18,48 -40,67 -22,19 -48,35 -79,48 -30,13 -63,22 -99,28 -36,6 -69,9 -100,9 -46,0 -92,-6 -137,-17 -45,-11 -83,-28 -113,-50 -32,29 -61,59 -87,91 -26,32 -49,64 -68,97 -19,33 -34,65 -45,96 -10,31 -16,60 -16,87 0,49 13,83 40,103 26,20 61,31 103,31 50,0 94,-9 133,-26 39,-18 75,-38 107,-60 22,-15 42,-31 60,-46 18,-15 32,-28 42,-36 12,-11 21,-18 26,-22 5,-3 9,-4 11,-2 2,2 2,5 -2,9 -3,4 -7,8 -12,12 -20,19 -40,37 -60,55 -20,18 -40,33 -59,45 -34,24 -72,45 -113,64 -41,18 -87,28 -136,31 -68,2 -125,-10 -169,-36 -44,-26 -67,-70 -69,-132 -1,-36 6,-73 21,-110 15,-37 35,-73 61,-108 26,-35 55,-68 89,-99 33,-31 67,-59 101,-84 -12,-15 -22,-32 -30,-50 -8,-18 -12,-36 -12,-55 0,-23 5,-44 14,-63 9,-19 22,-35 37,-49 15,-14 33,-24 54,-31 20,-7 42,-11 64,-11zm169 349c30,0 59,-3 88,-10 29,-7 55,-16 78,-29 23,-13 42,-28 58,-45 15,-17 25,-36 30,-55 9,-39 1,-67 -22,-84 -24,-18 -58,-26 -102,-25 -12,0 -27,2 -45,5 -18,3 -32,7 -42,12 7,12 12,26 17,43 5,17 9,33 11,48 2,13 2,24 1,31 -2,8 -4,11 -6,10 -2,-1 -3,-4 -3,-8 0,-4 -1,-13 -3,-25 -3,-17 -9,-33 -17,-50 -8,-17 -15,-31 -23,-41 -44,17 -89,40 -136,69 -46,30 -87,61 -122,93 29,22 65,38 108,47 43,9 87,14 132,14zm-182 -328c-35,0 -66,12 -93,36 -27,24 -41,57 -41,98 0,33 11,64 33,93 45,-30 93,-57 145,-81 51,-24 100,-43 146,-56 -25,-29 -55,-51 -88,-66 -33,-15 -67,-23 -103,-23z"/>
  </g>
 </g>
</svg>
