<?xml version="1.0" encoding="UTF-8"?>
<!DOCTYPE svg PUBLIC "-//W3C//DTD SVG 1.1//EN" "http://www.w3.org/Graphics/SVG/1.1/DTD/svg11.dtd">
<!-- Creator: CorelDRAW 2017 -->
<svg xmlns="http://www.w3.org/2000/svg" xml:space="preserve" width="7.6876mm" height="10.8802mm" version="1.1" style="shape-rendering:geometricPrecision; text-rendering:geometricPrecision; image-rendering:optimizeQuality; fill-rule:evenodd; clip-rule:evenodd"
viewBox="0 0 37 52"
 xmlns:xlink="http://www.w3.org/1999/xlink">
 <defs>
  <style type="text/css">
   <![CDATA[
    .str0 {stroke:#4A4A4A;stroke-width:2.4068;stroke-opacity:0.701961}
    .str1 {stroke:#949494;stroke-width:2.4068}
    .fil2 {fill:none}
    .fil1 {fill:none}
    .fil5 {fill:#D7B56D;fill-rule:nonzero}
    .fil4 {fill:#3E3029;fill-rule:nonzero}
    .fil3 {fill:#7F7D7A;fill-rule:nonzero}
    .fil0 {fill:#4A4A4A;fill-opacity:0.701961}
   ]]>
  </style>
 </defs>
<symbol id="Footer" viewBox="287 -194 195 60">
 <path class="fil0" d="M439 -153l1 1c0,0 0,0 1,1l2 2c2,2 3,3 5,5 1,1 1,1 3,1 1,0 1,-1 2,-1l4 -4c0,0 0,0 0,0l2 -2c0,0 0,0 0,0l1 -1c0,0 0,0 1,-1 0,0 0,0 0,0l0 13c0,0 -5,0 -5,0l-14 0c0,0 -1,0 -1,0l0 -12c0,0 0,0 0,0zm9 5c0,0 0,0 0,0l-1 -1c0,0 -1,-1 -1,-1l-6 -5 18 0c0,0 0,0 -1,1 0,0 -1,1 -1,1l-3 3c0,0 0,0 0,0 0,0 0,0 0,0 0,0 0,0 0,0l-1 1c0,0 0,0 0,0 0,0 0,0 0,0 0,0 -1,1 -1,1l-1 -1zm-10 -11c-1,0 -2,0 -2,1 -1,1 -1,1 -1,2l0 12c0,1 0,2 0,3 0,1 0,2 1,2 1,1 1,1 2,1l19 0c1,0 2,0 3,-1 0,0 0,-1 1,-1 0,0 0,-1 0,-1l0 -12c0,-1 0,-2 0,-3 0,-1 0,-2 -1,-2 -1,-1 -1,-1 -2,-1l-19 0c0,0 -1,0 -1,0z"/>
 <path class="fil0" d="M439 -153c0,0 0,0 0,0l0 12c0,0 1,0 1,0l14 0c0,0 5,0 5,0l0 -13c0,0 0,0 0,0 0,0 0,0 0,0 0,0 0,0 0,0 0,4 0,8 0,12l-21 0 0 -12c0,0 0,0 0,0z"/>
 <path class="fil1 str0" d="M396 -157c0,0 1,0 1,0 1,1 1,2 1,3 0,1 0,4 0,5 -1,1 -2,0 -2,-1 0,0 0,-1 -1,-1 -1,-1 -2,-4 -3,-5 0,-1 0,-1 -1,-2 -1,0 -4,0 -5,0 -2,0 -1,1 0,3 1,1 1,2 2,4 1,2 3,5 4,7 2,2 2,2 4,4 0,0 1,1 2,1 1,1 3,1 4,1 1,0 2,0 3,0 2,0 0,-2 2,-4 2,-2 3,2 6,4 1,0 1,0 2,0 4,0 8,1 5,-4 -1,-2 -3,-3 -4,-4 -1,-1 0,-2 1,-4 1,-2 4,-5 4,-7 1,-2 -1,-2 -3,-2l-4 0c-1,0 -1,1 -1,1 -1,2 -2,4 -3,6 0,0 -1,1 -1,1 -2,0 -1,-3 -1,-4 0,-1 0,-4 0,-5 -1,-1 -6,-1 -7,-1 -1,0 -2,1 -2,1z"/>
 <path class="fil0" d="M358 -137l-6 0c-1,0 -1,0 -2,0 -1,0 -2,0 -3,0 0,0 0,0 0,0 -1,0 -1,-1 -2,-1 0,0 -1,-1 -1,-1 0,0 0,0 0,-1 0,0 0,0 0,0l0 -1c0,0 0,0 0,0l0 -1c0,0 0,0 0,0 0,0 0,0 0,0 0,0 0,0 0,0 0,0 0,-1 0,-1 0,-1 0,-6 0,-7 0,0 0,0 0,0 0,0 0,-1 0,-1 0,0 0,-1 0,-1 0,0 0,0 0,0 0,-1 0,-1 1,-2 0,0 0,0 0,0 0,0 0,-1 1,-1 0,0 1,-1 2,-1 0,0 1,0 1,0l1 0c1,0 1,0 2,0 0,0 1,0 1,0 0,0 0,0 0,0l6 0c0,0 1,0 1,0l2 0 1 0c1,0 1,0 2,1l0 0c0,0 0,0 1,0 0,0 1,1 1,1 0,0 0,1 0,1 0,1 0,1 0,2 0,0 0,0 0,0l0 1 0 7c0,1 0,1 0,1 0,0 0,0 0,0 0,0 0,0 0,0l0 1c0,0 0,1 0,1 0,0 0,0 0,0 0,0 0,1 -1,1 0,0 0,0 -1,0l0 0c0,0 0,0 0,0l-1 0c0,0 -1,0 -2,0 0,0 -1,0 -1,0 0,0 0,0 0,0 0,0 0,0 0,0 0,0 0,0 0,0 0,0 0,0 0,0l-1 0c0,0 0,0 -1,0zm-16 -14l0 7c0,0 0,1 0,1l0 1c0,1 0,1 0,2 0,1 1,2 1,3l1 1 1 0c0,0 0,0 0,0 1,0 1,1 2,1 0,0 0,0 0,0 0,0 0,0 0,0 0,0 0,0 0,0 0,0 1,0 1,0 0,0 0,0 0,0 0,0 0,0 0,0 1,0 2,0 3,0l4 0c0,0 1,0 1,0 0,0 1,0 1,0 0,0 1,0 1,0 0,0 0,0 0,0 0,0 1,0 1,0 0,0 0,0 1,0l0 0c0,0 0,0 0,0 1,0 2,-1 2,-1 0,0 0,0 0,0 0,0 1,-1 1,-1 0,0 1,-1 1,-2 0,0 0,0 0,0l0 -1c0,-1 0,-2 0,-2 0,0 0,0 0,0l0 -4c0,-1 0,-2 0,-3 0,0 0,0 0,-1 0,0 0,-1 0,-1 0,0 0,-2 0,-2 0,0 0,-1 0,-1l0 0c0,0 0,-1 0,-1 0,0 -1,-1 -1,-1 0,0 0,0 -1,-1 0,0 0,0 0,0l0 0c0,0 0,0 0,0 0,0 0,0 -1,0 0,0 0,0 0,0l-2 -1c0,0 -1,0 -1,0 -1,0 -1,0 -2,0 0,0 0,0 -1,0 0,0 -1,0 -1,0 0,0 0,0 -1,0 -1,0 -7,0 -7,0 0,0 -1,0 -1,0 0,0 0,0 -1,0l-1 0c0,0 -1,0 -1,0 0,0 -1,0 -1,0l-1 0c-1,0 -1,0 -1,1 0,0 -1,1 -1,1l0 0c-1,1 -1,1 -1,2 0,1 0,1 0,2 0,0 0,0 0,1 0,0 0,0 0,1 0,0 0,1 0,1z"/>
 <path class="fil0" d="M355 -144c0,0 -1,0 -1,0 -1,0 -1,-1 -2,-1 0,0 0,0 0,0l0 0c0,0 0,0 0,0l0 -1c0,0 0,0 0,0 0,-1 0,-2 0,-2 0,0 0,-1 1,-1 0,0 1,-1 1,-1 0,0 0,0 0,0 1,0 2,-1 3,0 0,0 1,0 1,0 0,0 0,0 1,0 0,0 1,1 1,1 0,0 1,1 1,1 0,0 0,1 0,1 0,1 0,1 0,2l0 0c0,0 0,1 -1,1 0,0 0,0 0,0 -1,1 -1,1 -2,2 0,0 -1,0 -1,0zm0 2c1,0 1,0 2,0 0,0 0,0 0,0 1,0 1,-1 2,-1l1 -1 0 -1c0,0 0,0 0,0l0 0c1,-1 1,-2 1,-3 0,-1 0,-1 0,-1 0,0 0,0 0,0 0,0 0,-1 0,-1 0,0 0,0 0,0 0,-1 -1,-2 -2,-2 -1,-1 -2,-1 -3,-2 0,0 0,0 0,0 0,0 -1,0 -1,0l-1 0 -1 0c0,0 -1,0 -1,0l0 0c-1,0 -1,1 -2,1l0 0c0,0 0,0 0,0 0,0 -1,1 -1,1 0,0 0,1 0,1 0,0 0,0 0,1 0,0 0,0 0,0 0,0 0,0 0,0 0,1 0,1 0,2 0,0 0,1 0,1 0,0 0,0 0,0 0,0 0,0 0,0 0,1 0,1 1,1 0,0 1,1 1,1l0 0c0,0 1,0 1,1 0,0 0,0 0,0 0,0 0,0 0,0 0,0 0,0 0,0l1 0z"/>
 <path class="fil0" d="M360 -155c0,1 0,1 0,1l0 0c0,0 0,0 0,0 0,0 1,0 1,0 0,0 0,0 1,0 0,0 1,-1 1,-1 0,0 0,0 0,-1 0,0 -1,-1 -1,-1l0 0c-1,0 -2,1 -2,2z"/>
 <path class="fil2 str1" d="M317 -152l0 2 3 0 0 2c0,0 0,0 0,0 0,0 0,1 0,1l-2 0 0 9 -4 0 0 -9c0,0 0,0 0,0l-1 0 0 -3 2 0c0,-1 0,-2 0,-3 0,-1 0,-1 1,-2 0,0 0,0 0,0 0,0 1,0 1,-1 0,0 1,0 1,0l4 0 0 3 -2 0c-1,0 -1,0 -1,1zm-18 -4l0 16c0,1 0,1 0,2 0,0 1,1 1,1l0 0c0,0 0,0 0,0 0,0 0,0 1,0 1,0 2,1 2,1l16 0c1,0 1,0 2,0 0,0 0,0 1,0 0,0 1,-1 1,-1 1,-1 1,-2 1,-3l0 -16c0,-1 0,-1 0,-1 0,-1 0,-1 -1,-1 0,0 0,0 0,0l0 0c-1,0 -1,-1 -2,-1 0,0 -1,0 -1,0l-16 0c-1,0 -1,0 -2,0 0,0 -1,0 -1,0 0,0 0,0 0,0 0,0 0,0 0,0 -1,1 -1,2 -1,3z"/>
 <path class="fil3" d="M294 -193c-4,0 -7,3 -7,7 0,4 3,7 7,7 4,0 7,-3 7,-7 0,-4 -3,-7 -7,-7zm0 1c3,0 6,3 6,6 0,4 -3,6 -6,6 -3,0 -6,-3 -6,-6 0,-4 3,-6 6,-6zm3 3c0,0 -1,-1 -3,-1 -2,0 -5,2 -5,4 0,2 2,4 4,4 1,0 2,0 3,-1l0 -1c-1,0 -1,1 -2,1 -2,0 -3,-1 -3,-3 0,-2 1,-3 3,-3 1,0 2,0 2,1l0 -1z"/>
 <polygon id="1" class="fil3" points="309,-178 311,-178 311,-185 317,-185 317,-187 311,-187 311,-192 318,-192 318,-194 309,-194 "/>
 <path id="2" class="fil3" d="M329 -189l-2 0 0 7c0,0 0,1 0,1 0,1 -1,2 -3,2 -2,0 -3,-1 -3,-4l0 -6 -2 0 0 7c0,4 2,5 4,5 2,0 3,-1 4,-2l0 0 0 2 2 0c0,-1 0,-2 0,-3l0 -8z"/>
 <path id="3" class="fil3" d="M333 -192l0 3 -2 0 0 2 2 0 0 6c0,1 0,2 1,3 0,1 1,1 2,1 1,0 1,0 2,0l0 -2c0,0 -1,0 -1,0 -1,0 -2,-1 -2,-2l0 -6 3 0 0 -2 -3 0 0 -3 -2 1z"/>
 <path id="4" class="fil3" d="M350 -189l-2 0 0 7c0,0 0,1 0,1 0,1 -1,2 -3,2 -2,0 -3,-1 -3,-4l0 -6 -2 0 0 7c0,4 2,5 4,5 2,0 3,-1 4,-2l0 0 0 2 2 0c0,-1 0,-2 0,-3l0 -8z"/>
 <path id="5" class="fil3" d="M354 -178l2 0 0 -6c0,0 0,-1 0,-1 0,-2 1,-3 3,-3 0,0 0,0 1,0l0 -2c0,0 0,0 -1,0 -1,0 -3,1 -3,3l0 0 0 -2 -2 0c0,1 0,2 0,4l0 8z"/>
 <path id="6" class="fil3" d="M366 -190c-3,0 -6,2 -6,6 0,4 2,6 6,6 3,0 6,-2 6,-6 0,-4 -2,-6 -6,-6zm0 2c2,0 3,2 3,4 0,3 -1,4 -3,4 -2,0 -3,-2 -3,-4 0,-2 1,-4 4,-4z"/>
 <path id="7" class="fil3" d="M390 -180c-1,0 -2,1 -3,1 -4,0 -6,-3 -6,-6 0,-4 2,-7 6,-7 1,0 2,0 3,1l0 -2c-1,0 -2,-1 -4,-1 -5,0 -8,3 -8,8 0,5 3,8 8,8 2,0 3,0 4,-1l0 -2z"/>
 <path id="8" class="fil3" d="M401 -178c0,-1 0,-2 0,-3l0 -4c0,-2 -1,-5 -4,-5 -1,0 -3,0 -4,1l0 1c1,-1 2,-1 3,-1 2,0 3,2 3,3l0 0c-4,0 -7,1 -7,4 0,2 1,3 4,3 2,0 3,-1 4,-2l0 0 0 1 2 0zm-2 -4c0,0 0,0 0,1 0,1 -1,2 -3,2 -1,0 -2,-1 -2,-2 0,-2 3,-3 5,-3l0 2z"/>
 <path id="9" class="fil3" d="M404 -178c1,0 2,1 3,1 3,0 4,-1 4,-3 0,-2 -1,-3 -3,-3 -1,-1 -2,-1 -2,-2 0,-1 1,-2 2,-2 1,0 2,0 2,1l1 -2c-1,0 -2,-1 -3,-1 -2,0 -4,2 -4,3 0,1 1,3 3,3 2,1 2,1 2,2 0,1 -1,2 -2,2 -1,0 -2,0 -3,-1l-1 2z"/>
 <path id="10" class="fil3" d="M422 -178c0,-1 0,-2 0,-3l0 -4c0,-2 -1,-5 -4,-5 -1,0 -3,0 -4,1l0 1c1,-1 2,-1 3,-1 2,0 3,2 3,3l0 0c-4,0 -7,1 -7,4 0,2 1,3 4,3 2,0 3,-1 4,-2l0 0 0 1 2 0zm-2 -4c0,0 0,0 0,1 0,1 -1,2 -3,2 -1,0 -2,-1 -2,-2 0,-2 3,-3 5,-3l0 2z"/>
 <path id="11" class="fil3" d="M426 -175c1,-1 2,-4 2,-6l-2 0c0,2 -1,4 -1,6l1 0z"/>
 <path id="12" class="fil3" d="M445 -178l0 -2 -7 0 0 0 1 -1c3,-3 5,-5 5,-8 0,-2 -1,-4 -5,-4 -2,0 -3,1 -4,2l1 1c1,-1 2,-1 3,-1 2,0 3,1 3,3 0,2 -2,4 -6,8l-2 2 0 1 10 0z"/>
 <path id="13" class="fil3" d="M452 -194c-3,0 -5,3 -5,8 0,5 2,8 5,8 3,0 5,-3 5,-8 0,-5 -2,-8 -5,-8zm0 2c2,0 3,2 3,6 0,4 -1,6 -3,6 -2,0 -3,-2 -3,-6 0,-4 1,-6 3,-6z"/>
 <polygon id="14" class="fil3" points="464,-178 466,-178 466,-193 464,-193 461,-192 461,-190 464,-191 464,-191 "/>
 <path id="15" class="fil3" d="M476 -178c3,0 5,-2 5,-4 0,-2 -1,-3 -3,-4l0 0c2,-1 3,-2 3,-4 0,-2 -1,-4 -4,-4 -3,0 -5,2 -5,4 0,1 1,3 2,3l0 0c-2,1 -3,2 -3,4 0,2 2,4 5,4zm0 -2c-2,0 -3,-1 -3,-3 0,-1 1,-3 3,-3 2,1 3,1 3,3 0,2 -1,3 -3,3zm0 -13c2,0 3,1 3,3 0,1 -1,2 -2,3 -2,0 -3,-1 -3,-3 0,-1 1,-2 3,-2z"/>
</symbol>
 <g id="Слой_x0020_1">
  <metadata id="CorelCorpID_0Corel-Layer"/>
  <g id="_682473976">
   <path class="fil4" d="M0 18c0,3 1,7 3,10l15 24c0,0 1,1 1,1 1,0 1,0 1,-1l14 -24c2,-3 3,-6 3,-9 0,-24 -37,-24 -37,0z"/>
   <path class="fil5" d="M13 9c-1,0 -1,0 -2,0 -1,0 -1,0 -2,1 -1,0 -1,1 -1,1 0,0 -1,1 -1,2 0,0 0,1 0,1 0,0 0,1 0,1 0,0 0,1 1,1 0,0 1,1 1,1 0,0 0,0 0,0 0,0 0,0 0,0 0,0 0,0 0,0 0,0 0,0 0,0 -1,0 -2,-1 -2,-2 0,-1 -1,-2 0,-2 0,-1 0,-1 1,-2 0,0 1,-1 1,-1 1,0 1,-1 2,-1 1,0 2,0 3,0 1,0 1,0 2,0 1,0 2,0 3,1 1,0 1,0 2,0 1,0 1,0 2,0 0,0 1,0 2,-1 1,0 1,0 2,0 1,0 1,0 1,0 0,0 1,0 1,1 0,0 0,0 -1,1 0,0 -1,0 -1,0 -1,0 -1,0 -2,0 -1,0 -1,0 -2,0 0,0 0,0 -1,0 0,0 0,0 -1,1 0,0 0,0 -1,1 0,0 0,0 -1,1 0,1 -1,1 -1,2 0,0 -1,1 -1,2 0,0 0,0 1,0 0,0 0,0 1,0 0,0 0,0 1,0 0,0 0,0 1,0 0,0 0,0 0,0 0,0 0,0 0,0 0,0 0,0 0,0 0,0 0,0 0,0 0,0 0,0 0,0 0,0 0,0 -1,1 0,0 -1,1 -1,1 0,0 0,0 -1,1 0,0 0,0 0,0 0,0 0,0 0,0 0,0 0,0 0,0 0,0 0,0 0,0 0,0 0,0 0,0 0,0 0,0 0,0 0,0 -1,0 -1,0 0,0 -1,0 -2,0 0,0 0,0 0,0 0,0 0,0 0,0 -1,1 -3,3 -4,3 -2,1 -3,1 -5,1 0,0 -1,0 -1,0 0,0 -1,0 -1,0 0,0 -1,0 -1,-1 0,0 0,-1 0,-1 0,0 0,-1 0,-1 0,0 1,0 1,0 0,0 1,0 1,0 0,0 0,0 0,1 0,0 0,0 0,0 0,0 0,0 0,0 0,0 0,1 0,1 0,0 0,0 0,0 0,0 0,0 0,0 0,0 0,0 1,0 0,0 0,0 1,0 1,0 2,0 3,-1 1,-1 2,-1 3,-2 0,0 1,-1 1,-1 0,0 1,-1 1,-1 0,0 -1,0 -1,0 0,0 -1,0 -1,0 0,0 -1,0 -1,0 0,0 0,0 0,0 0,0 0,0 0,0 0,0 0,0 1,0 0,0 0,0 1,0 0,0 1,0 1,0 0,0 0,-1 1,-1 0,0 1,-1 1,-1 0,0 1,-1 1,-1 0,0 1,-1 1,-1 0,0 1,-1 1,-1 0,0 1,0 1,-1 0,0 -1,0 -1,0 0,0 -1,0 -1,0 0,0 -1,0 -1,0 0,0 -1,0 -1,0 0,0 -1,0 -1,0 0,0 -1,0 -1,0zm12 0c0,0 -1,0 -1,0 0,0 -1,0 -1,1 1,0 1,0 2,0 1,0 1,0 1,0 0,0 1,0 1,0 0,0 0,0 0,0 0,0 0,0 0,0 0,0 -1,0 -1,0z"/>
   <path class="fil5" d="M24 15c1,0 2,0 2,1 1,0 1,1 2,2 0,0 1,0 1,0 0,0 1,0 1,0 1,0 1,0 2,0 0,0 1,0 1,0 0,0 1,0 1,1 0,0 0,1 0,1 0,1 0,1 -1,1 0,0 -1,1 -2,1 -1,0 -1,0 -2,1 -1,0 -1,0 -2,0 -1,0 -2,0 -3,0 -1,0 -2,-1 -2,-1 -1,1 -1,1 -2,2 -1,1 -1,1 -1,2 0,1 -1,1 -1,2 0,1 0,1 0,2 0,1 0,2 1,2 1,0 1,1 2,1 1,0 2,0 3,-1 1,0 2,-1 2,-1 0,0 1,-1 1,-1 0,0 1,-1 1,-1 0,0 0,0 1,0 0,0 0,0 0,0 0,0 0,0 0,0 0,0 0,0 0,0 0,0 -1,1 -1,1 0,0 -1,1 -1,1 -1,0 -1,1 -2,1 -1,0 -2,1 -3,1 -1,0 -3,0 -3,-1 -1,-1 -1,-1 -1,-3 0,-1 0,-1 0,-2 0,-1 1,-1 1,-2 1,-1 1,-1 2,-2 1,-1 1,-1 2,-2 0,0 0,-1 -1,-1 0,0 0,-1 0,-1 0,0 0,-1 0,-1 0,0 0,-1 1,-1 0,0 1,0 1,-1 0,0 1,0 1,0zm3 7c1,0 1,0 2,0 1,0 1,0 2,-1 0,0 1,-1 1,-1 0,0 1,-1 1,-1 0,-1 0,-1 0,-2 0,0 -1,-1 -2,0 0,0 -1,0 -1,0 0,0 -1,0 -1,0 0,0 0,1 0,1 0,0 0,1 0,1 0,0 0,0 0,1 0,0 0,0 0,0 0,0 0,0 0,0 0,0 0,0 0,0 0,0 0,-1 0,-1 0,0 0,-1 0,-1 -1,0 -2,1 -3,1 -1,1 -2,1 -2,2 1,0 1,1 2,1 1,0 2,0 3,0zm-4 -7c-1,0 -1,0 -2,1 -1,0 -1,1 -1,2 0,1 0,1 1,2 1,-1 2,-1 3,-2 1,0 2,-1 3,-1 -1,-1 -1,-1 -2,-1 -1,0 -1,0 -2,0z"/>
  </g>
 </g>
</svg>
