<svg xmlns="http://www.w3.org/2000/svg" width="594.176" height="594.176" viewBox="0 0 115207 115207" shape-rendering="geometricPrecision" text-rendering="geometricPrecision" image-rendering="optimizeQuality" fill-rule="evenodd" clip-rule="evenodd"><defs><style>.str2,.str3{stroke:#d7b56d;stroke-width:124.58}.str2{stroke-width:183.207}.fil2{fill:none}.fil3,.fil4{fill:#d7b56d;fill-rule:nonzero}.fil3{fill:#7f7d7a}.fil0{fill:#4a4a4a;fill-opacity:.701961}</style><mask id="id0"><linearGradient id="id1" gradientUnits="userSpaceOnUse" x1="43243" y1="1913" x2="71964" y2="113293"><stop offset="0" stop-opacity="0" stop-color="#fff"/><stop offset="1" stop-opacity=".522" stop-color="#fff"/></linearGradient><path fill="url(#id1)" d="M0 0h115207v115207H0z"/></mask><mask id="id2"><linearGradient id="id3" gradientUnits="userSpaceOnUse" x1="45364" y1="11351" x2="69982" y2="106819"><stop offset="0" stop-opacity="0" stop-color="#fff"/><stop offset="1" stop-opacity=".522" stop-color="#fff"/></linearGradient><path fill="url(#id3)" d="M8286 9698h98775v98774H8286z"/></mask><mask id="id4"><linearGradient id="id5" gradientUnits="userSpaceOnUse" x1="35287" y1="87528" x2="35419" y2="91711"><stop offset="0" stop-opacity="0" stop-color="#fff"/><stop offset="1" stop-opacity=".522" stop-color="#fff"/></linearGradient><path fill="url(#id5)" d="M18712 90793h33283v1639H18712z"/></mask><mask id="id6"><linearGradient id="id7" gradientUnits="userSpaceOnUse" x1="80232" y1="87528" x2="80366" y2="91711"><stop offset="0" stop-opacity="0" stop-color="#fff"/><stop offset="1" stop-opacity=".522" stop-color="#fff"/></linearGradient><path fill="url(#id7)" d="M63966 90793h32666v1639H63966z"/></mask><mask id="id8"><linearGradient id="id9" gradientUnits="userSpaceOnUse" x1="57490" y1="87813" x2="58782" y2="95409"><stop offset="0" stop-opacity="0" stop-color="#fff"/><stop offset="1" stop-opacity=".522" stop-color="#fff"/></linearGradient><path fill="url(#id9)" d="M52323 87754h11625v7715H52323z"/></mask><mask id="id10"><linearGradient id="id11" gradientUnits="userSpaceOnUse" x1="46243" y1="28833" x2="51382" y2="63207"><stop offset="0" stop-opacity="0" stop-color="#fff"/><stop offset="1" stop-opacity=".522" stop-color="#fff"/></linearGradient><path fill="url(#id11)" d="M19404 28943h58816v34154H19404z"/></mask><mask id="id12"><linearGradient id="id13" gradientUnits="userSpaceOnUse" x1="69406" y1="46297" x2="78920" y2="85714"><stop offset="0" stop-opacity="0" stop-color="#fff"/><stop offset="1" stop-opacity=".522" stop-color="#fff"/></linearGradient><path fill="url(#id13)" d="M52525 45747h43277v40516H52525z"/></mask></defs><symbol id="Footer" viewBox="-6948 -356227 29617 9079"><path class="fil0" d="M16226-349911l91 90c29 29 63 64 93 93l278 274c249 243 498 493 745 736 103 101 212 192 384 159 107-20 176-83 234-135l617-582c8-7 14-15 22-23l358-338c17-16 32-27 48-45l191-181c33-29 64-60 96-89 3-5-5-4 6-4v1943c-26 6-745 2-792 2h-2181c-39 0-169 5-198-2l-1-1902c16-1 1-1 8 4zm1442 831c-15-15-29-28-44-43l-211-209c-56-55-114-114-169-168l-845-837h2773c-4 8-75 75-87 85-73 66-152 148-222 211l-531 502c-16 14-31 26-45 42-14 15-30 28-45 42-16 14-29 28-44 42l-221 209c-17 15-27 24-44 42-14 15-30 27-45 41-32 29-108 108-133 124l-87-84zm-1468-1678c-147 10-237 75-302 148-97 109-100 214-100 350v1796c0 150-1 299 0 449 1 121 50 240 136 314 95 81 173 112 336 112h2918c215 0 367 25 523-149 32-36 62-87 81-144 23-71 20-129 20-206v-1796c0-150 1-300 0-449-1-119-50-242-136-314-97-81-169-111-336-111h-2918c-70 0-153-4-221 1z"/><path class="fil0" d="M16226-349911c-7-5 8-5-8-4l1 1902c29 7 158 2 198 2h2181c47 0 766 4 792-2v-1943c-11 1-3-1-6 4 5 7 3 14 3 28v29c0 626 2 1255-3 1880h-3162v-1886c2-12 0-4 4-10z"/><path d="M9667-350544c39 21 105 27 154 51 153 76 157 258 177 435 21 187 1 598-72 742-96 188-283-10-361-109-29-37-55-77-84-121-101-155-338-620-423-817-50-115-62-191-172-238-100-43-662-19-813-17-351 5-190 205-70 473 85 191 180 374 277 552 208 379 410 700 645 1004 255 329 295 369 631 608 67 47 182 117 263 155 191 90 422 157 670 153 101-2 319 12 405-9 249-58 65-348 230-597 243-365 499 314 908 547 112 64 186 72 327 69 608-17 1269 126 742-540-207-262-411-408-609-629-173-193-39-329 120-541 189-252 568-716 659-998 104-320-210-245-520-243l-611 4c-116 12-139 120-182 227-122 298-332 676-524 928-34 44-166 186-218 202-236 72-182-502-180-622 4-207 53-614-41-765-103-166-869-124-1089-83-89 17-240 95-238 179z" fill="none" stroke="#4a4a4a" stroke-width="366.413" stroke-opacity=".702"/><path class="fil0" d="M3778-347589h-861c-98 0-193-4-285-10-88-5-316-28-390-52-9-3-17-4-28-7-88-26-194-84-261-148-48-46-94-109-126-168-18-33-34-63-48-99-6-16-12-40-15-58l-27-123c-2-10-5-17-7-28l-13-99c-1-18-2-50-5-69-4-23 0-48-1-72-2-20-6-46-6-67 0-52-3-94-3-147 0-110-4-977 1-1014 3-22 0-50 3-74 5-41 6-136 7-146 7-45 7-92 13-140 3-24 4-48 7-70 18-123 21-179 83-301 10-19 17-32 27-50 28-46 62-95 105-129 66-53 154-117 239-145 42-14 78-22 121-32l130-23c81-14 172-8 252-17 34-4 77-3 113-3 18 0 21-3 35-3h900c51 0 93 3 141 3l280 14 198 23c87 11 174 37 250 80l70 42c29 18 56 43 81 66 35 32 101 131 122 173 26 52 49 99 62 159 19 89 42 196 45 285 0 13-1 26 0 38l9 212v1028c0 79-7 135-6 214 0 29-3 49-5 71-3 24-2 45-5 69l-15 132c-11 76-22 141-48 212-4 10-7 16-11 27-27 63-67 138-115 186-28 28-46 46-79 72l-43 31c-16 10-28 18-45 28l-100 50c-60 26-176 45-244 57-45 7-89 12-135 13-17 0-19 3-35 3h-39c-17 0-18 3-32 3-12 1-26-1-38 0l-144 6h-77zm-2437-2196v1095c0 68 3 125 3 192l13 186c14 120 29 178 56 287 30 121 136 328 225 415l125 121 86 62c19 13 42 27 62 37 147 70 214 95 369 124 15 3 26 6 41 8s28 3 43 5c16 2 26 4 42 6 45 7 95 6 140 11 15 2 32 0 48 1 17 1 27 3 48 3 133-1 257 3 391 3h624c57 0 166 6 216-1 62-9 153 6 214-3 31-5 103-2 154-10 16-2 36-3 50-4 63-8 124-20 185-32 30-6 58-15 86-23l41-14c16-5 25-9 40-14 101-35 229-108 310-179 10-9 19-17 30-25 56-44 113-116 156-174 49-66 104-176 127-254 5-16 9-25 13-41l42-176c21-104 29-247 28-353 0-22 3-30 3-51l3-596c0-156-3-302-3-458 0-39-3-70-3-112v-115c0-76-5-267-15-334-8-52-12-99-26-147l-11-47c-23-73-31-102-58-173-24-64-82-172-125-224-26-32-49-66-77-96l-29-29-43-43c-7-6-9-6-16-13-30-28-64-51-99-74-13-9-23-14-36-22l-244-105c-42-12-94-28-139-34-87-13-171-29-259-30-32 0-76-7-109-7h-115c-39 0-70-3-112-3-143 0-1006-5-1048 2-55 8-135-2-191 4-29 3-63 2-92 4l-89 7c-53 5-117 14-168 27-49 13-102 25-151 41l-104 40c-77 31-148 75-214 125-64 48-122 105-173 166l-42 54c-77 117-113 197-155 331-29 94-39 190-53 286-4 28-3 62-5 91-1 26-7 63-7 90 0 67-3 124-3 192z"/><path class="fil0" d="M3378-348575c-70 0-111 1-180-12-132-25-226-85-323-170-29-26-43-43-68-70l-27-34c-3-5-4-7-7-12l-68-130c-7-19-13-41-19-61-30-114-25-264 8-376 20-68 55-131 94-187 49-69 135-152 210-193 10-5 17-10 27-15 123-68 263-83 407-68 44 5 89 14 131 29 68 25 53 21 112 51 52 27 116 86 158 127 44 44 79 103 109 157 31 57 54 139 63 203 12 84 10 178-12 259l-13 45c-27 74-42 107-88 174-6 9-11 14-17 21-92 115-212 205-358 241-39 10-93 21-139 21zm-42 371c102 0 204-14 301-42 8-2 17-3 26-6 141-50 213-90 327-179l113-108 71-86c9-12 17-24 25-36l25-39c86-130 147-336 147-487 0-109 2-107-10-217-2-17-6-34-10-51-9-38-19-88-33-124-4-9-5-16-8-24-45-135-152-281-251-380-143-143-289-221-489-266-16-4-35-5-52-8-47-9-133-14-178-14l-122 7-110 18c-74 19-150 38-218 74l-63 33c-83 47-179 122-243 193l-37 43c-11 11-19 23-29 35-44 53-93 136-122 201-27 58-53 131-65 194-7 34-15 74-19 109-2 21-4 37-4 60 0 26-3 38-3 64 0 98 12 191 36 284 16 62 26 85 51 145 6 15 13 28 21 43 4 8 7 14 11 21 43 78 64 105 119 173 57 70 146 150 221 198l59 37c58 39 162 76 227 97 18 6 37 9 54 13 18 5 35 7 54 10 10 2 17 4 27 5l152 11zM4172-350330c0 78 19 125 71 179l3 3 5 5c48 44 92 73 164 73 36 0 72-9 97-21 71-34 149-125 149-209 0-50-2-73-26-118-36-69-120-141-205-141h-29c-109 0-231 122-231 231z"/><path class="fil2" d="M-2345-349850v289h409l-30 278c-2 16-5 40-7 57-2 31-12 92-12 112h-360v1337h-602v-1329c0-6-2-7-7-7h-228v-448h235c0-121-7-337 11-449 14-90 42-175 95-245 23-32 28-32 55-60 33-34 99-69 143-85 72-26 111-32 186-41l555-6v448h-272c-117 0-171 38-171 149zm-2675-639v2458c0 104 30 196 68 285 22 53 83 141 125 183l23 24c16 14 29 29 46 42 35 29 65 49 104 72 98 58 235 94 349 94h2428c107 0 219-30 292-65 46-22 73-37 113-66 67-46 132-111 179-179 82-119 131-258 131-405v-2428c0-82-15-155-39-226-29-87-70-155-126-226-14-18-29-31-43-47l-45-43c-85-71-181-124-290-151-45-11-100-22-157-22h-2458c-103 0-211 34-283 67-33 15-81 43-110 64-41 30-44 35-73 59-10 8-14 12-23 21-124 124-211 309-211 489z" stroke="#949494" stroke-width="366.413"/><path class="fil3" d="M-5848-356093c-615 0-1100 499-1100 1115 0 623 485 1122 1100 1122 612 0 1089-499 1089-1122 0-615-478-1115-1089-1115zm0 148c510 0 908 427 908 966 0 550-398 974-908 974-521 0-919-423-919-963 0-550 398-977 919-977zm485 413c-47-43-210-98-398-98-366 0-691 261-691 673 0 366 242 655 662 655 152 0 318-29 445-112l-43-138c-83 54-221 94-366 94-333 0-510-228-510-510 0-290 166-507 507-507 170 0 304 58 351 83l43-141z"/><path id="1" class="fil3" d="M-3586-353748h315v-1103h923v-261h-923v-811h999v-264h-1314z"/><path id="2" class="fil3" d="M-495-355499h-318v1075c0 58-11 116-29 163-58 141-206 290-420 290-290 0-391-224-391-557v-970h-318v1024c0 615 329 767 604 767 311 0 496-185 579-326h7l18 286h282c-11-138-15-297-15-478v-1274z"/><path id="3" class="fil3" d="M106-355919v420h-271v242h271v956c0 206 33 362 123 456 76 87 195 134 344 134 123 0 221-18 282-43l-14-239c-40 11-101 22-185 22-177 0-239-123-239-340v-945h456v-242H417v-503l-311 83z"/><path id="4" class="fil3" d="M2697-355499h-318v1075c0 58-11 116-29 163-58 141-206 290-420 290-290 0-391-224-391-557v-970h-318v1024c0 615 329 767 604 767 311 0 496-185 579-326h7l18 286h282c-11-138-15-297-15-478v-1274z"/><path id="5" class="fil3" d="M3226-353748h315v-934c0-54 7-105 15-148 43-239 203-409 427-409 43 0 76 4 109 11v-300c-29-7-54-11-91-11-214 0-405 148-485 384h-14l-11-344h-279c11 163 14 340 14 547v1205z"/><path id="6" class="fil3" d="M5115-355539c-485 0-869 344-869 930 0 554 366 901 840 901 423 0 872-282 872-930 0-536-340-901-843-901zm-7 239c376 0 525 376 525 673 0 394-228 680-532 680-311 0-532-290-532-673 0-333 163-680 539-680z"/><path id="7" class="fil3" d="M8778-354077c-127 61-322 101-514 101-594 0-937-384-937-981 0-641 380-1006 952-1006 203 0 373 43 492 101l76-257c-83-43-275-109-579-109-756 0-1274 518-1274 1281 0 800 518 1234 1205 1234 297 0 528-58 644-116l-65-250z"/><path id="8" class="fil3" d="M10461-353748c-22-119-29-268-29-420v-655c0-351-130-717-666-717-221 0-431 62-575 156l72 210c123-80 293-130 456-130 358 0 398 261 398 405v36c-677-4-1053 228-1053 651 0 253 181 503 536 503 250 0 438-123 536-261h11l25 221h290zm-337-590c0 33-7 69-18 101-51 148-195 293-423 293-163 0-300-98-300-304 0-340 394-402 742-394v304z"/><path id="9" class="fil3" d="M10823-353831c123 72 300 119 492 119 416 0 655-217 655-525 0-261-156-413-460-528-228-87-333-152-333-297 0-130 105-239 293-239 163 0 290 58 358 101l80-232c-98-58-253-109-431-109-376 0-604 232-604 514 0 210 148 384 463 496 235 87 326 170 326 322 0 145-109 261-340 261-159 0-326-65-420-127l-80 242z"/><path id="10" class="fil3" d="M13639-353748c-22-119-29-268-29-420v-655c0-351-130-717-666-717-221 0-431 62-575 156l72 210c123-80 293-130 456-130 358 0 398 261 398 405v36c-677-4-1053 228-1053 651 0 253 181 503 536 503 250 0 438-123 536-261h11l25 221h290zm-337-590c0 33-7 69-18 101-51 148-195 293-423 293-163 0-300-98-300-304 0-340 394-402 742-394v304z"/><path id="11" class="fil3" d="M14145-353324c101-170 261-572 344-879l-355 36c-40 264-137 651-217 865l228-22z"/><path id="12" class="fil3" d="M17041-353748v-264h-1057v-7l188-174c496-478 811-829 811-1263 0-337-214-684-720-684-271 0-503 101-666 239l101 224c109-91 286-199 499-199 351 0 467 221 467 460-4 355-275 659-876 1231l-250 242v195h1502z"/><path id="13" class="fil3" d="M18181-356140c-478 0-818 434-818 1223 7 778 318 1209 778 1209 521 0 818-442 818-1241 0-749-282-1191-778-1191zm-18 246c329 0 478 380 478 959 0 601-156 981-481 981-290 0-478-347-478-959 0-641 203-981 481-981z"/><path id="14" class="fil3" d="M19943-353748h308v-2352h-272l-513 275 61 242 409-220h7z"/><path id="15" class="fil3" d="M21869-353708c449 0 800-275 800-684 0-286-181-492-474-608v-11c290-138 387-351 387-550 0-293-228-579-684-579-413 0-727 253-727 626 0 203 112 405 373 528l4 11c-290 123-467 333-467 630 0 344 297 637 789 637zm7-232c-300 0-481-210-471-449 0-224 148-405 424-485 318 91 518 228 518 514 0 242-185 420-470 420zm4-1972c286 0 398 195 398 384 0 214-156 358-358 427-271-72-449-199-449-434 0-203 145-376 409-376z"/></symbol><g id="Слой_x0020_1"><g id="_694487000"><path class="fil2 str2" d="M57603 92c31763 0 57512 25749 57512 57512s-25749 57512-57512 57512S91 89367 91 57604 25840 92 57603 92z" mask="url(#id0)"/><path class="fil2 str2" mask="url(#id2)" d="M8377 9789h98592v98592H8377z"/><path class="fil4" d="M18864 92432c-84 0-153-367-153-819s68-819 153-819v1639zm32977 0H18864v-1639h32977v1639zm0-1639c84 0 153 367 153 819s-68 819-153 819v-1639z" mask="url(#id4)"/><path class="fil4" d="M64116 92432c-83 0-150-367-150-819s67-819 150-819v1639zm32366 0H64116v-1639h32366v1639zm0-1639c83 0 150 367 150 819s-67 819-150 819v-1639z" mask="url(#id6)"/><path d="M63875 91876l-212 208c-79-80-159-121-243-122-83-1-202 37-356 113l-141 72c-314 153-593 181-840 79 129 191 190 386 184 583-6 198-81 366-222 505-196 192-430 278-703 257-272-21-519-145-741-371-338-343-452-753-340-1227l300 25c-8 250 51 437 176 565 104 105 227 162 371 171 142 9 261-35 357-129 81-80 123-178 123-294 1-116-39-215-119-296-142-145-444-245-904-302l-229-28c-125-16-245-36-360-60 5 45 8 91 8 136 0 340-115 639-343 899-229 261-489 391-783 391-215 0-394-63-542-190-147-127-220-282-220-464 0-232 124-456 374-669-11 61-16 109-16 144 0 219 67 409 203 569 134 160 296 241 483 241 118 0 218-42 303-128 83-85 126-185 126-300 0-230-215-581-645-1054-104-72-199-151-284-238-93-95-173-194-240-298l-306-298c-171 250-320 597-449 1035-127 441-191 827-191 1161 0 577 176 1060 529 1448 352 387 791 582 1318 582 120 0 234-15 340-44-101 567-350 850-746 850-505 0-942-261-1312-784-371-523-556-1139-556-1850 0-397 134-938 402-1620l-44 33-229 235c-286 295-526 602-719 923-193 322-288 573-288 758 0 150 43 276 130 379 88 102 193 154 319 154 30 0 70-4 121-12-138 369-317 554-536 554-153 0-284-77-390-231-107-153-160-340-160-562 0-46 4-94 12-144-215 208-452 323-713 343-272 21-506-64-703-257-141-139-216-307-222-505-6-197 55-392 184-583-245 102-525 74-839-80l-141-71c-155-76-273-114-356-113s-164 43-243 122l-212-208 438-446c358-364 666-594 924-691s530-86 817 33c-31-161-32-306 1-436 31-130 95-243 191-340 152-154 341-227 569-218 227 9 425 96 594 262 139 137 266 348 383 635l-279 104c-44-105-94-184-149-239-91-89-178-135-265-138s-171 36-252 119-121 182-117 298c3 115 48 216 135 301 183 179 436 249 759 207 324-41 600-179 830-413 240-244 363-531 370-863 7-330-105-608-333-832-231-228-487-345-765-353-279-7-540 98-781 314l-212-208 67-69c383-390 791-608 1223-654 271-29 520 13 747 126 37-98 87-187 152-267 148-186 331-279 547-279 213 0 393 89 535 267 102 126 167 273 197 444 292-233 626-330 1002-290 432 46 840 265 1223 654l67 69-212 208c-242-217-502-322-781-314s-534 125-765 353c-228 224-340 502-333 833l1 17c419 436 697 765 839 987 46 72 85 145 116 218 79 24 160 41 245 52 323 42 576-28 759-208 87-85 132-185 135-301 3-115-36-215-117-297-81-83-165-123-252-119s-175 50-265 138c-55 54-105 134-149 239l-279-104c118-287 245-498 384-635 168-165 366-253 594-262 227-9 417 64 569 218 95 97 159 210 190 340 33 130 32 275 1 436 287-120 559-130 817-33s567 327 924 691l438 446zm-7158-367c-233 79-494 137-782 174l-229 28c-461 57-762 158-904 302-80 81-120 180-119 296s42 214 123 294c96 94 216 137 358 129 143-8 267-65 370-170 125-127 184-316 176-565l300-26c29 127 43 249 41 367 170-251 392-527 665-829zm1483-2213c51-172 133-330 245-476-1-189-29-329-86-423-57-95-144-142-259-142-81 0-141 29-181 85s-60 141-60 256c0 214 113 447 340 701zm-3246 2066c-245 169-607 189-1087 60l-98-25c-210-57-387-52-532 15 535-544 1107-560 1717-51zm6364 0c245 169 607 190 1087 60l98-25c210-57 388-52 532 15-535-544-1107-560-1717-51z" mask="url(#id8)" fill="#d7b56d"/><path class="fil4 str3" d="M44200 31350c-1764 0-3466 152-5104 454-1639 303-3101 782-4386 1437-1285 656-2382 1500-3290 2533-907 1034-1538 2256-1890 3667-151 706-202 1450-151 2231 51 782 264 1563 643 2344 378 782 920 1526 1626 2231 705 706 1664 1311 2874 1815 403 152 680 240 831 265s202 88 151 189c-50 101-202 139-453 113-252-25-580-88-983-189-2269-807-3882-2092-4839-3857-958-1764-1311-3655-1059-5671 202-1412 718-2723 1550-3932 832-1210 1954-2256 3365-3139 1412-882 3088-1575 5029-2079s4096-757 6466-757c1613 0 3567 214 5860 643 2294 428 4626 970 6995 1625 1260 353 2534 706 3819 1059s2584 706 3895 1059c1008-554 2269-1046 3781-1475 1513-428 3025-643 4537-643 1311 0 2433 190 3365 567 933 378 1374 970 1323 1777-50 656-466 1172-1248 1550s-1802 567-3062 567c-1563 0-2987-63-4273-189-1285-126-2659-315-4121-567-403 252-857 617-1361 1097-504 479-1034 995-1588 1550s-1097 1122-1626 1701c-529 580-995 1122-1399 1626-1159 1462-2180 2785-3062 3970-883 1185-1853 2433-2911 3743h1512c554 0 1134-25 1739-75s1185-113 1739-189c555-75 1034-189 1437-341 151-202 366-466 643-794s567-630 869-908c303-277 618-504 945-680 328-176 668-239 1021-189 605 151 718 454 340 908-378 453-995 1084-1853 1890-807 705-1474 1323-2004 1853-529 529-1021 1072-1475 1626-252 252-416 466-492 643s-164 239-264 189c-151-50-177-239-76-567 100-328 227-643 378-945 202-403 441-807 719-1210 277-403 491-706 643-908-706 202-1639 341-2798 416-1160 76-2395 113-3706 113-252 353-529 693-831 1021-303 328-605 668-908 1020-3176 3429-6641 6201-10398 8319-3756 2118-7801 3176-12137 3176-1058 0-2130-100-3213-289-1084-202-2054-505-2911-908-857-416-1551-958-2080-1639-529-680-819-1525-869-2533-51-958 252-1828 907-2609 656-782 1563-1172 2723-1172 705 0 1285 227 1739 680s630 1008 529 1664c-101 403-252 756-454 1058-202 303-428 580-680 832-656 656-983 1235-983 1739 0 403 164 756 492 1059 328 302 731 554 1210 756s1021 353 1626 454c605 100 1210 151 1815 151 2823 0 5546-668 8167-1992 2621-1323 4941-3100 6957-5306 958-995 1790-1941 2496-2810 705-882 1412-1790 2117-2747h-2382c-731 0-1323 25-1777 75-807 51-1336 113-1588 189-252 75-378-12-378-264 50-151 264-277 643-378 378-100 1021-202 1928-302 403-51 1034-76 1890-76h2193c554-705 1122-1424 1702-2155s1298-1575 2155-2534c907-958 1878-1928 2911-2911s2054-1890 3062-2722 1941-1575 2798-2231 1588-1160 2193-1513c-857-202-1828-428-2911-681-1084-252-2282-529-3592-832-757-151-1652-327-2685-529-1034-202-2130-391-3290-567-1159-177-2331-328-3516-454s-2281-190-3290-190zm29190 681c-1210 0-2395 164-3554 504-1159 341-2168 782-3025 1311 1411 378 2785 656 4121 844 1336 189 2407 290 3214 290 857 0 1601-126 2231-366 631-239 970-593 1021-1072s-290-857-1021-1122c-731-264-1726-390-2987-390z" mask="url(#id10)"/><path class="fil4 str3" d="M72055 45810c1938 0 3809 458 5612 1373s3244 2153 4321 3715c592-162 1265-310 2019-444 754-135 1507-229 2262-283 1291-54 2544-13 3755 122 1211 134 2275 444 3190 929 915 484 1601 1131 2059 1938s579 1831 363 3068c-215 1239-861 2328-1938 3271-1077 942-2356 1723-3836 2342s-3096 1077-4846 1373-3378 444-4886 444c-2261 0-4496-270-6703-807-2207-538-4037-1347-5491-2423-1561 1399-2974 2880-4240 4442-1265 1561-2368 3136-3311 4724-942 1588-1669 3150-2180 4684-511 1535-767 2948-767 4240 0 2369 646 4052 1938 5047 1292 996 2961 1495 5007 1495 2423 0 4589-431 6501-1292 1911-862 3648-1831 5209-2908 1077-754 2059-1507 2948-2261 888-754 1575-1346 2060-1776 592-538 1010-889 1251-1050 242-162 418-189 525-81 108 107 81 255-81 444-161 188-350 390-565 606-969 915-1951 1803-2948 2664-996 862-1952 1588-2867 2181-1669 1184-3513 2220-5532 3109s-4240 1387-6663 1495c-3337 107-6083-471-8237-1736-2153-1266-3284-3405-3392-6420-54-1777 283-3567 1010-5370s1723-3567 2988-5290c1266-1723 2706-3338 4321-4846 1615-1507 3257-2880 4926-4119-592-754-1077-1561-1454-2423-377-861-565-1749-565-2664 0-1131 229-2154 686-3069 458-915 1063-1709 1817-2382s1628-1184 2624-1535c996-350 2032-525 3109-525zm8237 17040c1453 0 2880-162 4280-485 1399-323 2665-794 3796-1413s2072-1346 2826-2180 1239-1736 1454-2706c430-1884 67-3256-1091-4118-1157-862-2812-1265-4966-1211-592 0-1332 81-2220 242-889 162-1575 350-2059 565 323 592 606 1292 848 2100s417 1588 525 2342c107 646 121 1158 40 1535s-175 538-282 485c-108-54-162-189-162-404s-54-619-162-1211c-162-807-430-1628-807-2463s-754-1495-1131-1979c-2154 807-4361 1938-6622 3392-2262 1454-4253 2961-5976 4522 1399 1077 3149 1844 5249 2302 2099 458 4253 687 6461 687zm-8884-15990c-1723 0-3244 579-4562 1736-1319 1158-1979 2760-1979 4805 0 1615 538 3122 1615 4522 2207-1454 4563-2772 7067-3957 2504-1184 4886-2100 7147-2745-1238-1400-2664-2477-4280-3231-1615-754-3284-1131-5007-1131z" mask="url(#id12)"/></g></g></svg>