<svg xmlns="http://www.w3.org/2000/svg" width="29.055" height="41.122" viewBox="0 0 37 52" shape-rendering="geometricPrecision" text-rendering="geometricPrecision" image-rendering="optimizeQuality" fill-rule="evenodd" clip-rule="evenodd"><defs><style>.fil3,.fil5{fill:#d7b56d;fill-rule:nonzero}.fil3{fill:#7f7d7a}.fil0{fill:#4a4a4a;fill-opacity:.701961}</style></defs><symbol id="Footer" viewBox="287 -194 195 60"><path class="fil0" d="M439-153l1 1 1 1 2 2 5 5c1 1 1 1 3 1 1 0 1-1 2-1l4-4 2-2 1-1 1-1v13h-19-1v-12zm9 5l-1-1-1-1-6-5h18l-1 1-1 1-3 3-1 1-1 1-1-1zm-10-11c-1 0-2 0-2 1-1 1-1 1-1 2v15c0 1 0 2 1 2 1 1 1 1 2 1h19c1 0 2 0 3-1 0 0 0-1 1-1v-13-3c0-1 0-2-1-2-1-1-1-1-2-1h-19-1z"/><path class="fil0" d="M439-153v12h20v-13 12h-21v-12z"/><path d="M396-157h1c1 1 1 2 1 3v5c-1 1-2 0-2-1 0 0 0-1-1-1-1-1-2-4-3-5 0-1 0-1-1-2h-5c-2 0-1 1 0 3 1 1 1 2 2 4s3 5 4 7l4 4s1 1 2 1c1 1 3 1 4 1h3c2 0 0-2 2-4s3 2 6 4h2c4 0 8 1 5-4-1-2-3-3-4-4s0-2 1-4 4-5 4-7c1-2-1-2-3-2h-4c-1 0-1 1-1 1l-3 6-1 1c-2 0-1-3-1-4v-5c-1-1-6-1-7-1s-2 1-2 1z" fill="none" stroke="#4a4a4a" stroke-width="2.407" stroke-opacity=".702"/><path class="fil0" d="M358-137h-11c-1 0-1-1-2-1l-1-1v-3-1-7-1-1c0-1 0-1 1-2 0 0 0-1 1-1 0 0 1-1 2-1h15c1 0 1 0 2 1h1l1 1v14s0 1-1 1h-2-2-2-1zm-16-14v11c0 1 1 2 1 3l1 1h1c1 0 1 1 2 1h13c1 0 2-1 2-1l1-1s1-1 1-2v-1-6-3-1-1-2-1-1l-1-1-1-1h-1l-2-1h-3-1-1-8-1-2-1-2c-1 0-1 0-1 1l-1 1c-1 1-1 1-1 2v5z"/><path class="fil0" d="M355-144h-1c-1 0-1-1-2-1v-1-2s0-1 1-1l1-1c1 0 2-1 3 0h2l1 1 1 1v3s0 1-1 1l-2 2h-1zm0 2h2c1 0 1-1 2-1l1-1v-1c1-1 1-2 1-3v-1-1c0-1-1-2-2-2-1-1-2-1-3-2h-3-1c-1 0-1 1-2 1l-1 1v5c0 1 0 1 1 1l1 1s1 0 1 1h1zM360-155v1h2l1-1v-1l-1-1c-1 0-2 1-2 2z"/><path d="M317-152v2h3v3h-2v9h-4v-9h-1v-3h2v-3c0-1 0-1 1-2 0 0 1 0 1-1h5v3h-2c-1 0-1 0-1 1zm-18-4v18l1 1h1c1 0 2 1 2 1h19l1-1c1-1 1-2 1-3v-16-1c0-1 0-1-1-1s-1-1-2-1h-19-1c-1 1-1 2-1 3z" fill="none" stroke="#949494" stroke-width="2.407"/><path class="fil3" d="M294-193c-4 0-7 3-7 7s3 7 7 7 7-3 7-7-3-7-7-7zm0 1c3 0 6 3 6 6 0 4-3 6-6 6s-6-3-6-6c0-4 3-6 6-6zm3 3s-1-1-3-1-5 2-5 4 2 4 4 4c1 0 2 0 3-1v-1c-1 0-1 1-2 1-2 0-3-1-3-3s1-3 3-3c1 0 2 0 2 1v-1z"/><path id="1" class="fil3" d="M309-178h2v-7h6v-2h-6v-5h7v-2h-9z"/><path id="2" class="fil3" d="M329-189h-2v8c0 1-1 2-3 2s-3-1-3-4v-6h-2v7c0 4 2 5 4 5s3-1 4-2v2h2v-11z"/><path id="3" class="fil3" d="M333-192v3h-2v2h2v6c0 1 0 2 1 3 0 1 1 1 2 1h2v-2h-1c-1 0-2-1-2-2v-6h3v-2h-3v-3l-2 1z"/><path id="4" class="fil3" d="M350-189h-2v8c0 1-1 2-3 2s-3-1-3-4v-6h-2v7c0 4 2 5 4 5s3-1 4-2v2h2v-11z"/><path id="5" class="fil3" d="M354-178h2v-6-1c0-2 1-3 3-3h1v-2h-1c-1 0-3 1-3 3v-2h-2v12z"/><path id="6" class="fil3" d="M366-190c-3 0-6 2-6 6s2 6 6 6c3 0 6-2 6-6s-2-6-6-6zm0 2c2 0 3 2 3 4 0 3-1 4-3 4s-3-2-3-4 1-4 4-4z"/><path id="7" class="fil3" d="M390-180c-1 0-2 1-3 1-4 0-6-3-6-6 0-4 2-7 6-7 1 0 2 0 3 1v-2c-1 0-2-1-4-1-5 0-8 3-8 8s3 8 8 8c2 0 3 0 4-1v-2z"/><path id="8" class="fil3" d="M401-178v-7c0-2-1-5-4-5-1 0-3 0-4 1v1c1-1 2-1 3-1 2 0 3 2 3 3-4 0-7 1-7 4 0 2 1 3 4 3 2 0 3-1 4-2v1h2zm-2-4v1c0 1-1 2-3 2-1 0-2-1-2-2 0-2 3-3 5-3v2z"/><path id="9" class="fil3" d="M404-178c1 0 2 1 3 1 3 0 4-1 4-3s-1-3-3-3c-1-1-2-1-2-2s1-2 2-2 2 0 2 1l1-2c-1 0-2-1-3-1-2 0-4 2-4 3s1 3 3 3c2 1 2 1 2 2s-1 2-2 2-2 0-3-1l-1 2z"/><path id="10" class="fil3" d="M422-178v-7c0-2-1-5-4-5-1 0-3 0-4 1v1c1-1 2-1 3-1 2 0 3 2 3 3-4 0-7 1-7 4 0 2 1 3 4 3 2 0 3-1 4-2v1h2zm-2-4v1c0 1-1 2-3 2-1 0-2-1-2-2 0-2 3-3 5-3v2z"/><path id="11" class="fil3" d="M426-175c1-1 2-4 2-6h-2c0 2-1 4-1 6h1z"/><path id="12" class="fil3" d="M445-178v-2h-7l1-1c3-3 5-5 5-8 0-2-1-4-5-4-2 0-3 1-4 2l1 1c1-1 2-1 3-1 2 0 3 1 3 3s-2 4-6 8l-2 2v1h10z"/><path id="13" class="fil3" d="M452-194c-3 0-5 3-5 8s2 8 5 8 5-3 5-8-2-8-5-8zm0 2c2 0 3 2 3 6s-1 6-3 6-3-2-3-6 1-6 3-6z"/><path id="14" class="fil3" d="M464-178h2v-15h-2l-3 1v2l3-1z"/><path id="15" class="fil3" d="M476-178c3 0 5-2 5-4s-1-3-3-4c2-1 3-2 3-4s-1-4-4-4-5 2-5 4c0 1 1 3 2 3-2 1-3 2-3 4s2 4 5 4zm0-2c-2 0-3-1-3-3 0-1 1-3 3-3 2 1 3 1 3 3s-1 3-3 3zm0-13c2 0 3 1 3 3 0 1-1 2-2 3-2 0-3-1-3-3 0-1 1-2 3-2z"/></symbol><g id="Слой_x0020_1"><g id="_682473976"><path d="M0 18c0 3 1 7 3 10l15 24 1 1c1 0 1 0 1-1l14-24c2-3 3-6 3-9C37-5 0-5 0 19z" fill="#3e3029" fill-rule="nonzero"/><path class="fil5" d="M13 9h-2c-1 0-1 0-2 1-1 0-1 1-1 1s-1 1-1 2v2s0 1 1 1l1 1c-1 0-2-1-2-2s-1-2 0-2c0-1 0-1 1-2l1-1c1 0 1-1 2-1h5c1 0 2 0 3 1h4s1 0 2-1h3s1 0 1 1l-1 1h-5-1l-1 1-1 1-1 1c0 1-1 1-1 2 0 0-1 1-1 2h4l-1 1-1 1-1 1h-1-2c-1 1-3 3-4 3-2 1-3 1-5 1H5 4s-1 0-1-1v-1-1h2v2h2c1 0 2 0 3-1s2-1 3-2l1-1 1-1h-1-1-1 3s0-1 1-1l1-1 1-1 1-1 1-1s1 0 1-1h-1-1-1-1-1-1zm12 0h-1s-1 0-1 1h3z"/><path class="fil5" d="M24 15c1 0 2 0 2 1 1 0 1 1 2 2h5s1 0 1 1v1c0 1 0 1-1 1 0 0-1 1-2 1s-1 0-2 1h-5c-1 0-2-1-2-1l-2 2c-1 1-1 1-1 2s-1 1-1 2v2c0 1 0 2 1 2s1 1 2 1 2 0 3-1c1 0 2-1 2-1l1-1 1-1h1l-1 1-1 1c-1 0-1 1-2 1s-2 1-3 1-3 0-3-1c-1-1-1-1-1-3v-2c0-1 1-1 1-2l2-2 2-2s0-1-1-1v-1-1s0-1 1-1c0 0 1 0 1-1h1zm3 7h2c1 0 1 0 2-1l1-1 1-1v-2s-1-1-2 0h-1-1v1c-1 0-2 1-3 1-1 1-2 1-2 2 1 0 1 1 2 1h3zm-4-7c-1 0-1 0-2 1-1 0-1 1-1 2s0 1 1 2c1-1 2-1 3-2 1 0 2-1 3-1-1-1-1-1-2-1h-2z"/></g></g></svg>