<?xml version="1.0" encoding="UTF-8"?>
<!DOCTYPE svg PUBLIC "-//W3C//DTD SVG 1.1//EN" "http://www.w3.org/Graphics/SVG/1.1/DTD/svg11.dtd">
<!-- Creator: CorelDRAW 2017 -->
<svg xmlns="http://www.w3.org/2000/svg" xml:space="preserve" width="18.9307mm" height="19.2423mm" version="1.1" style="shape-rendering:geometricPrecision; text-rendering:geometricPrecision; image-rendering:optimizeQuality; fill-rule:evenodd; clip-rule:evenodd"
viewBox="0 0 167 170"
 xmlns:xlink="http://www.w3.org/1999/xlink">
 <defs>
  <style type="text/css">
   <![CDATA[
    .str0 {stroke:#4A4A4A;stroke-width:4.42129;stroke-opacity:0.701961}
    .str1 {stroke:#949494;stroke-width:4.42129}
    .fil2 {fill:none}
    .fil1 {fill:none}
    .fil4 {fill:#967C58}
    .fil3 {fill:#7F7D7A;fill-rule:nonzero}
    .fil0 {fill:#4A4A4A;fill-opacity:0.701961}
   ]]>
  </style>
 </defs>
<symbol id="Footer" viewBox="-1125 -3097 357 110">
 <path class="fil0" d="M-846 -3021l1 1c0,0 1,1 1,1l3 3c3,3 6,6 9,9 1,1 3,2 5,2 1,0 2,-1 3,-2l7 -7c0,0 0,0 0,0l4 -4c0,0 0,0 1,-1l2 -2c0,0 1,-1 1,-1 0,0 0,0 0,0l0 23c0,0 -9,0 -10,0l-26 0c0,0 -2,0 -2,0l0 -23c0,0 0,0 0,0zm17 10c0,0 0,0 -1,-1l-3 -3c-1,-1 -1,-1 -2,-2l-10 -10 33 0c0,0 -1,1 -1,1 -1,1 -2,2 -3,3l-6 6c0,0 0,0 -1,1 0,0 0,0 -1,1 0,0 0,0 -1,1l-3 3c0,0 0,0 -1,1 0,0 0,0 -1,0 0,0 -1,1 -2,1l-1 -1zm-18 -20c-2,0 -3,1 -4,2 -1,1 -1,3 -1,4l0 22c0,2 0,4 0,5 0,1 1,3 2,4 1,1 2,1 4,1l35 0c3,0 4,0 6,-2 0,0 1,-1 1,-2 0,-1 0,-2 0,-2l0 -22c0,-2 0,-4 0,-5 0,-1 -1,-3 -2,-4 -1,-1 -2,-1 -4,-1l-35 0c-1,0 -2,0 -3,0z"/>
 <path class="fil0" d="M-846 -3021c0,0 0,0 0,0l0 23c0,0 2,0 2,0l26 0c1,0 9,0 10,0l0 -23c0,0 0,0 0,0 0,0 0,0 0,0 0,0 0,0 0,0 0,8 0,15 0,23l-38 0 0 -23c0,0 0,0 0,0z"/>
 <path class="fil1 str0" d="M-925 -3029c0,0 1,0 2,1 2,1 2,3 2,5 0,2 0,7 -1,9 -1,2 -3,0 -4,-1 0,0 -1,-1 -1,-1 -1,-2 -4,-7 -5,-10 -1,-1 -1,-2 -2,-3 -1,-1 -8,0 -10,0 -4,0 -2,2 -1,6 1,2 2,5 3,7 3,5 5,8 8,12 3,4 4,4 8,7 1,1 2,1 3,2 2,1 5,2 8,2 1,0 4,0 5,0 3,-1 1,-4 3,-7 3,-4 6,4 11,7 1,1 2,1 4,1 7,0 15,2 9,-7 -2,-3 -5,-5 -7,-8 -2,-2 0,-4 1,-7 2,-3 7,-9 8,-12 1,-4 -3,-3 -6,-3l-7 0c-1,0 -2,1 -2,3 -1,4 -4,8 -6,11 0,1 -2,2 -3,2 -3,1 -2,-6 -2,-8 0,-2 1,-7 0,-9 -1,-2 -10,-1 -13,-1 -1,0 -3,1 -3,2z"/>
 <path class="fil0" d="M-996 -2993l-10 0c-1,0 -2,0 -3,0 -1,0 -4,0 -5,-1 0,0 0,0 0,0 -1,0 -2,-1 -3,-2 -1,-1 -1,-1 -2,-2 0,0 0,-1 -1,-1 0,0 0,0 0,-1l0 -1c0,0 0,0 0,0l0 -1c0,0 0,-1 0,-1 0,0 0,-1 0,-1 0,0 0,-1 0,-1 0,-1 0,-1 0,-2 0,-1 0,-12 0,-12 0,0 0,-1 0,-1 0,0 0,-2 0,-2 0,-1 0,-1 0,-2 0,0 0,-1 0,-1 0,-1 0,-2 1,-4 0,0 0,0 0,-1 0,-1 1,-1 1,-2 1,-1 2,-1 3,-2 1,0 1,0 1,0l2 0c1,0 2,0 3,0 0,0 1,0 1,0 0,0 0,0 0,0l11 0c1,0 1,0 2,0l3 0 2 0c1,0 2,0 3,1l1 1c0,0 1,1 1,1 0,0 1,2 1,2 0,1 1,1 1,2 0,1 1,2 1,3 0,0 0,0 0,0l0 3 0 12c0,1 0,2 0,3 0,0 0,1 0,1 0,0 0,1 0,1l0 2c0,1 0,2 -1,3 0,0 0,0 0,0 0,1 -1,2 -1,2 0,0 -1,1 -1,1l-1 0c0,0 0,0 -1,0l-1 1c-1,0 -2,1 -3,1 -1,0 -1,0 -2,0 0,0 0,0 0,0 0,0 0,0 0,0 0,0 0,0 0,0 0,0 0,0 0,0l-2 0c0,0 -1,0 -1,0zm-29 -27l0 13c0,1 0,2 0,2l0 2c0,1 0,2 1,3 0,1 2,4 3,5l2 1 1 1c0,0 1,0 1,0 2,1 3,1 4,1 0,0 0,0 0,0 0,0 0,0 1,0 0,0 0,0 1,0 1,0 1,0 2,0 0,0 0,0 1,0 0,0 0,0 1,0 2,0 3,0 5,0l8 0c1,0 2,0 3,0 1,0 2,0 3,0 0,0 1,0 2,0 0,0 0,0 1,0 1,0 1,0 2,0 0,0 1,0 1,0l0 0c0,0 0,0 0,0 1,0 3,-1 4,-2 0,0 0,0 0,0 1,-1 1,-1 2,-2 1,-1 1,-2 2,-3 0,0 0,0 0,0l1 -2c0,-1 0,-3 0,-4 0,0 0,0 0,-1l0 -7c0,-2 0,-4 0,-6 0,0 0,-1 0,-1 0,0 0,-1 0,-1 0,-1 0,-3 0,-4 0,-1 0,-1 0,-2l0 -1c0,-1 0,-1 -1,-2 0,-1 -1,-2 -2,-3 0,0 -1,-1 -1,-1 0,0 0,0 0,0l-1 -1c0,0 0,0 0,0 0,0 -1,-1 -1,-1 0,0 0,0 0,0l-3 -1c-1,0 -1,0 -2,0 -1,0 -2,0 -3,0 0,0 -1,0 -1,0 0,0 -1,0 -1,0 0,0 -1,0 -1,0 -2,0 -12,0 -13,0 -1,0 -2,0 -2,0 0,0 -1,0 -1,0l-1 0c-1,0 -1,0 -2,0 -1,0 -1,0 -2,0l-1 0c-1,0 -2,1 -3,2 -1,1 -1,1 -2,2l-1 1c-1,1 -1,2 -2,4 0,1 0,2 -1,3 0,0 0,1 0,1 0,0 0,1 0,1 0,1 0,1 0,2z"/>
 <path class="fil0" d="M-1001 -3005c-1,0 -1,0 -2,0 -2,0 -3,-1 -4,-2 0,0 -1,-1 -1,-1l0 0c0,0 0,0 0,0l-1 -2c0,0 0,0 0,-1 0,-1 0,-3 0,-5 0,-1 1,-2 1,-2 1,-1 2,-2 3,-2 0,0 0,0 0,0 1,-1 3,-1 5,-1 1,0 1,0 2,0 1,0 1,0 1,1 1,0 1,1 2,2 1,1 1,1 1,2 0,1 1,2 1,2 0,1 0,2 0,3l0 1c0,1 -1,1 -1,2 0,0 0,0 0,0 -1,1 -3,2 -4,3 0,0 -1,0 -2,0zm-1 4c1,0 2,0 4,-1 0,0 0,0 0,0 2,-1 3,-1 4,-2l1 -1 1 -1c0,0 0,0 0,0l0 0c1,-2 2,-4 2,-6 0,-1 0,-1 0,-3 0,0 0,0 0,-1 0,0 0,-1 0,-1 0,0 0,0 0,0 -1,-2 -2,-3 -3,-5 -2,-2 -3,-3 -6,-3 0,0 0,0 -1,0 -1,0 -2,0 -2,0l-1 0 -1 0c-1,0 -2,0 -3,1l-1 0c-1,1 -2,1 -3,2l0 1c0,0 0,0 0,0 -1,1 -1,2 -1,2 0,1 -1,2 -1,2 0,0 0,1 0,1 0,0 0,0 0,1 0,0 0,0 0,1 0,1 0,2 0,3 0,1 0,1 1,2 0,0 0,0 0,1 0,0 0,0 0,0 1,1 1,1 1,2 1,1 2,2 3,2l1 0c1,0 2,1 3,1 0,0 0,0 1,0 0,0 0,0 1,0 0,0 0,0 0,0l2 0z"/>
 <path class="fil0" d="M-991 -3026c0,1 0,2 1,2l0 0c0,0 0,0 0,0 1,1 1,1 2,1 0,0 1,0 1,0 1,0 2,-2 2,-3 0,-1 0,-1 0,-1 0,-1 -1,-2 -2,-2l0 0c-1,0 -3,1 -3,3z"/>
 <path class="fil2 str1" d="M-1070 -3020l0 3 5 0 0 3c0,0 0,0 0,1 0,0 0,1 0,1l-4 0 0 16 -7 0 0 -16c0,0 0,0 0,0l-3 0 0 -5 3 0c0,-1 0,-4 0,-5 0,-1 1,-2 1,-3 0,0 0,0 1,-1 0,0 1,-1 2,-1 1,0 1,0 2,0l7 0 0 5 -3 0c-1,0 -2,0 -2,2zm-32 -8l0 30c0,1 0,2 1,3 0,1 1,2 2,2l0 0c0,0 0,0 1,1 0,0 1,1 1,1 1,1 3,1 4,1l29 0c1,0 3,0 4,-1 1,0 1,0 1,-1 1,-1 2,-1 2,-2 1,-1 2,-3 2,-5l0 -29c0,-1 0,-2 0,-3 0,-1 -1,-2 -2,-3 0,0 0,0 -1,-1l-1 -1c-1,-1 -2,-1 -3,-2 -1,0 -1,0 -2,0l-30 0c-1,0 -3,0 -3,1 0,0 -1,1 -1,1 0,0 -1,0 -1,1 0,0 0,0 0,0 -1,1 -3,4 -3,6z"/>
 <path class="fil3" d="M-1112 -3096c-7,0 -13,6 -13,13 0,8 6,14 13,14 7,0 13,-6 13,-14 0,-7 -6,-13 -13,-13zm0 2c6,0 11,5 11,12 0,7 -5,12 -11,12 -6,0 -11,-5 -11,-12 0,-7 5,-12 11,-12zm6 5c-1,-1 -3,-1 -5,-1 -4,0 -8,3 -8,8 0,4 3,8 8,8 2,0 4,0 5,-1l-1 -2c-1,1 -3,1 -4,1 -4,0 -6,-3 -6,-6 0,-3 2,-6 6,-6 2,0 4,1 4,1l1 -2z"/>
 <polygon id="1" class="fil3" points="-1085,-3067 -1081,-3067 -1081,-3081 -1070,-3081 -1070,-3084 -1081,-3084 -1081,-3094 -1069,-3094 -1069,-3097 -1085,-3097 "/>
 <path id="2" class="fil3" d="M-1047 -3088l-4 0 0 13c0,1 0,1 0,2 -1,2 -2,3 -5,3 -3,0 -5,-3 -5,-7l0 -12 -4 0 0 12c0,7 4,9 7,9 4,0 6,-2 7,-4l0 0 0 3 3 0c0,-2 0,-4 0,-6l0 -15z"/>
 <path id="3" class="fil3" d="M-1040 -3093l0 5 -3 0 0 3 3 0 0 12c0,2 0,4 1,6 1,1 2,2 4,2 1,0 3,0 3,-1l0 -3c0,0 -1,0 -2,0 -2,0 -3,-1 -3,-4l0 -11 6 0 0 -3 -6 0 0 -6 -4 1z"/>
 <path id="4" class="fil3" d="M-1009 -3088l-4 0 0 13c0,1 0,1 0,2 -1,2 -2,3 -5,3 -3,0 -5,-3 -5,-7l0 -12 -4 0 0 12c0,7 4,9 7,9 4,0 6,-2 7,-4l0 0 0 3 3 0c0,-2 0,-4 0,-6l0 -15z"/>
 <path id="5" class="fil3" d="M-1002 -3067l4 0 0 -11c0,-1 0,-1 0,-2 1,-3 2,-5 5,-5 1,0 1,0 1,0l0 -4c0,0 -1,0 -1,0 -3,0 -5,2 -6,5l0 0 0 -4 -3 0c0,2 0,4 0,7l0 15z"/>
 <path id="6" class="fil3" d="M-980 -3089c-6,0 -10,4 -10,11 0,7 4,11 10,11 5,0 11,-3 11,-11 0,-6 -4,-11 -10,-11zm0 3c5,0 6,5 6,8 0,5 -3,8 -6,8 -4,0 -6,-3 -6,-8 0,-4 2,-8 7,-8z"/>
 <path id="7" class="fil3" d="M-935 -3071c-2,1 -4,1 -6,1 -7,0 -11,-5 -11,-12 0,-8 5,-12 11,-12 2,0 4,1 6,1l1 -3c-1,-1 -3,-1 -7,-1 -9,0 -15,6 -15,15 0,10 6,15 15,15 4,0 6,-1 8,-1l-1 -3z"/>
 <path id="8" class="fil3" d="M-915 -3067c0,-1 0,-3 0,-5l0 -8c0,-4 -2,-9 -8,-9 -3,0 -5,1 -7,2l1 3c1,-1 4,-2 6,-2 4,0 5,3 5,5l0 0c-8,0 -13,3 -13,8 0,3 2,6 6,6 3,0 5,-1 6,-3l0 0 0 3 3 0zm-4 -7c0,0 0,1 0,1 -1,2 -2,4 -5,4 -2,0 -4,-1 -4,-4 0,-4 5,-5 9,-5l0 4z"/>
 <path id="9" class="fil3" d="M-911 -3068c1,1 4,1 6,1 5,0 8,-3 8,-6 0,-3 -2,-5 -6,-6 -3,-1 -4,-2 -4,-4 0,-2 1,-3 4,-3 2,0 3,1 4,1l1 -3c-1,-1 -3,-1 -5,-1 -5,0 -7,3 -7,6 0,3 2,5 6,6 3,1 4,2 4,4 0,2 -1,3 -4,3 -2,0 -4,-1 -5,-2l-1 3z"/>
 <path id="10" class="fil3" d="M-877 -3067c0,-1 0,-3 0,-5l0 -8c0,-4 -2,-9 -8,-9 -3,0 -5,1 -7,2l1 3c1,-1 4,-2 6,-2 4,0 5,3 5,5l0 0c-8,0 -13,3 -13,8 0,3 2,6 6,6 3,0 5,-1 6,-3l0 0 0 3 3 0zm-4 -7c0,0 0,1 0,1 -1,2 -2,4 -5,4 -2,0 -4,-1 -4,-4 0,-4 5,-5 9,-5l0 4z"/>
 <path id="11" class="fil3" d="M-871 -3062c1,-2 3,-7 4,-11l-4 0c0,3 -2,8 -3,10l3 0z"/>
 <path id="12" class="fil3" d="M-836 -3067l0 -3 -13 0 0 0 2 -2c6,-6 10,-10 10,-15 0,-4 -3,-8 -9,-8 -3,0 -6,1 -8,3l1 3c1,-1 3,-2 6,-2 4,0 6,3 6,6 0,4 -3,8 -11,15l-3 3 0 2 18 0z"/>
 <path id="13" class="fil3" d="M-822 -3096c-6,0 -10,5 -10,15 0,9 4,15 9,15 6,0 10,-5 10,-15 0,-9 -3,-14 -9,-14zm0 3c4,0 6,5 6,12 0,7 -2,12 -6,12 -3,0 -6,-4 -6,-12 0,-8 2,-12 6,-12z"/>
 <polygon id="14" class="fil3" points="-801,-3067 -797,-3067 -797,-3096 -800,-3096 -807,-3092 -806,-3089 -801,-3092 -801,-3092 "/>
 <path id="15" class="fil3" d="M-778 -3067c5,0 10,-3 10,-8 0,-3 -2,-6 -6,-7l0 0c3,-2 5,-4 5,-7 0,-4 -3,-7 -8,-7 -5,0 -9,3 -9,8 0,2 1,5 4,6l0 0c-3,1 -6,4 -6,8 0,4 4,8 10,8zm0 -3c-4,0 -6,-3 -6,-5 0,-3 2,-5 5,-6 4,1 6,3 6,6 0,3 -2,5 -6,5zm0 -24c3,0 5,2 5,5 0,3 -2,4 -4,5 -3,-1 -5,-2 -5,-5 0,-2 2,-5 5,-5z"/>
</symbol>
 <g id="Слой_x0020_3">
  <metadata id="CorelCorpID_0Corel-Layer"/>
  <g id="_687339256">
   <g>
    <g>
     <path class="fil4" d="M164 59c-14,-44 -61,-69 -105,-55 -44,14 -69,61 -55,105l5 -2c-13,-41 10,-85 51,-98 20,-6 41,-4 59,5 18,10 32,26 38,46 6,20 4,41 -5,59 -10,18 -26,32 -46,38 -33,10 -70,-3 -89,-32l-5 3c16,24 43,38 70,38 8,0 17,-1 25,-4 21,-7 39,-21 49,-41 10,-20 12,-42 6,-64z"/>
    </g>
   </g>
   <g>
    <g>
     <path class="fil4" d="M67 40l2 -5 -28 -9c-1,0 -2,0 -3,1l-6 6c-1,1 -1,2 -1,3 0,1 1,2 2,2l26 11 2 -5 -22 -10 2 -2 27 8z"/>
    </g>
   </g>
   <g>
    <g>
     <path class="fil4" d="M94 23c0,-2 -1,-3 -3,-3 0,0 0,0 0,0 -6,0 -12,2 -17,7l-24 24 -10 -2c-1,0 -2,0 -3,1l-6 6c-1,1 -1,1 -1,2 0,1 1,2 1,2l14 8 8 14c0,1 1,1 2,1 0,0 0,0 0,0 1,0 1,0 2,-1l6 -6c1,-1 1,-2 1,-3l-2 -10 24 -24c4,-4 6,-10 6,-16zm-36 38c-1,1 -1,2 -1,3l2 10 -2 2 -7 -11c0,0 -1,-1 -1,-1l-11 -7 2 -2 10 2c1,0 2,0 3,-1l25 -25c3,-3 6,-4 9,-5 -1,4 -2,7 -5,9l-26 25z"/>
    </g>
   </g>
   <g>
    <g>
     <path class="fil4" d="M88 73l-9 -29 -5 2 8 27 -2 2 -9 -22 -5 2 11 26c0,1 1,1 2,2 0,0 0,0 1,0 1,0 1,0 2,-1l6 -5c1,-1 1,-2 1,-3z"/>
    </g>
   </g>
   <g>
    <g>
     <path class="fil4" d="M54 156c-20,10 -36,11 -43,3 -13,-13 1,-50 32,-87l-4 -4c-34,40 -48,79 -32,95 4,4 10,6 18,6 9,0 20,-3 32,-9l-2 -5z"/>
    </g>
   </g>
   <g>
    <g>
     <path class="fil4" d="M150 98c0,-1 -1,-1 -3,-1l-10 0 -8 -15c0,-1 -1,-2 -3,-2l-28 0c-2,0 -3,1 -3,3l0 23c0,2 1,3 3,3l9 0 0 31c0,2 1,3 3,3l14 0c1,0 1,0 2,-1l11 -11c1,-1 1,-1 1,-2l0 -10 11 -16c1,-1 1,-2 0,-3zm-16 17c0,0 0,1 0,2l0 10 -10 10 -10 0 0 0 0 -31c0,-2 -1,-3 -3,-3l-9 0 0 -17 24 0 8 15c0,1 1,2 3,2l6 0 -8 13z"/>
    </g>
   </g>
   <g>
    <g>
     <path class="fil4" d="M152 74l-11 -18c-1,-1 -1,-1 -2,-1l-17 0c-1,0 -2,0 -2,1l-5 7 -7 0 0 -14 14 0c1,0 1,0 2,-1l11 -11 13 0 0 -6 -14 0c-1,0 -1,0 -2,1l-11 11 -16 0c-2,0 -3,1 -3,3l0 20c0,2 1,3 3,3l11 0c1,0 2,0 2,-1l5 -7 14 0 11 18c1,1 1,1 2,1l11 0 0 -6 -10 0z"/>
    </g>
   </g>
   <g>
    <g>
     <path class="fil4" d="M82 102l-16 0 -8 -8c-1,-1 -1,-1 -2,-1l-14 0c-2,0 -3,1 -3,3l0 20c0,2 1,3 3,3l11 0 0 28c0,1 1,2 2,3 0,0 1,0 1,0 1,0 1,0 2,-1l11 -9c1,-1 1,-1 1,-2l0 -7 13 -10c1,-1 1,-1 1,-2l0 -14c0,-2 -1,-3 -3,-3zm-3 16l-13 10c-1,1 -1,1 -1,2l0 7 -6 4 0 -26c0,-2 -1,-3 -3,-3l-11 0 0 -14 10 0 8 8c1,1 1,1 2,1l14 0 0 10z"/>
    </g>
   </g>
   <g>
    <g>
     <path class="fil4" d="M25 61l-9 -14c-1,-1 -1,-1 -2,-1l-3 0 0 6 1 0 7 11 -7 7c-1,1 -1,1 -1,2l0 9 -9 0 0 6 11 0c2,0 3,-1 3,-3l0 -10 8 -8c1,-1 1,-2 0,-3z"/>
    </g>
   </g>
   <g>
    <g>
     <path class="fil4" d="M88 3l0 3 -9 2c0,0 -1,0 -1,0l-7 5 -16 -8 -3 5 17 9c0,0 1,0 1,0 1,0 1,0 2,0l8 -5 11 -3c1,0 2,-1 2,-3l0 -6 -6 0z"/>
    </g>
   </g>
   <g>
   </g>
   <g>
   </g>
   <g>
   </g>
   <g>
   </g>
   <g>
   </g>
   <g>
   </g>
   <g>
   </g>
   <g>
   </g>
   <g>
   </g>
   <g>
   </g>
   <g>
   </g>
   <g>
   </g>
   <g>
   </g>
   <g>
   </g>
   <g>
   </g>
  </g>
 </g>
</svg>
