<?xml version="1.0" encoding="UTF-8"?>
<!DOCTYPE svg PUBLIC "-//W3C//DTD SVG 1.1//EN" "http://www.w3.org/Graphics/SVG/1.1/DTD/svg11.dtd">
<!-- Creator: CorelDRAW 2017 -->
<svg xmlns="http://www.w3.org/2000/svg" xml:space="preserve" width="25.0564mm" height="18.7786mm" version="1.1" style="shape-rendering:geometricPrecision; text-rendering:geometricPrecision; image-rendering:optimizeQuality; fill-rule:evenodd; clip-rule:evenodd"
viewBox="0 0 298 224"
 xmlns:xlink="http://www.w3.org/1999/xlink"
 data-name="Layer 1">
 <defs>
  <style type="text/css">
   <![CDATA[
    .str0 {stroke:#4A4A4A;stroke-width:5.95404;stroke-opacity:0.701961}
    .str1 {stroke:#949494;stroke-width:5.95404}
    .fil2 {fill:none}
    .fil1 {fill:none}
    .fil4 {fill:#967C58}
    .fil3 {fill:#7F7D7A;fill-rule:nonzero}
    .fil0 {fill:#4A4A4A;fill-opacity:0.701961}
   ]]>
  </style>
 </defs>
<symbol id="Footer" viewBox="-1493 -4519 481 148">
 <path class="fil0" d="M-1117 -4416l1 1c0,0 1,1 2,2l5 4c4,4 8,8 12,12 2,2 3,3 6,3 2,0 3,-1 4,-2l10 -9c0,0 0,0 0,0l6 -5c0,0 1,0 1,-1l3 -3c1,0 1,-1 2,-1 0,0 0,0 0,0l0 32c0,0 -12,0 -13,0l-35 0c-1,0 -3,0 -3,0l0 -31c0,0 0,0 0,0zm23 14c0,0 0,0 -1,-1l-3 -3c-1,-1 -2,-2 -3,-3l-14 -14 45 0c0,0 -1,1 -1,1 -1,1 -2,2 -4,3l-9 8c0,0 -1,0 -1,1 0,0 0,0 -1,1 0,0 0,0 -1,1l-4 3c0,0 0,0 -1,1 0,0 0,0 -1,1 -1,0 -2,2 -2,2l-1 -1zm-24 -27c-2,0 -4,1 -5,2 -2,2 -2,3 -2,6l0 29c0,2 0,5 0,7 0,2 1,4 2,5 2,1 3,2 5,2l47 0c4,0 6,0 8,-2 1,-1 1,-1 1,-2 0,-1 0,-2 0,-3l0 -29c0,-2 0,-5 0,-7 0,-2 -1,-4 -2,-5 -2,-1 -3,-2 -5,-2l-47 0c-1,0 -2,0 -4,0z"/>
 <path class="fil0" d="M-1117 -4416c0,0 0,0 0,0l0 31c0,0 3,0 3,0l35 0c1,0 12,0 13,0l0 -32c0,0 0,0 0,0 0,0 0,0 0,0 0,0 0,0 0,0 0,10 0,20 0,31l-51 0 0 -31c0,0 0,0 0,0z"/>
 <path class="fil1 str0" d="M-1223 -4427c1,0 2,0 3,1 2,1 3,4 3,7 0,3 0,10 -1,12 -2,3 -5,0 -6,-2 0,-1 -1,-1 -1,-2 -2,-3 -5,-10 -7,-13 -1,-2 -1,-3 -3,-4 -2,-1 -11,0 -13,0 -6,0 -3,3 -1,8 1,3 3,6 5,9 3,6 7,11 10,16 4,5 5,6 10,10 1,1 3,2 4,3 3,1 7,3 11,2 2,0 5,0 7,0 4,-1 1,-6 4,-10 4,-6 8,5 15,9 2,1 3,1 5,1 10,0 21,2 12,-9 -3,-4 -7,-7 -10,-10 -3,-3 -1,-5 2,-9 3,-4 9,-12 11,-16 2,-5 -3,-4 -8,-4l-10 0c-2,0 -2,2 -3,4 -2,5 -5,11 -9,15 -1,1 -3,3 -4,3 -4,1 -3,-8 -3,-10 0,-3 1,-10 -1,-12 -2,-3 -14,-2 -18,-1 -1,0 -4,2 -4,3z"/>
 <path class="fil0" d="M-1319 -4379l-14 0c-2,0 -3,0 -5,0 -1,0 -5,0 -6,-1 0,0 0,0 0,0 -1,0 -3,-1 -4,-2 -1,-1 -2,-2 -2,-3 0,-1 -1,-1 -1,-2 0,0 0,-1 0,-1l0 -2c0,0 0,0 0,0l0 -2c0,0 0,-1 0,-1 0,0 0,-1 0,-1 0,0 0,-1 0,-1 0,-1 0,-2 0,-2 0,-2 0,-16 0,-16 0,0 0,-1 0,-1 0,-1 0,-2 0,-2 0,-1 0,-1 0,-2 0,0 0,-1 0,-1 0,-2 0,-3 1,-5 0,0 0,-1 0,-1 0,-1 1,-2 2,-2 1,-1 3,-2 4,-2 1,0 1,0 2,-1l2 0c1,0 3,0 4,0 1,0 1,0 2,0 0,0 0,0 1,0l15 0c1,0 2,0 2,0l5 0 3 0c1,0 3,1 4,1l1 1c0,0 1,1 1,1 1,1 2,2 2,3 0,1 1,2 1,3 0,1 1,3 1,5 0,0 0,0 0,1l0 3 0 17c0,1 0,2 0,3 0,0 0,1 0,1 0,0 0,1 0,1l0 2c0,1 0,2 -1,3 0,0 0,0 0,0 0,1 -1,2 -2,3 0,0 -1,1 -1,1l-1 0c0,0 0,0 -1,0l-2 1c-1,0 -3,1 -4,1 -1,0 -1,0 -2,0 0,0 0,0 -1,0 0,0 0,0 -1,0 0,0 0,0 -1,0 0,0 0,0 -1,0l-2 0c0,0 -1,0 -1,0zm-40 -36l0 18c0,1 0,2 0,3l0 3c0,2 0,3 1,5 0,2 2,5 4,7l2 2 1 1c0,0 1,0 1,1 2,1 3,2 6,2 0,0 0,0 1,0 0,0 0,0 1,0 0,0 0,0 1,0 1,0 2,0 2,0 0,0 1,0 1,0 0,0 0,0 1,0 2,0 4,0 6,0l10 0c1,0 3,0 4,0 1,0 2,0 3,0 1,0 2,0 2,0 0,0 1,0 1,0 1,0 2,0 3,-1 0,0 1,0 1,0l1 0c0,0 0,0 1,0 2,-1 4,-2 5,-3 0,0 0,0 0,0 1,-1 2,-2 3,-3 1,-1 2,-3 2,-4 0,0 0,0 0,-1l1 -3c0,-2 0,-4 0,-6 0,0 0,0 0,-1l0 -10c0,-3 0,-5 0,-7 0,-1 0,-1 0,-2 0,-1 0,-1 0,-2 0,-1 0,-4 0,-5 0,-1 0,-2 0,-2l0 -1c0,-1 -1,-2 -1,-3 0,-1 -1,-3 -2,-4 0,-1 -1,-1 -1,-2 0,0 0,0 0,0l-1 -1c0,0 0,0 0,0 0,0 -1,-1 -2,-1 0,0 0,0 -1,0l-4 -2c-1,0 -2,0 -2,-1 -1,0 -3,0 -4,0 -1,0 -1,0 -2,0 -1,0 -1,0 -2,0 -1,0 -1,0 -2,0 -2,0 -16,0 -17,0 -1,0 -2,0 -3,0 0,0 -1,0 -2,0l-1 0c-1,0 -2,0 -3,0 -1,0 -2,0 -2,1l-2 1c-1,1 -2,1 -3,2 -1,1 -2,2 -3,3l-1 1c-1,2 -2,3 -3,5 0,2 -1,3 -1,5 0,0 0,1 0,1 0,0 0,1 0,1 0,1 0,2 0,3z"/>
 <path class="fil0" d="M-1326 -4395c-1,0 -2,0 -3,0 -2,0 -4,-1 -5,-3 0,0 -1,-1 -1,-1l0 -1c0,0 0,0 0,0l-1 -2c0,0 0,-1 0,-1 0,-2 0,-4 0,-6 0,-1 1,-2 2,-3 1,-1 2,-2 3,-3 0,0 0,0 0,0 2,-1 4,-1 7,-1 1,0 1,0 2,0 1,0 1,0 2,1 1,0 2,1 3,2 1,1 1,2 2,3 1,1 1,2 1,3 0,1 0,3 0,4l0 1c0,1 -1,2 -1,3 0,0 0,0 0,0 -1,2 -3,3 -6,4 -1,0 -2,0 -2,0zm-1 6c2,0 3,0 5,-1 0,0 0,0 0,0 2,-1 3,-1 5,-3l2 -2 1 -1c0,0 0,0 0,-1l0 -1c1,-2 2,-5 2,-8 0,-2 0,-2 0,-4 0,0 0,-1 0,-1 0,-1 0,-1 -1,-2 0,0 0,0 0,0 -1,-2 -2,-5 -4,-6 -2,-2 -5,-4 -8,-4 0,0 -1,0 -1,0 -1,0 -2,0 -3,0l-2 0 -2 0c-1,0 -2,1 -4,1l-1 1c-1,1 -3,2 -4,3l-1 1c0,0 0,0 0,1 -1,1 -2,2 -2,3 0,1 -1,2 -1,3 0,1 0,1 0,2 0,0 0,1 0,1 0,0 0,1 0,1 0,2 0,3 1,5 0,1 0,1 1,2 0,0 0,0 0,1 0,0 0,0 0,0 1,1 1,2 2,3 1,1 2,2 4,3l1 1c1,1 3,1 4,2 0,0 1,0 1,0 0,0 1,0 1,0 0,0 0,0 0,0l2 0z"/>
 <path class="fil0" d="M-1313 -4423c0,1 0,2 1,3l0 0c0,0 0,0 0,0 1,1 1,1 3,1 1,0 1,0 2,0 1,-1 2,-2 2,-3 0,-1 0,-1 0,-2 -1,-1 -2,-2 -3,-2l0 0c-2,0 -4,2 -4,4z"/>
 <path class="fil2 str1" d="M-1419 -4415l0 5 7 0 0 5c0,0 0,1 0,1 0,1 0,2 0,2l-6 0 0 22 -10 0 0 -22c0,0 0,0 0,0l-4 0 0 -7 4 0c0,-2 0,-5 0,-7 0,-1 1,-3 2,-4 0,-1 0,-1 1,-1 1,-1 2,-1 2,-1 1,0 2,-1 3,-1l9 0 0 7 -4 0c-2,0 -3,1 -3,2zm-43 -10l0 40c0,2 0,3 1,5 0,1 1,2 2,3l0 0c0,0 0,0 1,1 1,0 1,1 2,1 2,1 4,2 6,2l39 0c2,0 4,0 5,-1 1,0 1,-1 2,-1 1,-1 2,-2 3,-3 1,-2 2,-4 2,-7l0 -39c0,-1 0,-3 -1,-4 0,-1 -1,-3 -2,-4 0,0 0,-1 -1,-1l-1 -1c-1,-1 -3,-2 -5,-2 -1,0 -2,0 -3,0l-40 0c-2,0 -3,1 -5,1 -1,0 -1,1 -2,1 -1,0 -1,1 -1,1 0,0 0,0 0,0 -2,2 -3,5 -3,8z"/>
 <path class="fil3" d="M-1476 -4517c-10,0 -18,8 -18,18 0,10 8,18 18,18 10,0 18,-8 18,-18 0,-10 -8,-18 -18,-18zm0 2c8,0 15,7 15,16 0,9 -6,16 -15,16 -8,0 -15,-7 -15,-16 0,-9 6,-16 15,-16zm8 7c-1,-1 -3,-2 -6,-2 -6,0 -11,4 -11,11 0,6 4,11 11,11 2,0 5,0 7,-2l-1 -2c-1,1 -4,2 -6,2 -5,0 -8,-4 -8,-8 0,-5 3,-8 8,-8 3,0 5,1 6,1l1 -2z"/>
 <polygon id="1" class="fil3" points="-1439,-4479 -1434,-4479 -1434,-4497 -1419,-4497 -1419,-4501 -1434,-4501 -1434,-4514 -1417,-4514 -1417,-4518 -1439,-4518 "/>
 <path id="2" class="fil3" d="M-1389 -4507l-5 0 0 17c0,1 0,2 0,3 -1,2 -3,5 -7,5 -5,0 -6,-4 -6,-9l0 -16 -5 0 0 17c0,10 5,12 10,12 5,0 8,-3 9,-5l0 0 0 5 5 0c0,-2 0,-5 0,-8l0 -21z"/>
 <path id="3" class="fil3" d="M-1379 -4514l0 7 -4 0 0 4 4 0 0 16c0,3 1,6 2,7 1,1 3,2 6,2 2,0 4,0 5,-1l0 -4c-1,0 -2,0 -3,0 -3,0 -4,-2 -4,-6l0 -15 7 0 0 -4 -7 0 0 -8 -5 1z"/>
 <path id="4" class="fil3" d="M-1337 -4507l-5 0 0 17c0,1 0,2 0,3 -1,2 -3,5 -7,5 -5,0 -6,-4 -6,-9l0 -16 -5 0 0 17c0,10 5,12 10,12 5,0 8,-3 9,-5l0 0 0 5 5 0c0,-2 0,-5 0,-8l0 -21z"/>
 <path id="5" class="fil3" d="M-1328 -4479l5 0 0 -15c0,-1 0,-2 0,-2 1,-4 3,-7 7,-7 1,0 1,0 2,0l0 -5c0,0 -1,0 -1,0 -3,0 -7,2 -8,6l0 0 0 -6 -5 0c0,3 0,6 0,9l0 20z"/>
 <path id="6" class="fil3" d="M-1297 -4508c-8,0 -14,6 -14,15 0,9 6,15 14,15 7,0 14,-5 14,-15 0,-9 -6,-15 -14,-15zm0 4c6,0 9,6 9,11 0,6 -4,11 -9,11 -5,0 -9,-5 -9,-11 0,-5 3,-11 9,-11z"/>
 <path id="7" class="fil3" d="M-1238 -4484c-2,1 -5,2 -8,2 -10,0 -15,-6 -15,-16 0,-10 6,-16 15,-16 3,0 6,1 8,2l1 -4c-1,-1 -4,-2 -9,-2 -12,0 -21,8 -21,21 0,13 8,20 20,20 5,0 9,-1 10,-2l-1 -4z"/>
 <path id="8" class="fil3" d="M-1211 -4479c0,-2 0,-4 0,-7l0 -11c0,-6 -2,-12 -11,-12 -4,0 -7,1 -9,3l1 3c2,-1 5,-2 7,-2 6,0 6,4 6,7l0 1c-11,0 -17,4 -17,11 0,4 3,8 9,8 4,0 7,-2 9,-4l0 0 0 4 5 0zm-5 -10c0,1 0,1 0,2 -1,2 -3,5 -7,5 -3,0 -5,-2 -5,-5 0,-6 6,-7 12,-6l0 5z"/>
 <path id="9" class="fil3" d="M-1205 -4480c2,1 5,2 8,2 7,0 11,-4 11,-9 0,-4 -3,-7 -7,-9 -4,-1 -5,-2 -5,-5 0,-2 2,-4 5,-4 3,0 5,1 6,2l1 -4c-2,-1 -4,-2 -7,-2 -6,0 -10,4 -10,8 0,3 2,6 8,8 4,1 5,3 5,5 0,2 -2,4 -6,4 -3,0 -5,-1 -7,-2l-1 4z"/>
 <path id="10" class="fil3" d="M-1159 -4479c0,-2 0,-4 0,-7l0 -11c0,-6 -2,-12 -11,-12 -4,0 -7,1 -9,3l1 3c2,-1 5,-2 7,-2 6,0 6,4 6,7l0 1c-11,0 -17,4 -17,11 0,4 3,8 9,8 4,0 7,-2 9,-4l0 0 0 4 5 0zm-5 -10c0,1 0,1 0,2 -1,2 -3,5 -7,5 -3,0 -5,-2 -5,-5 0,-6 6,-7 12,-6l0 5z"/>
 <path id="11" class="fil3" d="M-1151 -4472c2,-3 4,-9 6,-14l-6 1c-1,4 -2,11 -4,14l4 0z"/>
 <path id="12" class="fil3" d="M-1104 -4479l0 -4 -17 0 0 0 3 -3c8,-8 13,-13 13,-21 0,-5 -3,-11 -12,-11 -4,0 -8,2 -11,4l2 4c2,-1 5,-3 8,-3 6,0 8,4 8,7 0,6 -4,11 -14,20l-4 4 0 3 24 0z"/>
 <path id="13" class="fil3" d="M-1085 -4518c-8,0 -13,7 -13,20 0,13 5,20 13,20 8,0 13,-7 13,-20 0,-12 -5,-19 -13,-19zm0 4c5,0 8,6 8,16 0,10 -3,16 -8,16 -5,0 -8,-6 -8,-16 0,-10 3,-16 8,-16z"/>
 <polygon id="14" class="fil3" points="-1056,-4479 -1051,-4479 -1051,-4517 -1056,-4517 -1064,-4512 -1063,-4509 -1057,-4512 -1056,-4512 "/>
 <path id="15" class="fil3" d="M-1025 -4478c7,0 13,-4 13,-11 0,-5 -3,-8 -8,-10l0 0c5,-2 6,-6 6,-9 0,-5 -4,-9 -11,-9 -7,0 -12,4 -12,10 0,3 2,7 6,9l0 0c-5,2 -8,5 -8,10 0,6 5,10 13,10zm0 -4c-5,0 -8,-3 -8,-7 0,-4 2,-7 7,-8 5,1 8,4 8,8 0,4 -3,7 -8,7zm0 -32c5,0 6,3 6,6 0,3 -3,6 -6,7 -4,-1 -7,-3 -7,-7 0,-3 2,-6 7,-6z"/>
</symbol>
 <g id="Слой_x0020_3">
  <metadata id="CorelCorpID_0Corel-Layer"/>
  <g id="_825259336">
   <path class="fil4" d="M295 4c-3,0 -85,-4 -98,-4 -30,0 -43,5 -47,9 -7,-6 -23,-9 -48,-9 -13,0 -95,4 -99,4 -2,0 -3,1 -3,3l0 209c0,0 0,0 0,0 0,2 1,3 3,3 3,0 84,4 99,4 31,0 43,-5 48,-9 5,4 17,9 47,9 14,0 95,-4 99,-4 2,0 3,-1 3,-3 0,0 0,0 0,0l0 -209c0,-2 -1,-3 -3,-3 0,0 0,0 0,0l0 0zm-149 206c-2,2 -10,7 -44,7 -13,0 -81,-3 -96,-4l0 -203c15,-1 84,-4 96,-4 36,0 43,7 44,8l0 196zm146 3c-15,1 -83,4 -96,4 -38,0 -44,-7 -44,-8l0 -195c2,-2 9,-8 45,-8 12,0 81,4 96,4l-1 203z"/>
   <path class="fil4" d="M168 28l0 42c0,2 1,3 3,3 0,0 0,0 0,0l63 0c0,0 0,0 0,0 2,0 3,-1 3,-3l0 -42c0,-2 -1,-3 -3,-3 0,0 0,0 0,0l-63 0c-2,0 -3,1 -3,3l0 0zm10 0l56 0 0 35 -56 0 0 -35z"/>
   <path class="fil4" d="M273 88l-102 0c-2,0 -3,1 -3,3l0 103c0,2 1,3 3,3l102 0c2,0 3,-1 3,-3l0 -103c0,0 0,0 0,0 0,-2 -1,-3 -3,-3l0 0zm-3 103l-96 0 0 -96 96 0 0 96z"/>
   <path class="fil4" d="M189 116l15 0c2,0 3,-1 3,-3 0,-2 -1,-3 -3,-3l-15 0c-2,0 -3,1 -3,3 0,2 1,3 3,3l0 0z"/>
   <path class="fil4" d="M247 31l26 0c2,0 3,-1 3,-3 0,-2 -1,-3 -3,-3l-26 0c-2,0 -3,1 -3,3 0,2 1,3 3,3l0 0z"/>
   <path class="fil4" d="M247 45l26 0c2,0 3,-1 3,-3 0,-2 -1,-3 -3,-3l-26 0c-2,0 -3,1 -3,3 0,2 1,3 3,3l0 0z"/>
   <path class="fil4" d="M273 52l-26 0c-2,0 -3,1 -3,3 0,2 1,3 3,3l26 0c2,0 3,-1 3,-3 0,-2 -1,-3 -3,-3l0 0z"/>
   <path class="fil4" d="M273 66l-26 0c-2,0 -3,1 -3,3 0,2 1,3 3,3l26 0c2,0 3,-1 3,-3 0,-2 -1,-3 -3,-3l0 0z"/>
   <path class="fil4" d="M214 116l15 0c2,0 3,-1 3,-3 0,-2 -1,-3 -3,-3l-15 0c-2,0 -3,1 -3,3 0,2 1,3 3,3l0 0z"/>
   <path class="fil4" d="M240 116l15 0c2,0 3,-1 3,-3 0,-2 -1,-3 -3,-3l-15 0c-2,0 -3,1 -3,3 0,2 1,3 3,3l0 0z"/>
   <path class="fil4" d="M189 138l15 0c2,0 3,-1 3,-3 0,-2 -1,-3 -3,-3l-15 0c-2,0 -3,1 -3,3 0,2 1,3 3,3l0 0z"/>
   <path class="fil4" d="M214 138l15 0c2,0 3,-1 3,-3 0,-2 -1,-3 -3,-3l-15 0c-2,0 -3,1 -3,3 0,2 1,3 3,3l0 0z"/>
   <path class="fil4" d="M240 138l15 0c2,0 3,-1 3,-3 0,-2 -1,-3 -3,-3l-15 0c-2,0 -3,1 -3,3 0,2 1,3 3,3l0 0z"/>
   <path class="fil4" d="M189 158l15 0c2,0 3,-1 3,-3 0,-2 -1,-3 -3,-3l-15 0c-2,0 -3,1 -3,3 0,2 1,3 3,3l0 0z"/>
   <path class="fil4" d="M214 158l15 0c2,0 3,-1 3,-3 0,-2 -1,-3 -3,-3l-15 0c-2,0 -3,1 -3,3 0,2 1,3 3,3l0 0z"/>
   <path class="fil4" d="M240 158l15 0c2,0 3,-1 3,-3 0,-2 -1,-3 -3,-3l-15 0c-2,0 -3,1 -3,3 0,2 1,3 3,3l0 0z"/>
   <path class="fil4" d="M189 180l15 0c2,0 3,-1 3,-3 0,-2 -1,-3 -3,-3l-15 0c-2,0 -3,1 -3,3 0,2 1,3 3,3l0 0z"/>
   <path class="fil4" d="M214 180l15 0c2,0 3,-1 3,-3 0,-2 -1,-3 -3,-3l-15 0c-2,0 -3,1 -3,3 0,2 1,3 3,3l0 0z"/>
   <path class="fil4" d="M240 180l15 0c2,0 3,-1 3,-3 0,-2 -1,-3 -3,-3l-15 0c-2,0 -3,1 -3,3 0,2 1,3 3,3l0 0z"/>
   <path class="fil4" d="M67 24l-43 0c-2,0 -3,1 -3,3l0 24c0,2 1,3 3,3l43 0c2,0 3,-1 3,-3l0 -24c0,0 0,0 0,0 0,-2 -1,-3 -3,-3l0 0zm0 28l-39 0 0 -21 36 0 3 21z"/>
   <path class="fil4" d="M24 71l43 0c2,0 3,-1 3,-3 0,-2 -1,-3 -3,-3l-43 0c-2,0 -3,1 -3,3 0,2 1,3 3,3l0 0z"/>
   <path class="fil4" d="M67 87l-43 0c-2,0 -3,1 -3,3l0 24c0,2 1,3 3,3l43 0c2,0 3,-1 3,-3l0 -24c0,0 0,0 0,0 0,-2 -1,-3 -3,-3l0 0zm-3 24l-36 0 0 -18 36 0 0 18z"/>
   <path class="fil4" d="M24 133l43 0c2,0 3,-1 3,-3 0,-2 -1,-3 -3,-3l-43 0c-2,0 -3,1 -3,3 0,2 1,3 3,3l0 0z"/>
   <path class="fil4" d="M67 151l-43 0c-2,0 -3,1 -3,3l0 24c0,2 1,3 3,3l43 0c2,0 3,-1 3,-3l0 -24c0,0 0,0 0,0 0,-2 -1,-3 -3,-3l0 0zm0 28l-39 0 0 -21 36 0 3 21z"/>
   <path class="fil4" d="M67 190l-43 0c-2,0 -3,1 -3,3 0,2 1,3 3,3l43 0c2,0 3,-1 3,-3 0,-2 -1,-3 -3,-3l0 0z"/>
   <path class="fil4" d="M81 28l0 24c0,2 1,3 3,3l43 0c2,0 3,-1 3,-3l0 -24c0,-2 -1,-3 -3,-3l-43 0c-2,0 -3,1 -3,3l0 0zm10 0l36 0 0 18 -36 0 0 -18z"/>
   <path class="fil4" d="M84 71l43 0c2,0 3,-1 3,-3 0,-2 -1,-3 -3,-3l-43 0c-2,0 -3,1 -3,3 0,2 1,3 3,3l0 0z"/>
   <path class="fil4" d="M127 87l-43 0c-2,0 -3,1 -3,3l0 24c0,2 1,3 3,3l43 0c2,0 3,-1 3,-3l0 -24c0,-2 -1,-3 -3,-3l0 0zm0 28l-36 0 0 -18 36 0 0 18z"/>
   <path class="fil4" d="M84 133l43 0c2,0 3,-1 3,-3 0,-2 -1,-3 -3,-3l-43 0c-2,0 -3,1 -3,3 0,2 1,3 3,3l0 0z"/>
   <path class="fil4" d="M127 151l-43 0c-2,0 -3,1 -3,3l0 24c0,2 1,3 3,3l43 0c2,0 3,-1 3,-3l0 -24c0,-2 -1,-3 -3,-3l0 0zm0 28l-36 0 0 -18 36 0 0 18z"/>
   <path class="fil4" d="M127 190l-43 0c-2,0 -3,1 -3,3 0,2 1,3 3,3l43 0c2,0 3,-1 3,-3 0,-2 -1,-3 -3,-3l0 0z"/>
   <polygon class="fil4" points="199,42 195,49 199,55 206,55 210,49 206,42 "/>
  </g>
 </g>
</svg>
