<?xml version="1.0" encoding="UTF-8"?>
<!DOCTYPE svg PUBLIC "-//W3C//DTD SVG 1.1//EN" "http://www.w3.org/Graphics/SVG/1.1/DTD/svg11.dtd">
<!-- Creator: CorelDRAW 2017 -->
<svg xmlns="http://www.w3.org/2000/svg" xml:space="preserve" width="21.444mm" height="21.4172mm" version="1.1" style="shape-rendering:geometricPrecision; text-rendering:geometricPrecision; image-rendering:optimizeQuality; fill-rule:evenodd; clip-rule:evenodd"
viewBox="0 0 216 215"
 xmlns:xlink="http://www.w3.org/1999/xlink">
 <defs>
  <style type="text/css">
   <![CDATA[
    .str0 {stroke:#4A4A4A;stroke-width:5.02704;stroke-opacity:0.701961}
    .str1 {stroke:#949494;stroke-width:5.02704}
    .fil2 {fill:none}
    .fil1 {fill:none}
    .fil4 {fill:#967C58}
    .fil3 {fill:#7F7D7A;fill-rule:nonzero}
    .fil5 {fill:#967C58;fill-rule:nonzero}
    .fil0 {fill:#4A4A4A;fill-opacity:0.701961}
   ]]>
  </style>
 </defs>
<symbol id="Footer" viewBox="-1275 -4113 406 125">
 <path class="fil0" d="M-957 -4027l1 1c0,0 1,1 1,1l4 4c3,3 7,7 10,10 1,1 3,3 5,2 1,0 2,-1 3,-2l8 -8c0,0 0,0 0,0l5 -5c0,0 0,0 1,-1l3 -2c0,0 1,-1 1,-1 0,0 0,0 0,0l0 27c0,0 -10,0 -11,0l-30 0c-1,0 -2,0 -3,0l0 -26c0,0 0,0 0,0zm20 11c0,0 0,0 -1,-1l-3 -3c-1,-1 -2,-2 -2,-2l-12 -11 38 0c0,0 -1,1 -1,1 -1,1 -2,2 -3,3l-7 7c0,0 0,0 -1,1 0,0 0,0 -1,1 0,0 0,0 -1,1l-3 3c0,0 0,0 -1,1 0,0 0,0 -1,1 0,0 -1,1 -2,2l-1 -1zm-20 -23c-2,0 -3,1 -4,2 -1,1 -1,3 -1,5l0 25c0,2 0,4 0,6 0,2 1,3 2,4 1,1 2,2 5,2l40 0c3,0 5,0 7,-2 0,0 1,-1 1,-2 0,-1 0,-2 0,-3l0 -25c0,-2 0,-4 0,-6 0,-2 -1,-3 -2,-4 -1,-1 -2,-2 -5,-2l-40 0c-1,0 -2,0 -3,0z"/>
 <path class="fil0" d="M-957 -4027c0,0 0,0 0,0l0 26c0,0 2,0 3,0l30 0c1,0 11,0 11,0l0 -27c0,0 0,0 0,0 0,0 0,0 0,0 0,0 0,0 0,0 0,9 0,17 0,26l-43 0 0 -26c0,0 0,0 0,0z"/>
 <path class="fil1 str0" d="M-1047 -4035c1,0 1,0 2,1 2,1 2,4 2,6 0,3 0,8 -1,10 -1,3 -4,0 -5,-2 0,-1 -1,-1 -1,-2 -1,-2 -5,-9 -6,-11 -1,-2 -1,-3 -2,-3 -1,-1 -9,0 -11,0 -5,0 -3,3 -1,6 1,3 2,5 4,8 3,5 6,10 9,14 3,5 4,5 9,8 1,1 3,2 4,2 3,1 6,2 9,2 1,0 4,0 6,0 3,-1 1,-5 3,-8 3,-5 7,4 12,8 2,1 3,1 4,1 8,0 17,2 10,-7 -3,-4 -6,-6 -8,-9 -2,-3 -1,-5 2,-7 3,-3 8,-10 9,-14 1,-4 -3,-3 -7,-3l-8 0c-2,0 -2,2 -2,3 -2,4 -5,9 -7,13 0,1 -2,3 -3,3 -3,1 -3,-7 -2,-9 0,-3 1,-8 -1,-10 -1,-2 -12,-2 -15,-1 -1,0 -3,1 -3,2z"/>
 <path class="fil0" d="M-1128 -3995l-12 0c-1,0 -3,0 -4,0 -1,0 -4,0 -5,-1 0,0 0,0 0,0 -1,0 -3,-1 -4,-2 -1,-1 -1,-1 -2,-2 0,0 0,-1 -1,-1 0,0 0,-1 0,-1l0 -2c0,0 0,0 0,0l0 -1c0,0 0,-1 0,-1 0,0 0,-1 0,-1 0,0 0,-1 0,-1 0,-1 0,-1 0,-2 0,-2 0,-13 0,-14 0,0 0,-1 0,-1 0,-1 0,-2 0,-2 0,-1 0,-1 0,-2 0,0 0,-1 0,-1 0,-2 0,-2 1,-4 0,0 0,0 0,-1 0,-1 1,-1 1,-2 1,-1 2,-2 3,-2 1,0 1,0 2,0l2 0c1,0 2,0 3,0 0,0 1,0 2,0 0,0 0,0 0,0l12 0c1,0 1,0 2,0l4 0 3 0c1,0 2,1 3,1l1 1c0,0 1,1 1,1 0,0 1,2 2,2 0,1 1,1 1,2 0,1 1,3 1,4 0,0 0,0 0,1l0 3 0 14c0,1 0,2 0,3 0,0 0,1 0,1 0,0 0,1 0,1l0 2c0,1 0,2 -1,3 0,0 0,0 0,0 0,1 -1,2 -2,3 0,0 -1,1 -1,1l-1 0c0,0 0,0 -1,0l-1 1c-1,0 -2,1 -3,1 -1,0 -1,0 -2,0 0,0 0,0 0,0 0,0 0,0 -1,0 0,0 0,0 0,0 0,0 0,0 -1,0l-2 0c0,0 -1,0 -1,0zm-33 -30l0 15c0,1 0,2 0,3l0 3c0,2 0,2 1,4 0,2 2,4 3,6l2 2 1 1c0,0 1,0 1,1 2,1 3,1 5,2 0,0 0,0 1,0 0,0 0,0 1,0 0,0 0,0 1,0 1,0 1,0 2,0 0,0 0,0 1,0 0,0 0,0 1,0 2,0 4,0 5,0l9 0c1,0 2,0 3,0 1,0 2,0 3,0 0,0 1,0 2,0 0,0 0,0 1,0 1,0 2,0 3,0 0,0 1,0 1,0l1 0c0,0 0,0 1,0 1,0 3,-1 4,-2 0,0 0,0 0,0 1,-1 2,-2 2,-2 1,-1 1,-2 2,-3 0,0 0,0 0,-1l1 -2c0,-1 0,-3 0,-5 0,0 0,0 0,-1l0 -8c0,-2 0,-4 0,-6 0,-1 0,-1 0,-2 0,-1 0,-1 0,-2 0,-1 0,-4 0,-5 0,-1 0,-1 0,-2l0 -1c0,-1 0,-1 -1,-2 0,-1 -1,-2 -2,-3 0,0 -1,-1 -1,-1 0,0 0,0 0,0l-1 -1c0,0 0,0 0,0 0,0 -1,-1 -1,-1 0,0 0,0 0,0l-3 -1c-1,0 -1,0 -2,0 -1,0 -2,0 -4,0 0,0 -1,0 -1,0 -1,0 -1,0 -2,0 -1,0 -1,0 -2,0 -2,0 -14,0 -14,0 -1,0 -2,0 -3,0 0,0 -1,0 -1,0l-1 0c-1,0 -2,0 -2,0 -1,0 -1,0 -2,1l-1 1c-1,0 -2,1 -3,2 -1,1 -2,1 -2,2l-1 1c-1,2 -2,3 -2,5 0,1 -1,3 -1,4 0,0 0,1 0,1 0,0 0,1 0,1 0,1 0,2 0,3z"/>
 <path class="fil0" d="M-1134 -4008c-1,0 -2,0 -2,0 -2,0 -3,-1 -4,-2 0,0 -1,-1 -1,-1l0 0c0,0 0,0 0,0l-1 -2c0,0 0,-1 0,-1 0,-2 0,-4 0,-5 0,-1 1,-2 1,-3 1,-1 2,-2 3,-3 0,0 0,0 0,0 2,-1 4,-1 6,-1 1,0 1,0 2,0 1,0 1,0 2,1 1,0 2,1 2,2 1,1 1,1 1,2 0,1 1,2 1,3 0,1 0,2 0,4l0 1c0,1 -1,1 -1,2 0,0 0,0 0,0 -1,2 -3,3 -5,3 -1,0 -1,0 -2,0zm-1 5c1,0 3,0 4,-1 0,0 0,0 0,0 2,-1 3,-1 4,-2l2 -1 1 -1c0,0 0,0 0,0l0 -1c1,-2 2,-5 2,-7 0,-1 0,-1 0,-3 0,0 0,0 0,-1 0,-1 0,-1 0,-2 0,0 0,0 0,0 -1,-2 -2,-4 -3,-5 -2,-2 -4,-3 -7,-4 0,0 0,0 -1,0 -1,0 -2,0 -2,0l-2 0 -2 0c-1,0 -2,1 -3,1l-1 0c-1,1 -2,2 -3,3l-1 1c0,0 0,0 0,0 -1,1 -1,2 -2,3 0,1 -1,2 -1,3 0,0 0,1 0,1 0,0 0,1 0,1 0,0 0,1 0,1 0,1 0,3 0,4 0,1 0,1 1,2 0,0 0,0 0,1 0,0 0,0 0,0 1,1 1,1 2,2 1,1 2,2 3,3l1 1c1,1 2,1 3,1 0,0 1,0 1,0 0,0 0,0 1,0 0,0 0,0 0,0l2 0z"/>
 <path class="fil0" d="M-1123 -4032c0,1 0,2 1,2l0 0c0,0 0,0 0,0 1,1 1,1 2,1 0,0 1,0 1,0 1,0 2,-2 2,-3 0,-1 0,-1 0,-2 0,-1 -2,-2 -3,-2l0 0c-1,0 -3,2 -3,3z"/>
 <path class="fil2 str1" d="M-1212 -4026l0 4 6 0 0 4c0,0 0,1 0,1 0,0 0,1 0,2l-5 0 0 18 -8 0 0 -18c0,0 0,0 0,0l-3 0 0 -6 3 0c0,-2 0,-5 0,-6 0,-1 1,-2 1,-3 0,0 0,0 1,-1 0,0 1,-1 2,-1 1,0 2,0 3,-1l8 0 0 6 -4 0c-2,0 -2,1 -2,2zm-37 -9l0 34c0,1 0,3 1,4 0,1 1,2 2,3l0 0c0,0 0,0 1,1 0,0 1,1 1,1 1,1 3,1 5,1l33 0c1,0 3,0 4,-1 1,0 1,-1 2,-1 1,-1 2,-2 2,-2 1,-2 2,-4 2,-6l0 -33c0,-1 0,-2 -1,-3 0,-1 -1,-2 -2,-3 0,0 0,0 -1,-1l-1 -1c-1,-1 -2,-2 -4,-2 -1,0 -1,0 -2,0l-34 0c-1,0 -3,0 -4,1 0,0 -1,1 -2,1 -1,0 -1,0 -1,1 0,0 0,0 0,0 -2,2 -3,4 -3,7z"/>
 <path class="fil3" d="M-1260 -4112c-8,0 -15,7 -15,15 0,9 7,15 15,15 8,0 15,-7 15,-15 0,-8 -7,-15 -15,-15zm0 2c7,0 12,6 12,13 0,8 -5,13 -12,13 -7,0 -13,-6 -13,-13 0,-8 5,-13 13,-13zm7 6c-1,-1 -3,-1 -5,-1 -5,0 -9,4 -9,9 0,5 3,9 9,9 2,0 4,0 6,-2l-1 -2c-1,1 -3,1 -5,1 -5,0 -7,-3 -7,-7 0,-4 2,-7 7,-7 2,0 4,1 5,1l1 -2z"/>
 <polygon id="1" class="fil3" points="-1229,-4079 -1225,-4079 -1225,-4095 -1212,-4095 -1212,-4098 -1225,-4098 -1225,-4109 -1211,-4109 -1211,-4113 -1229,-4113 "/>
 <path id="2" class="fil3" d="M-1187 -4103l-4 0 0 15c0,1 0,2 0,2 -1,2 -3,4 -6,4 -4,0 -5,-3 -5,-8l0 -13 -4 0 0 14c0,8 5,11 8,11 4,0 7,-3 8,-4l0 0 0 4 4 0c0,-2 0,-4 0,-7l0 -17z"/>
 <path id="3" class="fil3" d="M-1179 -4109l0 6 -4 0 0 3 4 0 0 13c0,3 0,5 2,6 1,1 3,2 5,2 2,0 3,0 4,-1l0 -3c-1,0 -1,0 -3,0 -2,0 -3,-2 -3,-5l0 -13 6 0 0 -3 -6 0 0 -7 -4 1z"/>
 <path id="4" class="fil3" d="M-1143 -4103l-4 0 0 15c0,1 0,2 0,2 -1,2 -3,4 -6,4 -4,0 -5,-3 -5,-8l0 -13 -4 0 0 14c0,8 5,11 8,11 4,0 7,-3 8,-4l0 0 0 4 4 0c0,-2 0,-4 0,-7l0 -17z"/>
 <path id="5" class="fil3" d="M-1136 -4079l4 0 0 -13c0,-1 0,-1 0,-2 1,-3 3,-6 6,-6 1,0 1,0 1,0l0 -4c0,0 -1,0 -1,0 -3,0 -6,2 -7,5l0 0 0 -5 -4 0c0,2 0,5 0,7l0 17z"/>
 <path id="6" class="fil3" d="M-1110 -4104c-7,0 -12,5 -12,13 0,8 5,12 12,12 6,0 12,-4 12,-13 0,-7 -5,-12 -12,-12zm0 3c5,0 7,5 7,9 0,5 -3,9 -7,9 -4,0 -7,-4 -7,-9 0,-5 2,-9 7,-9z"/>
 <path id="7" class="fil3" d="M-1060 -4084c-2,1 -4,1 -7,1 -8,0 -13,-5 -13,-13 0,-9 5,-14 13,-14 3,0 5,1 7,1l1 -4c-1,-1 -4,-1 -8,-1 -10,0 -17,7 -17,18 0,11 7,17 17,17 4,0 7,-1 9,-2l-1 -3z"/>
 <path id="8" class="fil3" d="M-1037 -4079c0,-2 0,-4 0,-6l0 -9c0,-5 -2,-10 -9,-10 -3,0 -6,1 -8,2l1 3c2,-1 4,-2 6,-2 5,0 5,4 5,6l0 0c-9,0 -14,3 -14,9 0,3 2,7 7,7 3,0 6,-2 7,-4l0 0 0 3 4 0zm-5 -8c0,0 0,1 0,1 -1,2 -3,4 -6,4 -2,0 -4,-1 -4,-4 0,-5 5,-6 10,-5l0 4z"/>
 <path id="9" class="fil3" d="M-1032 -4081c2,1 4,2 7,2 6,0 9,-3 9,-7 0,-4 -2,-6 -6,-7 -3,-1 -5,-2 -5,-4 0,-2 1,-3 4,-3 2,0 4,1 5,1l1 -3c-1,-1 -3,-1 -6,-1 -5,0 -8,3 -8,7 0,3 2,5 6,7 3,1 4,2 4,4 0,2 -1,4 -5,4 -2,0 -4,-1 -6,-2l-1 3z"/>
 <path id="10" class="fil3" d="M-993 -4079c0,-2 0,-4 0,-6l0 -9c0,-5 -2,-10 -9,-10 -3,0 -6,1 -8,2l1 3c2,-1 4,-2 6,-2 5,0 5,4 5,6l0 0c-9,0 -14,3 -14,9 0,3 2,7 7,7 3,0 6,-2 7,-4l0 0 0 3 4 0zm-5 -8c0,0 0,1 0,1 -1,2 -3,4 -6,4 -2,0 -4,-1 -4,-4 0,-5 5,-6 10,-5l0 4z"/>
 <path id="11" class="fil3" d="M-986 -4074c1,-2 4,-8 5,-12l-5 0c-1,4 -2,9 -3,12l3 0z"/>
 <path id="12" class="fil3" d="M-946 -4079l0 -4 -14 0 0 0 3 -2c7,-7 11,-11 11,-17 0,-5 -3,-9 -10,-9 -4,0 -7,1 -9,3l1 3c1,-1 4,-3 7,-3 5,0 6,3 6,6 0,5 -4,9 -12,17l-3 3 0 3 21 0z"/>
 <path id="13" class="fil3" d="M-931 -4112c-7,0 -11,6 -11,17 0,11 4,17 11,17 7,0 11,-6 11,-17 0,-10 -4,-16 -11,-16zm0 3c5,0 7,5 7,13 0,8 -2,13 -7,13 -4,0 -7,-5 -7,-13 0,-9 3,-13 7,-13z"/>
 <polygon id="14" class="fil3" points="-906,-4079 -902,-4079 -902,-4112 -906,-4112 -913,-4108 -912,-4105 -907,-4108 -906,-4108 "/>
 <path id="15" class="fil3" d="M-880 -4079c6,0 11,-4 11,-9 0,-4 -2,-7 -7,-8l0 0c4,-2 5,-5 5,-8 0,-4 -3,-8 -9,-8 -6,0 -10,3 -10,9 0,3 2,6 5,7l0 0c-4,2 -6,5 -6,9 0,5 4,9 11,9zm0 -3c-4,0 -7,-3 -6,-6 0,-3 2,-6 6,-7 4,1 7,3 7,7 0,3 -3,6 -6,6zm0 -27c4,0 5,3 5,5 0,3 -2,5 -5,6 -4,-1 -6,-3 -6,-6 0,-3 2,-5 6,-5z"/>
</symbol>
 <g id="Слой_x0020_3">
  <metadata id="CorelCorpID_0Corel-Layer"/>
  <g id="_825258016">
   <path class="fil4" d="M111 161l17 0 0 47 -17 0 0 -47zm-24 1l17 0 0 8 0 39 -17 0 0 -47zm-14 -8c2,7 3,-1 6,8l1 47 -42 0 0 -121 139 0 0 121 -42 0 0 -47c0,-3 5,0 7,-7l-69 0zm124 -56l-14 0 0 -8 25 0 0 119 -25 0 0 -102 14 0 0 -8zm-179 9l13 0 0 101 -24 0 -1 -119 24 0 0 9 -13 0 0 9zm42 -66c8,-44 85,-48 96,0l21 0 0 39 -138 0 0 -40 21 1zm-60 41l0 132 216 0 0 -132 -31 0 -1 -43 8 0 0 -6 -30 0c-23,-46 -86,-46 -108,0l-30 0 1 7 7 0 0 41 -31 0z"/>
   <path class="fil4" d="M143 131l13 0 0 12 -14 0 0 -12zm-7 19l28 0 0 -25 -29 0 1 25z"/>
   <path class="fil4" d="M60 131l13 0 0 12 -14 0 0 -12zm-7 18l28 0 0 -25 -28 0 0 25z"/>
   <path class="fil4" d="M102 131l13 0 0 12 -14 0 1 -12zm-8 19l28 0 0 -25 -29 0 0 25z"/>
   <path class="fil4" d="M101 100l14 0 0 13 -14 0 0 -13zm-7 19l27 0 1 -25 -30 0 1 25z"/>
   <path class="fil4" d="M143 100l14 1 0 12 -14 0 0 -12zm-7 19l27 0 1 -25 -29 0 1 25z"/>
   <path class="fil4" d="M59 100l14 -1 0 12 -14 0 0 -12zm-7 18l27 0 1 -25 -29 0 1 25z"/>
   <path class="fil5" d="M46 75l0 -24 8 0c3,0 5,1 6,2 1,1 2,3 2,5 0,1 0,2 -1,3 -1,1 -1,2 -2,2 1,0 2,1 3,2 1,1 1,2 1,3 0,2 -1,4 -2,5 -1,1 -3,2 -6,2l-9 0zm5 -10l0 6 3 0c1,0 2,0 2,-1 0,-1 1,-1 1,-2 0,-2 -1,-3 -3,-3l-4 0zm0 -4l3 0c2,0 3,-1 3,-3 0,-1 0,-2 -1,-2 0,0 -1,-1 -2,-1l-3 0 0 6z"/>
   <polygon id="1" class="fil5" points="80,64 72,64 72,71 81,71 81,75 67,75 67,51 81,51 81,55 72,55 72,60 80,60 "/>
   <path id="2" class="fil5" d="M92 66l-3 0 0 9 -5 0 0 -24 8 0c3,0 5,1 6,2 1,1 2,3 2,5 0,3 -1,5 -4,7l5 10 0 0 -6 0 -4 -9zm-3 -4l3 0c1,0 2,0 2,-1 1,-1 1,-2 1,-3 0,-2 -1,-4 -3,-4l-3 0 0 7z"/>
   <polygon id="3" class="fil5" points="110,71 119,71 119,75 105,75 105,51 110,51 "/>
   <path id="4" class="fil5" d="M139 65c0,3 -1,6 -2,8 -2,2 -4,3 -7,3 -3,0 -5,-1 -7,-3 -2,-2 -3,-4 -3,-7l0 -4c0,-3 1,-6 2,-8 2,-2 4,-3 7,-3 3,0 5,1 7,3 2,2 3,4 3,8l0 4zm-5 -4c0,-2 0,-4 -1,-5 -1,-1 -2,-2 -3,-2 -1,0 -2,1 -3,2 -1,1 -1,3 -1,5l0 4c0,2 0,4 1,5 1,1 2,1 3,1 1,0 2,0 3,-1 1,-1 1,-3 1,-5l0 -4z"/>
   <polygon id="5" class="fil5" points="161,75 156,75 148,59 148,75 143,75 143,51 148,51 156,66 156,51 161,51 "/>
   <polygon id="6" class="fil5" points="171,75 166,75 166,51 171,51 "/>
  </g>
 </g>
</svg>
