<?xml version="1.0" encoding="UTF-8"?>
<!DOCTYPE svg PUBLIC "-//W3C//DTD SVG 1.1//EN" "http://www.w3.org/Graphics/SVG/1.1/DTD/svg11.dtd">
<!-- Creator: CorelDRAW 2017 -->
<svg xmlns="http://www.w3.org/2000/svg" xml:space="preserve" width="18.6828mm" height="18.6974mm" version="1.1" style="shape-rendering:geometricPrecision; text-rendering:geometricPrecision; image-rendering:optimizeQuality; fill-rule:evenodd; clip-rule:evenodd"
viewBox="0 0 162 162"
 xmlns:xlink="http://www.w3.org/1999/xlink">
 <defs>
  <style type="text/css">
   <![CDATA[
    .str0 {stroke:#4A4A4A;stroke-width:4.32377;stroke-opacity:0.701961}
    .str1 {stroke:#949494;stroke-width:4.32377}
    .fil2 {fill:none}
    .fil1 {fill:none}
    .fil4 {fill:#967C58}
    .fil3 {fill:#7F7D7A;fill-rule:nonzero}
    .fil0 {fill:#4A4A4A;fill-opacity:0.701961}
   ]]>
  </style>
 </defs>
<symbol id="Footer" viewBox="-1109 -3834 349 107">
 <path class="fil0" d="M-835 -3760l1 1c0,0 1,1 1,1l3 3c3,3 6,6 9,9 1,1 3,2 5,2 1,0 2,-1 3,-2l7 -7c0,0 0,0 0,0l4 -4c0,0 0,0 1,-1l2 -2c0,0 1,-1 1,-1 0,0 0,0 0,0l0 23c0,0 -9,0 -9,0l-26 0c0,0 -2,0 -2,0l0 -22c0,0 0,0 0,0zm17 10c0,0 0,0 -1,-1l-2 -2c-1,-1 -1,-1 -2,-2l-10 -10 33 0c0,0 -1,1 -1,1 -1,1 -2,2 -3,2l-6 6c0,0 0,0 -1,0 0,0 0,0 -1,0 0,0 0,0 -1,1l-3 2c0,0 0,0 -1,0 0,0 0,0 -1,0 0,0 -1,1 -2,1l-1 -1zm-17 -20c-2,0 -3,1 -4,2 -1,1 -1,3 -1,4l0 21c0,2 0,4 0,5 0,1 1,3 2,4 1,1 2,1 4,1l34 0c3,0 4,0 6,-2 0,0 1,-1 1,-2 0,-1 0,-2 0,-2l0 -21c0,-2 0,-4 0,-5 0,-1 -1,-3 -2,-4 -1,-1 -2,-1 -4,-1l-34 0c-1,0 -2,0 -3,0z"/>
 <path class="fil0" d="M-835 -3760c0,0 0,0 0,0l0 22c0,0 2,0 2,0l26 0c1,0 9,0 9,0l0 -23c0,0 0,0 0,0 0,0 0,0 0,0 0,0 0,0 0,0 0,7 0,15 0,22l-37 0 0 -22c0,0 0,0 0,0z"/>
 <path class="fil1 str0" d="M-913 -3767c0,0 1,0 2,1 2,1 2,3 2,5 0,2 0,7 -1,9 -1,2 -3,0 -4,-1 0,0 -1,-1 -1,-1 -1,-2 -4,-7 -5,-10 -1,-1 -1,-2 -2,-3 -1,-1 -8,0 -10,0 -4,0 -2,2 -1,6 1,2 2,4 3,7 2,4 5,8 8,12 3,4 3,4 7,7 1,1 2,1 3,2 2,1 5,2 8,2 1,0 4,0 5,0 3,-1 1,-4 3,-7 3,-4 6,4 11,6 1,1 2,1 4,1 7,0 15,1 9,-6 -2,-3 -5,-5 -7,-7 -2,-2 0,-4 1,-6 2,-3 7,-8 8,-12 1,-4 -2,-3 -6,-3l-7 0c-1,0 -2,1 -2,3 -1,4 -4,8 -6,11 0,1 -2,2 -3,2 -3,1 -2,-6 -2,-7 0,-2 1,-7 0,-9 -1,-2 -10,-1 -13,-1 -1,0 -3,1 -3,2z"/>
 <path class="fil0" d="M-982 -3733l-10 0c-1,0 -2,0 -3,0 -1,0 -4,0 -5,-1 0,0 0,0 0,0 -1,0 -2,-1 -3,-2 -1,-1 -1,-1 -1,-2 0,0 0,-1 -1,-1 0,0 0,0 0,-1l0 -1c0,0 0,0 0,0l0 -1c0,0 0,-1 0,-1 0,0 0,-1 0,-1 0,0 0,-1 0,-1 0,-1 0,-1 0,-2 0,-1 0,-12 0,-12 0,0 0,-1 0,-1 0,0 0,-2 0,-2 0,-1 0,-1 0,-2 0,0 0,-1 0,-1 0,-1 0,-2 1,-4 0,0 0,0 0,-1 0,-1 1,-1 1,-2 1,-1 2,-1 3,-2 0,0 1,0 1,0l2 0c1,0 2,0 3,0 0,0 1,0 1,0 0,0 0,0 0,0l11 0c1,0 1,0 2,0l3 0 2 0c1,0 2,0 3,1l1 0c0,0 1,1 1,1 0,0 1,2 1,2 0,1 1,1 1,2 0,1 0,2 1,3 0,0 0,0 0,0l0 2 0 12c0,1 0,2 0,3 0,0 0,1 0,1 0,0 0,1 0,1l0 2c0,1 0,2 -1,2 0,0 0,0 0,0 0,1 -1,2 -1,2 0,0 -1,1 -1,1l-1 0c0,0 0,0 -1,0l-1 1c-1,0 -2,1 -3,1 -1,0 -1,0 -2,0 0,0 0,0 0,0 0,0 0,0 0,0 0,0 0,0 0,0 0,0 0,0 0,0l-2 0c0,0 -1,0 -1,0zm-29 -26l0 13c0,1 0,1 0,2l0 2c0,1 0,2 1,3 0,1 2,4 3,5l1 1 1 1c0,0 0,0 1,0 2,1 3,1 4,1 0,0 0,0 0,0 0,0 0,0 1,0 0,0 0,0 0,0 1,0 1,0 2,0 0,0 0,0 1,0 0,0 0,0 1,0 2,0 3,0 5,0l7 0c1,0 2,0 3,0 1,0 2,0 3,0 0,0 1,0 2,0 0,0 0,0 1,0 1,0 1,0 2,0 0,0 1,0 1,0l0 0c0,0 0,0 0,0 1,0 3,-1 4,-2 0,0 0,0 0,0 1,-1 1,-1 2,-2 1,-1 1,-2 1,-3 0,0 0,0 0,0l0 -2c0,-1 0,-3 0,-4 0,0 0,0 0,-1l0 -7c0,-2 0,-4 0,-5 0,0 0,-1 0,-1 0,0 0,-1 0,-1 0,-1 0,-3 0,-4 0,-1 0,-1 0,-2l0 -1c0,-1 0,-1 -1,-2 0,-1 -1,-2 -1,-3 0,0 -1,-1 -1,-1 0,0 0,0 0,0l-1 -1c0,0 0,0 0,0 0,0 -1,-1 -1,-1 0,0 0,0 0,0l-3 -1c0,0 -1,0 -2,0 -1,0 -2,0 -3,0 0,0 -1,0 -1,0 0,0 -1,0 -1,0 0,0 -1,0 -1,0 -2,0 -12,0 -12,0 -1,0 -2,0 -2,0 0,0 -1,0 -1,0l-1 0c-1,0 -1,0 -2,0 -1,0 -1,0 -2,0l-1 0c-1,0 -2,1 -3,1 -1,1 -1,1 -2,2l0 1c-1,1 -1,2 -2,4 0,1 0,2 -1,3 0,0 0,1 0,1 0,0 0,1 0,1 0,1 0,1 0,2z"/>
 <path class="fil0" d="M-987 -3744c-1,0 -1,0 -2,0 -2,0 -3,-1 -4,-2 0,0 -1,-1 -1,-1l0 0c0,0 0,0 0,0l-1 -2c0,0 0,0 0,-1 0,-1 0,-3 0,-4 0,-1 1,-2 1,-2 1,-1 2,-2 2,-2 0,0 0,0 0,0 1,-1 3,-1 5,-1 1,0 1,0 2,0 1,0 1,0 1,1 1,0 1,1 2,2 1,1 1,1 1,2 0,1 1,2 1,2 0,1 0,2 0,3l0 1c0,1 0,1 -1,2 0,0 0,0 0,0 -1,1 -2,2 -4,3 0,0 -1,0 -2,0zm0 4c1,0 2,0 4,0 0,0 0,0 0,0 2,-1 3,-1 4,-2l1 -1 1 -1c0,0 0,0 0,0l0 0c1,-2 2,-4 2,-6 0,-1 0,-1 0,-3 0,0 0,0 0,-1 0,0 0,-1 0,-1 0,0 0,0 0,0 -1,-2 -2,-3 -3,-4 -2,-2 -3,-3 -6,-3 0,0 0,0 -1,0 -1,0 -2,0 -2,0l-1 0 -1 0c-1,0 -2,0 -3,1l-1 0c-1,1 -2,1 -3,2l0 1c0,0 0,0 0,0 -1,1 -1,2 -1,2 0,1 -1,2 -1,2 0,0 0,1 0,1 0,0 0,0 0,1 0,0 0,0 0,1 0,1 0,2 0,3 0,1 0,1 1,2 0,0 0,0 0,1 0,0 0,0 0,0 1,1 1,1 1,2 1,1 2,2 3,2l1 0c1,0 2,1 3,1 0,0 0,0 1,0 0,0 0,0 1,0 0,0 0,0 0,0l2 0z"/>
 <path class="fil0" d="M-978 -3765c0,1 0,1 1,2l0 0c0,0 0,0 0,0 1,1 1,1 2,1 0,0 1,0 1,0 1,0 2,-1 2,-2 0,-1 0,-1 0,-1 0,-1 -1,-2 -2,-2l0 0c-1,0 -3,1 -3,3z"/>
 <path class="fil2 str1" d="M-1055 -3759l0 3 5 0 0 3c0,0 0,0 0,1 0,0 0,1 0,1l-4 0 0 16 -7 0 0 -16c0,0 0,0 0,0l-3 0 0 -5 3 0c0,-1 0,-4 0,-5 0,-1 0,-2 1,-3 0,0 0,0 1,-1 0,0 1,-1 2,-1 1,0 1,0 2,0l7 0 0 5 -3 0c-1,0 -2,0 -2,2zm-32 -8l0 29c0,1 0,2 1,3 0,1 1,2 1,2l0 0c0,0 0,0 1,0 0,0 1,1 1,1 1,1 3,1 4,1l29 0c1,0 3,0 3,-1 1,0 1,0 1,-1 1,-1 2,-1 2,-2 1,-1 2,-3 2,-5l0 -29c0,-1 0,-2 0,-3 0,-1 -1,-2 -1,-3 0,0 0,0 -1,-1l-1 -1c-1,-1 -2,-1 -3,-2 -1,0 -1,0 -2,0l-29 0c-1,0 -2,0 -3,1 0,0 -1,1 -1,1 0,0 -1,0 -1,1 0,0 0,0 0,0 -1,1 -2,4 -2,6z"/>
 <path class="fil3" d="M-1096 -3833c-7,0 -13,6 -13,13 0,7 6,13 13,13 7,0 13,-6 13,-13 0,-7 -6,-13 -13,-13zm0 2c6,0 11,5 11,11 0,6 -5,11 -11,11 -6,0 -11,-5 -11,-11 0,-6 5,-12 11,-12zm6 5c-1,-1 -2,-1 -5,-1 -4,0 -8,3 -8,8 0,4 3,8 8,8 2,0 4,0 5,-1l-1 -2c-1,1 -3,1 -4,1 -4,0 -6,-3 -6,-6 0,-3 2,-6 6,-6 2,0 4,1 4,1l1 -2z"/>
 <polygon id="1" class="fil3" points="-1069,-3805 -1065,-3805 -1065,-3818 -1055,-3818 -1055,-3821 -1065,-3821 -1065,-3831 -1054,-3831 -1054,-3834 -1069,-3834 "/>
 <path id="2" class="fil3" d="M-1033 -3826l-4 0 0 13c0,1 0,1 0,2 -1,2 -2,3 -5,3 -3,0 -5,-3 -5,-7l0 -11 -4 0 0 12c0,7 4,9 7,9 4,0 6,-2 7,-4l0 0 0 3 3 0c0,-2 0,-4 0,-6l0 -15z"/>
 <path id="3" class="fil3" d="M-1026 -3831l0 5 -3 0 0 3 3 0 0 11c0,2 0,4 1,5 1,1 2,2 4,2 1,0 3,0 3,-1l0 -3c0,0 -1,0 -2,0 -2,0 -3,-1 -3,-4l0 -11 5 0 0 -3 -5 0 0 -6 -4 1z"/>
 <path id="4" class="fil3" d="M-995 -3826l-4 0 0 13c0,1 0,1 0,2 -1,2 -2,3 -5,3 -3,0 -5,-3 -5,-7l0 -11 -4 0 0 12c0,7 4,9 7,9 4,0 6,-2 7,-4l0 0 0 3 3 0c0,-2 0,-4 0,-6l0 -15z"/>
 <path id="5" class="fil3" d="M-989 -3805l4 0 0 -11c0,-1 0,-1 0,-2 1,-3 2,-5 5,-5 1,0 1,0 1,0l0 -4c0,0 -1,0 -1,0 -3,0 -5,2 -6,5l0 0 0 -4 -3 0c0,2 0,4 0,6l0 14z"/>
 <path id="6" class="fil3" d="M-967 -3826c-6,0 -10,4 -10,11 0,7 4,11 10,11 5,0 10,-3 10,-11 0,-6 -4,-11 -10,-11zm0 3c4,0 6,4 6,8 0,5 -3,8 -6,8 -4,0 -6,-3 -6,-8 0,-4 2,-8 6,-8z"/>
 <path id="7" class="fil3" d="M-923 -3809c-1,1 -4,1 -6,1 -7,0 -11,-5 -11,-12 0,-8 4,-12 11,-12 2,0 4,1 6,1l1 -3c-1,-1 -3,-1 -7,-1 -9,0 -15,6 -15,15 0,9 6,15 14,15 4,0 6,-1 8,-1l-1 -3z"/>
 <path id="8" class="fil3" d="M-903 -3805c0,-1 0,-3 0,-5l0 -8c0,-4 -2,-8 -8,-8 -3,0 -5,1 -7,2l1 2c1,-1 3,-2 5,-2 4,0 5,3 5,5l0 0c-8,0 -12,3 -12,8 0,3 2,6 6,6 3,0 5,-1 6,-3l0 0 0 3 3 0zm-4 -7c0,0 0,1 0,1 -1,2 -2,3 -5,3 -2,0 -4,-1 -4,-4 0,-4 5,-5 9,-5l0 4z"/>
 <path id="9" class="fil3" d="M-899 -3806c1,1 4,1 6,1 5,0 8,-3 8,-6 0,-3 -2,-5 -5,-6 -3,-1 -4,-2 -4,-4 0,-2 1,-3 3,-3 2,0 3,1 4,1l1 -3c-1,-1 -3,-1 -5,-1 -4,0 -7,3 -7,6 0,2 2,5 5,6 3,1 4,2 4,4 0,2 -1,3 -4,3 -2,0 -4,-1 -5,-1l-1 3z"/>
 <path id="10" class="fil3" d="M-866 -3805c0,-1 0,-3 0,-5l0 -8c0,-4 -2,-8 -8,-8 -3,0 -5,1 -7,2l1 2c1,-1 3,-2 5,-2 4,0 5,3 5,5l0 0c-8,0 -12,3 -12,8 0,3 2,6 6,6 3,0 5,-1 6,-3l0 0 0 3 3 0zm-4 -7c0,0 0,1 0,1 -1,2 -2,3 -5,3 -2,0 -4,-1 -4,-4 0,-4 5,-5 9,-5l0 4z"/>
 <path id="11" class="fil3" d="M-860 -3800c1,-2 3,-7 4,-10l-4 0c0,3 -2,8 -3,10l3 0z"/>
 <path id="12" class="fil3" d="M-826 -3805l0 -3 -12 0 0 0 2 -2c6,-6 10,-10 10,-15 0,-4 -3,-8 -8,-8 -3,0 -6,1 -8,3l1 3c1,-1 3,-2 6,-2 4,0 6,3 6,5 0,4 -3,8 -10,15l-3 3 0 2 18 0z"/>
 <path id="13" class="fil3" d="M-812 -3833c-6,0 -10,5 -10,14 0,9 4,14 9,14 6,0 10,-5 10,-15 0,-9 -3,-14 -9,-14zm0 3c4,0 6,4 6,11 0,7 -2,12 -6,12 -3,0 -6,-4 -6,-11 0,-8 2,-12 6,-12z"/>
 <polygon id="14" class="fil3" points="-792,-3805 -788,-3805 -788,-3833 -791,-3833 -797,-3830 -796,-3827 -792,-3829 -792,-3829 "/>
 <path id="15" class="fil3" d="M-769 -3805c5,0 9,-3 9,-8 0,-3 -2,-6 -6,-7l0 0c3,-2 5,-4 5,-6 0,-3 -3,-7 -8,-7 -5,0 -9,3 -9,7 0,2 1,5 4,6l0 0c-3,1 -6,4 -6,7 0,4 4,8 9,8zm0 -3c-4,0 -6,-2 -6,-5 0,-3 2,-5 5,-6 4,1 6,3 6,6 0,3 -2,5 -6,5zm0 -23c3,0 5,2 5,5 0,3 -2,4 -4,5 -3,-1 -5,-2 -5,-5 0,-2 2,-4 5,-4z"/>
</symbol>
 <g id="Слой_x0020_3">
  <metadata id="CorelCorpID_0Corel-Layer"/>
  <g id="_687345112">
   <g>
    <g>
     <g>
      <path class="fil4" d="M155 35l-4 -1c-1,0 -2,0 -3,0 -4,0 -8,3 -10,7l-2 7 0 -5 0 0c0,-1 0,-1 -1,-2l-40 -39c0,0 -1,-1 -2,-1l-79 0c-1,0 -2,1 -2,2l0 8 -9 0c-1,0 -2,1 -2,2l0 147c0,1 1,2 2,2l119 0c1,0 2,-1 2,-2l0 -8 9 0c1,0 2,-1 2,-2l0 -33 7 -9 0 -1 18 -59c2,-5 -1,-11 -6,-13zm-60 -26l32 31 -32 0 0 -31zm24 148l-114 0 0 -142 7 0 0 134c0,1 1,2 2,2l105 0 0 5 0 0zm12 -10l0 0 -114 0 0 -142 74 0 0 37c0,1 1,2 2,2l38 0 0 18 -12 36 0 1 0 31c0,1 1,2 2,2 1,0 2,0 3,-1l7 -9 0 24 0 0zm-6 -24l0 -20 12 4 -12 16zm32 -77l-18 56 -14 -5 18 -56c1,-3 4,-4 7,-3l4 1c3,1 5,4 4,7z"/>
      <path class="fil4" d="M33 44l35 0c1,0 2,-1 2,-2l0 -25c0,-1 -1,-2 -2,-2l-35 0c-1,0 -2,1 -2,2l0 25c0,1 1,2 2,2zm2 -25l30 0 0 20 -30 0 0 -20z"/>
      <path class="fil4" d="M28 67l74 0c1,0 2,-1 2,-2 0,-1 -1,-2 -2,-2l-74 0c-1,0 -2,1 -2,2 0,1 1,2 2,2z"/>
      <path class="fil4" d="M28 85l74 0c1,0 2,-1 2,-2 0,-1 -1,-2 -2,-2l-74 0c-1,0 -2,1 -2,2 0,1 1,2 2,2z"/>
      <path class="fil4" d="M28 103l74 0c1,0 2,-1 2,-2 0,-1 -1,-2 -2,-2l-74 0c-1,0 -2,1 -2,2 0,1 1,2 2,2z"/>
      <path class="fil4" d="M105 118c0,-1 -1,-2 -2,-2l-74 0c-1,0 -2,1 -2,2 0,1 1,2 2,2l74 0c1,0 2,-1 2,-2z"/>
      <path class="fil4" d="M113 134l-37 0c-1,0 -2,1 -2,2 0,1 1,2 2,2l37 0c1,0 2,-1 2,-2 0,-1 -1,-2 -2,-2z"/>
     </g>
    </g>
   </g>
   <g>
   </g>
   <g>
   </g>
   <g>
   </g>
   <g>
   </g>
   <g>
   </g>
   <g>
   </g>
   <g>
   </g>
   <g>
   </g>
   <g>
   </g>
   <g>
   </g>
   <g>
   </g>
   <g>
   </g>
   <g>
   </g>
   <g>
   </g>
   <g>
   </g>
  </g>
 </g>
</svg>
