<?xml version="1.0" encoding="UTF-8"?>
<!DOCTYPE svg PUBLIC "-//W3C//DTD SVG 1.1//EN" "http://www.w3.org/Graphics/SVG/1.1/DTD/svg11.dtd">
<!-- Creator: CorelDRAW 2017 -->
<svg xmlns="http://www.w3.org/2000/svg" xml:space="preserve" width="20.5408mm" height="21.9132mm" version="1.1" style="shape-rendering:geometricPrecision; text-rendering:geometricPrecision; image-rendering:optimizeQuality; fill-rule:evenodd; clip-rule:evenodd"
viewBox="0 0 342 365"
 xmlns:xlink="http://www.w3.org/1999/xlink">
 <defs>
  <style type="text/css">
   <![CDATA[
    .str0 {stroke:#4A4A4A;stroke-width:8.33678;stroke-opacity:0.701961}
    .str1 {stroke:#949494;stroke-width:8.33678}
    .fil2 {fill:none}
    .fil1 {fill:none}
    .fil4 {fill:#BA9F65;fill-rule:nonzero}
    .fil3 {fill:#7F7D7A;fill-rule:nonzero}
    .fil0 {fill:#4A4A4A;fill-opacity:0.701961}
   ]]>
  </style>
 </defs>
<symbol id="Footer" viewBox="-1364 638 674 207">
 <path class="fil0" d="M-837 781l2 2c1,1 1,1 2,2l6 6c6,6 11,11 17,17 2,2 5,4 9,4 2,0 4,-2 5,-3l14 -13c0,0 0,0 1,-1l8 -8c0,0 1,-1 1,-1l4 -4c1,-1 1,-1 2,-2 0,0 0,0 0,0l0 44c-1,0 -17,0 -18,0l-50 0c-1,0 -4,0 -4,0l0 -43c0,0 0,0 0,0zm33 19c0,0 -1,-1 -1,-1l-5 -5c-1,-1 -3,-3 -4,-4l-19 -19 63 0c0,0 -2,2 -2,2 -2,1 -3,3 -5,5l-12 11c0,0 -1,1 -1,1 0,0 -1,1 -1,1 0,0 -1,1 -1,1l-5 5c0,0 -1,1 -1,1 0,0 -1,1 -1,1 -1,1 -2,2 -3,3l-2 -2zm-33 -38c-3,0 -5,2 -7,3 -2,2 -2,5 -2,8l0 41c0,3 0,7 0,10 0,3 1,5 3,7 2,2 4,3 8,3l66 0c5,0 8,1 12,-3 1,-1 1,-2 2,-3 1,-2 0,-3 0,-5l0 -41c0,-3 0,-7 0,-10 0,-3 -1,-5 -3,-7 -2,-2 -4,-3 -8,-3l-66 0c-2,0 -3,0 -5,0z"/>
 <path class="fil0" d="M-837 781c0,0 0,0 0,0l0 43c1,0 4,0 4,0l50 0c1,0 17,0 18,0l0 -44c0,0 0,0 0,0 0,0 0,0 0,1 0,0 0,0 0,1 0,14 0,29 0,43l-72 0 0 -43c0,0 0,0 0,0z"/>
 <path class="fil1 str0" d="M-986 767c1,0 2,1 4,1 3,2 4,6 4,10 0,4 0,14 -2,17 -2,4 -6,0 -8,-2 -1,-1 -1,-2 -2,-3 -2,-4 -8,-14 -10,-19 -1,-3 -1,-4 -4,-5 -2,-1 -15,0 -18,0 -8,0 -4,5 -2,11 2,4 4,9 6,13 5,9 9,16 15,23 6,7 7,8 14,14 2,1 4,3 6,4 4,2 10,4 15,3 2,0 7,0 9,0 6,-1 1,-8 5,-14 6,-8 11,7 21,12 3,1 4,2 7,2 14,0 29,3 17,-12 -5,-6 -9,-9 -14,-14 -4,-4 -1,-7 3,-12 4,-6 13,-16 15,-23 2,-7 -5,-6 -12,-6l-14 0c-3,0 -3,3 -4,5 -3,7 -8,15 -12,21 -1,1 -4,4 -5,5 -5,2 -4,-11 -4,-14 0,-5 1,-14 -1,-17 -2,-4 -20,-3 -25,-2 -2,0 -5,2 -5,4z"/>
 <path class="fil0" d="M-1120 834l-20 0c-2,0 -4,0 -6,0 -2,0 -7,-1 -9,-1 0,0 0,0 -1,0 -2,-1 -4,-2 -6,-3 -1,-1 -2,-2 -3,-4 0,-1 -1,-1 -1,-2 0,0 0,-1 0,-1l-1 -3c0,0 0,0 0,-1l0 -2c0,0 0,-1 0,-2 0,-1 0,-1 0,-2 0,0 0,-1 0,-2 0,-1 0,-2 0,-3 0,-3 0,-22 0,-23 0,-1 0,-1 0,-2 0,-1 0,-3 0,-3 0,-1 0,-2 0,-3 0,-1 0,-1 0,-2 0,-3 0,-4 2,-7 0,0 0,-1 1,-1 1,-1 1,-2 2,-3 1,-1 4,-3 5,-3 1,0 2,-1 3,-1l3 -1c2,0 4,0 6,0 1,0 2,0 3,0 0,0 0,0 1,0l20 0c1,0 2,0 3,0l6 0 4 1c2,0 4,1 6,2l2 1c1,0 1,1 2,2 1,1 2,3 3,4 1,1 1,2 1,4 0,2 1,4 1,6 0,0 0,1 0,1l0 5 0 23c0,2 0,3 0,5 0,1 0,1 0,2 0,1 0,1 0,2l0 3c0,2 -1,3 -1,5 0,0 0,0 0,1 -1,1 -2,3 -3,4 -1,1 -1,1 -2,2l-1 1c0,0 -1,0 -1,1l-2 1c-1,1 -4,1 -6,1 -1,0 -2,0 -3,0 0,0 0,0 -1,0 0,0 -1,0 -1,0 0,0 0,0 -1,0 0,0 -1,0 -1,0l-3 0c-1,0 -1,0 -2,0zm-55 -50l0 25c0,2 0,3 0,4l0 4c0,3 1,4 1,7 1,3 3,7 5,9l3 3 2 1c0,0 1,1 1,1 3,2 5,2 8,3 0,0 1,0 1,0 0,0 1,0 1,0 0,0 1,0 1,0 1,0 2,0 3,0 0,0 1,0 1,0 0,0 1,0 1,0 3,0 6,0 9,0l14 0c1,0 4,0 5,0 1,0 3,0 5,0 1,0 2,0 3,0 0,0 1,0 1,0 1,0 3,0 4,-1 1,0 1,0 2,-1l1 0c0,0 1,0 1,0 2,-1 5,-2 7,-4 0,0 0,0 1,-1 1,-1 3,-3 4,-4 1,-2 2,-4 3,-6 0,0 0,-1 0,-1l1 -4c0,-2 1,-6 1,-8 0,-1 0,-1 0,-1l0 -14c0,-4 0,-7 0,-10 0,-1 0,-2 0,-3 0,-1 0,-2 0,-3 0,-2 0,-6 0,-8 0,-1 0,-2 -1,-3l0 -1c-1,-2 -1,-2 -1,-4 -1,-1 -2,-4 -3,-5 -1,-1 -1,-1 -2,-2 0,0 0,0 -1,-1l-1 -1c0,0 0,0 0,0 -1,-1 -1,-1 -2,-2 0,0 -1,0 -1,0l-6 -2c-1,0 -2,-1 -3,-1 -2,0 -4,-1 -6,-1 -1,0 -2,0 -2,0 -1,0 -2,0 -3,0 -1,0 -2,0 -3,0 -3,0 -23,0 -24,0 -1,0 -3,0 -4,0 -1,0 -1,0 -2,0l-2 0c-1,0 -3,0 -4,1 -1,0 -2,1 -3,1l-2 1c-2,1 -3,2 -5,3 -1,1 -3,2 -4,4l-1 1c-2,3 -3,4 -4,8 -1,2 -1,4 -1,7 0,1 0,1 0,2 0,1 0,1 0,2 0,2 0,3 0,4z"/>
 <path class="fil0" d="M-1129 812c-2,0 -3,0 -4,0 -3,-1 -5,-2 -7,-4 -1,-1 -1,-1 -2,-2l-1 -1c0,0 0,0 0,0l-2 -3c0,0 0,-1 0,-1 -1,-3 -1,-6 0,-9 0,-2 1,-3 2,-4 1,-2 3,-3 5,-4 0,0 0,0 1,0 3,-2 6,-2 9,-2 1,0 2,0 3,1 2,1 1,0 3,1 1,1 3,2 4,3 1,1 2,2 2,4 1,1 1,3 1,5 0,2 0,4 0,6l0 1c-1,2 -1,2 -2,4 0,0 0,0 0,0 -2,3 -5,5 -8,5 -1,0 -2,0 -3,0zm-1 8c2,0 5,0 7,-1 0,0 0,0 1,0 3,-1 5,-2 7,-4l3 -2 2 -2c0,0 0,-1 1,-1l1 -1c2,-3 3,-8 3,-11 0,-2 0,-2 0,-5 0,0 0,-1 0,-1 0,-1 0,-2 -1,-3 0,0 0,0 0,-1 -1,-3 -3,-6 -6,-9 -3,-3 -7,-5 -11,-6 0,0 -1,0 -1,0 -1,0 -3,0 -4,0l-3 0 -2 0c-2,0 -3,1 -5,2l-1 1c-2,1 -4,3 -6,4l-1 1c0,0 0,1 -1,1 -1,1 -2,3 -3,5 -1,1 -1,3 -1,4 0,1 0,2 0,2 0,0 0,1 0,1 0,1 0,1 0,1 0,2 0,4 1,6 0,1 1,2 1,3 0,0 0,1 0,1 0,0 0,0 0,0 1,2 1,2 3,4 1,2 3,3 5,5l1 1c1,1 4,2 5,2 0,0 1,0 1,0 0,0 1,0 1,0 0,0 0,0 1,0l3 0z"/>
 <path class="fil0" d="M-1111 772c0,2 0,3 2,4l0 0c0,0 0,0 0,0 1,1 2,2 4,2 1,0 2,0 2,0 2,-1 3,-3 3,-5 0,-1 0,-2 -1,-3 -1,-2 -3,-3 -5,-3l-1 0c-2,0 -5,3 -5,5z"/>
 <path class="fil2 str1" d="M-1259 783l0 7 9 0 -1 6c0,0 0,1 0,1 0,1 0,2 0,3l-8 0 0 30 -14 0 0 -30c0,0 0,0 0,0l-5 0 0 -10 5 0c0,-3 0,-8 0,-10 0,-2 1,-4 2,-6 1,-1 1,-1 1,-1 1,-1 2,-2 3,-2 2,-1 3,-1 4,-1l13 0 0 10 -6 0c-3,0 -4,1 -4,3zm-61 -15l0 56c0,2 1,4 2,6 1,1 2,3 3,4l1 1c0,0 1,1 1,1 1,1 1,1 2,2 2,1 5,2 8,2l55 0c2,0 5,-1 7,-1 1,-1 2,-1 3,-1 2,-1 3,-3 4,-4 2,-3 3,-6 3,-9l0 -55c0,-2 0,-4 -1,-5 -1,-2 -2,-4 -3,-5 0,0 -1,-1 -1,-1l-1 -1c-2,-2 -4,-3 -7,-3 -1,0 -2,-1 -4,-1l-56 0c-2,0 -5,1 -6,2 -1,0 -2,1 -3,1 -1,1 -1,1 -2,1 0,0 0,0 -1,0 -3,3 -5,7 -5,11z"/>
 <path class="fil3" d="M-1339 641c-14,0 -25,11 -25,25 0,14 11,26 25,26 14,0 25,-11 25,-26 0,-14 -11,-25 -25,-25zm0 3c12,0 21,10 21,22 0,13 -9,22 -21,22 -12,0 -21,-10 -21,-22 0,-13 9,-22 21,-22zm11 9c-1,-1 -5,-2 -9,-2 -8,0 -16,6 -16,15 0,8 6,15 15,15 3,0 7,-1 10,-3l-1 -3c-2,1 -5,2 -8,2 -8,0 -12,-5 -12,-12 0,-7 4,-12 12,-12 4,0 7,1 8,2l1 -3z"/>
 <polygon id="1" class="fil3" points="-1287,694 -1280,694 -1280,669 -1259,669 -1259,663 -1280,663 -1280,645 -1258,645 -1258,639 -1287,639 "/>
 <path id="2" class="fil3" d="M-1217 654l-7 0 0 24c0,1 0,3 -1,4 -1,3 -5,7 -10,7 -7,0 -9,-5 -9,-13l0 -22 -7 0 0 23c0,14 7,17 14,17 7,0 11,-4 13,-7l0 0 0 7 6 0c0,-3 0,-7 0,-11l0 -29z"/>
 <path id="3" class="fil3" d="M-1203 645l0 10 -6 0 0 6 6 0 0 22c0,5 1,8 3,10 2,2 4,3 8,3 3,0 5,0 6,-1l0 -5c-1,0 -2,0 -4,0 -4,0 -5,-3 -5,-8l0 -21 10 0 0 -6 -10 0 0 -11 -7 2z"/>
 <path id="4" class="fil3" d="M-1145 654l-7 0 0 24c0,1 0,3 -1,4 -1,3 -5,7 -10,7 -7,0 -9,-5 -9,-13l0 -22 -7 0 0 23c0,14 7,17 14,17 7,0 11,-4 13,-7l0 0 0 7 6 0c0,-3 0,-7 0,-11l0 -29z"/>
 <path id="5" class="fil3" d="M-1132 694l7 0 0 -21c0,-1 0,-2 0,-3 1,-5 5,-9 10,-9 1,0 2,0 2,0l0 -7c-1,0 -1,0 -2,0 -5,0 -9,3 -11,9l0 0 0 -8 -6 0c0,4 0,8 0,12l0 27z"/>
 <path id="6" class="fil3" d="M-1090 653c-11,0 -20,8 -20,21 0,13 8,21 19,21 10,0 20,-6 20,-21 0,-12 -8,-21 -19,-21zm0 5c9,0 12,9 12,15 0,9 -5,15 -12,15 -7,0 -12,-7 -12,-15 0,-8 4,-15 12,-15z"/>
 <path id="7" class="fil3" d="M-1006 687c-3,1 -7,2 -12,2 -14,0 -21,-9 -21,-22 0,-15 9,-23 22,-23 5,0 8,1 11,2l2 -6c-2,-1 -6,-2 -13,-2 -17,0 -29,12 -29,29 0,18 12,28 27,28 7,0 12,-1 15,-3l-1 -6z"/>
 <path id="8" class="fil3" d="M-968 694c0,-3 -1,-6 -1,-10l0 -15c0,-8 -3,-16 -15,-16 -5,0 -10,1 -13,4l2 5c3,-2 7,-3 10,-3 8,0 9,6 9,9l0 1c-15,0 -24,5 -24,15 0,6 4,11 12,11 6,0 10,-3 12,-6l0 0 1 5 7 0zm-8 -13c0,1 0,2 0,2 -1,3 -4,7 -10,7 -4,0 -7,-2 -7,-7 0,-8 9,-9 17,-9l0 7z"/>
 <path id="9" class="fil3" d="M-960 692c3,2 7,3 11,3 9,0 15,-5 15,-12 0,-6 -4,-9 -10,-12 -5,-2 -8,-3 -8,-7 0,-3 2,-5 7,-5 4,0 7,1 8,2l2 -5c-2,-1 -6,-2 -10,-2 -9,0 -14,5 -14,12 0,5 3,9 11,11 5,2 7,4 7,7 0,3 -2,6 -8,6 -4,0 -7,-1 -10,-3l-2 6z"/>
 <path id="10" class="fil3" d="M-896 694c0,-3 -1,-6 -1,-10l0 -15c0,-8 -3,-16 -15,-16 -5,0 -10,1 -13,4l2 5c3,-2 7,-3 10,-3 8,0 9,6 9,9l0 1c-15,0 -24,5 -24,15 0,6 4,11 12,11 6,0 10,-3 12,-6l0 0 1 5 7 0zm-8 -13c0,1 0,2 0,2 -1,3 -4,7 -10,7 -4,0 -7,-2 -7,-7 0,-8 9,-9 17,-9l0 7z"/>
 <path id="11" class="fil3" d="M-884 704c2,-4 6,-13 8,-20l-8 1c-1,6 -3,15 -5,20l5 0z"/>
 <path id="12" class="fil3" d="M-818 694l0 -6 -24 0 0 0 4 -4c11,-11 18,-19 18,-29 0,-8 -5,-16 -16,-16 -6,0 -11,2 -15,5l2 5c2,-2 7,-5 11,-5 8,0 11,5 11,10 0,8 -6,15 -20,28l-6 6 0 4 34 0z"/>
 <path id="13" class="fil3" d="M-792 640c-11,0 -19,10 -19,28 0,18 7,28 18,28 12,0 19,-10 19,-28 0,-17 -6,-27 -18,-27zm0 6c7,0 11,9 11,22 0,14 -4,22 -11,22 -7,0 -11,-8 -11,-22 0,-15 5,-22 11,-22z"/>
 <polygon id="14" class="fil3" points="-752,694 -745,694 -745,640 -751,640 -763,647 -762,652 -752,647 -752,647 "/>
 <path id="15" class="fil3" d="M-708 695c10,0 18,-6 18,-16 0,-7 -4,-11 -11,-14l0 0c7,-3 9,-8 9,-13 0,-7 -5,-13 -16,-13 -9,0 -17,6 -17,14 0,5 3,9 8,12l0 0c-7,3 -11,8 -11,14 0,8 7,14 18,14zm0 -5c-7,0 -11,-5 -11,-10 0,-5 3,-9 10,-11 7,2 12,5 12,12 0,6 -4,10 -11,10zm0 -45c7,0 9,4 9,9 0,5 -4,8 -8,10 -6,-2 -10,-5 -10,-10 0,-5 3,-9 9,-9z"/>
</symbol>
 <g id="Слой_x0020_3">
  <metadata id="CorelCorpID_0Corel-Layer"/>
  <g id="_683756264">
   <path class="fil4" d="M177 351l0 -183 37 -18c3,-1 4,-4 2,-7 -1,-3 -4,-4 -7,-2l-38 18 -15 -7c-3,-1 -6,0 -7,2 -1,3 0,6 2,7l14 7 0 183 -155 -75 0 -183 118 57c1,0 2,1 2,1 2,0 4,-1 5,-3 1,-3 0,-6 -2,-7l-116 -56 53 -26 161 78c0,0 0,0 0,0l0 64c0,2 1,4 3,5 1,1 2,1 3,1 1,0 2,0 2,-1l40 -19c2,-1 3,-3 3,-5l0 -65 49 -24 0 183 -155 75zm66 -214l29 -14 0 56 -29 14 0 -56zm-128 -98l153 74 -31 15 -153 -74 31 -15zm56 -27l154 74 -45 21c0,0 -1,0 -1,-1l-153 -74 44 -21zm168 69l-166 -80c-1,-1 -3,-1 -5,0l-166 80c-2,1 -3,3 -3,5l0 194c0,2 1,4 3,5l166 80c1,0 2,1 2,1 1,0 2,0 2,-1l166 -80c2,-1 3,-3 3,-5l0 -194c0,-2 -1,-4 -3,-5z"/>
   <path class="fil4" d="M55 256l-24 -12c-3,-1 -6,0 -7,2 -1,3 0,6 2,7l24 12c1,0 2,1 2,1 2,0 4,-1 5,-3 1,-3 0,-6 -2,-7z"/>
   <path class="fil4" d="M77 241l-47 -23c-3,-1 -6,0 -7,2 -1,3 0,6 2,7l47 23c1,0 2,1 2,1 2,0 4,-1 5,-3 1,-3 0,-6 -2,-7z"/>
  </g>
 </g>
</svg>
