<?xml version="1.0" encoding="UTF-8"?>
<!DOCTYPE svg PUBLIC "-//W3C//DTD SVG 1.1//EN" "http://www.w3.org/Graphics/SVG/1.1/DTD/svg11.dtd">
<!-- Creator: CorelDRAW 2017 -->
<svg xmlns="http://www.w3.org/2000/svg" xml:space="preserve" width="18.4796mm" height="18.4686mm" version="1.1" style="shape-rendering:geometricPrecision; text-rendering:geometricPrecision; image-rendering:optimizeQuality; fill-rule:evenodd; clip-rule:evenodd"
viewBox="0 0 270 270"
 xmlns:xlink="http://www.w3.org/1999/xlink">
 <defs>
  <style type="text/css">
   <![CDATA[
    .str0 {stroke:#4A4A4A;stroke-width:7.29954;stroke-opacity:0.701961}
    .str1 {stroke:#949494;stroke-width:7.29954}
    .fil2 {fill:none}
    .fil1 {fill:none}
    .fil4 {fill:#FEFEFE}
    .fil5 {fill:#BA9F65;fill-rule:nonzero}
    .fil3 {fill:#7F7D7A;fill-rule:nonzero}
    .fil0 {fill:#4A4A4A;fill-opacity:0.701961}
   ]]>
  </style>
 </defs>
<symbol id="Footer" viewBox="-1219 121 590 181">
 <path class="fil0" d="M-757 246l2 2c1,1 1,1 2,2l6 5c5,5 10,10 15,15 2,2 4,4 8,3 2,0 4,-2 5,-3l12 -12c0,0 0,0 0,0l7 -7c0,0 1,-1 1,-1l4 -4c1,-1 1,-1 2,-2 0,0 0,0 0,0l0 39c-1,0 -15,0 -16,0l-43 0c-1,0 -3,0 -4,0l0 -38c0,0 0,0 0,0zm29 17c0,0 -1,-1 -1,-1l-4 -4c-1,-1 -2,-2 -3,-3l-17 -17 55 0c0,0 -2,1 -2,2 -1,1 -3,3 -4,4l-11 10c0,0 -1,1 -1,1 0,0 -1,1 -1,1 0,0 -1,1 -1,1l-4 4c0,0 -1,0 -1,1 0,0 -1,1 -1,1 -1,1 -2,2 -3,2l-2 -2zm-29 -33c-3,0 -5,1 -6,3 -2,2 -2,4 -2,7l0 36c0,3 0,6 0,9 0,2 1,5 3,6 2,2 3,2 7,2l58 0c4,0 7,1 10,-3 1,-1 1,-2 2,-3 0,-1 0,-3 0,-4l0 -36c0,-3 0,-6 0,-9 0,-2 -1,-5 -3,-6 -2,-2 -3,-2 -7,-2l-58 0c-1,0 -3,0 -4,0z"/>
 <path class="fil0" d="M-757 246c0,0 0,0 0,0l0 38c1,0 3,0 4,0l43 0c1,0 15,0 16,0l0 -39c0,0 0,0 0,0 0,0 0,0 0,1 0,0 0,0 0,1 0,12 0,25 0,37l-63 0 0 -38c0,0 0,0 0,0z"/>
 <path class="fil1 str0" d="M-888 234c1,0 2,1 3,1 3,2 3,5 4,9 0,4 0,12 -1,15 -2,4 -6,0 -7,-2 -1,-1 -1,-2 -2,-2 -2,-3 -7,-12 -8,-16 -1,-2 -1,-4 -3,-5 -2,-1 -13,0 -16,0 -7,0 -4,4 -1,9 2,4 4,7 6,11 4,8 8,14 13,20 5,7 6,7 13,12 1,1 4,2 5,3 4,2 8,3 13,3 2,0 6,0 8,0 5,-1 1,-7 5,-12 5,-7 10,6 18,11 2,1 4,1 7,1 12,0 25,3 15,-11 -4,-5 -8,-8 -12,-13 -3,-4 -1,-7 2,-11 4,-5 11,-14 13,-20 2,-6 -4,-5 -10,-5l-12 0c-2,0 -3,2 -4,5 -2,6 -7,13 -10,18 -1,1 -3,4 -4,4 -5,1 -4,-10 -4,-12 0,-4 1,-12 -1,-15 -2,-3 -17,-2 -22,-2 -2,0 -5,2 -5,4z"/>
 <path class="fil0" d="M-1005 293l-17 0c-2,0 -4,0 -6,0 -2,0 -6,-1 -8,-1 0,0 0,0 -1,0 -2,-1 -4,-2 -5,-3 -1,-1 -2,-2 -3,-3 0,-1 -1,-1 -1,-2 0,0 0,-1 0,-1l-1 -2c0,0 0,0 0,-1l0 -2c0,0 0,-1 0,-1 0,0 0,-1 0,-1 0,0 0,-1 0,-1 0,-1 0,-2 0,-3 0,-2 0,-19 0,-20 0,0 0,-1 0,-1 0,-1 0,-3 0,-3 0,-1 0,-2 0,-3 0,0 0,-1 0,-1 0,-2 0,-4 2,-6 0,0 0,-1 1,-1 1,-1 1,-2 2,-3 1,-1 3,-2 5,-3 1,0 2,0 2,-1l3 0c2,0 3,0 5,0 1,0 2,0 2,0 0,0 0,0 1,0l18 0c1,0 2,0 3,0l6 0 4 0c2,0 3,1 5,2l1 1c1,0 1,1 2,1 1,1 2,3 2,3 1,1 1,2 1,3 0,2 1,4 1,6 0,0 0,1 0,1l0 4 0 20c0,2 0,3 0,4 0,1 0,1 0,1 0,0 0,1 0,1l0 3c0,2 0,3 -1,4 0,0 0,0 0,1 -1,1 -1,3 -2,4 -1,1 -1,1 -2,1l-1 1c0,0 -1,0 -1,1l-2 1c-1,1 -4,1 -5,1 -1,0 -2,0 -3,0 0,0 0,0 -1,0 0,0 -1,0 -1,0 0,0 0,0 -1,0 0,0 -1,0 -1,0l-3 0c-1,0 -1,0 -2,0zm-49 -44l0 22c0,1 0,2 0,4l0 4c0,2 1,4 1,6 1,2 3,7 4,8l2 2 2 1c0,0 1,1 1,1 3,1 4,2 7,2 0,0 1,0 1,0 0,0 1,0 1,0 0,0 1,0 1,0 1,0 2,0 3,0 0,0 1,0 1,0 0,0 1,0 1,0 3,0 5,0 8,0l12 0c1,0 3,0 4,0 1,0 3,0 4,0 1,0 2,0 3,0 0,0 1,0 1,0 1,0 2,0 4,-1 1,0 1,0 2,0l1 0c0,0 0,0 1,0 2,-1 5,-2 6,-4 0,0 0,0 1,0 1,-1 2,-2 3,-3 1,-1 2,-4 3,-5 0,0 0,-1 0,-1l1 -4c0,-2 1,-5 1,-7 0,0 0,-1 0,-1l0 -12c0,-3 0,-6 0,-9 0,-1 0,-1 0,-2 0,-1 0,-2 0,-2 0,-2 0,-5 0,-7 0,-1 0,-2 -1,-3l0 -1c0,-1 -1,-2 -1,-3 0,-1 -2,-3 -2,-4 -1,-1 -1,-1 -2,-2 0,0 0,0 -1,-1l-1 -1c0,0 0,0 0,0 -1,-1 -1,-1 -2,-1 0,0 0,0 -1,0l-5 -2c-1,0 -2,-1 -3,-1 -2,0 -3,-1 -5,-1 -1,0 -2,0 -2,0 -1,0 -2,0 -2,0 -1,0 -1,0 -2,0 -3,0 -20,0 -21,0 -1,0 -3,0 -4,0 -1,0 -1,0 -2,0l-2 0c-1,0 -2,0 -3,1 -1,0 -2,0 -3,1l-2 1c-2,1 -3,2 -4,2 -1,1 -2,2 -3,3l-1 1c-2,2 -2,4 -3,7 -1,2 -1,4 -1,6 0,1 0,1 0,2 0,1 0,1 0,2 0,1 0,2 0,4z"/>
 <path class="fil0" d="M-1013 273c-1,0 -2,0 -4,0 -3,-1 -4,-2 -6,-3 -1,-1 -1,-1 -1,-1l-1 -1c0,0 0,0 0,0l-1 -3c0,0 0,-1 0,-1 -1,-2 -1,-5 0,-7 0,-1 1,-3 2,-4 1,-1 3,-3 4,-4 0,0 0,0 1,0 2,-1 5,-2 8,-1 1,0 2,0 3,1 1,0 1,0 2,1 1,1 2,2 3,3 1,1 2,2 2,3 1,1 1,3 1,4 0,2 0,4 0,5l0 1c-1,1 -1,2 -2,3 0,0 0,0 0,0 -2,2 -4,4 -7,5 -1,0 -2,0 -3,0zm-1 7c2,0 4,0 6,-1 0,0 0,0 1,0 3,-1 4,-2 7,-4l2 -2 1 -2c0,0 0,0 1,-1l1 -1c2,-3 3,-7 3,-10 0,-2 0,-2 0,-4 0,0 0,-1 0,-1 0,-1 0,-2 -1,-2 0,0 0,0 0,0 -1,-3 -3,-6 -5,-8 -3,-3 -6,-4 -10,-5 0,0 -1,0 -1,0 -1,0 -3,0 -4,0l-2 0 -2 0c-1,0 -3,1 -4,1l-1 1c-2,1 -4,2 -5,4l-1 1c0,0 0,0 -1,1 -1,1 -2,3 -2,4 -1,1 -1,3 -1,4 0,1 0,1 0,2 0,0 0,1 0,1 0,1 0,1 0,1 0,2 0,4 1,6 0,1 1,2 1,3 0,0 0,1 0,1 0,0 0,0 0,0 1,2 1,2 2,3 1,1 3,3 4,4l1 1c1,1 3,2 5,2 0,0 1,0 1,0 0,0 1,0 1,0 0,0 0,0 1,0l3 0z"/>
 <path class="fil0" d="M-997 238c0,2 0,2 1,4l0 0c0,0 0,0 0,0 1,1 2,1 3,1 1,0 1,0 2,0 1,-1 3,-2 3,-4 0,-1 0,-1 -1,-2 -1,-1 -2,-3 -4,-3l-1 0c-2,0 -5,2 -5,5z"/>
 <path class="fil2 str1" d="M-1127 248l0 6 8 0 -1 6c0,0 0,1 0,1 0,1 0,2 0,2l-7 0 0 27 -12 0 0 -26c0,0 0,0 0,0l-5 0 0 -9 5 0c0,-2 0,-7 0,-9 0,-2 1,-3 2,-5 0,-1 1,-1 1,-1 1,-1 2,-1 3,-2 1,-1 2,-1 4,-1l11 0 0 9 -5 0c-2,0 -3,1 -3,3zm-53 -13l0 49c0,2 1,4 1,6 0,1 2,3 2,4l0 0c0,0 1,1 1,1 1,1 1,1 2,1 2,1 5,2 7,2l48 0c2,0 4,-1 6,-1 1,0 1,-1 2,-1 1,-1 3,-2 4,-4 2,-2 3,-5 3,-8l0 -48c0,-2 0,-3 -1,-4 -1,-2 -1,-3 -3,-5 0,0 -1,-1 -1,-1l-1 -1c-2,-1 -4,-2 -6,-3 -1,0 -2,0 -3,0l-49 0c-2,0 -4,1 -6,1 -1,0 -2,1 -2,1 -1,1 -1,1 -1,1 0,0 0,0 0,0 -2,2 -4,6 -4,10z"/>
 <path class="fil3" d="M-1197 123c-12,0 -22,10 -22,22 0,12 10,22 22,22 12,0 22,-10 22,-22 0,-12 -10,-22 -22,-22zm0 3c10,0 18,9 18,19 0,11 -8,19 -18,19 -10,0 -18,-8 -18,-19 0,-11 8,-19 18,-19zm10 8c-1,-1 -4,-2 -8,-2 -7,0 -14,5 -14,13 0,7 5,13 13,13 3,0 6,-1 9,-2l-1 -3c-2,1 -4,2 -7,2 -7,0 -10,-5 -10,-10 0,-6 3,-10 10,-10 3,0 6,1 7,2l1 -3z"/>
 <polygon id="1" class="fil3" points="-1152,170 -1146,170 -1146,148 -1127,148 -1127,143 -1146,143 -1146,127 -1126,127 -1126,121 -1152,121 "/>
 <path id="2" class="fil3" d="M-1090 135l-6 0 0 21c0,1 0,2 -1,3 -1,3 -4,6 -8,6 -6,0 -8,-4 -8,-11l0 -19 -6 0 0 20c0,12 7,15 12,15 6,0 10,-4 12,-6l0 0 0 6 6 0c0,-3 0,-6 0,-10l0 -25z"/>
 <path id="3" class="fil3" d="M-1078 127l0 8 -5 0 0 5 5 0 0 19c0,4 1,7 2,9 2,2 4,3 7,3 2,0 4,0 6,-1l0 -5c-1,0 -2,0 -4,0 -4,0 -5,-2 -5,-7l0 -19 9 0 0 -5 -9 0 0 -10 -6 2z"/>
 <path id="4" class="fil3" d="M-1027 135l-6 0 0 21c0,1 0,2 -1,3 -1,3 -4,6 -8,6 -6,0 -8,-4 -8,-11l0 -19 -6 0 0 20c0,12 7,15 12,15 6,0 10,-4 12,-6l0 0 0 6 6 0c0,-3 0,-6 0,-10l0 -25z"/>
 <path id="5" class="fil3" d="M-1016 170l6 0 0 -19c0,-1 0,-2 0,-3 1,-5 4,-8 9,-8 1,0 2,0 2,0l0 -6c-1,0 -1,0 -2,0 -4,0 -8,3 -10,8l0 0 0 -7 -6 0c0,3 0,7 0,11l0 24z"/>
 <path id="6" class="fil3" d="M-979 134c-10,0 -17,7 -17,19 0,11 7,18 17,18 8,0 17,-6 17,-19 0,-11 -7,-18 -17,-18zm0 5c7,0 10,7 10,13 0,8 -5,14 -11,14 -6,0 -11,-6 -11,-13 0,-7 3,-14 11,-14z"/>
 <path id="7" class="fil3" d="M-906 163c-3,1 -6,2 -10,2 -12,0 -19,-8 -19,-20 0,-13 8,-20 19,-20 4,0 7,1 10,2l2 -5c-2,-1 -5,-2 -12,-2 -15,0 -25,10 -25,26 0,16 10,25 24,25 6,0 11,-1 13,-2l-1 -5z"/>
 <path id="8" class="fil3" d="M-872 170c0,-2 -1,-5 -1,-8l0 -13c0,-7 -3,-14 -13,-14 -4,0 -9,1 -11,3l1 4c2,-2 6,-3 9,-3 7,0 8,5 8,8l0 1c-13,0 -21,5 -21,13 0,5 4,10 11,10 5,0 9,-2 11,-5l0 0 1 4 6 0zm-7 -12c0,1 0,1 0,2 -1,3 -4,6 -8,6 -3,0 -6,-2 -6,-6 0,-7 8,-8 15,-8l0 6z"/>
 <path id="9" class="fil3" d="M-865 168c2,1 6,2 10,2 8,0 13,-4 13,-10 0,-5 -3,-8 -9,-11 -5,-2 -7,-3 -7,-6 0,-3 2,-5 6,-5 3,0 6,1 7,2l2 -5c-2,-1 -5,-2 -9,-2 -7,0 -12,5 -12,10 0,4 3,8 9,10 5,2 6,3 6,6 0,3 -2,5 -7,5 -3,0 -6,-1 -8,-3l-2 5z"/>
 <path id="10" class="fil3" d="M-809 170c0,-2 -1,-5 -1,-8l0 -13c0,-7 -3,-14 -13,-14 -4,0 -9,1 -11,3l1 4c2,-2 6,-3 9,-3 7,0 8,5 8,8l0 1c-13,0 -21,5 -21,13 0,5 4,10 11,10 5,0 9,-2 11,-5l0 0 1 4 6 0zm-7 -12c0,1 0,1 0,2 -1,3 -4,6 -8,6 -3,0 -6,-2 -6,-6 0,-7 8,-8 15,-8l0 6z"/>
 <path id="11" class="fil3" d="M-799 178c2,-3 5,-11 7,-18l-7 1c-1,5 -3,13 -4,17l5 0z"/>
 <path id="12" class="fil3" d="M-741 170l0 -5 -21 0 0 0 4 -3c10,-10 16,-17 16,-25 0,-7 -4,-14 -14,-14 -5,0 -10,2 -13,5l2 4c2,-2 6,-4 10,-4 7,0 9,4 9,9 0,7 -5,13 -17,25l-5 5 0 4 30 0z"/>
 <path id="13" class="fil3" d="M-718 122c-10,0 -16,9 -16,24 0,16 6,24 16,24 10,0 16,-9 16,-25 0,-15 -6,-24 -16,-24zm0 5c7,0 10,8 10,19 0,12 -3,20 -10,20 -6,0 -10,-7 -10,-19 0,-13 4,-20 10,-20z"/>
 <polygon id="14" class="fil3" points="-683,170 -677,170 -677,123 -683,123 -693,129 -692,133 -683,129 -683,129 "/>
 <path id="15" class="fil3" d="M-645 171c9,0 16,-5 16,-14 0,-6 -4,-10 -9,-12l0 0c6,-3 8,-7 8,-11 0,-6 -5,-12 -14,-12 -8,0 -14,5 -14,12 0,4 2,8 7,11l0 0c-6,2 -9,7 -9,13 0,7 6,13 16,13zm0 -5c-6,0 -10,-4 -9,-9 0,-4 3,-8 8,-10 6,2 10,5 10,10 0,5 -4,8 -9,8zm0 -39c6,0 8,4 8,8 0,4 -3,7 -7,9 -5,-1 -9,-4 -9,-9 0,-4 3,-7 8,-7z"/>
</symbol>
 <g id="Слой_x0020_3">
  <metadata id="CorelCorpID_0Corel-Layer"/>
  <g id="_683753672">
   <polygon class="fil4" points="14,128 142,256 166,232 151,217 139,229 131,221 143,209 128,194 116,206 108,198 121,186 106,172 94,184 86,176 98,164 84,149 71,161 63,153 76,141 61,127 49,139 41,131 53,119 38,103 "/>
   <path class="fil4" d="M236 225l0 22 11 0c6,0 11,-5 11,-11 0,-6 -5,-11 -11,-11l-11 0z"/>
   <path class="fil4" d="M34 62l0 30 0 0c2,-2 6,-2 8,0l122 122 84 0c4,0 8,1 11,3l0 -149c0,-6 -5,-11 -11,-11l-25 0 -65 65c-1,1 -1,1 -2,1l-2 1 50 0 0 11 -84 0c0,0 0,0 0,0 -3,0 -6,-3 -6,-6 0,-1 0,-1 0,-2l12 -35c0,0 0,0 0,0 0,-1 1,-2 1,-2l34 -34 -120 0c-3,0 -6,3 -6,6zm180 73l0 -11 11 0 0 11 -11 0zm22 0l0 -11 11 0 0 11 -11 0z"/>
   <path class="fil4" d="M34 164l0 44c0,3 3,6 6,6l44 0 -50 -50z"/>
   <path class="fil5" d="M34 107l-11 0 0 -45c0,-9 8,-17 17,-17l135 0 0 11 -135 0c-3,0 -6,3 -6,6l0 45z"/>
   <path class="fil5" d="M96 225l-56 0c-9,0 -17,-8 -17,-17l0 -56 11 0 0 56c0,3 3,6 6,6l56 0 0 11z"/>
   <path class="fil5" d="M14 128l129 129 24 -24 -129 -129 -24 24zm129 142c-1,0 -3,-1 -4,-2l-137 -137c-1,-1 -2,-3 -2,-4 0,-1 1,-3 2,-4l32 -32c2,-2 6,-2 8,0l136 137c2,2 2,6 0,8l-32 32c-1,1 -2,2 -4,2z"/>
   <path class="fil5" d="M236 247l11 0c6,0 11,-5 11,-11 0,-6 -5,-11 -11,-11l-11 0 0 22zm11 11l-17 0c-3,0 -6,-3 -6,-6l0 -28 -62 0 0 -11 84 0c12,0 22,10 22,22 0,12 -10,22 -22,22z"/>
   <path class="fil5" d="M270 236l-11 0 0 -169c0,-6 -5,-11 -11,-11l-28 0 0 -11 28 0c12,0 22,10 22,22l0 169z"/>
   <polygon class="fil5" points="86,176 103,159 111,167 94,184 "/>
   <polygon class="fil5" points="63,153 80,136 88,144 71,161 "/>
   <polygon class="fil5" points="108,198 125,181 133,189 116,206 "/>
   <polygon class="fil5" points="131,221 148,204 156,212 139,229 "/>
   <polygon class="fil5" points="41,131 58,114 66,122 49,139 "/>
   <path class="fil5" d="M138 94l15 15 81 -81c2,-2 2,-5 0,-8 0,0 0,0 0,0l-8 -8c-2,-2 -5,-2 -8,0l-81 81zm15 29c-1,0 -3,-1 -4,-2l-23 -23c-2,-2 -2,-6 0,-8l85 -85c3,-3 8,-5 12,-5l0 0c4,0 8,2 12,5l8 8c6,6 6,17 0,23 0,0 0,0 0,0l-85 85c-1,1 -2,2 -4,2z"/>
   <path class="fil5" d="M118 135c-3,0 -6,-3 -6,-6 0,-1 0,-1 0,-2l12 -35 11 4 -8 24 24 -8 4 11 -35 12c-1,0 -1,0 -2,0z"/>
   <polygon class="fil5" points="196,28 204,20 227,44 219,51 "/>
   <polygon class="fil5" points="118,135 202,135 202,123 118,123 "/>
   <polygon class="fil5" points="214,135 225,135 225,123 214,123 "/>
   <polygon class="fil5" points="236,135 247,135 247,123 236,123 "/>
  </g>
 </g>
</svg>
