<?xml version="1.0" encoding="UTF-8"?>
<!DOCTYPE svg PUBLIC "-//W3C//DTD SVG 1.1//EN" "http://www.w3.org/Graphics/SVG/1.1/DTD/svg11.dtd">
<!-- Creator: CorelDRAW 2017 -->
<svg xmlns="http://www.w3.org/2000/svg" xml:space="preserve" width="7.1497mm" height="4.7142mm" version="1.1" style="shape-rendering:geometricPrecision; text-rendering:geometricPrecision; image-rendering:optimizeQuality; fill-rule:evenodd; clip-rule:evenodd"
viewBox="0 0 407 268"
 xmlns:xlink="http://www.w3.org/1999/xlink">
 <defs>
  <style type="text/css">
   <![CDATA[
    .str0 {stroke:#4A4A4A;stroke-width:28.4391;stroke-opacity:0.701961}
    .str1 {stroke:#949494;stroke-width:28.4391}
    .fil2 {fill:none}
    .fil1 {fill:none}
    .fil4 {fill:#BA9F65}
    .fil3 {fill:#7F7D7A;fill-rule:nonzero}
    .fil0 {fill:#4A4A4A;fill-opacity:0.701961}
   ]]>
  </style>
 </defs>
<symbol id="Footer" viewBox="-792 2818 2299 705">
 <path class="fil0" d="M1007 3308l7 7c2,2 5,5 7,7l22 21c19,19 39,38 58,57 8,8 16,15 30,12 8,-2 14,-6 18,-11l48 -45c1,-1 1,-1 2,-2l28 -26c1,-1 2,-2 4,-3l15 -14c3,-2 5,-5 7,-7 0,0 0,0 0,0l0 151c-2,0 -58,0 -61,0l-169 0c-3,0 -13,0 -15,0l0 -148c1,0 0,0 1,0zm112 65c-1,-1 -2,-2 -3,-3l-16 -16c-4,-4 -9,-9 -13,-13l-66 -65 215 0c0,1 -6,6 -7,7 -6,5 -12,11 -17,16l-41 39c-1,1 -2,2 -3,3 -1,1 -2,2 -3,3 -1,1 -2,2 -3,3l-17 16c-1,1 -2,2 -3,3 -1,1 -2,2 -4,3 -2,2 -8,8 -10,10l-7 -7zm-114 -130c-11,1 -18,6 -23,12 -8,8 -8,17 -8,27l0 139c0,12 0,23 0,35 0,9 4,19 11,24 7,6 13,9 26,9l227 0c17,0 28,2 41,-12 3,-3 5,-7 6,-11 2,-6 2,-10 2,-16l0 -139c0,-12 0,-23 0,-35 0,-9 -4,-19 -11,-24 -8,-6 -13,-9 -26,-9l-227 0c-5,0 -12,0 -17,0z"/>
 <path class="fil0" d="M1007 3308c-1,0 1,0 -1,0l0 148c2,1 12,0 15,0l169 0c4,0 59,0 61,0l0 -151c-1,0 0,0 0,0 0,1 0,1 0,2 0,1 0,2 0,2 0,49 0,97 0,146l-245 0 0 -146c0,-1 0,0 0,-1z"/>
 <path class="fil1 str0" d="M498 3259c3,2 8,2 12,4 12,6 12,20 14,34 2,14 0,46 -6,58 -7,15 -22,-1 -28,-8 -2,-3 -4,-6 -6,-9 -8,-12 -26,-48 -33,-63 -4,-9 -5,-15 -13,-18 -8,-3 -51,-1 -63,-1 -27,0 -15,16 -5,37 7,15 14,29 22,43 16,29 32,54 50,78 20,26 23,29 49,47 5,4 14,9 20,12 15,7 33,12 52,12 8,0 25,1 31,-1 19,-5 5,-27 18,-46 19,-28 39,24 70,42 9,5 14,6 25,5 47,-1 98,10 58,-42 -16,-20 -32,-32 -47,-49 -13,-15 -3,-26 9,-42 15,-20 44,-56 51,-77 8,-25 -16,-19 -40,-19l-47 0c-9,1 -11,9 -14,18 -9,23 -26,52 -41,72 -3,3 -13,14 -17,16 -18,6 -14,-39 -14,-48 0,-16 4,-48 -3,-59 -8,-13 -67,-10 -85,-6 -7,1 -19,7 -18,14z"/>
 <path class="fil0" d="M41 3488l-67 0c-8,0 -15,0 -22,-1 -7,0 -25,-2 -30,-4 -1,0 -1,0 -2,-1 -7,-2 -15,-6 -20,-12 -4,-4 -7,-8 -10,-13 -1,-3 -3,-5 -4,-8 0,-1 -1,-3 -1,-5l-2 -10c0,-1 0,-1 -1,-2l-1 -8c0,-1 0,-4 0,-5 0,-2 0,-4 0,-6 0,-2 0,-4 0,-5 0,-4 0,-7 0,-11 0,-9 0,-76 0,-79 0,-2 0,-4 0,-6 0,-3 0,-11 1,-11 1,-4 1,-7 1,-11 0,-2 0,-4 1,-5 1,-10 2,-14 6,-23 1,-1 1,-2 2,-4 2,-4 5,-7 8,-10 5,-4 12,-9 19,-11 3,-1 6,-2 9,-3l10 -2c6,-1 13,-1 20,-1 3,0 6,0 9,0 1,0 2,0 3,0l70 0c4,0 7,0 11,0l22 1 15 2c7,1 13,3 19,6l5 3c2,1 4,3 6,5 3,2 8,10 9,13 2,4 4,8 5,12 1,7 3,15 3,22 0,1 0,2 0,3l1 16 0 80c0,6 -1,10 -1,17 0,2 0,4 0,6 0,2 0,4 0,5l-1 10c-1,6 -2,11 -4,16 0,1 -1,1 -1,2 -2,5 -5,11 -9,14 -2,2 -4,4 -6,6l-3 2c-1,1 -2,1 -4,2l-8 4c-5,2 -14,4 -19,4 -3,1 -7,1 -10,1 -1,0 -1,0 -3,0 -1,0 -2,0 -3,0 -1,0 -1,0 -2,0 -1,0 -2,0 -3,0l-11 1c-2,0 -4,0 -6,0zm-189 -170l0 85c0,5 0,10 0,15l1 14c1,9 2,14 4,22 2,9 11,25 17,32l10 9 7 5c2,1 3,2 5,3 11,5 17,7 29,10 1,0 2,0 3,1 1,0 2,0 3,0 1,0 2,0 3,0 4,1 7,0 11,1 1,0 3,0 4,0 1,0 2,0 4,0 10,0 20,0 30,0l48 0c4,0 13,0 17,0 5,-1 12,0 17,0 2,0 8,0 12,-1 1,0 3,0 4,0 5,-1 10,-2 14,-3 2,0 4,-1 7,-2l3 -1c1,0 2,-1 3,-1 8,-3 18,-8 24,-14 1,-1 1,-1 2,-2 4,-3 9,-9 12,-13 4,-5 8,-14 10,-20 0,-1 1,-2 1,-3l3 -14c2,-8 2,-19 2,-27 0,-2 0,-2 0,-4l0 -46c0,-12 0,-23 0,-36 0,-3 0,-5 0,-9 0,-3 0,-6 0,-9 0,-6 0,-21 -1,-26 -1,-4 -1,-8 -2,-11l-1 -4c-2,-6 -2,-8 -4,-13 -2,-5 -6,-13 -10,-17 -2,-2 -4,-5 -6,-7 -1,-1 -1,-1 -2,-2l-3 -3c-1,0 -1,0 -1,-1 -2,-2 -5,-4 -8,-6 -1,-1 -2,-1 -3,-2l-19 -8c-3,-1 -7,-2 -11,-3 -7,-1 -13,-2 -20,-2 -3,0 -6,-1 -8,-1 -3,0 -6,0 -9,0 -3,0 -5,0 -9,0 -11,0 -78,0 -81,0 -4,1 -11,0 -15,0 -2,0 -5,0 -7,0l-7 1c-4,0 -9,1 -13,2 -4,1 -8,2 -12,3l-8 3c-6,2 -12,6 -17,10 -5,4 -9,8 -13,13l-3 4c-6,9 -9,15 -12,26 -2,7 -3,15 -4,22 0,2 0,5 0,7 0,2 -1,5 -1,7 0,5 0,10 0,15z"/>
 <path class="fil0" d="M10 3412c-5,0 -9,0 -14,-1 -10,-2 -18,-7 -25,-13 -2,-2 -3,-3 -5,-5l-2 -3c0,0 0,-1 -1,-1l-5 -10c-1,-1 -1,-3 -1,-5 -2,-9 -2,-21 1,-29 2,-5 4,-10 7,-15 4,-5 10,-12 16,-15 1,0 1,-1 2,-1 10,-5 20,-6 32,-5 3,0 7,1 10,2 5,2 4,2 9,4 4,2 9,7 12,10 3,3 6,8 8,12 2,4 4,11 5,16 1,7 1,14 -1,20l-1 3c-2,6 -3,8 -7,14 0,1 -1,1 -1,2 -7,9 -16,16 -28,19 -3,1 -7,2 -11,2zm-3 29c8,0 16,-1 23,-3 1,0 1,0 2,0 11,-4 17,-7 25,-14l9 -8 5 -7c1,-1 1,-2 2,-3l2 -3c7,-10 11,-26 11,-38 0,-8 0,-8 -1,-17 0,-1 0,-3 -1,-4 -1,-3 -1,-7 -3,-10 0,-1 0,-1 -1,-2 -3,-10 -12,-22 -19,-29 -11,-11 -22,-17 -38,-21 -1,0 -3,0 -4,-1 -4,-1 -10,-1 -14,-1l-9 1 -9 1c-6,1 -12,3 -17,6l-5 3c-6,4 -14,9 -19,15l-3 3c-1,1 -1,2 -2,3 -3,4 -7,11 -10,16 -2,5 -4,10 -5,15 -1,3 -1,6 -1,8 0,2 0,3 0,5 0,2 0,3 0,5 0,8 1,15 3,22 1,5 2,7 4,11 0,1 1,2 2,3 0,1 1,1 1,2 3,6 5,8 9,13 4,5 11,12 17,15l5 3c5,3 13,6 18,8 1,0 3,1 4,1 1,0 3,1 4,1 1,0 1,0 2,0l12 1z"/>
 <path class="fil0" d="M71 3276c0,6 1,10 5,14l0 0c0,0 0,0 0,0 4,3 7,6 13,6 3,0 6,-1 8,-2 6,-3 12,-10 12,-16 0,-4 0,-6 -2,-9 -3,-5 -9,-11 -16,-11l-2 0c-8,0 -18,9 -18,18z"/>
 <path class="fil2 str1" d="M-435 3313l0 22 32 0 -2 22c0,1 0,3 -1,4 0,2 -1,7 -1,9l-28 0 0 104 -47 0 0 -103c0,0 0,-1 -1,-1l-18 0 0 -35 18 0c0,-9 -1,-26 1,-35 1,-7 3,-14 7,-19 2,-2 2,-3 4,-5 3,-3 8,-5 11,-7 6,-2 9,-2 14,-3l43 0 0 35 -21 0c-9,0 -13,3 -13,12zm-208 -50l0 191c0,8 2,15 5,22 2,4 6,11 10,14l2 2c1,1 2,2 4,3 3,2 5,4 8,6 8,4 18,7 27,7l188 0c8,0 17,-2 23,-5 4,-2 6,-3 9,-5 5,-4 10,-9 14,-14 6,-9 10,-20 10,-31l0 -188c0,-6 -1,-12 -3,-18 -2,-7 -5,-12 -10,-18 -1,-1 -2,-2 -3,-4l-4 -3c-7,-6 -14,-10 -22,-12 -4,-1 -8,-2 -12,-2l-191 0c-8,0 -16,3 -22,5 -3,1 -6,3 -9,5 -3,2 -3,3 -6,5 -1,1 -1,1 -2,2 -10,10 -16,24 -16,38z"/>
 <path class="fil3" d="M-706 2828c-48,0 -85,39 -85,87 0,48 38,87 85,87 47,0 85,-39 85,-87 0,-48 -37,-87 -85,-87zm0 12c40,0 71,33 71,75 0,43 -31,76 -71,76 -40,0 -71,-33 -71,-75 0,-43 31,-76 71,-76zm38 32c-4,-3 -16,-8 -31,-8 -28,0 -54,20 -54,52 0,28 19,51 51,51 12,0 25,-2 35,-9l-3 -11c-6,4 -17,7 -28,7 -26,0 -40,-18 -40,-40 0,-22 13,-39 39,-39 13,0 24,4 27,6l3 -11z"/>
 <polygon id="1" class="fil3" points="-531,3010 -506,3010 -506,2925 -435,2925 -435,2905 -506,2905 -506,2842 -429,2842 -429,2821 -531,2821 "/>
 <path id="2" class="fil3" d="M-291 2875l-25 0 0 83c0,4 -1,9 -2,13 -4,11 -16,22 -33,22 -22,0 -30,-17 -30,-43l0 -75 -25 0 0 79c0,48 26,60 47,60 24,0 38,-14 45,-25l1 0 1 22 22 0c-1,-11 -1,-23 -1,-37l0 -99z"/>
 <path id="3" class="fil3" d="M-244 2842l0 33 -21 0 0 19 21 0 0 74c0,16 3,28 10,35 6,7 15,10 27,10 10,0 17,-1 22,-3l-1 -19c-3,1 -8,2 -14,2 -14,0 -19,-10 -19,-26l0 -73 35 0 0 -19 -35 0 0 -39 -24 6z"/>
 <path id="4" class="fil3" d="M-43 2875l-25 0 0 83c0,4 -1,9 -2,13 -4,11 -16,22 -33,22 -22,0 -30,-17 -30,-43l0 -75 -25 0 0 79c0,48 26,60 47,60 24,0 38,-14 45,-25l1 0 1 22 22 0c-1,-11 -1,-23 -1,-37l0 -99z"/>
 <path id="5" class="fil3" d="M-2 3010l24 0 0 -72c0,-4 1,-8 1,-12 3,-19 16,-32 33,-32 3,0 6,0 8,1l0 -23c-2,-1 -4,-1 -7,-1 -17,0 -31,12 -38,30l-1 0 -1 -27 -22 0c1,13 1,26 1,42l0 94z"/>
 <path id="6" class="fil3" d="M144 2871c-38,0 -67,27 -67,72 0,43 28,70 65,70 33,0 68,-22 68,-72 0,-42 -26,-70 -65,-70zm-1 19c29,0 41,29 41,52 0,31 -18,53 -41,53 -24,0 -41,-22 -41,-52 0,-26 13,-53 42,-53z"/>
 <path id="7" class="fil3" d="M429 2985c-10,5 -25,8 -40,8 -46,0 -73,-30 -73,-76 0,-50 29,-78 74,-78 16,0 29,3 38,8l6 -20c-6,-3 -21,-8 -45,-8 -59,0 -99,40 -99,99 0,62 40,96 94,96 23,0 41,-4 50,-9l-5 -19z"/>
 <path id="8" class="fil3" d="M559 3010c-2,-9 -2,-21 -2,-33l0 -51c0,-27 -10,-56 -52,-56 -17,0 -33,5 -45,12l6 16c10,-6 23,-10 35,-10 28,0 31,20 31,31l0 3c-53,0 -82,18 -82,51 0,20 14,39 42,39 19,0 34,-10 42,-20l1 0 2 17 22 0zm-26 -46c0,3 -1,5 -1,8 -4,12 -15,23 -33,23 -13,0 -23,-8 -23,-24 0,-26 31,-31 58,-31l0 24z"/>
 <path id="9" class="fil3" d="M587 3004c10,6 23,9 38,9 32,0 51,-17 51,-41 0,-20 -12,-32 -36,-41 -18,-7 -26,-12 -26,-23 0,-10 8,-19 23,-19 13,0 22,4 28,8l6 -18c-8,-4 -20,-8 -33,-8 -29,0 -47,18 -47,40 0,16 12,30 36,38 18,7 25,13 25,25 0,11 -8,20 -26,20 -12,0 -25,-5 -33,-10l-6 19z"/>
 <path id="10" class="fil3" d="M806 3010c-2,-9 -2,-21 -2,-33l0 -51c0,-27 -10,-56 -52,-56 -17,0 -33,5 -45,12l6 16c10,-6 23,-10 35,-10 28,0 31,20 31,31l0 3c-53,0 -82,18 -82,51 0,20 14,39 42,39 19,0 34,-10 42,-20l1 0 2 17 22 0zm-26 -46c0,3 -1,5 -1,8 -4,12 -15,23 -33,23 -13,0 -23,-8 -23,-24 0,-26 31,-31 58,-31l0 24z"/>
 <path id="11" class="fil3" d="M845 3043c8,-13 20,-44 27,-68l-28 3c-3,21 -11,51 -17,67l18 -2z"/>
 <path id="12" class="fil3" d="M1070 3010l0 -21 -82 0 0 -1 15 -13c38,-37 63,-64 63,-98 0,-26 -17,-53 -56,-53 -21,0 -39,8 -52,19l8 17c8,-7 22,-15 39,-15 27,0 36,17 36,36 0,28 -21,51 -68,96l-19 19 0 15 117 0z"/>
 <path id="13" class="fil3" d="M1158 2825c-37,0 -63,34 -63,95 1,60 25,94 60,94 40,0 63,-34 63,-96 0,-58 -22,-92 -60,-92zm-1 19c26,0 37,29 37,74 0,47 -12,76 -37,76 -22,0 -37,-27 -37,-74 0,-50 16,-76 37,-76z"/>
 <polygon id="14" class="fil3" points="1295,3010 1319,3010 1319,2828 1298,2828 1258,2849 1263,2868 1295,2851 1295,2851 "/>
 <path id="15" class="fil3" d="M1445 3014c35,0 62,-21 62,-53 0,-22 -14,-38 -37,-47l0 -1c22,-11 30,-27 30,-43 0,-23 -18,-45 -53,-45 -32,0 -56,20 -56,49 0,16 9,31 29,41l0 1c-22,10 -36,26 -36,49 0,27 23,49 61,49zm1 -18c-23,0 -37,-16 -37,-35 0,-17 12,-31 33,-38 25,7 40,18 40,40 0,19 -14,33 -37,33zm0 -153c22,0 31,15 31,30 0,17 -12,28 -28,33 -21,-6 -35,-15 -35,-34 0,-16 11,-29 32,-29z"/>
</symbol>
 <g id="Слой_x0020_3">
  <metadata id="CorelCorpID_0Corel-Layer"/>
  <path class="fil4" d="M407 125l-8 -7c-3,3 -6,4 -9,4 -3,0 -7,-1 -13,-4l-5 -3c-11,-5 -21,-6 -30,-3 5,-7 7,-14 7,-21 0,-7 -3,-13 -8,-18 -7,-7 -15,-10 -25,-9 -10,1 -18,5 -26,13 -12,12 -16,27 -12,43l11 -1c0,-9 2,-15 6,-20 4,-4 8,-6 13,-6 5,0 9,1 13,5 3,3 4,6 4,10 0,4 -1,8 -4,10 -5,5 -16,9 -32,11l-8 1c-4,1 -9,1 -13,2 0,-2 0,-3 0,-5 0,-12 -4,-23 -12,-32 -8,-9 -17,-14 -28,-14 -8,0 -14,2 -19,7 -5,5 -8,10 -8,16 0,8 4,16 13,24 0,-2 -1,-4 -1,-5 0,-8 2,-14 7,-20 5,-6 10,-9 17,-9 4,0 8,2 11,5 3,3 4,7 4,11 0,8 -8,21 -23,37 -4,3 -7,5 -10,8 -3,3 -6,7 -9,11l-11 11c-6,-9 -11,-21 -16,-37 -5,-16 -7,-29 -7,-41 0,-20 6,-38 19,-51 12,-14 28,-21 47,-21 4,0 8,1 12,2 -4,-20 -12,-30 -26,-30 -18,0 -33,9 -46,28 -13,19 -20,40 -20,66 0,14 5,33 14,57l-2 -1 -8 -8c-10,-10 -19,-21 -25,-33 -7,-11 -10,-20 -10,-27 0,-5 2,-10 5,-13 3,-4 7,-5 11,-5 1,0 2,0 4,0 -5,-13 -11,-20 -19,-20 -5,0 -10,3 -14,8 -4,5 -6,12 -6,20 0,2 0,3 0,5 -8,-7 -16,-11 -25,-12 -10,-1 -18,2 -25,9 -5,5 -8,11 -8,18 0,7 2,14 7,21 -9,-4 -19,-3 -30,3l-5 3c-6,3 -10,4 -13,4 -3,0 -6,-2 -9,-4l-8 7 16 16c13,13 24,21 33,25 9,3 19,3 29,-1 -1,6 -1,11 0,15 1,5 3,9 7,12 5,5 12,8 20,8 8,0 15,-3 21,-9 5,-5 9,-12 14,-22l-10 -4c-2,4 -3,7 -5,8 -3,3 -6,5 -9,5 -3,0 -6,-1 -9,-4 -3,-3 -4,-6 -4,-11 0,-4 2,-8 5,-11 6,-6 15,-9 27,-7 11,1 21,6 29,15 9,9 13,19 13,31 0,12 -4,22 -12,29 -8,8 -17,12 -27,13 -10,0 -19,-3 -28,-11l-7 7 2 2c14,14 28,22 43,23 10,1 18,0 26,-4 1,3 3,7 5,9 5,7 12,10 19,10 8,0 14,-3 19,-9 4,-4 6,-10 7,-16 10,8 22,12 36,10 15,-2 30,-9 43,-23l2 -2 -8 -7c-9,8 -18,11 -28,11 -10,0 -19,-4 -27,-13 -8,-8 -12,-18 -12,-30l0 -1c15,-15 25,-27 30,-35 2,-3 3,-5 4,-8 3,-1 6,-1 9,-2 11,-1 20,1 27,7 3,3 5,7 5,11 0,4 -1,8 -4,11 -3,3 -6,4 -9,4 -3,0 -6,-2 -9,-5 -2,-2 -4,-5 -5,-8l-10 4c4,10 9,18 14,22 6,6 13,9 21,9 8,0 15,-2 20,-8 3,-3 6,-7 7,-12 1,-5 1,-10 0,-15 10,4 20,5 29,1 9,-3 20,-12 33,-25l16 -16zm-254 13c-8,-3 -18,-5 -28,-6l-8 -1c-16,-2 -27,-6 -32,-11 -3,-3 -4,-6 -4,-10 0,-4 2,-8 4,-10 3,-3 8,-5 13,-5 5,0 9,2 13,6 4,5 7,11 6,20l11 1c1,-4 2,-9 1,-13 6,9 14,19 24,29zm53 78c2,6 5,12 9,17 0,7 -1,12 -3,15 -2,3 -5,5 -9,5 -3,0 -5,-1 -6,-3 -1,-2 -2,-5 -2,-9 0,-8 4,-16 12,-25zm-115 -73c-9,-6 -22,-7 -39,-2l-3 1c-7,2 -14,2 -19,-1 19,19 39,20 61,2zm225 0c9,-6 22,-7 39,-2l3 1c7,2 14,2 19,-1 -19,19 -39,20 -61,2z"/>
 </g>
</svg>
