<?xml version="1.0" encoding="UTF-8"?>
<!DOCTYPE svg PUBLIC "-//W3C//DTD SVG 1.1//EN" "http://www.w3.org/Graphics/SVG/1.1/DTD/svg11.dtd">
<!-- Creator: CorelDRAW 2017 -->
<svg xmlns="http://www.w3.org/2000/svg" xml:space="preserve" width="20.7441mm" height="14.8674mm" version="1.1" style="shape-rendering:geometricPrecision; text-rendering:geometricPrecision; image-rendering:optimizeQuality; fill-rule:evenodd; clip-rule:evenodd"
viewBox="0 0 203 145"
 xmlns:xlink="http://www.w3.org/1999/xlink">
 <defs>
  <style type="text/css">
   <![CDATA[
    .str0 {stroke:#4A4A4A;stroke-width:4.89168;stroke-opacity:0.701961}
    .str1 {stroke:#949494;stroke-width:4.89168}
    .fil2 {fill:none}
    .fil1 {fill:none}
    .fil4 {fill:#967C58}
    .fil3 {fill:#7F7D7A;fill-rule:nonzero}
    .fil0 {fill:#4A4A4A;fill-opacity:0.701961}
   ]]>
  </style>
 </defs>
<symbol id="Footer" viewBox="-1235 -1456 395 121">
 <path class="fil0" d="M-926 -1372l1 1c0,0 1,1 1,1l4 4c3,3 7,7 10,10 1,1 3,3 5,2 1,0 2,-1 3,-2l8 -8c0,0 0,0 0,0l5 -5c0,0 0,0 1,-1l3 -2c0,0 1,-1 1,-1 0,0 0,0 0,0l0 26c0,0 -10,0 -11,0l-29 0c-1,0 -2,0 -3,0l0 -25c0,0 0,0 0,0zm19 11c0,0 0,0 -1,-1l-3 -3c-1,-1 -2,-2 -2,-2l-11 -11 37 0c0,0 -1,1 -1,1 -1,1 -2,2 -3,3l-7 7c0,0 0,0 -1,1 0,0 0,0 -1,1 0,0 0,0 -1,1l-3 3c0,0 0,0 -1,1 0,0 0,0 -1,1 0,0 -1,1 -2,2l-1 -1zm-20 -22c-2,0 -3,1 -4,2 -1,1 -1,3 -1,5l0 24c0,2 0,4 0,6 0,2 1,3 2,4 1,1 2,1 4,1l39 0c3,0 5,0 7,-2 0,0 1,-1 1,-2 0,-1 0,-2 0,-3l0 -24c0,-2 0,-4 0,-6 0,-2 -1,-3 -2,-4 -1,-1 -2,-1 -4,-1l-39 0c-1,0 -2,0 -3,0z"/>
 <path class="fil0" d="M-926 -1372c0,0 0,0 0,0l0 25c0,0 2,0 3,0l29 0c1,0 10,0 11,0l0 -26c0,0 0,0 0,0 0,0 0,0 0,0 0,0 0,0 0,0 0,8 0,17 0,25l-42 0 0 -25c0,0 0,0 0,0z"/>
 <path class="fil1 str0" d="M-1013 -1380c1,0 1,0 2,1 2,1 2,3 2,6 0,2 0,8 -1,10 -1,3 -4,0 -5,-1 0,0 -1,-1 -1,-2 -1,-2 -5,-8 -6,-11 -1,-2 -1,-3 -2,-3 -1,-1 -9,0 -11,0 -5,0 -3,3 -1,6 1,3 2,5 4,7 3,5 5,9 9,13 3,4 4,5 8,8 1,1 2,2 4,2 3,1 6,2 9,2 1,0 4,0 5,0 3,-1 1,-5 3,-8 3,-5 7,4 12,7 1,1 2,1 4,1 8,0 17,2 10,-7 -3,-3 -5,-5 -8,-8 -2,-3 -1,-4 2,-7 3,-3 8,-10 9,-13 1,-4 -3,-3 -7,-3l-8 0c-2,0 -2,2 -2,3 -2,4 -4,9 -7,12 0,1 -2,2 -3,3 -3,1 -2,-7 -2,-8 0,-3 1,-8 -1,-10 -1,-2 -12,-2 -15,-1 -1,0 -3,1 -3,2z"/>
 <path class="fil0" d="M-1092 -1341l-11 0c-1,0 -3,0 -4,0 -1,0 -4,0 -5,-1 0,0 0,0 0,0 -1,0 -3,-1 -3,-2 -1,-1 -1,-1 -2,-2 0,0 0,-1 -1,-1 0,0 0,-1 0,-1l0 -2c0,0 0,0 0,0l0 -1c0,0 0,-1 0,-1 0,0 0,-1 0,-1 0,0 0,-1 0,-1 0,-1 0,-1 0,-2 0,-1 0,-13 0,-14 0,0 0,-1 0,-1 0,-1 0,-2 0,-2 0,-1 0,-1 0,-2 0,0 0,-1 0,-1 0,-2 0,-2 1,-4 0,0 0,0 0,-1 0,-1 1,-1 1,-2 1,-1 2,-2 3,-2 1,0 1,0 2,0l2 0c1,0 2,0 3,0 0,0 1,0 2,0 0,0 0,0 0,0l12 0c1,0 1,0 2,0l4 0 3 0c1,0 2,0 3,1l1 1c0,0 1,1 1,1 0,0 1,2 2,2 0,1 1,1 1,2 0,1 1,3 1,4 0,0 0,0 0,1l0 3 0 14c0,1 0,2 0,3 0,0 0,1 0,1 0,0 0,1 0,1l0 2c0,1 0,2 -1,3 0,0 0,0 0,0 0,1 -1,2 -2,2 0,0 -1,1 -1,1l-1 0c0,0 0,0 -1,0l-1 1c-1,0 -2,1 -3,1 -1,0 -1,0 -2,0 0,0 0,0 0,0 0,0 0,0 -1,0 0,0 0,0 0,0 0,0 0,0 -1,0l-2 0c0,0 -1,0 -1,0zm-33 -29l0 15c0,1 0,2 0,3l0 2c0,2 0,2 1,4 0,2 2,4 3,6l2 2 1 1c0,0 1,0 1,0 2,1 3,1 5,2 0,0 0,0 1,0 0,0 0,0 1,0 0,0 0,0 1,0 1,0 1,0 2,0 0,0 0,0 1,0 0,0 0,0 1,0 2,0 3,0 5,0l8 0c1,0 2,0 3,0 1,0 2,0 3,0 0,0 1,0 2,0 0,0 0,0 1,0 1,0 2,0 2,0 0,0 1,0 1,0l1 0c0,0 0,0 1,0 1,0 3,-1 4,-2 0,0 0,0 0,0 1,-1 2,-2 2,-2 1,-1 1,-2 2,-3 0,0 0,0 0,-1l1 -2c0,-1 0,-3 0,-5 0,0 0,0 0,-1l0 -8c0,-2 0,-4 0,-6 0,-1 0,-1 0,-1 0,-1 0,-1 0,-2 0,-1 0,-4 0,-4 0,-1 0,-1 0,-2l0 -1c0,-1 0,-1 -1,-2 0,-1 -1,-2 -2,-3 0,0 -1,-1 -1,-1 0,0 0,0 0,0l-1 -1c0,0 0,0 0,0 0,0 -1,-1 -1,-1 0,0 0,0 0,0l-3 -1c-1,0 -1,0 -2,0 -1,0 -2,0 -3,0 0,0 -1,0 -1,0 -1,0 -1,0 -2,0 -1,0 -1,0 -1,0 -2,0 -13,0 -14,0 -1,0 -2,0 -3,0 0,0 -1,0 -1,0l-1 0c-1,0 -2,0 -2,0 -1,0 -1,0 -2,1l-1 1c-1,0 -2,1 -3,2 -1,1 -2,1 -2,2l-1 1c-1,2 -2,3 -2,4 0,1 -1,3 -1,4 0,0 0,1 0,1 0,0 0,1 0,1 0,1 0,2 0,3z"/>
 <path class="fil0" d="M-1097 -1354c-1,0 -1,0 -2,0 -2,0 -3,-1 -4,-2 0,0 -1,-1 -1,-1l0 0c0,0 0,0 0,0l-1 -2c0,0 0,-1 0,-1 0,-2 0,-4 0,-5 0,-1 1,-2 1,-3 1,-1 2,-2 3,-3 0,0 0,0 0,0 2,-1 4,-1 5,-1 1,0 1,0 2,0 1,0 1,0 1,1 1,0 2,1 2,2 1,1 1,1 1,2 0,1 1,2 1,3 0,1 0,2 0,3l0 1c0,1 -1,1 -1,2 0,0 0,0 0,0 -1,2 -3,3 -5,3 -1,0 -1,0 -2,0zm-1 5c1,0 3,0 4,-1 0,0 0,0 0,0 2,-1 3,-1 4,-2l2 -1 1 -1c0,0 0,0 0,0l0 -1c1,-2 2,-4 2,-6 0,-1 0,-1 0,-3 0,0 0,0 0,-1 0,-1 0,-1 0,-2 0,0 0,0 0,0 -1,-2 -2,-4 -3,-5 -2,-2 -4,-3 -7,-4 0,0 0,0 -1,0 -1,0 -2,0 -2,0l-2 0 -1 0c-1,0 -2,1 -3,1l-1 0c-1,1 -2,2 -3,3l0 1c0,0 0,0 0,0 -1,1 -1,2 -2,3 0,1 -1,2 -1,3 0,0 0,1 0,1 0,0 0,0 0,1 0,0 0,1 0,1 0,1 0,3 0,4 0,1 0,1 1,2 0,0 0,0 0,1 0,0 0,0 0,0 1,1 1,1 2,2 1,1 2,2 3,3l1 0c1,1 2,1 3,1 0,0 0,0 1,0 0,0 0,0 1,0 0,0 0,0 0,0l2 0z"/>
 <path class="fil0" d="M-1086 -1377c0,1 0,2 1,2l0 0c0,0 0,0 0,0 1,1 1,1 2,1 0,0 1,0 1,0 1,0 2,-2 2,-3 0,-1 0,-1 0,-2 0,-1 -2,-2 -3,-2l0 0c-1,0 -3,2 -3,3z"/>
 <path class="fil2 str1" d="M-1173 -1371l0 4 5 0 0 4c0,0 0,1 0,1 0,0 0,1 0,2l-5 0 0 18 -8 0 0 -18c0,0 0,0 0,0l-3 0 0 -6 3 0c0,-2 0,-5 0,-6 0,-1 1,-2 1,-3 0,0 0,0 1,-1 0,0 1,-1 2,-1 1,0 1,0 2,-1l7 0 0 6 -4 0c-2,0 -2,1 -2,2zm-36 -9l0 33c0,1 0,3 1,4 0,1 1,2 2,2l0 0c0,0 0,0 1,1 0,0 1,1 1,1 1,1 3,1 5,1l32 0c1,0 3,0 4,-1 1,0 1,0 2,-1 1,-1 2,-1 2,-2 1,-2 2,-3 2,-5l0 -32c0,-1 0,-2 -1,-3 0,-1 -1,-2 -2,-3 0,0 0,0 -1,-1l-1 -1c-1,-1 -2,-2 -4,-2 -1,0 -1,0 -2,0l-33 0c-1,0 -3,0 -4,1 0,0 -1,1 -1,1 -1,0 -1,0 -1,1 0,0 0,0 0,0 -2,2 -3,4 -3,7z"/>
 <path class="fil3" d="M-1220 -1454c-8,0 -15,7 -15,15 0,8 6,15 15,15 8,0 15,-7 15,-15 0,-8 -6,-15 -15,-15zm0 2c7,0 12,6 12,13 0,7 -5,13 -12,13 -7,0 -12,-6 -12,-13 0,-7 5,-13 12,-13zm6 6c-1,-1 -3,-1 -5,-1 -5,0 -9,3 -9,9 0,5 3,9 9,9 2,0 4,0 6,-1l-1 -2c-1,1 -3,1 -5,1 -4,0 -7,-3 -7,-7 0,-4 2,-7 7,-7 2,0 4,1 5,1l1 -2z"/>
 <polygon id="1" class="fil3" points="-1190,-1423 -1186,-1423 -1186,-1438 -1173,-1438 -1173,-1441 -1186,-1441 -1186,-1452 -1172,-1452 -1172,-1456 -1190,-1456 "/>
 <path id="2" class="fil3" d="M-1149 -1446l-4 0 0 14c0,1 0,2 0,2 -1,2 -3,4 -6,4 -4,0 -5,-3 -5,-7l0 -13 -4 0 0 14c0,8 4,10 8,10 4,0 7,-2 8,-4l0 0 0 4 4 0c0,-2 0,-4 0,-6l0 -17z"/>
 <path id="3" class="fil3" d="M-1141 -1452l0 6 -4 0 0 3 4 0 0 13c0,3 0,5 2,6 1,1 3,2 5,2 2,0 3,0 4,-1l0 -3c-1,0 -1,0 -2,0 -2,0 -3,-2 -3,-5l0 -13 6 0 0 -3 -6 0 0 -7 -4 1z"/>
 <path id="4" class="fil3" d="M-1106 -1446l-4 0 0 14c0,1 0,2 0,2 -1,2 -3,4 -6,4 -4,0 -5,-3 -5,-7l0 -13 -4 0 0 14c0,8 4,10 8,10 4,0 7,-2 8,-4l0 0 0 4 4 0c0,-2 0,-4 0,-6l0 -17z"/>
 <path id="5" class="fil3" d="M-1099 -1423l4 0 0 -12c0,-1 0,-1 0,-2 1,-3 3,-5 6,-5 1,0 1,0 1,0l0 -4c0,0 -1,0 -1,0 -3,0 -5,2 -6,5l0 0 0 -5 -4 0c0,2 0,5 0,7l0 16z"/>
 <path id="6" class="fil3" d="M-1074 -1447c-6,0 -12,5 -12,12 0,7 5,12 11,12 6,0 12,-4 12,-12 0,-7 -5,-12 -11,-12zm0 3c5,0 7,5 7,9 0,5 -3,9 -7,9 -4,0 -7,-4 -7,-9 0,-4 2,-9 7,-9z"/>
 <path id="7" class="fil3" d="M-1025 -1427c-2,1 -4,1 -7,1 -8,0 -13,-5 -13,-13 0,-9 5,-13 13,-13 3,0 5,1 7,1l1 -3c-1,-1 -4,-1 -8,-1 -10,0 -17,7 -17,17 0,11 7,16 16,16 4,0 7,-1 9,-2l-1 -3z"/>
 <path id="8" class="fil3" d="M-1002 -1423c0,-2 0,-4 0,-6l0 -9c0,-5 -2,-10 -9,-10 -3,0 -6,1 -8,2l1 3c2,-1 4,-2 6,-2 5,0 5,3 5,5l0 0c-9,0 -14,3 -14,9 0,3 2,7 7,7 3,0 6,-2 7,-3l0 0 0 3 4 0zm-4 -8c0,0 0,1 0,1 -1,2 -3,4 -6,4 -2,0 -4,-1 -4,-4 0,-5 5,-5 10,-5l0 4z"/>
 <path id="9" class="fil3" d="M-998 -1424c2,1 4,2 7,2 6,0 9,-3 9,-7 0,-3 -2,-6 -6,-7 -3,-1 -4,-2 -4,-4 0,-2 1,-3 4,-3 2,0 4,1 5,1l1 -3c-1,-1 -3,-1 -6,-1 -5,0 -8,3 -8,7 0,3 2,5 6,7 3,1 4,2 4,4 0,2 -1,3 -5,3 -2,0 -4,-1 -6,-2l-1 3z"/>
 <path id="10" class="fil3" d="M-960 -1423c0,-2 0,-4 0,-6l0 -9c0,-5 -2,-10 -9,-10 -3,0 -6,1 -8,2l1 3c2,-1 4,-2 6,-2 5,0 5,3 5,5l0 0c-9,0 -14,3 -14,9 0,3 2,7 7,7 3,0 6,-2 7,-3l0 0 0 3 4 0zm-4 -8c0,0 0,1 0,1 -1,2 -3,4 -6,4 -2,0 -4,-1 -4,-4 0,-5 5,-5 10,-5l0 4z"/>
 <path id="11" class="fil3" d="M-953 -1417c1,-2 3,-8 5,-12l-5 0c-1,4 -2,9 -3,12l3 0z"/>
 <path id="12" class="fil3" d="M-915 -1423l0 -4 -14 0 0 0 3 -2c7,-6 11,-11 11,-17 0,-4 -3,-9 -10,-9 -4,0 -7,1 -9,3l1 3c1,-1 4,-3 7,-3 5,0 6,3 6,6 0,5 -4,9 -12,16l-3 3 0 3 20 0z"/>
 <path id="13" class="fil3" d="M-899 -1455c-6,0 -11,6 -11,16 0,10 4,16 10,16 7,0 11,-6 11,-17 0,-10 -4,-16 -10,-16zm0 3c4,0 6,5 6,13 0,8 -2,13 -6,13 -4,0 -6,-5 -6,-13 0,-9 3,-13 6,-13z"/>
 <polygon id="14" class="fil3" points="-876,-1423 -872,-1423 -872,-1454 -875,-1454 -882,-1451 -881,-1448 -876,-1450 -876,-1450 "/>
 <path id="15" class="fil3" d="M-850 -1422c6,0 11,-4 11,-9 0,-4 -2,-7 -6,-8l0 0c4,-2 5,-5 5,-7 0,-4 -3,-8 -9,-8 -6,0 -10,3 -10,8 0,3 1,5 5,7l0 0c-4,2 -6,4 -6,8 0,5 4,9 11,9zm0 -3c-4,0 -6,-3 -6,-6 0,-3 2,-5 6,-6 4,1 7,3 7,7 0,3 -2,6 -6,6zm0 -26c4,0 5,3 5,5 0,3 -2,5 -5,6 -4,-1 -6,-3 -6,-6 0,-3 2,-5 5,-5z"/>
</symbol>
 <g id="Слой_x0020_3">
  <metadata id="CorelCorpID_0Corel-Layer"/>
  <g id="_724281584">
   <path class="fil4" d="M202 63c-1,-3 -2,-5 -4,-7l2 -13c2,-10 -5,-20 -14,-23 -6,-2 -12,-1 -17,2 -1,0 -1,1 -2,1 -1,-6 -5,-12 -11,-14 -6,-2 -12,-2 -17,1 -1,1 -3,2 -4,3 -1,-2 -2,-4 -3,-6 -4,-4 -9,-7 -15,-7l-30 0c-6,0 -11,2 -15,7 -1,2 -3,4 -3,6 -1,-1 -3,-2 -4,-3 -5,-3 -12,-3 -17,-1 -6,3 -10,8 -11,14 0,0 -1,-1 -2,-1 -5,-3 -11,-4 -16,-2 -11,3 -17,14 -15,25l2 12c-2,2 -4,6 -5,9 -1,8 3,15 10,18l0 32c0,6 4,11 10,13l0 14c0,2 2,3 3,3l10 0c1,0 3,-1 3,-2l6 -15 117 0 6 15c1,1 2,2 3,2l10 0c2,0 3,-2 3,-3l0 -14c6,-1 10,-7 10,-13l0 -32c8,-3 12,-11 10,-20zm-30 -36c3,-2 8,-3 11,-2 7,2 11,9 10,16l-2 10c0,0 0,0 0,0 0,0 -1,0 -1,0 -1,0 -1,0 -2,0 0,0 -1,0 -1,0 -1,0 -2,0 -2,0 0,0 0,0 0,0 -11,0 -20,9 -20,20l0 2 0 14c0,0 0,0 0,0 -2,-1 -4,-1 -6,-2 0,0 0,0 0,0l5 -35 2 -13c1,-4 3,-8 6,-10zm-134 74c-1,0 -2,-1 -2,-2l0 -6c1,0 1,0 2,-1 1,0 2,-1 4,-1 1,0 3,-1 4,-1 1,0 2,0 3,-1 2,0 4,-1 6,-1 1,0 1,0 2,0 2,0 4,0 6,-1 1,0 2,0 2,0 2,0 4,0 6,0 1,0 2,0 2,0 2,0 4,0 6,1 1,0 2,0 3,0 1,0 2,0 3,0 2,0 4,1 6,1 0,0 1,0 1,0 2,1 4,1 6,2 0,0 1,0 1,0l0 8 -59 0 0 0zm66 -8c0,0 1,0 1,0 2,-1 4,-1 6,-2 0,0 1,0 1,0 2,-1 4,-1 6,-1 1,0 2,0 3,0 1,0 2,0 3,0 2,0 4,0 6,-1 1,0 2,0 2,0 2,0 4,0 6,0 1,0 2,0 2,0 2,0 4,0 6,1 1,0 1,0 2,0 2,0 4,1 6,1 1,0 2,0 3,1 1,0 3,1 4,1 1,0 2,1 4,1 1,0 1,0 2,1l0 6c0,1 -1,2 -2,2l-59 0 0 -8zm37 -78c4,-2 8,-2 11,0 5,2 8,8 7,14l-3 18 -5 37c-9,-2 -18,-2 -26,-1l9 -58c1,-4 3,-7 6,-9zm-65 -4c2,-3 6,-4 10,-4l30 0c4,0 7,2 10,4 2,3 4,7 3,10l0 1c0,0 0,1 0,1l-9 59c-1,0 -3,0 -4,1 0,0 -1,0 -1,0 -1,0 -2,1 -3,1 0,0 -1,0 -1,0 -1,0 -2,1 -3,1 -1,0 -1,0 -2,1 -1,0 -2,1 -2,1 0,0 -1,0 -1,0 0,0 -1,0 -1,0 -1,0 -2,-1 -2,-1 -1,0 -1,0 -2,-1 -1,0 -2,-1 -3,-1 0,0 -1,0 -1,0 -1,0 -2,-1 -3,-1 0,0 -1,0 -1,0 -1,0 -3,-1 -4,-1l-9 -59c0,0 0,-1 0,-1l0 -1c-1,-4 0,-7 3,-10zm-27 4c2,-1 3,-1 5,-1 2,0 4,1 6,2 3,2 6,5 6,9l9 58c-9,-1 -18,0 -26,1l-7 -48c0,0 0,0 0,0l-1 -6c-1,-6 2,-11 7,-14zm-39 37l-2 -9c-1,-8 3,-15 11,-17 4,-1 7,-1 11,1 3,2 5,5 6,9l7 49c0,0 0,0 0,0 -2,1 -4,1 -6,2 0,0 0,0 0,0l0 -14 0 -2c0,-10 -7,-18 -16,-19 -1,0 -2,0 -4,0 -1,0 -1,0 -2,0 -1,0 -1,0 -2,0 0,0 0,0 0,0 -1,0 -2,0 -3,1 0,0 0,0 0,0zm21 87l-4 0 0 -10 9 0 -4 10zm144 0l-4 0 -4 -10 9 0 0 10zm13 -61c0,0 -1,0 -1,0l-5 0c-2,0 -3,2 -3,3 0,2 2,3 3,3l3 0 0 31c0,4 -3,6 -6,6l0 0 -17 0 -122 0 -17 0 0 0c-4,0 -6,-3 -6,-6l0 -31 3 0c2,0 3,-2 3,-3 0,-2 -2,-3 -3,-3l-5 0c0,0 -1,0 -1,0 -5,-1 -8,-6 -8,-11 0,-2 2,-5 4,-6 0,0 0,0 0,0 4,-3 10,-4 15,1 3,3 4,7 4,11l0 19 0 8 0 5c0,2 2,3 3,3l5 0 62 0 62 0 5 0c2,0 3,-2 3,-3l0 -5 0 -8 0 -19c0,-4 1,-7 3,-10 2,-3 5,-5 8,-5 0,0 1,0 1,0 0,0 1,0 1,0 0,0 0,0 1,0 1,0 1,0 2,0 0,0 0,0 0,0 1,0 3,1 4,2 0,0 0,0 0,0 2,1 3,3 3,5 0,0 0,0 0,0 2,6 -2,11 -7,12z"/>
   <g>
   </g>
   <g>
   </g>
   <g>
   </g>
   <g>
   </g>
   <g>
   </g>
   <g>
   </g>
   <g>
   </g>
   <g>
   </g>
   <g>
   </g>
   <g>
   </g>
   <g>
   </g>
   <g>
   </g>
   <g>
   </g>
   <g>
   </g>
   <g>
   </g>
  </g>
 </g>
</svg>
