<?xml version="1.0" encoding="UTF-8"?>
<!DOCTYPE svg PUBLIC "-//W3C//DTD SVG 1.1//EN" "http://www.w3.org/Graphics/SVG/1.1/DTD/svg11.dtd">
<!-- Creator: CorelDRAW 2017 -->
<svg xmlns="http://www.w3.org/2000/svg" xml:space="preserve" width="17.7126mm" height="17.7126mm" version="1.1" style="shape-rendering:geometricPrecision; text-rendering:geometricPrecision; image-rendering:optimizeQuality; fill-rule:evenodd; clip-rule:evenodd"
viewBox="0 0 145 145"
 xmlns:xlink="http://www.w3.org/1999/xlink">
 <defs>
  <style type="text/css">
   <![CDATA[
    .str0 {stroke:#4A4A4A;stroke-width:4.09756;stroke-opacity:0.701961}
    .str1 {stroke:#949494;stroke-width:4.09756}
    .fil2 {fill:none}
    .fil1 {fill:none}
    .fil4 {fill:#967C58}
    .fil3 {fill:#7F7D7A;fill-rule:nonzero}
    .fil0 {fill:#4A4A4A;fill-opacity:0.701961}
   ]]>
  </style>
 </defs>
<symbol id="Footer" viewBox="-1051 -1404 331 102">
 <path class="fil0" d="M-792 -1334l1 1c0,0 1,1 1,1l3 3c3,3 6,6 8,8 1,1 2,2 4,2 1,0 2,-1 3,-2l7 -7c0,0 0,0 0,0l4 -4c0,0 0,0 1,-1l2 -2c0,0 1,-1 1,-1 0,0 0,0 0,0l0 22c0,0 -8,0 -9,0l-24 0c0,0 -2,0 -2,0l0 -21c0,0 0,0 0,0zm16 9c0,0 0,0 0,0l-2 -2c-1,-1 -1,-1 -2,-2l-9 -9 31 0c0,0 -1,1 -1,1 -1,1 -2,2 -2,2l-6 6c0,0 0,0 -1,0 0,0 0,0 -1,0 0,0 0,0 0,0l-2 2c0,0 0,0 0,0 0,0 0,0 -1,0 0,0 -1,1 -1,1l-1 -1zm-16 -19c-2,0 -3,1 -3,2 -1,1 -1,2 -1,4l0 20c0,2 0,3 0,5 0,1 1,3 2,4 1,1 2,1 4,1l33 0c2,0 4,0 6,-2 0,0 1,-1 1,-2 0,-1 0,-1 0,-2l0 -20c0,-2 0,-3 0,-5 0,-1 -1,-3 -2,-4 -1,-1 -2,-1 -4,-1l-33 0c-1,0 -2,0 -2,0z"/>
 <path class="fil0" d="M-792 -1334c0,0 0,0 0,0l0 21c0,0 2,0 2,0l24 0c1,0 9,0 9,0l0 -22c0,0 0,0 0,0 0,0 0,0 0,0 0,0 0,0 0,0 0,7 0,14 0,21l-35 0 0 -21c0,0 0,0 0,0z"/>
 <path class="fil1 str0" d="M-865 -1341c0,0 1,0 2,1 2,1 2,3 2,5 0,2 0,7 -1,8 -1,2 -3,0 -4,-1 0,0 -1,-1 -1,-1 -1,-2 -4,-7 -5,-9 -1,-1 -1,-2 -2,-3 -1,0 -7,0 -9,0 -4,0 -2,2 -1,5 1,2 2,4 3,6 2,4 5,8 7,11 3,4 3,4 7,7 1,1 2,1 3,2 2,1 5,2 7,2 1,0 4,0 5,0 3,-1 1,-4 3,-7 3,-4 6,4 10,6 1,1 2,1 4,1 7,0 14,1 8,-6 -2,-3 -5,-5 -7,-7 -2,-2 0,-4 1,-6 2,-3 6,-8 7,-11 1,-4 -2,-3 -6,-3l-7 0c-1,0 -2,1 -2,3 -1,3 -4,8 -6,10 0,0 -2,2 -2,2 -3,1 -2,-6 -2,-7 0,-2 1,-7 0,-9 -1,-2 -10,-1 -12,-1 -1,0 -3,1 -3,2z"/>
 <path class="fil0" d="M-931 -1308l-10 0c-1,0 -2,0 -3,0 -1,0 -4,0 -4,-1 0,0 0,0 0,0 -1,0 -2,-1 -3,-2 -1,-1 -1,-1 -1,-2 0,0 0,-1 -1,-1 0,0 0,0 0,-1l0 -1c0,0 0,0 0,0l0 -1c0,0 0,-1 0,-1 0,0 0,-1 0,-1 0,0 0,-1 0,-1 0,-1 0,-1 0,-2 0,-1 0,-11 0,-11 0,0 0,-1 0,-1 0,0 0,-2 0,-2 0,-1 0,-1 0,-2 0,0 0,-1 0,-1 0,-1 0,-2 1,-3 0,0 0,0 0,-1 0,-1 1,-1 1,-1 1,-1 2,-1 3,-2 0,0 1,0 1,0l1 0c1,0 2,0 3,0 0,0 1,0 1,0 0,0 0,0 0,0l10 0c1,0 1,0 2,0l3 0 2 0c1,0 2,0 3,1l1 0c0,0 1,0 1,1 0,0 1,1 1,2 0,1 1,1 1,2 0,1 0,2 0,3 0,0 0,0 0,0l0 2 0 11c0,1 0,2 0,2 0,0 0,1 0,1 0,0 0,1 0,1l0 1c0,1 0,2 -1,2 0,0 0,0 0,0 0,1 -1,2 -1,2 0,0 -1,1 -1,1l0 0c0,0 0,0 -1,0l-1 1c-1,0 -2,1 -3,1 -1,0 -1,0 -2,0 0,0 0,0 0,0 0,0 0,0 0,0 0,0 0,0 0,0 0,0 0,0 0,0l-2 0c0,0 -1,0 -1,0zm-27 -25l0 12c0,1 0,1 0,2l0 2c0,1 0,2 1,3 0,1 2,4 3,5l1 1 1 1c0,0 0,0 1,0 2,1 2,1 4,1 0,0 0,0 0,0 0,0 0,0 0,0 0,0 0,0 0,0 1,0 1,0 2,0 0,0 0,0 1,0 0,0 0,0 1,0 1,0 3,0 4,0l7 0c1,0 2,0 2,0 1,0 2,0 2,0 0,0 1,0 2,0 0,0 0,0 1,0 1,0 1,0 2,0 0,0 1,0 1,0l0 0c0,0 0,0 0,0 1,0 3,-1 3,-2 0,0 0,0 0,0 1,0 1,-1 2,-2 1,-1 1,-2 1,-3 0,0 0,0 0,0l0 -2c0,-1 0,-3 0,-4 0,0 0,0 0,-1l0 -7c0,-2 0,-3 0,-5 0,0 0,-1 0,-1 0,0 0,-1 0,-1 0,-1 0,-3 0,-4 0,-1 0,-1 0,-2l0 -1c0,-1 0,-1 -1,-2 0,-1 -1,-2 -1,-3 0,0 -1,-1 -1,-1 0,0 0,0 0,0l0 0c0,0 0,0 0,0 0,0 -1,-1 -1,-1 0,0 0,0 0,0l-3 -1c0,0 -1,0 -2,0 -1,0 -2,0 -3,0 0,0 -1,0 -1,0 0,0 -1,0 -1,0 0,0 -1,0 -1,0 -2,0 -11,0 -12,0 -1,0 -2,0 -2,0 0,0 -1,0 -1,0l-1 0c-1,0 -1,0 -2,0 -1,0 -1,0 -2,0l-1 0c-1,0 -2,1 -2,1 -1,1 -1,1 -2,2l0 1c-1,1 -1,2 -2,4 0,1 0,2 -1,3 0,0 0,1 0,1 0,0 0,1 0,1 0,1 0,1 0,2z"/>
 <path class="fil0" d="M-936 -1319c-1,0 -1,0 -2,0 -1,0 -3,-1 -4,-2 0,0 0,0 -1,-1l0 0c0,0 0,0 0,0l-1 -1c0,0 0,0 0,-1 0,-1 0,-3 0,-4 0,-1 1,-1 1,-2 1,-1 2,-2 2,-2 0,0 0,0 0,0 1,-1 3,-1 5,-1 0,0 1,0 1,0 1,0 1,0 1,1 1,0 1,1 2,1 0,0 1,1 1,2 0,1 1,2 1,2 0,1 0,2 0,3l0 1c0,1 0,1 -1,2 0,0 0,0 0,0 -1,1 -2,2 -4,3 0,0 -1,0 -2,0zm0 4c1,0 2,0 3,0 0,0 0,0 0,0 2,-1 2,-1 4,-2l1 -1 1 -1c0,0 0,0 0,0l0 0c1,-1 2,-4 2,-5 0,-1 0,-1 0,-2 0,0 0,0 0,-1 0,0 0,-1 0,-1 0,0 0,0 0,0 -1,-2 -2,-3 -3,-4 -2,-2 -3,-2 -5,-3 0,0 0,0 -1,0 -1,0 -1,0 -2,0l-1 0 -1 0c-1,0 -2,0 -2,1l-1 0c-1,1 -2,1 -3,2l0 0c0,0 0,0 0,0 0,1 -1,2 -1,2 0,1 -1,1 -1,2 0,0 0,1 0,1 0,0 0,0 0,1 0,0 0,0 0,1 0,1 0,2 0,3 0,1 0,1 1,2 0,0 0,0 0,0 0,0 0,0 0,0 0,1 1,1 1,2 1,1 2,2 2,2l1 0c1,0 2,1 3,1 0,0 0,0 1,0 0,0 0,0 1,0 0,0 0,0 0,0l2 0z"/>
 <path class="fil0" d="M-927 -1338c0,1 0,1 1,2l0 0c0,0 0,0 0,0 1,0 1,1 2,1 0,0 1,0 1,0 1,0 2,-1 2,-2 0,-1 0,-1 0,-1 0,-1 -1,-2 -2,-2l0 0c-1,0 -3,1 -3,3z"/>
 <path class="fil2 str1" d="M-1000 -1333l0 3 5 0 0 3c0,0 0,0 0,1 0,0 0,1 0,1l-4 0 0 15 -7 0 0 -15c0,0 0,0 0,0l-3 0 0 -5 3 0c0,-1 0,-4 0,-5 0,-1 0,-2 1,-3 0,0 0,0 1,-1 0,0 1,-1 2,-1 1,0 1,0 2,0l6 0 0 5 -3 0c-1,0 -2,0 -2,2zm-30 -7l0 27c0,1 0,2 1,3 0,1 1,2 1,2l0 0c0,0 0,0 1,0 0,0 1,1 1,1 1,1 3,1 4,1l27 0c1,0 2,0 3,-1 1,0 1,0 1,-1 1,-1 1,-1 2,-2 1,-1 1,-3 1,-5l0 -27c0,-1 0,-2 0,-3 0,-1 -1,-2 -1,-3 0,0 0,0 0,-1l-1 0c-1,-1 -2,-1 -3,-2 -1,0 -1,0 -2,0l-27 0c-1,0 -2,0 -3,1 0,0 -1,0 -1,1 0,0 0,0 -1,1 0,0 0,0 0,0 -1,1 -2,3 -2,5z"/>
 <path class="fil3" d="M-1039 -1403c-7,0 -12,6 -12,12 0,7 5,13 12,13 7,0 12,-6 12,-13 0,-7 -5,-12 -12,-12zm0 2c6,0 10,5 10,11 0,6 -4,11 -10,11 -6,0 -10,-5 -10,-11 0,-6 4,-11 10,-11zm5 5c-1,0 -2,-1 -4,-1 -4,0 -8,3 -8,8 0,4 3,7 7,7 2,0 4,0 5,-1l0 -2c-1,1 -2,1 -4,1 -4,0 -6,-3 -6,-6 0,-3 2,-6 6,-6 2,0 3,1 4,1l0 -2z"/>
 <polygon id="1" class="fil3" points="-1014,-1377 -1010,-1377 -1010,-1389 -1000,-1389 -1000,-1392 -1010,-1392 -1010,-1401 -999,-1401 -999,-1404 -1014,-1404 "/>
 <path id="2" class="fil3" d="M-979 -1396l-4 0 0 12c0,1 0,1 0,2 -1,2 -2,3 -5,3 -3,0 -4,-3 -4,-6l0 -11 -4 0 0 11c0,7 4,9 7,9 3,0 6,-2 6,-4l0 0 0 3 3 0c0,-2 0,-3 0,-5l0 -14z"/>
 <path id="3" class="fil3" d="M-972 -1401l0 5 -3 0 0 3 3 0 0 11c0,2 0,4 1,5 1,1 2,1 4,1 1,0 2,0 3,0l0 -3c0,0 -1,0 -2,0 -2,0 -3,-1 -3,-4l0 -11 5 0 0 -3 -5 0 0 -6 -3 1z"/>
 <path id="4" class="fil3" d="M-943 -1396l-4 0 0 12c0,1 0,1 0,2 -1,2 -2,3 -5,3 -3,0 -4,-3 -4,-6l0 -11 -4 0 0 11c0,7 4,9 7,9 3,0 6,-2 6,-4l0 0 0 3 3 0c0,-2 0,-3 0,-5l0 -14z"/>
 <path id="5" class="fil3" d="M-937 -1377l4 0 0 -10c0,-1 0,-1 0,-2 0,-3 2,-5 5,-5 0,0 1,0 1,0l0 -3c0,0 -1,0 -1,0 -2,0 -5,2 -5,4l0 0 0 -4 -3 0c0,2 0,4 0,6l0 13z"/>
 <path id="6" class="fil3" d="M-916 -1397c-5,0 -10,4 -10,10 0,6 4,10 9,10 5,0 10,-3 10,-10 0,-6 -4,-10 -9,-10zm0 3c4,0 6,4 6,8 0,4 -3,8 -6,8 -3,0 -6,-3 -6,-8 0,-4 2,-8 6,-8z"/>
 <path id="7" class="fil3" d="M-875 -1380c-1,1 -4,1 -6,1 -7,0 -10,-4 -10,-11 0,-7 4,-11 11,-11 2,0 4,0 6,1l1 -3c-1,0 -3,-1 -6,-1 -8,0 -14,6 -14,14 0,9 6,14 13,14 3,0 6,-1 7,-1l-1 -3z"/>
 <path id="8" class="fil3" d="M-857 -1377c0,-1 0,-3 0,-5l0 -7c0,-4 -1,-8 -7,-8 -2,0 -5,1 -6,2l1 2c1,-1 3,-1 5,-1 4,0 4,3 4,5l0 0c-8,0 -12,3 -12,7 0,3 2,6 6,6 3,0 5,-1 6,-3l0 0 0 2 3 0zm-4 -7c0,0 0,1 0,1 -1,2 -2,3 -5,3 -2,0 -3,-1 -3,-3 0,-4 4,-4 8,-4l0 3z"/>
 <path id="9" class="fil3" d="M-853 -1378c1,1 3,1 6,1 5,0 7,-2 7,-6 0,-3 -2,-5 -5,-6 -3,-1 -4,-2 -4,-3 0,-1 1,-3 3,-3 2,0 3,1 4,1l1 -3c-1,-1 -3,-1 -5,-1 -4,0 -7,3 -7,6 0,2 2,4 5,6 3,1 4,2 4,4 0,2 -1,3 -4,3 -2,0 -4,-1 -5,-1l-1 3z"/>
 <path id="10" class="fil3" d="M-821 -1377c0,-1 0,-3 0,-5l0 -7c0,-4 -1,-8 -7,-8 -2,0 -5,1 -6,2l1 2c1,-1 3,-1 5,-1 4,0 4,3 4,5l0 0c-8,0 -12,3 -12,7 0,3 2,6 6,6 3,0 5,-1 6,-3l0 0 0 2 3 0zm-4 -7c0,0 0,1 0,1 -1,2 -2,3 -5,3 -2,0 -3,-1 -3,-3 0,-4 4,-4 8,-4l0 3z"/>
 <path id="11" class="fil3" d="M-815 -1372c1,-2 3,-6 4,-10l-4 0c0,3 -2,7 -2,10l3 0z"/>
 <path id="12" class="fil3" d="M-783 -1377l0 -3 -12 0 0 0 2 -2c6,-5 9,-9 9,-14 0,-4 -2,-8 -8,-8 -3,0 -6,1 -7,3l1 3c1,-1 3,-2 6,-2 4,0 5,2 5,5 0,4 -3,7 -10,14l-3 3 0 2 17 0z"/>
 <path id="13" class="fil3" d="M-770 -1403c-5,0 -9,5 -9,14 0,9 4,14 9,14 6,0 9,-5 9,-14 0,-8 -3,-13 -9,-13zm0 3c4,0 5,4 5,11 0,7 -2,11 -5,11 -3,0 -5,-4 -5,-11 0,-7 2,-11 5,-11z"/>
 <polygon id="14" class="fil3" points="-751,-1377 -747,-1377 -747,-1403 -750,-1403 -756,-1400 -755,-1397 -751,-1400 -751,-1400 "/>
 <path id="15" class="fil3" d="M-729 -1376c5,0 9,-3 9,-8 0,-3 -2,-6 -5,-7l0 0c3,-2 4,-4 4,-6 0,-3 -3,-6 -8,-6 -5,0 -8,3 -8,7 0,2 1,5 4,6l0 0c-3,1 -5,4 -5,7 0,4 3,7 9,7zm0 -3c-3,0 -5,-2 -5,-5 0,-3 2,-5 5,-5 4,1 6,3 6,6 0,3 -2,5 -5,5zm0 -22c3,0 4,2 4,4 0,2 -2,4 -4,5 -3,-1 -5,-2 -5,-5 0,-2 2,-4 5,-4z"/>
</symbol>
 <g id="Слой_x0020_3">
  <metadata id="CorelCorpID_0Corel-Layer"/>
  <g id="_724284656">
   <g>
    <g>
     <g>
      <path class="fil4" d="M111 98l30 -17 -23 -41 -30 17 17 -30 -41 -23 -17 30 0 -34 -47 0 0 122c0,13 11,23 23,23l122 0 0 -47 -34 0zm5 -51l19 32 -33 19 -75 0 89 -51zm-50 -36l32 19 -19 33 -65 37 51 -89zm-61 -6l37 0 0 38 -37 65 0 -103zm19 136c-10,0 -19,-8 -19,-19 0,-3 1,-6 2,-9l0 0 0 -1c2,-3 4,-5 6,-6l1 -1c3,-1 6,-2 9,-2l117 0 0 37 -117 0z"/>
      <path class="fil4" d="M23 110c-6,0 -12,5 -12,12 0,6 5,12 12,12 6,0 12,-5 12,-12 0,-6 -5,-12 -12,-12zm0 19c-4,0 -7,-3 -7,-7 0,-4 3,-7 7,-7 4,0 7,3 7,7 0,4 -3,7 -7,7z"/>
      <rect class="fil4" x="52" y="129" width="80" height="5"/>
      <rect class="fil4" x="40" y="129" width="7" height="5"/>
     </g>
    </g>
   </g>
   <g>
   </g>
   <g>
   </g>
   <g>
   </g>
   <g>
   </g>
   <g>
   </g>
   <g>
   </g>
   <g>
   </g>
   <g>
   </g>
   <g>
   </g>
   <g>
   </g>
   <g>
   </g>
   <g>
   </g>
   <g>
   </g>
   <g>
   </g>
   <g>
   </g>
  </g>
 </g>
</svg>
