<?xml version="1.0" encoding="UTF-8"?>
<!DOCTYPE svg PUBLIC "-//W3C//DTD SVG 1.1//EN" "http://www.w3.org/Graphics/SVG/1.1/DTD/svg11.dtd">
<!-- Creator: CorelDRAW 2017 -->
<svg xmlns="http://www.w3.org/2000/svg" xml:space="preserve" width="18.715mm" height="18.715mm" version="1.1" style="shape-rendering:geometricPrecision; text-rendering:geometricPrecision; image-rendering:optimizeQuality; fill-rule:evenodd; clip-rule:evenodd"
viewBox="0 0 163 163"
 xmlns:xlink="http://www.w3.org/1999/xlink">
 <defs>
  <style type="text/css">
   <![CDATA[
    .str0 {stroke:#4A4A4A;stroke-width:4.35459;stroke-opacity:0.701961}
    .str1 {stroke:#949494;stroke-width:4.35459}
    .fil2 {fill:none}
    .fil1 {fill:none}
    .fil4 {fill:#967C58}
    .fil3 {fill:#7F7D7A;fill-rule:nonzero}
    .fil0 {fill:#4A4A4A;fill-opacity:0.701961}
   ]]>
  </style>
 </defs>
<symbol id="Footer" viewBox="-1112 -1720 352 108">
 <path class="fil0" d="M-836 -1645l1 1c0,0 1,1 1,1l3 3c3,3 6,6 9,9 1,1 3,2 5,2 1,0 2,-1 3,-2l7 -7c0,0 0,0 0,0l4 -4c0,0 0,0 1,-1l2 -2c0,0 1,-1 1,-1 0,0 0,0 0,0l0 23c0,0 -9,0 -9,0l-26 0c0,0 -2,0 -2,0l0 -23c0,0 0,0 0,0zm17 10c0,0 0,0 -1,-1l-3 -2c-1,-1 -1,-1 -2,-2l-10 -10 33 0c0,0 -1,1 -1,1 -1,1 -2,2 -3,3l-6 6c0,0 0,0 -1,0 0,0 0,0 -1,0 0,0 0,0 -1,1l-3 2c0,0 0,0 -1,1 0,0 0,0 -1,0 0,0 -1,1 -2,1l-1 -1zm-17 -20c-2,0 -3,1 -4,2 -1,1 -1,3 -1,4l0 21c0,2 0,4 0,5 0,1 1,3 2,4 1,1 2,1 4,1l35 0c3,0 4,0 6,-2 0,0 1,-1 1,-2 0,-1 0,-2 0,-2l0 -21c0,-2 0,-4 0,-5 0,-1 -1,-3 -2,-4 -1,-1 -2,-1 -4,-1l-35 0c-1,0 -2,0 -3,0z"/>
 <path class="fil0" d="M-836 -1645c0,0 0,0 0,0l0 23c0,0 2,0 2,0l26 0c1,0 9,0 9,0l0 -23c0,0 0,0 0,0 0,0 0,0 0,0 0,0 0,0 0,0 0,7 0,15 0,22l-38 0 0 -22c0,0 0,0 0,0z"/>
 <path class="fil1 str0" d="M-914 -1652c0,0 1,0 2,1 2,1 2,3 2,5 0,2 0,7 -1,9 -1,2 -3,0 -4,-1 0,0 -1,-1 -1,-1 -1,-2 -4,-7 -5,-10 -1,-1 -1,-2 -2,-3 -1,-1 -8,0 -10,0 -4,0 -2,2 -1,6 1,2 2,4 3,7 2,5 5,8 8,12 3,4 4,4 7,7 1,1 2,1 3,2 2,1 5,2 8,2 1,0 4,0 5,0 3,-1 1,-4 3,-7 3,-4 6,4 11,6 1,1 2,1 4,1 7,0 15,1 9,-6 -2,-3 -5,-5 -7,-7 -2,-2 0,-4 1,-6 2,-3 7,-9 8,-12 1,-4 -2,-3 -6,-3l-7 0c-1,0 -2,1 -2,3 -1,4 -4,8 -6,11 0,1 -2,2 -3,2 -3,1 -2,-6 -2,-7 0,-2 1,-7 0,-9 -1,-2 -10,-1 -13,-1 -1,0 -3,1 -3,2z"/>
 <path class="fil0" d="M-984 -1617l-10 0c-1,0 -2,0 -3,0 -1,0 -4,0 -5,-1 0,0 0,0 0,0 -1,0 -2,-1 -3,-2 -1,-1 -1,-1 -1,-2 0,0 0,-1 -1,-1 0,0 0,0 0,-1l0 -1c0,0 0,0 0,0l0 -1c0,0 0,-1 0,-1 0,0 0,-1 0,-1 0,0 0,-1 0,-1 0,-1 0,-1 0,-2 0,-1 0,-12 0,-12 0,0 0,-1 0,-1 0,0 0,-2 0,-2 0,-1 0,-1 0,-2 0,0 0,-1 0,-1 0,-1 0,-2 1,-4 0,0 0,0 0,-1 0,-1 1,-1 1,-2 1,-1 2,-1 3,-2 0,0 1,0 1,0l2 0c1,0 2,0 3,0 0,0 1,0 1,0 0,0 0,0 0,0l11 0c1,0 1,0 2,0l3 0 2 0c1,0 2,0 3,1l1 0c0,0 1,1 1,1 0,0 1,2 1,2 0,1 1,1 1,2 0,1 0,2 1,3 0,0 0,0 0,0l0 3 0 12c0,1 0,2 0,3 0,0 0,1 0,1 0,0 0,1 0,1l0 2c0,1 0,2 -1,3 0,0 0,0 0,0 0,1 -1,2 -1,2 0,0 -1,1 -1,1l-1 0c0,0 0,0 -1,0l-1 1c-1,0 -2,1 -3,1 -1,0 -1,0 -2,0 0,0 0,0 0,0 0,0 0,0 0,0 0,0 0,0 0,0 0,0 0,0 0,0l-2 0c0,0 -1,0 -1,0zm-29 -26l0 13c0,1 0,1 0,2l0 2c0,1 0,2 1,3 0,1 2,4 3,5l1 1 1 1c0,0 0,0 1,0 2,1 3,1 4,1 0,0 0,0 0,0 0,0 0,0 1,0 0,0 0,0 0,0 1,0 1,0 2,0 0,0 0,0 1,0 0,0 0,0 1,0 2,0 3,0 5,0l7 0c1,0 2,0 3,0 1,0 2,0 3,0 0,0 1,0 2,0 0,0 0,0 1,0 1,0 1,0 2,0 0,0 1,0 1,0l0 0c0,0 0,0 0,0 1,0 3,-1 4,-2 0,0 0,0 0,0 1,-1 1,-1 2,-2 1,-1 1,-2 2,-3 0,0 0,0 0,0l0 -2c0,-1 0,-3 0,-4 0,0 0,0 0,-1l0 -7c0,-2 0,-4 0,-5 0,0 0,-1 0,-1 0,0 0,-1 0,-1 0,-1 0,-3 0,-4 0,-1 0,-1 0,-2l0 -1c0,-1 0,-1 -1,-2 0,-1 -1,-2 -1,-3 0,0 -1,-1 -1,-1 0,0 0,0 0,0l-1 -1c0,0 0,0 0,0 0,0 -1,-1 -1,-1 0,0 0,0 0,0l-3 -1c0,0 -1,0 -2,0 -1,0 -2,0 -3,0 0,0 -1,0 -1,0 0,0 -1,0 -1,0 0,0 -1,0 -1,0 -2,0 -12,0 -12,0 -1,0 -2,0 -2,0 0,0 -1,0 -1,0l-1 0c-1,0 -1,0 -2,0 -1,0 -1,0 -2,0l-1 0c-1,0 -2,1 -3,1 -1,1 -1,1 -2,2l0 1c-1,1 -1,2 -2,4 0,1 0,2 -1,3 0,0 0,1 0,1 0,0 0,1 0,1 0,1 0,1 0,2z"/>
 <path class="fil0" d="M-989 -1629c-1,0 -1,0 -2,0 -2,0 -3,-1 -4,-2 0,0 -1,-1 -1,-1l0 0c0,0 0,0 0,0l-1 -2c0,0 0,0 0,-1 0,-1 0,-3 0,-4 0,-1 1,-2 1,-2 1,-1 2,-2 2,-2 0,0 0,0 0,0 1,-1 3,-1 5,-1 1,0 1,0 2,0 1,0 1,0 1,1 1,0 1,1 2,2 1,1 1,1 1,2 0,1 1,2 1,2 0,1 0,2 0,3l0 1c0,1 0,1 -1,2 0,0 0,0 0,0 -1,1 -3,2 -4,3 0,0 -1,0 -2,0zm0 4c1,0 2,0 4,0 0,0 0,0 0,0 2,-1 3,-1 4,-2l1 -1 1 -1c0,0 0,0 0,0l0 0c1,-2 2,-4 2,-6 0,-1 0,-1 0,-3 0,0 0,0 0,-1 0,0 0,-1 0,-1 0,0 0,0 0,0 -1,-2 -2,-3 -3,-5 -2,-2 -3,-3 -6,-3 0,0 0,0 -1,0 -1,0 -2,0 -2,0l-1 0 -1 0c-1,0 -2,0 -3,1l-1 0c-1,1 -2,1 -3,2l0 1c0,0 0,0 0,0 -1,1 -1,2 -1,2 0,1 -1,2 -1,2 0,0 0,1 0,1 0,0 0,0 0,1 0,0 0,0 0,1 0,1 0,2 0,3 0,1 0,1 1,2 0,0 0,0 0,1 0,0 0,0 0,0 1,1 1,1 1,2 1,1 2,2 3,2l1 0c1,0 2,1 3,1 0,0 0,0 1,0 0,0 0,0 1,0 0,0 0,0 0,0l2 0z"/>
 <path class="fil0" d="M-980 -1650c0,1 0,1 1,2l0 0c0,0 0,0 0,0 1,1 1,1 2,1 0,0 1,0 1,0 1,0 2,-1 2,-2 0,-1 0,-1 0,-1 0,-1 -1,-2 -2,-2l0 0c-1,0 -3,1 -3,3z"/>
 <path class="fil2 str1" d="M-1057 -1644l0 3 5 0 0 3c0,0 0,0 0,1 0,0 0,1 0,1l-4 0 0 16 -7 0 0 -16c0,0 0,0 0,0l-3 0 0 -5 3 0c0,-1 0,-4 0,-5 0,-1 1,-2 1,-3 0,0 0,0 1,-1 0,0 1,-1 2,-1 1,0 1,0 2,0l7 0 0 5 -3 0c-1,0 -2,0 -2,2zm-32 -8l0 29c0,1 0,2 1,3 0,1 1,2 1,2l0 0c0,0 0,0 1,1 0,0 1,1 1,1 1,1 3,1 4,1l29 0c1,0 3,0 3,-1 1,0 1,0 1,-1 1,-1 2,-1 2,-2 1,-1 2,-3 2,-5l0 -29c0,-1 0,-2 0,-3 0,-1 -1,-2 -1,-3 0,0 0,0 -1,-1l-1 -1c-1,-1 -2,-1 -3,-2 -1,0 -1,0 -2,0l-29 0c-1,0 -3,0 -3,1 0,0 -1,1 -1,1 0,0 -1,0 -1,1 0,0 0,0 0,0 -1,1 -3,4 -3,6z"/>
 <path class="fil3" d="M-1099 -1718c-7,0 -13,6 -13,13 0,7 6,13 13,13 7,0 13,-6 13,-13 0,-7 -6,-13 -13,-13zm0 2c6,0 11,5 11,11 0,7 -5,12 -11,12 -6,0 -11,-5 -11,-11 0,-7 5,-12 11,-12zm6 5c-1,-1 -2,-1 -5,-1 -4,0 -8,3 -8,8 0,4 3,8 8,8 2,0 4,0 5,-1l-1 -2c-1,1 -3,1 -4,1 -4,0 -6,-3 -6,-6 0,-3 2,-6 6,-6 2,0 4,1 4,1l1 -2z"/>
 <polygon id="1" class="fil3" points="-1072,-1690 -1068,-1690 -1068,-1704 -1057,-1704 -1057,-1707 -1068,-1707 -1068,-1716 -1056,-1716 -1056,-1719 -1072,-1719 "/>
 <path id="2" class="fil3" d="M-1035 -1711l-4 0 0 13c0,1 0,1 0,2 -1,2 -2,3 -5,3 -3,0 -5,-3 -5,-7l0 -12 -4 0 0 12c0,7 4,9 7,9 4,0 6,-2 7,-4l0 0 0 3 3 0c0,-2 0,-4 0,-6l0 -15z"/>
 <path id="3" class="fil3" d="M-1028 -1716l0 5 -3 0 0 3 3 0 0 11c0,2 0,4 1,5 1,1 2,2 4,2 1,0 3,0 3,-1l0 -3c0,0 -1,0 -2,0 -2,0 -3,-1 -3,-4l0 -11 5 0 0 -3 -5 0 0 -6 -4 1z"/>
 <path id="4" class="fil3" d="M-997 -1711l-4 0 0 13c0,1 0,1 0,2 -1,2 -2,3 -5,3 -3,0 -5,-3 -5,-7l0 -12 -4 0 0 12c0,7 4,9 7,9 4,0 6,-2 7,-4l0 0 0 3 3 0c0,-2 0,-4 0,-6l0 -15z"/>
 <path id="5" class="fil3" d="M-991 -1690l4 0 0 -11c0,-1 0,-1 0,-2 1,-3 2,-5 5,-5 1,0 1,0 1,0l0 -4c0,0 -1,0 -1,0 -3,0 -5,2 -6,5l0 0 0 -4 -3 0c0,2 0,4 0,6l0 14z"/>
 <path id="6" class="fil3" d="M-968 -1712c-6,0 -10,4 -10,11 0,7 4,11 10,11 5,0 10,-3 10,-11 0,-6 -4,-11 -10,-11zm0 3c4,0 6,4 6,8 0,5 -3,8 -6,8 -4,0 -6,-3 -6,-8 0,-4 2,-8 6,-8z"/>
 <path id="7" class="fil3" d="M-925 -1694c-2,1 -4,1 -6,1 -7,0 -11,-5 -11,-12 0,-8 5,-12 11,-12 2,0 4,1 6,1l1 -3c-1,-1 -3,-1 -7,-1 -9,0 -15,6 -15,15 0,10 6,15 14,15 4,0 6,-1 8,-1l-1 -3z"/>
 <path id="8" class="fil3" d="M-905 -1690c0,-1 0,-3 0,-5l0 -8c0,-4 -2,-9 -8,-9 -3,0 -5,1 -7,2l1 2c1,-1 3,-2 5,-2 4,0 5,3 5,5l0 0c-8,0 -13,3 -13,8 0,3 2,6 6,6 3,0 5,-1 6,-3l0 0 0 3 3 0zm-4 -7c0,0 0,1 0,1 -1,2 -2,3 -5,3 -2,0 -4,-1 -4,-4 0,-4 5,-5 9,-5l0 4z"/>
 <path id="9" class="fil3" d="M-901 -1691c1,1 4,1 6,1 5,0 8,-3 8,-6 0,-3 -2,-5 -5,-6 -3,-1 -4,-2 -4,-4 0,-2 1,-3 3,-3 2,0 3,1 4,1l1 -3c-1,-1 -3,-1 -5,-1 -4,0 -7,3 -7,6 0,2 2,5 6,6 3,1 4,2 4,4 0,2 -1,3 -4,3 -2,0 -4,-1 -5,-2l-1 3z"/>
 <path id="10" class="fil3" d="M-867 -1690c0,-1 0,-3 0,-5l0 -8c0,-4 -2,-9 -8,-9 -3,0 -5,1 -7,2l1 2c1,-1 3,-2 5,-2 4,0 5,3 5,5l0 0c-8,0 -13,3 -13,8 0,3 2,6 6,6 3,0 5,-1 6,-3l0 0 0 3 3 0zm-4 -7c0,0 0,1 0,1 -1,2 -2,3 -5,3 -2,0 -4,-1 -4,-4 0,-4 5,-5 9,-5l0 4z"/>
 <path id="11" class="fil3" d="M-861 -1685c1,-2 3,-7 4,-10l-4 0c0,3 -2,8 -3,10l3 0z"/>
 <path id="12" class="fil3" d="M-827 -1690l0 -3 -13 0 0 0 2 -2c6,-6 10,-10 10,-15 0,-4 -3,-8 -9,-8 -3,0 -6,1 -8,3l1 3c1,-1 3,-2 6,-2 4,0 6,3 6,5 0,4 -3,8 -10,15l-3 3 0 2 18 0z"/>
 <path id="13" class="fil3" d="M-813 -1719c-6,0 -10,5 -10,15 0,9 4,14 9,14 6,0 10,-5 10,-15 0,-9 -3,-14 -9,-14zm0 3c4,0 6,5 6,11 0,7 -2,12 -6,12 -3,0 -6,-4 -6,-11 0,-8 2,-12 6,-12z"/>
 <polygon id="14" class="fil3" points="-792,-1690 -788,-1690 -788,-1718 -792,-1718 -798,-1715 -797,-1712 -792,-1715 -792,-1715 "/>
 <path id="15" class="fil3" d="M-769 -1690c5,0 10,-3 10,-8 0,-3 -2,-6 -6,-7l0 0c3,-2 5,-4 5,-7 0,-3 -3,-7 -8,-7 -5,0 -9,3 -9,7 0,2 1,5 4,6l0 0c-3,1 -6,4 -6,7 0,4 4,8 9,8zm0 -3c-4,0 -6,-2 -6,-5 0,-3 2,-5 5,-6 4,1 6,3 6,6 0,3 -2,5 -6,5zm0 -23c3,0 5,2 5,5 0,3 -2,4 -4,5 -3,-1 -5,-2 -5,-5 0,-2 2,-4 5,-4z"/>
</symbol>
 <g id="Слой_x0020_3">
  <metadata id="CorelCorpID_0Corel-Layer"/>
  <g id="_687352984">
   <g>
    <path class="fil4" d="M81 0c-45,0 -81,37 -81,81 0,45 37,81 81,81 45,0 81,-37 81,-81 0,-45 -37,-81 -81,-81zm0 158c-42,0 -76,-34 -76,-76 0,-42 34,-76 76,-76 42,0 76,34 76,76 0,42 -34,76 -76,76z"/>
    <path class="fil4" d="M84 71l0 -28c0,-2 -1,-3 -3,-3 -1,0 -3,1 -3,3l0 28c-4,1 -7,4 -8,8l-19 0c-1,0 -3,1 -3,3 0,2 1,3 3,3l19 0c1,5 5,8 10,8 6,0 11,-5 11,-11 0,-5 -3,-9 -8,-10zm-3 16c-3,0 -5,-2 -5,-5 0,-3 2,-5 5,-5 3,0 5,2 5,5 0,3 -2,5 -5,5z"/>
    <path class="fil4" d="M81 27c1,0 3,-1 3,-3l0 -3c0,-2 -1,-3 -3,-3 -1,0 -3,1 -3,3l0 3c0,2 1,3 3,3z"/>
    <path class="fil4" d="M81 135c-1,0 -3,1 -3,3l0 3c0,2 1,3 3,3 1,0 3,-1 3,-3l0 -3c0,-2 -1,-3 -3,-3z"/>
    <path class="fil4" d="M141 78l-3 0c-1,0 -3,1 -3,3 0,2 1,3 3,3l3 0c1,0 3,-1 3,-3 0,-2 -1,-3 -3,-3z"/>
    <path class="fil4" d="M24 78l-3 0c-1,0 -3,1 -3,3 0,2 1,3 3,3l3 0c1,0 3,-1 3,-3 0,-2 -1,-3 -3,-3z"/>
    <path class="fil4" d="M122 37l-2 2c-1,1 -1,3 0,4 1,1 1,1 2,1 1,0 1,0 2,-1l2 -2c1,-1 1,-3 0,-4 -1,-1 -3,-1 -4,0z"/>
    <path class="fil4" d="M39 120l-2 2c-1,1 -1,3 0,4 1,1 1,1 2,1 1,0 1,0 2,-1l2 -2c1,-1 1,-3 0,-4 -1,-1 -3,-1 -4,0z"/>
    <path class="fil4" d="M124 120c-1,-1 -3,-1 -4,0 -1,1 -1,3 0,4l2 2c1,1 1,1 2,1 1,0 1,0 2,-1 1,-1 1,-3 0,-4l-2 -2z"/>
    <path class="fil4" d="M41 37c-1,-1 -3,-1 -4,0 -1,1 -1,3 0,4l2 2c1,1 1,1 2,1 1,0 1,0 2,-1 1,-1 1,-3 0,-4l-2 -2z"/>
   </g>
   <g>
   </g>
   <g>
   </g>
   <g>
   </g>
   <g>
   </g>
   <g>
   </g>
   <g>
   </g>
   <g>
   </g>
   <g>
   </g>
   <g>
   </g>
   <g>
   </g>
   <g>
   </g>
   <g>
   </g>
   <g>
   </g>
   <g>
   </g>
   <g>
   </g>
  </g>
 </g>
</svg>
