<?xml version="1.0" encoding="UTF-8"?>
<!DOCTYPE svg PUBLIC "-//W3C//DTD SVG 1.1//EN" "http://www.w3.org/Graphics/SVG/1.1/DTD/svg11.dtd">
<!-- Creator: CorelDRAW 2017 -->
<svg xmlns="http://www.w3.org/2000/svg" xml:space="preserve" width="57.2958mm" height="5.452mm" version="1.1" style="shape-rendering:geometricPrecision; text-rendering:geometricPrecision; image-rendering:optimizeQuality; fill-rule:evenodd; clip-rule:evenodd"
viewBox="0 0 1562 149"
 xmlns:xlink="http://www.w3.org/1999/xlink">
 <defs>
  <style type="text/css">
   <![CDATA[
    .str0 {stroke:#4A4A4A;stroke-width:13.6344;stroke-opacity:0.701961}
    .str1 {stroke:#949494;stroke-width:13.6344}
    .fil2 {fill:none}
    .fil1 {fill:none}
    .fil5 {fill:#3D342D}
    .fil4 {fill:#3D342D;fill-rule:nonzero}
    .fil3 {fill:#7F7D7A;fill-rule:nonzero}
    .fil0 {fill:#4A4A4A;fill-opacity:0.701961}
   ]]>
  </style>
 </defs>
<symbol id="Footer" viewBox="2314 1827 1102 338">
 <path class="fil0" d="M3176 2062l3 3c1,1 2,2 3,3l10 10c9,9 19,18 28,27 4,4 8,7 14,6 4,-1 7,-3 9,-5l23 -22c0,0 1,-1 1,-1l13 -13c1,-1 1,-1 2,-2l7 -7c1,-1 2,-2 4,-3 0,0 0,0 0,0l0 72c-1,0 -28,0 -29,0l-81 0c-1,0 -6,0 -7,0l0 -71c1,0 0,0 0,0zm54 31c-1,-1 -1,-1 -2,-2l-8 -8c-2,-2 -4,-4 -6,-6l-31 -31 103 0c0,0 -3,3 -3,3 -3,2 -6,5 -8,8l-20 19c-1,1 -1,1 -2,2 -1,1 -1,1 -2,2 -1,1 -1,1 -2,2l-8 8c-1,1 -1,1 -2,2 -1,1 -1,1 -2,2 -1,1 -4,4 -5,5l-3 -3zm-55 -62c-5,0 -9,3 -11,6 -4,4 -4,8 -4,13l0 67c0,6 0,11 0,17 0,5 2,9 5,12 4,3 6,4 13,4l109 0c8,0 14,1 19,-6 1,-1 2,-3 3,-5 1,-3 1,-5 1,-8l0 -67c0,-6 0,-11 0,-17 0,-4 -2,-9 -5,-12 -4,-3 -6,-4 -13,-4l-109 0c-3,0 -6,0 -8,0z"/>
 <path class="fil0" d="M3176 2062c0,0 0,0 0,0l0 71c1,0 6,0 7,0l81 0c2,0 28,0 29,0l0 -72c0,0 0,0 0,0 0,0 0,1 0,1 0,0 0,1 0,1 0,23 0,47 0,70l-118 0 0 -70c0,0 0,0 0,0z"/>
 <path class="fil1 str0" d="M2932 2038c1,1 4,1 6,2 6,3 6,10 7,16 1,7 0,22 -3,28 -4,7 -11,0 -13,-4 -1,-1 -2,-3 -3,-4 -4,-6 -13,-23 -16,-30 -2,-4 -2,-7 -6,-9 -4,-2 -25,-1 -30,-1 -13,0 -7,8 -3,18 3,7 7,14 10,21 8,14 15,26 24,37 9,12 11,14 23,23 2,2 7,4 10,6 7,3 16,6 25,6 4,0 12,0 15,0 9,-2 2,-13 9,-22 9,-14 19,12 34,20 4,2 7,3 12,3 23,-1 47,5 28,-20 -8,-10 -15,-15 -23,-23 -6,-7 -1,-12 4,-20 7,-9 21,-27 25,-37 4,-12 -8,-9 -19,-9l-23 0c-4,0 -5,4 -7,8 -5,11 -12,25 -20,35 -1,2 -6,7 -8,8 -9,3 -7,-19 -7,-23 0,-8 2,-23 -2,-28 -4,-6 -32,-5 -41,-3 -3,1 -9,4 -9,7z"/>
 <path class="fil0" d="M2713 2148l-32 0c-4,0 -7,0 -11,0 -3,0 -12,-1 -15,-2 0,0 -1,0 -1,0 -3,-1 -7,-3 -10,-6 -2,-2 -4,-4 -5,-6 -1,-1 -1,-2 -2,-4 0,-1 0,-1 -1,-2l-1 -5c0,0 0,-1 0,-1l0 -4c0,-1 0,-2 0,-3 0,-1 0,-2 0,-3 0,-1 0,-2 0,-3 0,-2 0,-4 0,-5 0,-4 0,-36 0,-38 0,-1 0,-2 0,-3 0,-2 0,-5 0,-5 0,-2 0,-3 0,-5 0,-1 0,-2 0,-3 1,-5 1,-7 3,-11 0,-1 1,-1 1,-2 1,-2 2,-4 4,-5 2,-2 6,-4 9,-5 2,-1 3,-1 5,-1l5 -1c3,-1 6,0 9,-1 1,0 3,0 4,0 1,0 1,0 1,0l33 0c2,0 3,0 5,0l10 1 7 1c3,0 6,1 9,3l3 2c1,1 2,2 3,2 1,1 4,5 5,6 1,2 2,4 2,6 1,3 2,7 2,11 0,0 0,1 0,1l0 8 0 38c0,3 0,5 0,8 0,1 0,2 0,3 0,1 0,2 0,3l-1 5c0,3 -1,5 -2,8 0,0 0,1 0,1 -1,2 -2,5 -4,7 -1,1 -2,2 -3,3l-2 1c-1,0 -1,1 -2,1l-4 2c-2,1 -7,2 -9,2 -2,0 -3,0 -5,0 -1,0 -1,0 -1,0 0,0 -1,0 -1,0 -1,0 -1,0 -1,0 0,0 -1,0 -1,0l-5 0c-1,0 -2,0 -3,0zm-91 -82l0 41c0,3 0,5 0,7l0 7c1,4 1,7 2,11 1,5 5,12 8,15l5 5 3 2c1,0 2,1 2,1 5,3 8,4 14,5 1,0 1,0 2,0 1,0 1,0 2,0 1,0 1,0 2,0 2,0 4,0 5,0 1,0 1,0 2,0 1,0 1,0 2,0 5,0 10,0 15,0l23 0c2,0 6,0 8,0 2,0 6,0 8,0 1,0 4,0 6,0 1,0 1,0 2,0 2,0 5,-1 7,-1 1,0 2,-1 3,-1l2 -1c1,0 1,0 2,-1 4,-1 9,-4 12,-7 0,0 1,-1 1,-1 2,-2 4,-4 6,-6 2,-2 4,-7 5,-9 0,-1 0,-1 1,-2l2 -7c1,-4 1,-9 1,-13 0,-1 0,-1 0,-2l0 -22c0,-6 0,-11 0,-17 0,-1 0,-3 0,-4 0,-1 0,-3 0,-4 0,-3 0,-10 -1,-12 0,-2 0,-4 -1,-5l0 -2c-1,-3 -1,-4 -2,-6 -1,-2 -3,-6 -5,-8 -1,-1 -2,-2 -3,-4 0,0 -1,-1 -1,-1l-2 -2c0,0 0,0 -1,0 -1,-1 -2,-2 -4,-3 0,0 -1,-1 -1,-1l-9 -4c-2,0 -3,-1 -5,-1 -3,0 -6,-1 -10,-1 -1,0 -3,0 -4,0 -1,0 -3,0 -4,0 -1,0 -3,0 -4,0 -5,0 -37,0 -39,0 -2,0 -5,0 -7,0 -1,0 -2,0 -3,0l-3 0c-2,0 -4,1 -6,1 -2,0 -4,1 -6,2l-4 1c-3,1 -6,3 -8,5 -2,2 -5,4 -6,6l-2 2c-3,4 -4,7 -6,12 -1,4 -1,7 -2,11 0,1 0,2 0,3 0,1 0,2 0,3 0,2 0,5 0,7z"/>
 <path class="fil0" d="M2698 2111c-3,0 -4,0 -7,0 -5,-1 -8,-3 -12,-6 -1,-1 -2,-2 -3,-3l-1 -1c0,0 0,0 0,0l-3 -5c0,-1 0,-2 -1,-2 -1,-4 -1,-10 0,-14 1,-3 2,-5 4,-7 2,-3 5,-6 8,-7 0,0 1,0 1,-1 5,-3 10,-3 15,-3 2,0 3,1 5,1 3,1 2,1 4,2 2,1 4,3 6,5 2,2 3,4 4,6 1,2 2,5 2,8 0,3 0,7 0,10l0 2c-1,3 -2,4 -3,6 0,0 0,1 -1,1 -3,4 -8,8 -13,9 -1,0 -3,1 -5,1zm-2 14c4,0 8,-1 11,-2 0,0 1,0 1,0 5,-2 8,-3 12,-7l4 -4 3 -3c0,0 1,-1 1,-1l1 -1c3,-5 5,-12 5,-18 0,-4 0,-4 0,-8 0,-1 0,-1 0,-2 0,-1 -1,-3 -1,-5 0,0 0,-1 0,-1 -2,-5 -6,-10 -9,-14 -5,-5 -11,-8 -18,-10 -1,0 -1,0 -2,0 -2,0 -5,-1 -7,-1l-5 0 -4 1c-3,1 -6,1 -8,3l-2 1c-3,2 -7,5 -9,7l-1 2c0,0 -1,1 -1,1 -2,2 -3,5 -5,7 -1,2 -2,5 -2,7 0,1 -1,3 -1,4 0,1 0,1 0,2 0,1 0,1 0,2 0,4 0,7 1,11 1,2 1,3 2,5 0,1 0,1 1,2 0,0 0,1 0,1 2,3 2,4 4,6 2,3 5,6 8,7l2 1c2,1 6,3 8,4 1,0 1,0 2,0 1,0 1,0 2,0 0,0 1,0 1,0l6 0z"/>
 <path class="fil0" d="M2728 2046c0,3 1,5 3,7l0 0c0,0 0,0 0,0 2,2 3,3 6,3 1,0 3,0 4,-1 3,-1 6,-5 6,-8 0,-2 0,-3 -1,-4 -1,-3 -4,-5 -8,-5l-1 0c-4,0 -9,5 -9,9z"/>
 <path class="fil2 str1" d="M2485 2064l0 11 15 0 -1 10c0,1 0,1 0,2 0,1 0,3 0,4l-13 0 0 50 -22 0 0 -49c0,0 0,0 0,0l-8 0 0 -17 9 0c0,-4 0,-13 0,-17 1,-3 2,-6 4,-9 1,-1 1,-1 2,-2 1,-1 4,-3 5,-3 3,-1 4,-1 7,-2l21 0 0 17 -10 0c-4,0 -6,1 -6,6zm-100 -24l0 91c0,4 1,7 3,11 1,2 3,5 5,7l1 1c1,1 1,1 2,2 1,1 2,2 4,3 4,2 9,3 13,3l90 0c4,0 8,-1 11,-2 2,-1 3,-1 4,-2 3,-2 5,-4 7,-7 3,-4 5,-10 5,-15l0 -90c0,-3 -1,-6 -1,-8 -1,-3 -3,-6 -5,-8 -1,-1 -1,-1 -2,-2l-2 -2c-3,-3 -7,-5 -11,-6 -2,0 -4,-1 -6,-1l-91 0c-4,0 -8,1 -11,2 -1,1 -3,2 -4,2 -2,1 -2,1 -3,2 0,0 -1,0 -1,1 -5,5 -8,12 -8,18z"/>
 <path class="fil3" d="M2355 1832c-23,0 -41,19 -41,41 0,23 18,42 41,42 23,0 41,-19 41,-42 0,-23 -18,-41 -41,-41zm0 6c19,0 34,16 34,36 0,20 -15,36 -34,36 -19,0 -34,-16 -34,-36 0,-20 15,-36 34,-36zm18 15c-2,-2 -8,-4 -15,-4 -14,0 -26,10 -26,25 0,14 9,24 25,24 6,0 12,-1 17,-4l-2 -5c-3,2 -8,4 -14,4 -12,0 -19,-8 -19,-19 0,-11 6,-19 19,-19 6,0 11,2 13,3l2 -5z"/>
 <polygon id="1" class="fil3" points="2439,1919 2451,1919 2451,1878 2485,1878 2485,1868 2451,1868 2451,1838 2488,1838 2488,1828 2439,1828 "/>
 <path id="2" class="fil3" d="M2554 1854l-12 0 0 40c0,2 0,4 -1,6 -2,5 -8,11 -16,11 -11,0 -15,-8 -15,-21l0 -36 -12 0 0 38c0,23 12,29 22,29 12,0 18,-7 22,-12l0 0 1 11 11 0c0,-5 -1,-11 -1,-18l0 -47z"/>
 <path id="3" class="fil3" d="M2576 1838l0 16 -10 0 0 9 10 0 0 36c0,8 1,13 5,17 3,3 7,5 13,5 5,0 8,-1 11,-2l-1 -9c-1,0 -4,1 -7,1 -7,0 -9,-5 -9,-13l0 -35 17 0 0 -9 -17 0 0 -19 -12 3z"/>
 <path id="4" class="fil3" d="M2673 1854l-12 0 0 40c0,2 0,4 -1,6 -2,5 -8,11 -16,11 -11,0 -15,-8 -15,-21l0 -36 -12 0 0 38c0,23 12,29 22,29 12,0 18,-7 22,-12l0 0 1 11 11 0c0,-5 -1,-11 -1,-18l0 -47z"/>
 <path id="5" class="fil3" d="M2692 1919l12 0 0 -35c0,-2 0,-4 1,-6 2,-9 8,-15 16,-15 2,0 3,0 4,0l0 -11c-1,0 -2,0 -3,0 -8,0 -15,6 -18,14l-1 0 0 -13 -10 0c0,6 1,13 1,20l0 45z"/>
 <path id="6" class="fil3" d="M2763 1852c-18,0 -32,13 -32,35 0,21 14,34 31,34 16,0 32,-11 32,-35 0,-20 -13,-34 -31,-34zm0 9c14,0 20,14 20,25 0,15 -8,25 -20,25 -12,0 -20,-11 -20,-25 0,-12 6,-25 20,-25z"/>
 <path id="7" class="fil3" d="M2899 1907c-5,2 -12,4 -19,4 -22,0 -35,-14 -35,-36 0,-24 14,-37 35,-37 8,0 14,2 18,4l3 -10c-3,-2 -10,-4 -22,-4 -28,0 -47,19 -47,48 0,30 19,46 45,46 11,0 20,-2 24,-4l-2 -9z"/>
 <path id="8" class="fil3" d="M2962 1919c-1,-4 -1,-10 -1,-16l0 -24c0,-13 -5,-27 -25,-27 -8,0 -16,2 -21,6l3 8c5,-3 11,-5 17,-5 13,0 15,10 15,15l0 1c-25,0 -39,8 -39,24 0,9 7,19 20,19 9,0 16,-5 20,-10l0 0 1 8 11 0zm-13 -22c0,1 0,3 -1,4 -2,6 -7,11 -16,11 -6,0 -11,-4 -11,-11 0,-13 15,-15 28,-15l0 11z"/>
 <path id="9" class="fil3" d="M2975 1916c5,3 11,4 18,4 15,0 24,-8 24,-20 0,-10 -6,-15 -17,-20 -8,-3 -12,-6 -12,-11 0,-5 4,-9 11,-9 6,0 11,2 13,4l3 -9c-4,-2 -9,-4 -16,-4 -14,0 -22,9 -22,19 0,8 6,14 17,18 9,3 12,6 12,12 0,5 -4,10 -13,10 -6,0 -12,-2 -16,-5l-3 9z"/>
 <path id="10" class="fil3" d="M3080 1919c-1,-4 -1,-10 -1,-16l0 -24c0,-13 -5,-27 -25,-27 -8,0 -16,2 -21,6l3 8c5,-3 11,-5 17,-5 13,0 15,10 15,15l0 1c-25,0 -39,8 -39,24 0,9 7,19 20,19 9,0 16,-5 20,-10l0 0 1 8 11 0zm-13 -22c0,1 0,3 -1,4 -2,6 -7,11 -16,11 -6,0 -11,-4 -11,-11 0,-13 15,-15 28,-15l0 11z"/>
 <path id="11" class="fil3" d="M3099 1935c4,-6 10,-21 13,-33l-13 1c-1,10 -5,24 -8,32l8 -1z"/>
 <path id="12" class="fil3" d="M3206 1919l0 -10 -39 0 0 0 7 -6c18,-18 30,-31 30,-47 0,-13 -8,-25 -27,-25 -10,0 -19,4 -25,9l4 8c4,-3 11,-7 19,-7 13,0 17,8 17,17 0,13 -10,25 -33,46l-9 9 0 7 56 0z"/>
 <path id="13" class="fil3" d="M3249 1830c-18,0 -30,16 -30,46 0,29 12,45 29,45 19,0 30,-16 30,-46 0,-28 -11,-44 -29,-44zm-1 9c12,0 18,14 18,36 0,22 -6,36 -18,36 -11,0 -18,-13 -18,-36 0,-24 8,-36 18,-36z"/>
 <polygon id="14" class="fil3" points="3314,1919 3326,1919 3326,1831 3316,1831 3297,1842 3299,1851 3314,1842 3314,1842 "/>
 <path id="15" class="fil3" d="M3386 1920c17,0 30,-10 30,-25 0,-11 -7,-18 -18,-23l0 0c11,-5 14,-13 14,-20 0,-11 -8,-22 -25,-22 -15,0 -27,9 -27,23 0,8 4,15 14,20l0 0c-11,5 -17,12 -17,23 0,13 11,24 29,24zm0 -9c-11,0 -18,-8 -18,-17 0,-8 6,-15 16,-18 12,3 19,8 19,19 0,9 -7,16 -18,16zm0 -73c11,0 15,7 15,14 0,8 -6,13 -13,16 -10,-3 -17,-7 -17,-16 0,-8 5,-14 15,-14z"/>
</symbol>
 <g id="Слой_x0020_1">
  <metadata id="CorelCorpID_0Corel-Layer"/>
  <g>
   <path class="fil4" d="M2 38c-1,0 -2,-4 -2,-9 0,-5 1,-9 2,-9l0 17zm614 0l-614 0 0 -17 614 0 0 17zm0 -17c1,0 2,4 2,9 0,5 -1,9 -2,9l0 -17z"/>
  </g>
  <g>
   <path class="fil4" d="M962 38c-1,0 -1,-4 -1,-9 0,-5 1,-9 1,-9l0 17zm599 0l-599 0 0 -17 599 0 0 17zm0 -17c1,0 1,4 1,9 0,5 -1,9 -1,9l0 -17z"/>
  </g>
  <path class="fil5" d="M782 49c-3,3 -8,7 -14,8 -12,3 -29,2 -44,-7 -14,-9 -17,-16 -28,-19 -11,-3 -15,0 -15,6 0,6 5,8 5,8 0,0 -12,-2 -14,-10 -5,-21 15,-24 27,-26 -2,-14 17,-10 22,-3 5,6 19,34 28,37 9,3 18,3 23,-2 5,-4 6,-9 7,-16 0,-4 -5,-14 -10,-16 -6,-3 -18,2 -14,10 1,-1 3,-1 5,-1 5,0 8,4 8,8 0,5 -4,8 -8,8 -4,0 -7,-2 -8,-6 -12,-21 20,-44 33,-5l0 -18c1,-4 7,-4 7,0l0 18c13,-38 45,-16 33,5 -1,3 -4,6 -8,6 -5,0 -8,-4 -8,-8 0,-5 4,-8 8,-8 2,0 3,0 5,1 4,-8 -7,-13 -14,-10 -4,2 -10,12 -10,16 1,7 2,12 7,16 5,4 14,4 23,2 9,-3 23,-31 28,-37 5,-6 23,-11 22,3 11,1 31,5 27,26 -2,8 -14,10 -14,10 0,0 4,-2 5,-8 0,-6 -4,-9 -15,-6 -11,3 -13,9 -28,19 -14,9 -32,10 -44,7 -6,-1 -11,-5 -14,-8 3,6 7,12 11,14 13,5 18,4 30,4 6,0 12,5 12,12 0,6 -5,12 -12,12 -2,0 -3,0 -4,-1 -3,0 -33,-20 -38,-28l0 13c0,0 7,-2 12,3 10,10 7,21 5,26 5,-1 9,-1 13,3 6,5 4,27 -22,25 0,24 -27,24 -28,0 -26,2 -28,-20 -22,-25 4,-4 8,-3 13,-3 -2,-4 -5,-16 5,-26 5,-5 12,-3 12,-3l0 -13c-5,8 -35,28 -38,28 -1,1 -3,1 -4,1 -6,0 -12,-5 -12,-12 0,-6 5,-12 12,-12 12,0 17,2 30,-4 5,-2 8,-8 11,-14z"/>
 </g>
</svg>
