<?xml version="1.0" encoding="UTF-8"?>
<!DOCTYPE svg PUBLIC "-//W3C//DTD SVG 1.1//EN" "http://www.w3.org/Graphics/SVG/1.1/DTD/svg11.dtd">
<!-- Creator: CorelDRAW 2017 -->
<svg xmlns="http://www.w3.org/2000/svg" xml:space="preserve" width="35.3486mm" height="35.3486mm" version="1.1" style="shape-rendering:geometricPrecision; text-rendering:geometricPrecision; image-rendering:optimizeQuality; fill-rule:evenodd; clip-rule:evenodd"
viewBox="0 0 447 447"
 xmlns:xlink="http://www.w3.org/1999/xlink">
 <defs>
  <style type="text/css">
   <![CDATA[
    .str0 {stroke:#4A4A4A;stroke-width:6.32833;stroke-opacity:0.701961}
    .str1 {stroke:#949494;stroke-width:6.32833}
    .str3 {stroke:#4C3D2F;stroke-width:3.16417}
    .str2 {stroke:#3D342D;stroke-width:4.46401}
    .str4 {stroke:#4C3D2F;stroke-width:0.026579;stroke-linecap:round;stroke-linejoin:round}
    .fil2 {fill:none}
    .fil7 {fill:none;fill-rule:nonzero}
    .fil1 {fill:none}
    .fil5 {fill:#3D342D}
    .fil4 {fill:#3D342D;fill-rule:nonzero}
    .fil6 {fill:#4C3D2F;fill-rule:nonzero}
    .fil3 {fill:#7F7D7A;fill-rule:nonzero}
    .fil0 {fill:#4A4A4A;fill-opacity:0.701961}
   ]]>
  </style>
 </defs>
<symbol id="Footer" viewBox="1512 631 512 157">
 <path class="fil0" d="M1912 741l2 2c1,0 1,1 2,2l5 5c4,4 9,9 13,13 2,2 4,3 7,3 2,0 3,-1 4,-2l11 -10c0,0 0,0 0,0l6 -6c0,0 1,0 1,-1l3 -3c1,-1 1,-1 2,-2 0,0 0,0 0,0l0 34c0,0 -13,0 -14,0l-38 0c-1,0 -3,0 -3,0l0 -33c0,0 0,0 0,0zm25 14c0,0 0,0 -1,-1l-4 -4c-1,-1 -2,-2 -3,-3l-15 -14 48 0c0,0 -1,1 -2,1 -1,1 -3,3 -4,4l-9 9c0,0 -1,0 -1,1 0,0 -1,0 -1,1 0,0 0,0 -1,1l-4 4c0,0 0,0 -1,1 0,0 -1,0 -1,1 -1,1 -2,2 -2,2l-1 -1zm-25 -29c-3,0 -4,1 -5,3 -2,2 -2,4 -2,6l0 31c0,3 0,5 0,8 0,2 1,4 2,5 2,1 3,2 6,2l50 0c4,0 6,0 9,-3 1,-1 1,-1 1,-2 0,-1 0,-2 0,-4l0 -31c0,-3 0,-5 0,-8 0,-2 -1,-4 -2,-5 -2,-1 -3,-2 -6,-2l-50 0c-1,0 -3,0 -4,0z"/>
 <path class="fil0" d="M1912 741c0,0 0,0 0,0l0 33c1,0 3,0 3,0l38 0c1,0 13,0 14,0l0 -34c0,0 0,0 0,0 0,0 0,0 0,0 0,0 0,0 0,0 0,11 0,22 0,32l-55 0 0 -33c0,0 0,0 0,0z"/>
 <path class="fil1 str0" d="M1799 730c1,0 2,0 3,1 3,1 3,4 3,8 0,3 0,10 -1,13 -2,3 -5,0 -6,-2 -1,-1 -1,-1 -1,-2 -2,-3 -6,-11 -7,-14 -1,-2 -1,-3 -3,-4 -2,-1 -11,0 -14,0 -6,0 -3,4 -1,8 1,3 3,6 5,10 4,7 7,12 11,17 4,6 5,6 11,11 1,1 3,2 5,3 3,2 7,3 12,3 2,0 6,0 7,0 4,-1 1,-6 4,-10 4,-6 9,5 16,9 2,1 3,1 6,1 10,0 22,2 13,-9 -4,-5 -7,-7 -11,-11 -3,-3 -1,-6 2,-9 3,-4 10,-12 11,-17 2,-6 -4,-4 -9,-4l-11 0c-2,0 -2,2 -3,4 -2,5 -6,12 -9,16 -1,1 -3,3 -4,3 -4,1 -3,-9 -3,-11 0,-4 1,-11 -1,-13 -2,-3 -15,-2 -19,-1 -2,0 -4,2 -4,3z"/>
 <path class="fil0" d="M1697 781l-15 0c-2,0 -3,0 -5,0 -2,0 -5,0 -7,-1 0,0 0,0 0,0 -2,0 -3,-1 -5,-3 -1,-1 -2,-2 -2,-3 0,-1 -1,-1 -1,-2 0,0 0,-1 0,-1l0 -2c0,0 0,0 0,0l0 -2c0,0 0,-1 0,-1 0,0 0,-1 0,-1 0,0 0,-1 0,-1 0,-1 0,-2 0,-3 0,-2 0,-17 0,-18 0,0 0,-1 0,-1 0,-1 0,-2 0,-3 0,-1 0,-2 0,-2 0,0 0,-1 0,-1 0,-2 0,-3 1,-5 0,0 0,-1 0,-1 0,-1 1,-2 2,-2 1,-1 3,-2 4,-3 1,0 1,0 2,-1l2 0c1,0 3,0 4,0 1,0 1,0 2,0 0,0 0,0 1,0l16 0c1,0 2,0 2,0l5 0 3 0c1,0 3,1 4,1l1 1c0,0 1,1 1,1 1,1 2,2 2,3 0,1 1,2 1,3 0,2 1,3 1,5 0,0 0,0 0,1l0 4 0 18c0,1 0,2 0,4 0,0 0,1 0,1 0,0 0,1 0,1l0 2c0,1 0,2 -1,4 0,0 0,0 0,0 0,1 -1,2 -2,3 0,0 -1,1 -1,1l-1 1c0,0 0,0 -1,0l-2 1c-1,0 -3,1 -4,1 -1,0 -2,0 -2,0 0,0 0,0 -1,0 0,0 0,0 -1,0 0,0 0,0 -1,0 0,0 0,0 -1,0l-2 0c0,0 -1,0 -1,0zm-42 -38l0 19c0,1 0,2 0,3l0 3c0,2 0,3 1,5 1,2 2,6 4,7l2 2 1 1c0,0 1,0 1,1 3,1 4,2 6,2 0,0 0,0 1,0 0,0 0,0 1,0 0,0 0,0 1,0 1,0 2,0 2,0 0,0 1,0 1,0 0,0 0,0 1,0 2,0 4,0 7,0l11 0c1,0 3,0 4,0 1,0 3,0 4,0 1,0 2,0 3,0 0,0 1,0 1,0 1,0 2,0 3,-1 1,0 1,0 1,0l1 0c0,0 0,0 1,0 2,-1 4,-2 5,-3 0,0 0,0 1,0 1,-1 2,-2 3,-3 1,-1 2,-3 2,-4 0,0 0,0 0,-1l1 -3c0,-2 1,-4 0,-6 0,0 0,-1 0,-1l0 -10c0,-3 0,-5 0,-8 0,-1 0,-1 0,-2 0,-1 0,-1 0,-2 0,-1 0,-5 0,-6 0,-1 0,-2 0,-3l0 -1c0,-1 -1,-2 -1,-3 0,-1 -1,-3 -2,-4 0,-1 -1,-1 -1,-2 0,0 0,0 0,0l-1 -1c0,0 0,0 0,0 -1,0 -1,-1 -2,-1 0,0 0,0 -1,0l-4 -2c-1,0 -2,0 -2,-1 -1,0 -3,-1 -4,-1 -1,0 -1,0 -2,0 -1,0 -1,0 -2,0 -1,0 -1,0 -2,0 -2,0 -17,0 -18,0 -1,0 -2,0 -3,0 -1,0 -1,0 -2,0l-2 0c-1,0 -2,0 -3,0 -1,0 -2,0 -3,1l-2 1c-1,1 -3,1 -4,2 -1,1 -2,2 -3,3l-1 1c-1,2 -2,3 -3,6 -1,2 -1,3 -1,5 0,0 0,1 0,2 0,0 0,1 0,2 0,1 0,2 0,3z"/>
 <path class="fil0" d="M1690 764c-1,0 -2,0 -3,0 -2,0 -4,-1 -6,-3 -1,0 -1,-1 -1,-1l0 -1c0,0 0,0 0,0l-1 -2c0,0 0,-1 0,-1 -1,-2 0,-5 0,-6 0,-1 1,-2 2,-3 1,-1 2,-3 4,-3 0,0 0,0 0,0 2,-1 5,-1 7,-1 1,0 2,0 2,1 1,0 1,0 2,1 1,0 2,1 3,2 1,1 1,2 2,3 1,1 1,2 1,4 0,1 0,3 0,4l0 1c0,1 -1,2 -2,3 0,0 0,0 0,0 -2,2 -4,4 -6,4 -1,0 -2,0 -2,0zm-1 6c2,0 4,0 5,-1 0,0 0,0 0,0 2,-1 4,-2 6,-3l2 -2 1 -1c0,0 0,0 0,-1l0 -1c1,-2 3,-6 3,-8 0,-2 0,-2 0,-4 0,0 0,-1 0,-1 0,-1 0,-2 -1,-2 0,0 0,0 0,0 -1,-2 -3,-5 -4,-7 -2,-2 -5,-4 -8,-5 0,0 -1,0 -1,0 -1,0 -2,0 -3,0l-2 0 -2 0c-1,0 -3,1 -4,1l-1 1c-1,1 -3,2 -4,3l-1 1c0,0 0,0 0,1 -1,1 -2,2 -2,3 0,1 -1,2 -1,3 0,1 0,1 0,2 0,0 0,1 0,1 0,0 0,1 0,1 0,2 0,3 1,5 0,1 0,1 1,2 0,0 0,0 0,1 0,0 0,0 0,0 1,1 1,2 2,3 1,1 3,3 4,3l1 1c1,1 3,1 4,2 0,0 1,0 1,0 0,0 1,0 1,0 0,0 0,0 0,0l3 0z"/>
 <path class="fil0" d="M1704 733c0,1 0,2 1,3l0 0c0,0 0,0 0,0 1,1 2,1 3,1 1,0 1,0 2,0 1,-1 3,-2 3,-4 0,-1 0,-1 0,-2 -1,-1 -2,-2 -4,-2l0 0c-2,0 -4,2 -4,4z"/>
 <path class="fil2 str1" d="M1591 742l0 5 7 0 -1 5c0,0 0,1 0,1 0,1 0,2 0,2l-6 0 0 23 -10 0 0 -23c0,0 0,0 0,0l-4 0 0 -8 4 0c0,-2 0,-6 0,-8 0,-2 1,-3 2,-4 0,-1 0,-1 1,-1 1,-1 2,-1 2,-1 1,0 2,-1 3,-1l10 0 0 8 -5 0c-2,0 -3,1 -3,3zm-46 -11l0 42c0,2 1,3 1,5 0,1 1,2 2,3l0 0c0,0 1,0 1,1 1,0 1,1 2,1 2,1 4,2 6,2l42 0c2,0 4,-1 5,-1 1,0 1,-1 2,-1 1,-1 2,-2 3,-3 1,-2 2,-4 2,-7l0 -42c0,-1 0,-3 -1,-4 -1,-2 -1,-3 -2,-4 0,0 0,-1 -1,-1l-1 -1c-1,-1 -3,-2 -5,-3 -1,0 -2,0 -3,0l-42 0c-2,0 -4,1 -5,1 -1,0 -1,1 -2,1 -1,1 -1,1 -1,1 0,0 0,0 0,0 -2,2 -4,5 -4,8z"/>
 <path class="fil3" d="M1531 634c-11,0 -19,9 -19,19 0,11 8,19 19,19 11,0 19,-9 19,-19 0,-11 -8,-19 -19,-19zm0 3c9,0 16,7 16,17 0,10 -7,17 -16,17 -9,0 -16,-7 -16,-17 0,-10 7,-17 16,-17zm8 7c-1,-1 -4,-2 -7,-2 -6,0 -12,5 -12,12 0,6 4,11 11,11 3,0 6,0 8,-2l-1 -2c-1,1 -4,2 -6,2 -6,0 -9,-4 -9,-9 0,-5 3,-9 9,-9 3,0 5,1 6,1l1 -2z"/>
 <polygon id="1" class="fil3" points="1570,674 1575,674 1575,655 1591,655 1591,651 1575,651 1575,637 1592,637 1592,632 1570,632 "/>
 <path id="2" class="fil3" d="M1623 644l-6 0 0 19c0,1 0,2 0,3 -1,2 -4,5 -7,5 -5,0 -7,-4 -7,-10l0 -17 -6 0 0 18c0,11 6,13 10,13 5,0 9,-3 10,-6l0 0 0 5 5 0c0,-2 0,-5 0,-8l0 -22z"/>
 <path id="3" class="fil3" d="M1634 637l0 7 -5 0 0 4 5 0 0 17c0,4 1,6 2,8 1,1 3,2 6,2 2,0 4,0 5,-1l0 -4c-1,0 -2,0 -3,0 -3,0 -4,-2 -4,-6l0 -16 8 0 0 -4 -8 0 0 -9 -5 1z"/>
 <path id="4" class="fil3" d="M1678 644l-6 0 0 19c0,1 0,2 0,3 -1,2 -4,5 -7,5 -5,0 -7,-4 -7,-10l0 -17 -6 0 0 18c0,11 6,13 10,13 5,0 9,-3 10,-6l0 0 0 5 5 0c0,-2 0,-5 0,-8l0 -22z"/>
 <path id="5" class="fil3" d="M1687 674l5 0 0 -16c0,-1 0,-2 0,-3 1,-4 3,-7 7,-7 1,0 1,0 2,0l0 -5c0,0 -1,0 -2,0 -4,0 -7,3 -8,7l0 0 0 -6 -5 0c0,3 0,6 0,9l0 21z"/>
 <path id="6" class="fil3" d="M1720 643c-8,0 -15,6 -15,16 0,10 6,16 15,16 7,0 15,-5 15,-16 0,-9 -6,-16 -15,-16zm0 4c7,0 9,7 9,12 0,7 -4,12 -9,12 -5,0 -9,-5 -9,-12 0,-6 3,-12 9,-12z"/>
 <path id="7" class="fil3" d="M1783 669c-2,1 -6,2 -9,2 -10,0 -16,-7 -16,-17 0,-11 7,-17 16,-17 3,0 6,1 9,2l1 -4c-1,-1 -5,-2 -10,-2 -13,0 -22,9 -22,22 0,14 9,21 21,21 5,0 9,-1 11,-2l-1 -4z"/>
 <path id="8" class="fil3" d="M1812 674c0,-2 0,-5 0,-7l0 -11c0,-6 -2,-12 -12,-12 -4,0 -7,1 -10,3l1 4c2,-1 5,-2 8,-2 6,0 7,5 7,7l0 1c-12,0 -18,4 -18,11 0,4 3,9 9,9 4,0 8,-2 9,-5l0 0 0 4 5 0zm-6 -10c0,1 0,1 0,2 -1,3 -3,5 -7,5 -3,0 -5,-2 -5,-5 0,-6 7,-7 13,-7l0 5z"/>
 <path id="9" class="fil3" d="M1819 673c2,1 5,2 9,2 7,0 11,-4 11,-9 0,-5 -3,-7 -8,-9 -4,-1 -6,-3 -6,-5 0,-2 2,-4 5,-4 3,0 5,1 6,2l1 -4c-2,-1 -4,-2 -7,-2 -7,0 -10,4 -10,9 0,4 3,7 8,9 4,2 6,3 6,6 0,2 -2,5 -6,5 -3,0 -6,-1 -7,-2l-1 4z"/>
 <path id="10" class="fil3" d="M1867 674c0,-2 0,-5 0,-7l0 -11c0,-6 -2,-12 -12,-12 -4,0 -7,1 -10,3l1 4c2,-1 5,-2 8,-2 6,0 7,5 7,7l0 1c-12,0 -18,4 -18,11 0,4 3,9 9,9 4,0 8,-2 9,-5l0 0 0 4 5 0zm-6 -10c0,1 0,1 0,2 -1,3 -3,5 -7,5 -3,0 -5,-2 -5,-5 0,-6 7,-7 13,-7l0 5z"/>
 <path id="11" class="fil3" d="M1876 682c2,-3 5,-10 6,-15l-6 1c-1,5 -2,11 -4,15l4 0z"/>
 <path id="12" class="fil3" d="M1926 674l0 -5 -18 0 0 0 3 -3c9,-8 14,-14 14,-22 0,-6 -4,-12 -12,-12 -5,0 -9,2 -12,4l2 4c2,-2 5,-3 9,-3 6,0 8,4 8,8 0,6 -5,11 -15,21l-4 4 0 3 26 0z"/>
 <path id="13" class="fil3" d="M1946 633c-8,0 -14,8 -14,21 0,13 6,21 13,21 9,0 14,-8 14,-21 0,-13 -5,-21 -13,-21zm0 4c6,0 8,7 8,17 0,10 -3,17 -8,17 -5,0 -8,-6 -8,-17 0,-11 4,-17 8,-17z"/>
 <polygon id="14" class="fil3" points="1976,674 1981,674 1981,634 1977,634 1968,638 1969,643 1976,639 1976,639 "/>
 <path id="15" class="fil3" d="M2009 675c8,0 14,-5 14,-12 0,-5 -3,-9 -8,-11l0 0c5,-2 7,-6 7,-10 0,-5 -4,-10 -12,-10 -7,0 -13,4 -13,11 0,3 2,7 6,9l0 0c-5,2 -8,6 -8,11 0,6 5,11 14,11zm0 -4c-5,0 -8,-4 -8,-8 0,-4 3,-7 7,-8 6,2 9,4 9,9 0,4 -3,7 -8,7zm0 -34c5,0 7,3 7,7 0,4 -3,6 -6,7 -5,-1 -8,-3 -8,-8 0,-3 3,-7 7,-7z"/>
</symbol>
 <g id="Слой_x0020_1">
  <metadata id="CorelCorpID_0Corel-Layer"/>
  <path class="fil2 str2" d="M224 2c122,0 221,99 221,221 0,122 -99,221 -221,221 -122,0 -221,-99 -221,-221 0,-122 99,-221 221,-221z"/>
  <polygon class="fil2 str3" points="34,40 414,40 414,419 34,419 "/>
  <g>
   <path class="fil4" d="M75 358c0,0 -1,-1 -1,-3 0,-2 0,-3 1,-3l0 6zm127 0l-127 0 0 -6 127 0 0 6zm0 -6c0,0 1,1 1,3 0,2 0,3 -1,3l0 -6z"/>
  </g>
  <g>
   <path class="fil4" d="M249 358c0,0 -1,-1 -1,-3 0,-2 0,-3 1,-3l0 6zm125 0l-125 0 0 -6 125 0 0 6zm0 -6c0,0 1,1 1,3 0,2 0,3 -1,3l0 -6z"/>
  </g>
  <path class="fil5" d="M248 356l-1 1c0,0 -1,0 -1,0 0,0 -1,0 -1,0l-1 0c-1,1 -2,1 -3,0 0,1 1,1 1,2 0,1 0,1 -1,2 -1,1 -2,1 -3,1 -1,0 -2,-1 -3,-1 -1,-1 -2,-3 -1,-5l1 0c0,1 0,2 1,2 0,0 1,1 1,1 1,0 1,0 1,0 0,0 0,-1 0,-1 0,0 0,-1 0,-1 -1,-1 -2,-1 -3,-1l-1 0c0,0 -1,0 -1,0 0,0 0,0 0,1 0,1 0,2 -1,3 -1,1 -2,2 -3,2 -1,0 -2,0 -2,-1 -1,0 -1,-1 -1,-2 0,-1 0,-2 1,-3 0,0 0,0 0,1 0,1 0,2 1,2 1,1 1,1 2,1 0,0 1,0 1,0 0,0 0,-1 0,-1 0,-1 -1,-2 -2,-4 0,0 -1,-1 -1,-1 0,0 -1,-1 -1,-1l-1 -1c-1,1 -1,2 -2,4 0,2 -1,3 -1,4 0,2 1,4 2,6 1,1 3,2 5,2 0,0 1,0 1,0 0,2 -1,3 -3,3 -2,0 -4,-1 -5,-3 -1,-2 -2,-4 -2,-7 0,-2 1,-4 2,-6l0 0 -1 1c-1,1 -2,2 -3,4 -1,1 -1,2 -1,3 0,1 0,1 0,1 0,0 1,1 1,1 0,0 0,0 0,0 -1,1 -1,2 -2,2 -1,0 -1,0 -2,-1 0,-1 -1,-1 -1,-2 0,0 0,0 0,-1 -1,1 -2,1 -3,1 -1,0 -2,0 -3,-1 -1,-1 -1,-1 -1,-2 0,-1 0,-2 1,-2 -1,0 -2,0 -3,0l-1 0c-1,0 -1,0 -1,0 0,0 -1,0 -1,0l-1 -1 2 -2c1,-1 3,-2 4,-3 1,0 2,0 3,0 0,-1 0,-1 0,-2 0,0 0,-1 1,-1 1,-1 1,-1 2,-1 1,0 2,0 2,1 1,1 1,1 1,2l-1 0c0,0 0,-1 -1,-1 0,0 -1,-1 -1,-1 0,0 -1,0 -1,0 0,0 0,1 0,1 0,0 0,1 1,1 1,1 2,1 3,1 1,0 2,-1 3,-2 1,-1 1,-2 1,-3 0,-1 0,-2 -1,-3 -1,-1 -2,-1 -3,-1 -1,0 -2,0 -3,1l-1 -1 0 0c1,-2 3,-2 5,-3 1,0 2,0 3,0 0,0 0,-1 1,-1 1,-1 1,-1 2,-1 1,0 2,0 2,1 0,0 1,1 1,2 1,-1 2,-1 4,-1 2,0 3,1 5,3l0 0 -1 1c-1,-1 -2,-1 -3,-1 -1,0 -2,0 -3,1 -1,1 -1,2 -1,3l0 0c2,2 3,3 3,4 0,0 0,1 0,1 0,0 1,0 1,0 1,0 2,0 3,-1 0,0 1,-1 1,-1 0,0 0,-1 0,-1 0,0 -1,0 -1,0 0,0 -1,0 -1,1 0,0 0,1 -1,1l-1 0c0,-1 1,-2 1,-2 1,-1 1,-1 2,-1 1,0 2,0 2,1 0,0 1,1 1,1 0,1 0,1 0,2 1,0 2,0 3,0 1,0 2,1 4,3l2 2zm-28 -1c-1,0 -2,1 -3,1l-1 0c-2,0 -3,1 -3,1 0,0 0,1 0,1 0,0 0,1 0,1 0,0 1,1 1,0 1,0 1,0 1,-1 0,0 1,-1 1,-2l1 0c0,0 0,1 0,1 1,-1 2,-2 3,-3zm6 -9c0,-1 1,-1 1,-2 0,-1 0,-1 0,-2 0,0 -1,-1 -1,-1 0,0 -1,0 -1,0 0,0 0,1 0,1 0,1 0,2 1,3zm-12 8c-1,1 -2,1 -4,0l0 0c-1,0 -1,0 -2,0 2,-2 4,-2 7,0zm25 0c1,1 2,1 4,0l0 0c1,0 1,0 2,0 -2,-2 -4,-2 -7,0z"/>
  <g>
   <path class="fil6" d="M152 126l0 -3 0 0 1 0 1 0 1 0 1 0 1 0 1 0 1 0 1 0 1 0 1 0 1 0 1 0 1 0 1 0 1 0 1 0 1 0 1 0 1 0 1 0 1 0 1 0 1 0 1 0 1 0 1 0 1 0 1 0 1 0 1 0 1 0 1 0 0 3 -1 0 -1 0 -1 0 -1 0 -1 0 -1 0 -1 0 -1 0 -1 0 -1 0 -1 0 -1 0 -1 0 -1 0 -1 0 -1 0 -1 0 -1 0 -1 0 -1 0 -1 0 -1 0 -1 0 -1 0 -1 0 -1 0 -1 0 -1 0 -1 0 -1 0 -1 0 -1 0 0 0zm-17 6l0 -3 0 0 0 0 0 0 0 0 0 0 0 0 0 0 0 0 0 0 0 0 1 0 1 0 1 0 1 0 1 0 1 0 1 0 1 0 1 0 1 0 1 0 1 0 1 0 1 0 1 0 1 0 1 0 1 0 1 0 1 0 1 0 1 0 1 0 0 3 -1 0 -1 0 -1 0 -1 0 -1 0 -1 0 -1 0 -1 0 -1 0 -1 0 -1 0 -1 0 -1 0 -1 0 -1 0 -1 0 -1 0 -1 0 -1 0 -1 0 -1 0 -1 0 -1 0 0 0 0 0 0 0 0 0 0 0 0 0 0 0 0 0 0 0 0 0zm-13 10l0 -3 0 0 0 0 0 0 0 0 0 0 0 0 0 0 0 0 0 0 0 0 0 0 0 0 0 0 0 0 0 0 0 0 0 0 0 0 0 0 0 0 0 0 0 0 0 0 0 0 0 0 0 0 0 0 0 0 0 0 0 0 0 0 0 0 0 0 0 3 0 0 0 0 0 0 0 0 0 0 0 0 0 0 0 0 0 0 0 0 0 0 0 0 0 0 0 0 0 0 0 0 0 0 0 0 0 0 0 0 0 0 0 0 0 0 0 0 0 0 0 0 0 0 0 0 0 0 0 0 0 0 0 0 0 0zm-7 14l0 -2 0 0 0 -1 0 -1 0 -1 0 -1 0 -1 0 0 0 0 0 0 0 0 0 0 0 0 0 0 0 0 0 0 0 0 0 0 0 0 0 0 0 0 0 0 0 0 0 0 0 0 0 0 0 0 0 0 0 0 0 0 0 0 0 0 0 0 0 0 0 3 0 0 0 0 0 0 0 0 0 0 0 0 0 0 0 0 0 0 0 0 0 0 0 0 0 0 0 0 0 0 0 0 0 0 0 0 0 0 0 0 0 0 0 0 0 0 0 0 0 0 0 0 0 0 0 0 0 0 0 0 0 0 0 0 0 0zm0 0c0,0 0,0 0,0 0,-1 0,-1 0,-2l0 2zm0 7l0 1 0 0 0 0 0 0 0 0 0 0 0 0 0 0 0 0 0 0 0 0 0 0 0 0 0 0 0 0 0 0 0 0 0 0 0 0 0 0 0 0 0 0 0 0 0 0 0 0 0 0 0 0 0 0 0 0 0 0 0 0 0 0 0 0 0 0 0 2 0 0 0 0 0 0 0 0 0 0 0 0 0 0 0 0 0 0 0 0 0 0 0 0 0 0 0 0 0 0 0 0 0 0 0 0 0 0 0 0 0 0 0 0 0 0 0 0 0 0 0 0 0 0 0 0 0 0 0 0 0 0 0 0 0 0zm2 8l0 2 0 0 0 0 0 0 0 0 0 0 0 0 0 0 0 0 0 0 0 0 0 0 0 0 0 0 0 0 0 0 0 0 0 0 0 0 0 0 0 0 0 0 0 0 0 0 0 0 0 0 0 0 0 0 0 0 0 0 0 0 0 0 0 0 0 0 0 -1 0 0 0 0 0 0 0 0 0 0 0 0 0 0 0 0 0 0 0 0 0 0 0 0 0 0 0 0 0 0 0 0 0 0 0 0 0 0 0 0 0 0 0 0 0 0 0 0 0 0 0 0 0 0 0 0 0 0 0 0 0 0 0 0 0 0zm6 9l0 3 0 0 0 0 0 0 0 0 0 0 0 0 0 0 0 0 0 0 0 0 0 0 0 0 0 0 0 0 0 0 0 0 0 0 0 0 0 0 0 0 0 0 0 0 0 0 0 0 0 0 0 0 0 0 0 0 0 0 0 0 0 0 0 0 0 0 0 -2 0 0 0 0 0 0 0 0 0 0 0 0 0 0 0 0 0 0 0 0 0 0 0 0 0 0 0 0 0 0 0 0 0 0 0 0 0 0 0 0 0 0 0 0 0 0 0 0 0 0 0 0 0 0 0 0 0 0 0 0 0 0 0 0 0 0zm11 7l0 3 0 0 0 0 0 0 0 0 0 0 0 0 0 0 0 0 0 0 0 0 0 0 0 0 0 0 0 0 0 0 0 0 0 0 0 0 0 0 0 0 0 0 0 0 0 0 0 0 0 0 0 0 0 0 0 0 0 0 0 0 0 0 0 0 0 0 0 -3 0 0 0 0 0 0 0 0 0 0 0 0 0 0 0 0 0 0 0 0 0 0 0 0 0 0 0 0 0 0 0 0 0 0 0 0 0 0 0 0 0 0 0 0 0 0 0 0 0 0 0 0 0 0 0 0 0 0 0 0 0 0 0 0 0 0zm0 0c0,0 0,1 0,1 0,1 0,1 0,1l0 -3zm3 1l0 3 0 0 0 0 0 0 0 0 0 0 0 0 0 0 0 0 0 0 0 0 0 0 0 0 0 0 0 0 0 0 0 0 0 0 0 0 0 0 0 0 0 0 0 0 0 0 0 0 0 0 0 0 0 0 0 0 0 0 0 0 0 0 0 0 0 0 0 -3 0 0 0 0 0 0 0 0 0 0 0 0 0 0 0 0 0 0 0 0 0 0 0 0 0 0 0 0 0 0 0 0 0 0 0 0 0 0 0 0 0 0 0 0 0 0 0 0 0 0 0 0 0 0 0 0 0 0 0 0 0 0 0 0 0 0zm1 3l0 -2 0 0 0 0 0 0 0 0 0 0 0 0 0 0 0 0 0 0 0 1 0 0 0 0 0 0 0 0 0 0 0 0 0 0 0 0 0 0 0 0 0 0 0 0 0 0 0 0 0 0 0 0 0 0 0 0 0 0 0 0 0 0 0 0 0 0 0 -3 0 0 0 0 0 0 0 0 0 0 0 0 0 0 0 0 0 0 0 0 0 0 0 0 0 0 0 0 0 0 0 0 0 0 0 0 0 0 0 0 0 0 0 0 0 0 0 1 0 1 0 0 0 0 0 0 0 0 0 0 0 0 0 0 0 0zm-2 1l0 -3 0 0 0 0 0 0 0 0 0 0 0 0 0 0 0 0 0 0 0 0 0 0 0 0 0 0 0 0 0 0 0 0 0 0 0 0 0 0 0 0 0 0 0 0 0 0 0 0 0 0 0 0 0 0 0 0 0 0 0 0 0 0 0 0 0 0 0 2 0 0 0 0 0 0 0 0 0 0 0 0 0 0 0 0 0 0 0 0 0 0 0 0 0 0 0 0 0 0 0 0 0 0 0 0 0 0 0 0 0 0 0 0 0 0 0 0 0 0 0 0 0 0 0 0 0 0 0 0 0 0 0 0 0 0zm-4 -1l0 -3 0 0 0 0 0 0 0 0 0 0 0 0 0 0 0 0 0 0 0 0 0 0 0 0 0 0 0 0 0 0 0 0 0 0 0 0 0 0 0 0 0 0 0 0 0 0 0 0 0 0 0 0 0 0 0 0 0 0 0 0 0 0 0 0 0 0 0 3 0 0 0 0 0 0 0 0 0 0 0 0 0 0 0 0 0 0 0 0 0 0 0 0 0 0 0 0 0 0 0 0 0 0 0 0 0 0 0 0 0 0 0 0 0 0 0 0 0 0 0 0 0 0 0 0 0 0 0 0 0 0 0 0 0 0zm0 0c0,0 0,-1 0,-1 0,-1 0,-1 0,-1l0 3zm-19 -15l0 -2 0 0 0 1 0 1 0 1 0 1 0 1 0 1 0 1 0 1 0 1 0 1 0 1 1 1 1 0 1 0 1 0 1 0 1 0 1 0 1 0 1 0 1 0 1 0 1 0 1 0 1 0 1 0 1 0 1 0 1 0 1 0 1 0 1 0 0 3 -1 0 -1 0 -1 0 -1 0 -1 0 -1 0 -1 0 -1 0 -1 0 -1 0 -1 0 -1 0 -1 0 -1 0 -1 0 -1 0 -1 0 -1 0 -1 0 -1 -1 -1 -1 -1 -1 0 -1 0 -1 0 -1 0 -1 0 -1 0 -1 0 -1 0 -1 0 -1 0 -1 0 0zm-4 -24l0 2 0 0 0 1 0 1 0 1 0 1 0 1 0 1 0 1 0 1 0 1 0 1 0 1 0 1 0 1 0 1 0 1 0 1 0 1 0 1 0 1 0 1 0 1 0 1 0 1 0 1 0 1 0 1 0 1 0 1 0 1 0 1 0 1 0 1 0 2 0 -1 0 -1 0 -1 0 -1 0 -1 0 -1 0 -1 0 -1 0 -1 0 -1 0 -1 0 -1 0 -1 0 -1 0 -1 0 -1 0 -1 0 -1 0 -1 0 -1 0 -1 0 -1 0 -1 0 -1 0 -1 0 -1 0 -1 0 -1 0 -1 0 -1 0 -1 0 -1 0 0zm0 0c0,-1 0,-1 0,0 0,0 0,1 0,2l0 -1zm6 -16l0 2 0 0 0 0 0 0 0 0 0 0 0 0 0 0 0 0 0 0 0 0 0 0 0 0 0 0 0 0 0 0 0 0 0 0 0 0 0 0 0 0 0 0 0 0 0 0 0 0 0 0 0 0 0 0 0 0 0 0 0 0 0 0 0 0 0 0 0 -2 0 -1 0 -1 0 -1 0 -1 0 -1 0 -1 0 -1 0 -1 0 -1 0 -1 0 -1 0 0 0 0 0 0 0 0 0 0 0 0 0 0 0 0 0 0 0 0 0 0 0 0 0 0 0 0 0 0 0 0 0 0 0 0 0 0 0 0 0 0 0 0zm13 -12l0 3 0 0 -1 0 0 0 0 0 0 0 0 0 0 0 0 0 0 0 0 0 0 0 0 0 0 0 0 0 0 0 0 0 0 0 0 0 0 0 0 0 0 0 0 0 0 0 0 0 0 0 0 0 0 0 0 0 0 0 0 0 0 0 0 0 0 0 0 -2 0 0 0 0 0 0 0 0 0 0 0 0 0 0 0 0 0 0 0 0 0 0 0 0 0 0 0 0 0 0 0 0 0 0 0 0 0 0 0 0 0 0 0 0 0 0 0 0 0 0 0 0 0 0 0 0 0 0 0 0 1 0 1 0 0 0zm19 -8l0 3 0 0 -1 0 -1 0 -1 0 -1 0 -1 0 -1 0 -1 0 -1 0 -1 0 -1 0 -1 0 -1 0 -1 0 -1 0 -1 0 -1 0 -1 0 -1 0 -1 0 -1 0 -1 0 -1 0 -1 0 -1 0 -1 0 -1 0 -1 0 -1 0 -1 0 -1 0 -1 0 -1 0 0 -3 1 0 1 0 1 0 1 0 1 0 1 0 1 0 1 0 1 0 1 0 1 0 1 0 1 0 1 0 1 0 1 0 1 0 1 0 1 0 1 0 1 0 1 0 1 0 1 0 1 0 1 0 1 0 1 0 1 0 1 0 1 0 1 0 0 0zm25 -3l0 3 0 0 -1 0 -1 0 -1 0 -1 0 -1 0 -1 0 -1 0 -1 0 -1 0 -1 0 -1 0 -1 0 -1 0 -1 0 -1 0 -1 0 -1 0 -1 0 -1 0 -1 0 -1 0 -1 0 -1 0 -1 0 -1 0 -1 0 -1 0 -1 0 -1 0 -1 0 -1 0 -1 0 0 -3 1 0 1 0 1 0 1 0 1 0 1 0 1 0 1 0 1 0 1 0 1 0 1 0 1 0 1 0 1 0 1 0 1 0 1 0 1 0 1 0 1 0 1 0 1 0 1 0 1 0 1 0 1 0 1 0 1 0 1 0 1 0 1 0 0 0zm23 2l0 3 0 0 -1 0 -1 0 -1 0 -1 0 -1 0 -1 0 -1 0 -1 0 -1 0 -1 0 -1 0 -1 0 -1 0 -1 0 -1 0 -1 0 -1 0 -1 0 -1 0 -1 0 -1 0 -1 0 -1 0 -1 0 -1 0 -1 0 -1 0 -1 0 -1 0 -1 0 -1 0 -1 0 0 -3 1 0 1 0 1 0 1 0 1 0 1 0 1 0 1 0 1 0 1 0 1 0 1 0 1 0 1 0 1 0 1 0 1 0 1 0 1 0 1 0 1 0 1 0 1 0 1 0 1 0 1 0 1 0 1 0 1 0 1 0 1 0 1 0 0 0zm27 6l0 3 0 0 -1 0 -1 0 -1 0 -1 0 -1 0 -1 0 -1 0 -1 0 -1 0 -1 0 -1 0 -1 0 -1 0 -1 0 -1 0 -1 0 -1 0 -1 0 -1 0 -1 0 -1 0 -1 0 -1 0 -1 0 -1 0 -1 0 -1 0 -1 0 -1 0 -1 0 -1 0 -1 0 0 -3 1 0 1 0 1 0 1 0 1 0 1 0 1 0 1 0 1 0 1 0 1 0 1 0 1 0 1 0 1 0 1 0 1 0 1 0 1 0 1 0 1 0 1 0 1 0 1 0 1 0 1 0 1 0 1 0 1 0 1 0 1 0 1 0 0 0zm0 0c0,0 0,1 0,1 0,1 0,1 0,1l0 -3zm15 4l0 3 0 0 0 0 0 0 0 0 0 0 0 0 0 0 0 0 0 0 0 0 0 0 0 0 0 0 0 0 0 0 0 0 0 0 0 0 0 0 0 0 0 0 0 0 0 0 0 0 0 0 0 0 0 0 0 0 0 0 0 0 0 0 0 0 0 0 0 -3 0 0 0 0 0 0 0 0 0 0 0 0 0 0 0 0 0 0 0 0 0 0 0 0 0 0 0 0 0 0 0 0 0 0 0 0 0 0 0 0 0 0 0 0 0 0 0 0 0 0 0 0 0 0 0 0 0 0 0 0 0 0 0 0 0 0zm15 4l0 3 0 0 0 0 0 0 0 0 0 0 0 0 0 0 0 0 0 0 0 0 0 0 0 0 0 0 0 0 0 0 0 0 0 0 0 0 0 0 0 0 0 0 0 0 0 0 0 0 0 0 0 0 0 0 0 0 0 0 0 0 0 0 0 0 0 0 0 -3 0 0 0 0 0 0 0 0 0 0 0 0 0 0 0 0 0 0 0 0 0 0 0 0 0 0 0 0 0 0 0 0 0 0 0 0 0 0 0 0 0 0 0 0 0 0 0 0 0 0 0 0 0 0 0 0 0 0 0 0 0 0 0 0 0 0zm0 0c0,0 0,1 0,1 0,1 0,1 0,1l0 -3zm15 -6l0 3 0 0 -1 0 -1 0 -1 0 -1 0 -1 0 -1 0 -1 0 -1 0 0 0 0 0 0 0 0 0 0 0 0 0 0 0 0 0 0 0 0 0 0 0 0 0 0 0 0 0 0 0 0 0 0 0 0 0 0 0 0 0 0 0 0 0 0 0 0 0 0 -3 0 0 0 0 0 0 0 0 0 0 0 0 0 0 0 0 0 0 0 0 0 0 0 0 0 0 0 0 0 0 0 0 0 0 0 0 0 0 0 0 0 0 0 0 0 0 0 0 1 0 1 0 1 0 1 0 1 0 1 0 1 0 1 0 0 0zm17 -2l0 3 0 0 -1 0 -1 0 -1 0 -1 0 -1 0 -1 0 -1 0 -1 0 -1 0 -1 0 -1 0 -1 0 -1 0 -1 0 -1 0 -1 0 -1 0 -1 0 -1 0 -1 0 -1 0 -1 0 -1 0 -1 0 -1 0 -1 0 -1 0 -1 0 -1 0 -1 0 -1 0 -1 0 0 -3 1 0 1 0 1 0 1 0 1 0 1 0 1 0 1 0 1 0 1 0 1 0 1 0 1 0 1 0 1 0 1 0 1 0 1 0 1 0 1 0 1 0 1 0 1 0 1 0 1 0 1 0 1 0 1 0 1 0 1 0 1 0 1 0 0 0zm13 2l0 3 0 0 0 0 0 0 0 0 0 0 0 0 0 0 0 0 0 0 0 0 0 0 0 0 0 0 0 0 0 0 0 0 0 0 0 0 0 0 0 0 0 0 0 0 0 0 0 0 0 0 0 0 0 0 0 0 0 0 0 0 0 0 0 0 0 0 0 -3 0 0 0 0 0 0 0 0 0 0 0 0 0 0 0 0 0 0 0 0 0 0 0 0 0 0 0 0 0 0 0 0 0 0 0 0 0 0 0 0 0 0 0 0 0 0 0 0 0 0 0 0 0 0 0 0 0 0 0 0 0 0 0 0 0 0zm5 9l0 -1 0 0 0 0 0 0 0 0 0 0 0 0 0 0 0 0 0 0 0 0 0 0 0 0 0 0 0 0 0 0 0 0 0 0 0 0 0 0 0 0 0 0 0 0 0 0 0 0 0 0 0 0 0 0 0 0 0 0 0 0 0 0 0 0 0 0 0 -3 0 0 0 0 0 0 0 0 0 0 0 0 0 0 0 0 0 0 0 0 0 0 0 0 0 0 0 0 0 0 0 0 0 0 0 0 0 0 0 0 0 0 0 0 0 0 0 0 0 0 0 0 0 0 0 0 0 1 0 1 0 1 0 1 0 0zm0 0c0,1 0,1 0,1 0,0 0,-1 0,-2l0 1zm-5 7l0 -3 0 0 0 0 0 0 0 0 0 0 0 0 0 0 0 0 0 0 0 0 0 0 0 0 0 0 0 0 0 0 0 0 0 0 0 0 0 0 0 0 0 0 0 0 0 0 0 0 0 0 0 0 0 0 0 0 0 0 0 0 0 0 0 0 0 0 0 1 0 0 0 0 0 0 0 0 0 0 0 0 0 0 0 0 0 0 0 0 0 0 0 0 0 0 0 0 0 0 0 0 0 0 0 0 0 0 0 0 0 0 0 0 0 0 0 0 0 0 0 0 0 0 0 0 0 0 0 0 0 0 0 0 0 0zm-12 2l0 -3 0 0 0 0 0 0 0 0 0 0 0 0 0 0 0 0 0 0 0 0 0 0 0 0 0 0 0 0 0 0 0 0 0 0 0 0 0 0 0 0 0 0 0 0 0 0 0 0 0 0 0 0 0 0 0 0 0 0 0 0 0 0 0 0 0 0 0 3 0 0 0 0 0 0 0 0 0 0 0 0 0 0 0 0 0 0 0 0 0 0 0 0 0 0 0 0 0 0 0 0 0 0 0 0 0 0 0 0 0 0 0 0 0 0 0 0 0 0 0 0 0 0 0 0 0 0 0 0 0 0 0 0 0 0zm-16 -1l0 -3 0 0 0 0 0 0 0 0 0 0 0 0 0 0 0 0 0 0 0 0 0 0 0 0 0 0 1 0 1 0 1 0 1 0 1 0 1 0 1 0 1 0 1 0 1 0 1 0 1 0 1 0 1 0 1 0 1 0 1 0 1 0 1 0 1 0 0 3 -1 0 -1 0 -1 0 -1 0 -1 0 -1 0 -1 0 -1 0 -1 0 -1 0 -1 0 -1 0 -1 0 -1 0 -1 0 -1 0 -1 0 -1 0 -1 0 -1 0 0 0 0 0 0 0 0 0 0 0 0 0 0 0 0 0 0 0 0 0 0 0 0 0 0 0zm-16 -2l0 -3 0 0 1 0 1 0 1 0 1 0 1 0 1 0 1 0 1 0 1 0 1 0 1 0 1 0 1 0 0 0 0 0 0 0 0 0 0 0 0 0 0 0 0 0 0 0 0 0 0 0 0 0 0 0 0 0 0 0 0 0 0 0 0 0 0 0 0 3 0 0 0 0 0 0 0 0 0 0 0 0 0 0 0 0 0 0 0 0 0 0 0 0 0 0 0 0 0 0 0 0 0 0 0 0 0 0 -1 0 -1 0 -1 0 -1 0 -1 0 -1 0 -1 0 -1 0 -1 0 -1 0 -1 0 -1 0 -1 0 0 0zm0 0c0,0 0,-1 0,-1 0,-1 0,-1 0,-1l0 3zm-5 4l0 -3 0 0 0 0 0 0 0 0 0 0 0 0 0 0 0 0 0 0 0 0 0 0 0 0 0 0 0 0 0 0 0 0 0 0 0 0 0 0 0 0 0 0 0 0 0 0 0 0 0 0 0 0 0 0 0 0 0 0 0 0 0 0 0 0 0 0 0 3 0 0 0 0 0 0 0 0 0 0 0 0 0 0 0 0 0 0 0 0 0 0 0 0 0 0 0 0 0 0 0 0 0 0 0 0 0 0 0 0 0 0 0 0 0 0 0 0 0 0 0 0 0 0 0 0 0 0 0 0 0 0 0 0 0 0zm-6 6l0 -3 0 0 0 0 0 0 0 0 0 0 0 0 0 0 0 0 0 0 0 0 0 0 0 0 0 0 0 0 0 0 0 0 0 0 0 0 0 0 0 0 0 0 0 0 0 0 0 0 0 0 0 0 0 0 0 0 0 0 0 0 0 0 0 0 0 0 0 3 0 0 0 0 0 0 0 0 0 0 0 0 0 0 0 0 0 0 0 0 0 0 0 0 0 0 0 0 0 0 0 0 0 0 0 0 0 0 0 0 0 0 0 0 0 0 0 0 0 0 0 0 0 0 0 0 0 0 0 0 0 0 0 0 0 0zm-6 7l0 -3 0 0 0 0 0 0 0 0 0 0 0 0 0 0 0 0 0 0 0 0 0 0 0 0 0 0 0 0 0 0 0 0 0 0 0 0 0 0 0 0 0 0 0 0 0 0 0 0 0 0 0 0 0 0 0 0 0 0 0 0 0 0 0 0 0 0 0 3 0 0 0 0 0 0 0 0 0 0 0 0 0 0 0 0 0 0 0 0 0 0 0 0 0 0 0 0 0 0 0 0 0 0 0 0 0 0 0 0 0 0 0 0 0 0 0 0 0 0 0 0 0 0 0 0 0 0 0 0 0 0 0 0 0 0zm-5 6l0 -3 0 0 0 0 0 0 0 0 0 0 0 0 0 0 0 0 0 0 0 0 0 0 0 0 0 0 0 0 0 0 0 0 0 0 0 0 0 0 0 0 0 0 0 0 0 0 0 0 0 0 0 0 0 0 0 0 0 0 0 0 0 0 0 0 0 0 0 3 0 0 0 0 0 0 0 0 0 0 0 0 0 0 0 0 0 0 0 0 0 0 0 0 0 0 0 0 0 0 0 0 0 0 0 0 0 0 0 0 0 0 0 0 0 0 0 0 0 0 0 0 0 0 0 0 0 0 0 0 0 0 0 0 0 0zm0 0c0,0 0,0 0,-1 0,-1 0,-1 0,-2l0 3zm-12 15l0 -3 0 0 0 0 0 0 0 0 0 0 0 0 0 0 0 0 0 0 0 0 0 0 0 0 0 0 0 0 0 0 0 0 0 0 0 0 0 0 0 0 0 0 0 0 0 0 0 0 0 -1 0 -1 0 -1 0 -1 0 -1 0 -1 0 -1 0 -1 0 -1 0 3 0 1 0 1 0 1 0 1 0 1 0 1 0 1 0 1 0 0 0 0 0 0 0 0 0 0 0 0 0 0 0 0 0 0 0 0 0 0 0 0 0 0 0 0 0 0 0 0 0 0 0 0 0 0 0 0 0 0 0 0 0 0 0 0 0 0zm-11 12l0 3 0 -3 0 0 0 0 0 0 0 0 0 0 0 0 0 0 0 0 0 0 0 0 0 0 0 0 0 0 0 0 0 0 0 0 0 0 0 0 0 0 0 0 0 0 0 0 0 0 0 0 0 0 0 0 0 0 0 0 0 0 0 0 0 0 0 0 0 3 0 0 0 0 0 0 0 0 0 0 0 0 0 0 0 0 0 0 0 0 0 0 0 0 0 0 0 0 0 0 0 0 0 0 0 0 0 0 0 0 0 0 0 0 0 0 0 0 0 0 0 0 0 0 0 0 0 0 0 0 0 0 0 0 0 -3zm0 3c0,0 0,0 0,-1 0,-1 0,-1 0,-2l0 3zm6 -3l0 3 0 0 0 0 0 0 0 0 0 0 0 0 0 0 0 0 0 0 0 0 0 0 0 0 0 0 0 0 0 0 0 0 0 0 0 0 0 0 0 0 0 0 0 0 0 0 0 0 0 0 0 0 0 0 0 0 0 0 0 0 0 0 0 0 0 0 0 -3 0 0 0 0 0 0 0 0 0 0 0 0 0 0 0 0 0 0 0 0 0 0 0 0 0 0 0 0 0 0 0 0 0 0 0 0 0 0 0 0 0 0 0 0 0 0 0 0 0 0 0 0 0 0 0 0 0 0 0 0 0 0 0 0 0 0zm7 0l0 3 0 0 0 0 0 0 0 0 0 0 0 0 0 0 0 0 0 0 0 0 0 0 0 0 0 0 0 0 0 0 0 0 0 0 0 0 0 0 0 0 0 0 0 0 0 0 0 0 0 0 0 0 0 0 0 0 0 0 0 0 0 0 0 0 0 0 0 -3 0 0 0 0 0 0 0 0 0 0 0 0 0 0 0 0 0 0 0 0 0 0 0 0 0 0 0 0 0 0 0 0 0 0 0 0 0 0 0 0 0 0 0 0 0 0 0 0 0 0 0 0 0 0 0 0 0 0 0 0 0 0 0 0 0 0zm7 -1l0 3 0 0 0 0 0 0 0 0 0 0 0 0 0 0 0 0 0 0 0 0 0 0 0 0 0 0 0 0 0 0 0 0 0 0 0 0 0 0 0 0 0 0 0 0 0 0 0 0 0 0 0 0 0 0 0 0 0 0 0 0 0 0 0 0 0 0 0 -3 0 0 0 0 0 0 0 0 0 0 0 0 0 0 0 0 0 0 0 0 0 0 0 0 0 0 0 0 0 0 0 0 0 0 0 0 0 0 0 0 0 0 0 0 0 0 0 0 0 0 0 0 0 0 0 0 0 0 0 0 0 0 0 0 0 0zm5 -1l0 3 0 0 0 0 0 0 0 0 0 0 0 0 0 0 0 0 0 0 0 0 0 0 0 0 0 0 0 0 0 0 0 0 0 0 0 0 0 0 0 0 0 0 0 0 0 0 0 0 0 0 0 0 0 0 0 0 0 0 0 0 0 0 0 0 0 0 0 -3 0 0 0 0 0 0 0 0 0 0 0 0 0 0 0 0 0 0 0 0 0 0 0 0 0 0 0 0 0 0 0 0 0 0 0 0 0 0 0 0 0 0 0 0 0 0 0 0 0 0 0 0 0 0 0 0 0 0 0 0 0 0 0 0 0 0zm0 0c0,0 0,0 0,1 0,1 0,1 0,1l0 -3zm2 -3l0 3 0 0 0 0 0 0 0 0 0 0 0 0 0 0 0 0 0 0 0 0 0 0 0 0 0 0 0 0 0 0 0 0 0 0 0 0 0 0 0 0 0 0 0 0 0 0 0 0 0 0 0 0 0 0 0 0 0 0 0 0 0 0 0 0 0 0 0 -3 0 0 0 0 0 0 0 0 0 0 0 0 0 0 0 0 0 0 0 0 0 0 0 0 0 0 0 0 0 0 0 0 0 0 0 0 0 0 0 0 0 0 0 0 0 0 0 0 0 0 0 0 0 0 0 0 0 0 0 0 0 0 0 0 0 0zm3 -4l0 3 0 0 0 0 0 0 0 0 0 0 0 0 0 0 0 0 0 0 0 0 0 0 0 0 0 0 0 0 0 0 0 0 0 0 0 0 0 0 0 0 0 0 0 0 0 0 0 0 0 0 0 0 0 0 0 0 0 0 0 0 0 0 0 0 0 0 0 -3 0 0 0 0 0 0 0 0 0 0 0 0 0 0 0 0 0 0 0 0 0 0 0 0 0 0 0 0 0 0 0 0 0 0 0 0 0 0 0 0 0 0 0 0 0 0 0 0 0 0 0 0 0 0 0 0 0 0 0 0 0 0 0 0 0 0zm4 -3l0 3 0 0 0 0 0 0 0 0 0 0 0 0 0 0 0 0 0 0 0 0 0 0 0 0 0 0 0 0 0 0 0 0 0 0 0 0 0 0 0 0 0 0 0 0 0 0 0 0 0 0 0 0 0 0 0 0 0 0 0 0 0 0 0 0 0 0 0 -3 0 0 0 0 0 0 0 0 0 0 0 0 0 0 0 0 0 0 0 0 0 0 0 0 0 0 0 0 0 0 0 0 0 0 0 0 0 0 0 0 0 0 0 0 0 0 0 0 0 0 0 0 0 0 0 0 0 0 0 0 0 0 0 0 0 0zm4 -1l0 3 0 0 0 0 0 0 0 0 0 0 0 0 0 0 0 0 0 0 0 0 0 0 0 0 0 0 0 0 0 0 0 0 0 0 0 0 0 0 0 0 0 0 0 0 0 0 0 0 0 0 0 0 0 0 0 0 0 0 0 0 0 0 0 0 0 0 0 -3 0 0 0 0 0 0 0 0 0 0 0 0 0 0 0 0 0 0 0 0 0 0 0 0 0 0 0 0 0 0 0 0 0 0 0 0 0 0 0 0 0 0 0 0 0 0 0 0 0 0 0 0 0 0 0 0 0 0 0 0 0 0 0 0 0 0zm0 0c0,0 0,1 0,1 0,1 0,1 0,1l0 -3zm1 6l0 -3 0 0 0 0 0 0 0 0 0 0 0 0 0 0 0 0 0 0 0 0 0 0 0 0 0 0 0 1 0 0 0 0 0 0 0 0 0 0 0 0 0 0 0 0 0 0 0 0 0 0 0 0 0 0 0 0 0 0 0 0 0 0 0 0 0 0 0 -3 0 0 0 0 0 0 0 0 0 0 0 0 0 0 0 0 0 0 0 0 0 0 0 0 0 0 0 0 0 0 0 0 0 0 0 0 0 1 0 1 0 1 0 0 0 0 0 0 0 0 0 0 0 0 0 0 0 0 0 0 0 0 0 0 0 0zm-7 7l0 -3 0 0 0 0 0 0 0 0 0 0 0 0 0 0 0 0 0 0 0 0 0 0 0 0 0 0 0 0 0 0 0 0 0 0 0 0 0 0 0 0 0 0 0 0 0 0 0 0 0 0 0 0 0 0 0 0 0 0 0 0 0 0 0 0 0 0 0 3 0 0 0 0 0 0 0 0 0 0 0 0 0 0 0 0 0 0 0 0 0 0 0 0 0 0 0 0 0 0 0 0 0 0 0 0 0 0 0 0 0 0 0 0 0 0 0 0 0 0 0 0 0 0 0 0 0 0 0 0 0 0 0 0 0 0zm0 0c0,0 0,0 0,-1 0,-1 0,-1 0,-1l0 3zm-8 7l0 -3 0 0 0 0 0 0 0 0 0 0 0 0 0 0 0 0 0 0 0 0 0 0 0 0 0 0 0 0 0 0 0 0 0 0 0 0 0 0 0 0 0 0 0 0 0 0 0 0 0 0 0 0 0 0 0 0 0 0 0 0 0 0 0 0 0 0 0 3 0 0 0 0 0 0 0 0 0 0 0 0 0 0 0 0 0 0 0 0 0 0 0 0 0 0 0 0 0 0 0 0 0 0 0 0 0 0 0 0 0 0 0 0 0 0 0 0 0 0 0 0 0 0 0 0 0 0 0 0 0 0 0 0 0 0zm-6 6l0 -3 0 0 0 0 0 0 0 0 0 0 0 0 0 0 0 0 0 0 0 0 0 0 0 0 0 0 0 0 0 0 0 0 0 0 0 0 0 0 0 0 0 0 0 0 0 0 0 0 0 0 0 0 0 0 0 0 0 0 0 0 0 0 0 0 0 0 0 3 0 0 0 0 0 0 0 0 0 0 0 0 0 0 0 0 0 0 0 0 0 0 0 0 0 0 0 0 0 0 0 0 0 0 0 0 0 0 0 0 0 0 0 0 0 0 0 0 0 0 0 0 0 0 0 0 0 0 0 0 0 0 0 0 0 0zm0 0c0,0 0,0 0,-1 0,-1 0,-1 0,-2l0 3zm-2 2l0 -2 0 0 0 0 0 0 0 0 0 0 0 0 0 0 0 0 0 0 0 0 0 0 0 0 0 0 0 0 0 0 0 0 0 0 0 0 0 0 0 0 0 0 0 0 0 0 0 0 0 0 0 0 0 0 0 0 0 0 0 0 0 0 0 0 0 0 0 3 0 0 0 0 0 0 0 0 0 0 0 0 0 0 0 0 0 0 0 0 0 0 0 0 0 0 0 0 0 0 0 0 0 0 0 0 0 0 0 0 0 0 0 0 0 0 0 0 0 0 0 0 0 0 0 0 0 0 0 0 0 0 0 0 0 0zm-1 1l0 -3 0 0 0 0 0 0 0 0 0 0 0 0 0 0 0 0 0 0 0 0 0 0 0 0 0 0 0 0 0 0 0 0 0 0 0 0 0 0 0 0 0 0 0 0 0 0 0 0 0 0 0 0 0 0 0 0 0 0 0 0 0 0 0 0 0 0 0 2 0 0 0 0 0 0 0 0 0 0 0 0 0 0 0 0 0 0 0 0 0 0 0 0 0 0 0 0 0 0 0 0 0 0 0 0 0 0 0 0 0 0 0 0 0 0 0 0 0 0 0 0 0 0 0 0 0 0 0 0 0 0 0 0 0 0zm0 0c0,0 0,-1 0,-1 0,-1 0,-1 0,-1l0 3zm0 -5l0 2 0 0 0 0 0 0 0 0 0 0 0 0 0 0 0 0 0 0 0 0 0 0 0 0 0 0 0 0 0 0 0 0 0 0 0 0 0 0 0 0 0 0 0 0 0 0 0 0 0 0 0 0 0 0 0 0 0 0 0 0 0 0 0 0 0 0 0 3 0 0 0 0 0 0 0 0 0 0 0 0 0 0 0 0 0 0 0 0 0 0 0 0 0 0 0 0 0 0 0 0 0 0 0 0 0 0 0 0 0 0 0 0 0 0 0 0 0 0 0 0 0 0 0 0 0 0 0 0 0 0 0 0 0 0zm1 -4l0 2 0 0 0 0 0 0 0 0 0 0 0 0 0 0 0 0 0 0 0 0 0 0 0 0 0 0 0 0 0 0 0 0 0 0 0 0 0 0 0 0 0 0 0 0 0 0 0 0 0 0 0 0 0 0 0 0 0 0 0 0 0 0 0 0 0 0 0 -2 0 0 0 0 0 0 0 0 0 0 0 0 0 0 0 0 0 0 0 0 0 0 0 0 0 0 0 0 0 0 0 0 0 0 0 0 0 0 0 0 0 0 0 0 0 0 0 0 0 0 0 0 0 0 0 0 0 0 0 0 0 0 0 0 0 0zm3 -5l0 2 0 0 0 0 0 0 0 0 0 0 0 0 0 0 0 0 0 0 0 0 0 0 0 0 0 0 0 0 0 0 0 0 0 0 0 0 0 0 0 0 0 0 0 0 0 0 0 0 0 0 0 0 0 0 0 0 0 0 0 0 0 0 0 0 0 0 0 -2 0 0 0 0 0 0 0 0 0 0 0 0 0 0 0 0 0 0 0 0 0 0 0 0 0 0 0 0 0 0 0 0 0 0 0 0 0 0 0 0 0 0 0 0 0 0 0 0 0 0 0 0 0 0 0 0 0 0 0 0 0 0 0 0 0 0zm3 -1l0 -3 0 3 0 0 0 0 0 0 0 0 0 0 0 0 0 0 0 0 0 0 0 0 0 0 0 0 0 0 0 0 0 0 0 0 0 0 0 0 0 0 0 0 0 0 0 0 0 0 0 0 0 0 0 0 0 0 0 0 0 0 0 0 0 0 0 0 0 -2 0 0 0 0 0 0 0 0 0 0 0 0 0 0 0 0 0 0 0 0 0 0 0 0 0 0 0 0 0 0 0 0 0 0 0 0 0 0 0 0 0 0 0 0 0 0 0 0 0 0 0 0 0 0 0 0 0 0 0 0 0 0 0 0 0 3zm0 -3c0,0 0,0 0,1 0,1 0,1 0,2l0 -3zm-11 4l0 -3 0 0 0 0 0 0 0 0 0 0 0 0 0 0 0 0 0 0 0 0 0 0 0 0 0 0 0 0 0 0 0 0 0 0 0 0 0 0 0 0 0 0 0 0 0 0 0 0 0 0 0 0 0 0 0 0 0 0 0 0 0 0 0 0 0 0 0 3 0 0 0 0 0 0 0 0 0 0 0 0 0 0 0 0 0 0 0 0 0 0 0 0 0 0 0 0 0 0 0 0 0 0 0 0 0 0 0 0 0 0 0 0 0 0 0 0 0 0 0 0 0 0 0 0 0 0 0 0 0 0 0 0 0 0zm-14 0l0 -2 0 0 0 0 0 0 0 0 0 0 0 0 0 0 0 0 0 0 0 0 0 0 0 0 0 0 0 0 0 0 0 0 0 0 0 0 0 0 0 0 0 0 0 0 0 0 0 0 0 0 0 0 0 0 0 0 0 0 0 0 0 0 0 0 0 0 0 3 0 0 0 0 0 0 0 0 0 0 0 0 0 0 0 0 0 0 0 0 0 0 0 0 0 0 0 0 0 0 0 0 0 0 0 0 0 0 0 0 0 0 0 0 0 0 0 0 0 0 0 0 0 0 0 0 0 0 0 0 0 0 0 0 0 0zm0 0c0,0 0,-1 0,-1 0,-1 0,-1 0,-1l0 3zm-3 4l0 -3 0 0 0 0 0 0 0 0 0 0 0 0 0 0 0 0 0 0 0 0 0 0 0 0 0 0 0 0 0 0 0 0 0 0 0 0 0 0 0 0 0 0 0 0 0 0 0 0 0 0 0 0 0 0 0 0 0 0 0 0 0 0 0 0 0 0 0 2 0 0 0 0 0 0 0 0 0 0 0 0 0 0 0 0 0 0 0 0 0 0 0 0 0 0 0 0 0 0 0 0 0 0 0 0 0 0 0 0 0 0 0 0 0 0 0 0 0 0 0 0 0 0 0 0 0 0 0 0 0 0 0 0 0 0zm-3 4l0 -3 0 0 0 0 0 0 0 0 0 0 0 0 0 0 0 0 0 0 0 0 0 0 0 0 0 0 0 0 0 0 0 0 0 0 0 0 0 0 0 0 0 0 0 0 0 0 0 0 0 0 0 0 0 0 0 0 0 0 0 0 0 0 0 0 0 0 0 3 0 0 0 0 0 0 0 0 0 0 0 0 0 0 0 0 0 0 0 0 0 0 0 0 0 0 0 0 0 0 0 0 0 0 0 0 0 0 0 0 0 0 0 0 0 0 0 0 0 0 0 0 0 0 0 0 0 0 0 0 0 0 0 0 0 0zm0 0c0,0 0,0 0,-1 0,-1 0,-1 0,-2l0 3zm-40 32l0 -3 0 0 1 -1 1 -1 1 -1 1 -1 1 -1 1 -1 1 -1 1 -1 1 -1 1 -1 1 -1 1 -1 1 -1 1 -1 1 -1 1 -1 1 -1 1 -1 1 -1 1 -1 1 -1 1 -1 1 -1 1 -1 1 -1 1 -1 1 -1 1 -1 1 -1 1 -1 1 -1 1 -1 0 3 -1 1 -1 1 -1 1 -1 1 -1 1 -1 1 -1 1 -1 1 -1 1 -1 1 -1 1 -1 1 -1 1 -1 1 -1 1 -1 1 -1 1 -1 1 -1 1 -1 1 -1 1 -1 1 -1 1 -1 1 -1 1 -1 1 -1 1 -1 1 -1 1 -1 1 -1 1 -1 1 0 0zm-47 12l0 -3 0 0 2 0 2 0 2 0 2 0 2 0 2 0 2 0 2 0 2 0 2 0 1 0 1 0 1 0 1 0 1 0 1 0 1 0 1 0 1 0 1 0 1 0 1 -1 1 -1 1 -1 1 -1 1 -1 1 -1 1 -1 1 -1 1 -1 1 -1 1 -1 0 3 -1 1 -1 1 -1 1 -1 1 -1 1 -1 1 -1 1 -1 1 -1 1 -1 1 -1 1 -1 0 -1 0 -1 0 -1 0 -1 0 -1 0 -1 0 -1 0 -1 0 -1 0 -1 0 -2 0 -2 0 -2 0 -2 0 -2 0 -2 0 -2 0 -2 0 -2 0 -2 0 0 0zm-12 -1l0 -3 0 0 0 0 0 0 0 0 0 0 0 0 0 0 0 0 0 0 0 0 0 0 0 0 0 0 0 0 0 0 0 0 0 0 0 0 0 0 0 0 0 0 0 0 0 0 0 0 0 0 0 0 0 0 0 0 0 0 0 0 0 0 0 0 0 0 0 3 0 0 0 0 0 0 0 0 0 0 0 0 0 0 0 0 0 0 0 0 0 0 0 0 0 0 0 0 0 0 0 0 0 0 0 0 0 0 0 0 0 0 0 0 0 0 0 0 0 0 0 0 0 0 0 0 0 0 0 0 0 0 0 0 0 0zm0 0c0,0 0,-1 0,-1 0,-1 0,-1 0,-1l0 3zm-11 -4l0 -3 0 0 0 0 0 0 0 0 0 0 0 0 0 0 0 0 0 0 0 0 0 0 0 0 0 0 0 0 0 0 0 0 0 0 0 0 0 0 0 0 0 0 0 0 0 0 0 0 0 0 0 0 0 0 0 0 0 0 0 0 0 0 0 0 0 0 0 3 0 0 0 0 0 0 0 0 0 0 0 0 0 0 0 0 0 0 0 0 0 0 0 0 0 0 0 0 0 0 0 0 0 0 0 0 0 0 0 0 0 0 0 0 0 0 0 0 0 0 0 0 0 0 0 0 0 0 0 0 0 0 0 0 0 0zm0 0c0,0 0,-1 0,-1 0,-1 0,-1 0,-1l0 3zm-8 -6l0 -3 0 0 0 0 0 0 0 0 0 0 0 0 0 0 0 0 0 0 0 0 0 0 0 0 0 0 0 0 0 0 0 0 0 0 0 0 0 0 0 0 0 0 0 0 0 0 0 0 0 0 0 0 0 0 0 0 0 0 0 0 0 0 0 0 0 0 0 3 0 0 0 0 0 0 0 0 0 0 0 0 0 0 0 0 0 0 0 0 0 0 0 0 0 0 0 0 0 0 0 0 0 0 0 0 0 0 0 0 0 0 0 0 0 0 0 0 0 0 0 0 0 0 0 0 0 0 0 0 0 0 0 0 0 0zm-4 -11l0 -1 0 0 0 0 0 0 0 0 0 0 0 0 0 0 0 0 0 0 0 0 0 0 0 0 0 0 0 0 0 0 0 0 0 0 0 0 0 0 0 0 0 0 0 0 0 0 0 0 0 0 0 0 0 0 0 0 0 0 0 0 0 0 0 0 0 0 0 3 0 0 0 0 0 0 0 0 0 0 0 0 0 0 0 0 0 0 0 0 0 0 0 0 0 0 0 0 0 0 0 0 0 0 0 0 0 0 0 0 0 0 0 0 0 0 0 0 0 0 0 0 0 0 0 0 0 0 0 0 0 0 0 0 0 0zm0 0c0,-1 0,-1 0,-2 0,0 0,0 0,1l0 1zm4 -12l0 3 0 0 0 0 0 0 0 0 0 0 0 0 0 0 0 0 0 0 0 0 0 0 0 0 0 0 0 0 0 0 0 0 0 0 0 0 0 0 0 0 0 0 0 0 0 0 0 0 0 0 0 0 0 0 0 0 0 0 0 0 0 0 0 0 0 0 0 1 0 0 0 0 0 -1 0 0 0 0 0 0 0 0 0 0 0 0 0 0 0 0 0 0 0 0 0 0 0 0 0 0 0 0 0 0 0 0 0 0 0 0 0 0 0 0 0 0 0 0 0 0 0 0 0 0 0 0 0 0 0 0 0 0 0 0zm11 -5l0 3 0 0 0 0 0 0 0 0 0 0 0 0 0 0 0 0 0 0 0 0 0 0 0 0 0 0 0 0 0 0 0 0 0 0 0 0 0 0 0 0 0 0 0 0 0 0 0 0 0 0 0 0 0 0 0 0 0 0 0 0 0 0 0 0 0 0 0 -3 0 0 0 0 0 0 0 0 0 0 0 0 0 0 0 0 0 0 0 0 0 0 0 0 0 0 0 0 0 0 0 0 0 0 0 0 0 0 0 0 0 0 0 0 0 0 0 0 0 0 0 0 0 0 0 0 0 0 0 0 0 0 0 0 0 0zm7 3l0 3 0 0 0 0 0 0 0 0 0 0 0 0 0 0 0 0 0 0 0 0 0 0 0 0 0 0 0 0 0 0 0 0 0 0 0 0 0 0 0 0 0 0 0 0 0 0 0 0 0 0 0 0 0 0 0 0 0 0 0 0 0 0 0 0 0 0 0 -3 0 0 0 0 0 0 0 0 0 0 0 0 0 0 0 0 0 0 0 0 0 0 0 0 0 0 0 0 0 0 0 0 0 0 0 0 0 0 0 0 0 0 0 0 0 0 0 0 0 0 0 0 0 0 0 0 0 0 0 0 0 0 0 0 0 0zm2 9l0 -2 0 0 0 0 0 0 0 0 0 0 0 0 0 0 0 0 0 0 0 0 0 0 0 0 0 0 0 0 0 0 0 0 0 0 0 0 0 0 0 0 0 0 0 0 0 0 0 0 0 0 0 0 0 0 0 0 0 0 0 0 0 0 0 0 0 0 0 -3 0 0 0 0 0 0 0 0 0 0 0 0 0 0 0 0 0 0 0 0 0 0 0 0 0 0 0 0 0 0 0 0 0 0 0 0 0 0 0 0 0 0 0 0 0 0 0 0 0 0 0 0 0 0 0 0 0 0 0 0 0 0 0 0 0 0zm0 0c0,1 0,1 0,0 0,0 0,-1 0,-2l0 2zm-2 5l0 -2 0 0 0 0 0 0 0 0 0 0 0 0 0 0 0 0 0 0 0 0 0 0 0 0 0 0 0 0 0 0 0 0 0 0 0 0 0 0 0 0 0 0 0 0 0 0 0 0 0 0 0 0 0 0 0 0 0 0 0 0 0 0 0 0 0 0 0 2 0 0 0 0 0 0 0 0 0 0 0 0 0 0 0 0 0 0 0 0 0 0 0 0 0 0 0 0 0 0 0 0 0 0 0 0 0 0 0 0 0 0 0 0 0 0 0 0 0 0 0 0 0 0 0 0 0 0 0 0 0 0 0 0 0 0zm-3 3l0 -3 0 0 0 0 0 0 0 0 0 0 0 0 0 0 0 0 0 0 0 0 0 0 0 0 0 0 0 0 0 0 0 0 0 0 0 0 0 0 0 0 0 0 0 0 0 0 0 0 0 0 0 0 0 0 0 0 0 0 0 0 0 0 0 0 0 0 0 2 0 0 0 0 0 0 0 0 0 0 0 0 0 0 0 0 0 0 0 0 0 0 0 0 0 0 0 0 0 0 0 0 0 0 0 0 0 0 0 0 0 0 0 0 0 0 0 0 0 0 0 0 0 0 0 0 0 0 0 0 0 0 0 0 0 0zm-4 5l0 0 0 0 0 0 0 0 0 0 0 0 0 0 0 0 0 0 0 0 0 0 0 0 0 0 0 0 0 0 0 0 0 0 0 0 0 0 0 0 0 0 0 0 0 0 0 0 0 0 0 0 0 0 0 0 0 0 0 0 0 0 0 0 0 0 0 0 0 3 0 0 0 0 0 0 0 0 0 0 0 0 0 0 0 0 0 0 0 0 0 0 0 0 0 0 0 0 0 0 0 0 0 0 0 0 0 0 0 0 0 0 0 0 0 0 0 0 0 0 0 0 0 0 0 0 0 0 0 0 0 0 0 0 0 0zm2 3l0 3 0 0 0 0 0 0 0 0 0 0 0 0 0 0 0 0 0 0 0 0 0 0 0 0 0 0 0 0 0 0 0 0 0 0 0 0 0 0 0 0 0 0 0 0 0 0 0 0 0 0 0 0 0 0 0 0 0 0 0 0 0 0 0 0 0 0 0 0 0 0 0 0 0 0 0 0 0 0 0 0 0 0 0 0 0 0 0 0 0 0 0 0 0 0 0 0 0 0 0 0 0 0 0 0 0 0 0 0 0 0 0 0 0 0 0 0 0 0 0 0 0 0 0 0 0 0 0 0 0 0 0 0 0 0zm5 3l0 3 0 0 0 0 0 0 0 0 0 0 0 0 0 0 0 0 0 0 0 0 0 0 0 0 0 0 0 0 0 0 0 0 0 0 0 0 0 0 0 0 0 0 0 0 0 0 0 0 0 0 0 0 0 0 0 0 0 0 0 0 0 0 0 0 0 0 0 -3 0 0 0 0 0 0 0 0 0 0 0 0 0 0 0 0 0 0 0 0 0 0 0 0 0 0 0 0 0 0 0 0 0 0 0 0 0 0 0 0 0 0 0 0 0 0 0 0 0 0 0 0 0 0 0 0 0 0 0 0 0 0 0 0 0 0zm6 2l0 3 0 0 0 0 0 0 0 0 0 0 0 0 0 0 0 0 0 0 0 0 0 0 0 0 0 0 0 0 0 0 0 0 0 0 0 0 0 0 0 0 0 0 0 0 0 0 0 0 0 0 0 0 0 0 0 0 0 0 0 0 0 0 0 0 0 0 0 -3 0 0 0 0 0 0 0 0 0 0 0 0 0 0 0 0 0 0 0 0 0 0 0 0 0 0 0 0 0 0 0 0 0 0 0 0 0 0 0 0 0 0 0 0 0 0 0 0 0 0 0 0 0 0 0 0 0 0 0 0 0 0 0 0 0 0zm7 1l0 3 0 0 0 0 0 0 0 0 0 0 0 0 0 0 0 0 0 0 0 0 0 0 0 0 0 0 0 0 0 0 0 0 0 0 0 0 0 0 0 0 0 0 0 0 0 0 0 0 0 0 0 0 0 0 0 0 0 0 0 0 0 0 0 0 0 0 0 -3 0 0 0 0 0 0 0 0 0 0 0 0 0 0 0 0 0 0 0 0 0 0 0 0 0 0 0 0 0 0 0 0 0 0 0 0 0 0 0 0 0 0 0 0 0 0 0 0 0 0 0 0 0 0 0 0 0 0 0 0 0 0 0 0 0 0zm31 -8l0 3 0 0 -1 0 -1 0 -1 0 -1 0 -1 0 -1 0 -1 0 -1 0 -1 0 -1 0 -1 0 -1 0 -1 0 -1 0 -1 0 -1 0 -1 0 -1 0 -1 0 -1 0 -1 0 -1 0 -1 0 -1 0 -1 0 -1 0 -1 0 -1 0 -1 0 -1 0 -1 0 -1 0 0 -3 1 0 1 0 1 0 1 0 1 0 1 0 1 0 1 0 1 0 1 0 1 0 1 0 1 0 1 0 1 0 1 0 1 0 1 0 1 0 1 0 1 0 1 0 1 0 1 0 1 0 1 0 1 0 1 0 1 0 1 0 1 0 1 0 0 0zm27 -20l0 3 0 0 -1 1 -1 1 -1 1 -1 1 -1 1 -1 1 -1 1 -1 1 -1 1 -1 1 -1 1 -1 1 -1 1 -1 1 -1 1 -1 1 -1 1 -1 1 -1 1 -1 1 -1 1 -1 1 -1 1 -1 1 -1 1 -1 1 -1 1 -1 1 -1 1 -1 1 -1 0 -1 0 0 -3 1 0 1 0 1 -1 1 -1 1 -1 1 -1 1 -1 1 -1 1 -1 1 -1 1 -1 1 -1 1 -1 1 -1 1 -1 1 -1 1 -1 1 -1 1 -1 1 -1 1 -1 1 -1 1 -1 1 -1 1 -1 1 -1 1 -1 1 -1 1 -1 1 -1 1 -1 1 -1 0 0zm0 0c0,0 0,0 0,1 0,1 0,1 0,2l0 -3zm10 -11l0 3 0 0 0 0 0 0 0 0 0 0 0 0 0 0 0 0 0 0 0 0 0 0 0 0 0 0 0 0 0 0 0 0 0 0 0 0 0 0 0 0 0 0 0 0 0 0 0 0 0 0 0 0 0 0 0 0 0 0 0 0 0 0 0 0 0 0 0 -3 0 0 0 0 0 0 0 0 0 0 0 0 0 0 0 0 0 0 0 0 0 0 0 0 0 0 0 0 0 0 0 0 0 0 0 0 0 0 0 0 0 0 0 0 0 0 0 0 0 0 0 0 0 0 0 0 0 0 0 0 0 0 0 0 0 0zm0 0c0,0 0,0 0,1 0,1 0,1 0,2l0 -3zm8 -8l0 -3 0 3 0 0 0 0 0 0 0 0 0 0 0 0 0 0 0 0 0 0 0 0 0 0 0 0 0 0 0 0 0 0 0 0 0 0 0 0 0 0 0 0 0 0 0 0 0 0 0 0 0 0 0 0 0 0 0 0 0 0 0 0 0 0 0 0 0 -3 0 0 0 0 0 0 0 0 0 0 0 0 0 0 0 0 0 0 0 0 0 0 0 0 0 0 0 0 0 0 0 0 0 0 0 0 0 0 0 0 0 0 0 0 0 0 0 0 0 0 0 0 0 0 0 0 0 0 0 0 0 0 0 0 0 3zm0 -3c0,0 0,0 0,1 0,1 0,1 0,2l0 -3zm-9 3l0 -3 0 0 0 0 0 0 0 0 0 0 0 0 0 0 0 0 0 0 0 0 0 0 0 0 0 0 0 0 0 0 0 0 0 0 0 0 0 0 0 0 0 0 0 0 0 0 0 0 0 0 0 0 0 0 0 0 0 0 0 0 0 0 0 0 0 0 0 3 0 0 0 0 0 0 0 0 0 0 0 0 0 0 0 0 0 0 0 0 0 0 0 0 0 0 0 0 0 0 0 0 0 0 0 0 0 0 0 0 0 0 0 0 0 0 0 0 0 0 0 0 0 0 0 0 0 0 0 0 0 0 0 0 0 0zm-7 0l0 -3 0 0 0 0 0 0 0 0 0 0 0 0 0 0 0 0 0 0 0 0 0 0 0 0 0 0 0 0 0 0 0 0 0 0 0 0 0 0 0 0 0 0 0 0 0 0 0 0 0 0 0 0 0 0 0 0 0 0 0 0 0 0 0 0 0 0 0 3 0 0 0 0 0 0 0 0 0 0 0 0 0 0 0 0 0 0 0 0 0 0 0 0 0 0 0 0 0 0 0 0 0 0 0 0 0 0 0 0 0 0 0 0 0 0 0 0 0 0 0 0 0 0 0 0 0 0 0 0 0 0 0 0 0 0zm0 0c0,0 0,-1 0,-1 0,-1 0,-1 0,-1l0 3zm-6 1l0 -3 0 0 0 0 0 0 0 0 0 0 0 0 0 0 0 0 0 0 0 0 0 0 0 0 0 0 0 0 0 0 0 0 0 0 0 0 0 0 0 0 0 0 0 0 0 0 0 0 0 0 0 0 0 0 0 0 0 0 0 0 0 0 0 0 0 0 0 3 0 0 0 0 0 0 0 0 0 0 0 0 0 0 0 0 0 0 0 0 0 0 0 0 0 0 0 0 0 0 0 0 0 0 0 0 0 0 0 0 0 0 0 0 0 0 0 0 0 0 0 0 0 0 0 0 0 0 0 0 0 0 0 0 0 0zm-2 -3l0 2 0 -1 0 0 0 0 0 0 0 0 0 0 0 0 0 0 0 0 0 0 0 0 0 0 0 0 0 0 0 0 0 0 0 0 0 0 0 0 0 0 0 0 0 0 0 0 0 0 0 0 0 0 0 0 0 0 0 0 0 0 0 0 0 0 0 0 0 3 0 0 0 0 0 0 0 0 0 0 0 0 0 0 0 0 0 0 0 0 0 0 0 0 0 0 0 0 0 0 0 0 0 0 0 0 0 0 0 0 0 0 0 0 0 0 0 0 0 0 0 0 0 0 0 0 0 0 0 0 0 0 0 0 0 -1zm0 1c0,-1 0,-1 0,-1 0,0 0,1 0,1l0 0zm3 -3l0 3 0 0 0 0 0 0 0 0 0 0 0 0 0 0 0 0 0 0 0 0 0 0 0 0 0 0 0 0 0 0 0 0 0 0 0 0 0 0 0 0 0 0 0 0 0 0 0 0 0 0 0 0 0 0 0 0 0 0 0 0 0 0 0 0 0 0 0 -2 0 0 0 0 0 0 0 0 0 0 0 0 0 0 0 0 0 0 0 0 0 0 0 0 0 0 0 0 0 0 0 0 0 0 0 0 0 0 0 0 0 0 0 0 0 0 0 0 0 0 0 0 0 0 0 0 0 0 0 0 0 0 0 0 0 0zm7 -1l0 3 0 0 0 0 0 0 0 0 0 0 0 0 0 0 0 0 0 0 0 0 0 0 0 0 0 0 0 0 0 0 0 0 0 0 0 0 0 0 0 0 0 0 0 0 0 0 0 0 0 0 0 0 0 0 0 0 0 0 0 0 0 0 0 0 0 0 0 -3 0 0 0 0 0 0 0 0 0 0 0 0 0 0 0 0 0 0 0 0 0 0 0 0 0 0 0 0 0 0 0 0 0 0 0 0 0 0 0 0 0 0 0 0 0 0 0 0 0 0 0 0 0 0 0 0 0 0 0 0 0 0 0 0 0 0zm0 0c0,0 0,1 0,1 0,1 0,1 0,1l0 -3zm7 0l0 3 0 0 0 0 0 0 0 0 0 0 0 0 0 0 0 0 0 0 0 0 0 0 0 0 0 0 0 0 0 0 0 0 0 0 0 0 0 0 0 0 0 0 0 0 0 0 0 0 0 0 0 0 0 0 0 0 0 0 0 0 0 0 0 0 0 0 0 -3 0 0 0 0 0 0 0 0 0 0 0 0 0 0 0 0 0 0 0 0 0 0 0 0 0 0 0 0 0 0 0 0 0 0 0 0 0 0 0 0 0 0 0 0 0 0 0 0 0 0 0 0 0 0 0 0 0 0 0 0 0 0 0 0 0 0zm8 0l0 3 0 0 0 0 0 0 0 0 0 0 0 0 0 0 0 0 0 0 0 0 0 0 0 0 0 0 0 0 0 0 0 0 0 0 0 0 0 0 0 0 0 0 0 0 0 0 0 0 0 0 0 0 0 0 0 0 0 0 0 0 0 0 0 0 0 0 0 -3 0 0 0 0 0 0 0 0 0 0 0 0 0 0 0 0 0 0 0 0 0 0 0 0 0 0 0 0 0 0 0 0 0 0 0 0 0 0 0 0 0 0 0 0 0 0 0 0 0 0 0 0 0 0 0 0 0 0 0 0 0 0 0 0 0 0zm0 0c0,0 0,1 0,1 0,1 0,1 0,1l0 -3zm6 -8l0 3 0 0 0 0 0 0 0 0 0 0 0 0 0 0 0 0 0 0 0 0 0 0 0 0 0 0 0 0 0 0 0 0 0 0 0 0 0 0 0 0 0 0 0 0 0 0 0 0 0 0 0 0 0 0 0 0 0 0 0 0 0 0 0 0 0 0 0 -3 0 0 0 0 0 0 0 0 0 0 0 0 0 0 0 0 0 0 0 0 0 0 0 0 0 0 0 0 0 0 0 0 0 0 0 0 0 0 0 0 0 0 0 0 0 0 0 0 0 0 0 0 0 0 0 0 0 0 0 0 0 0 0 0 0 0zm8 -10l0 3 0 0 0 0 0 0 0 0 0 0 0 0 0 0 0 0 0 0 0 0 0 0 0 0 0 0 0 0 0 0 0 0 0 0 0 0 0 0 0 0 0 0 0 0 0 0 0 0 0 0 0 0 0 0 0 0 0 0 0 0 0 0 0 0 0 0 0 -3 0 0 0 0 0 0 0 0 0 0 0 0 0 0 0 0 0 0 0 0 0 0 0 0 0 0 0 0 0 0 0 0 0 0 0 0 0 0 0 0 0 0 0 0 0 0 0 0 0 0 0 0 0 0 0 0 0 0 0 0 0 0 0 0 0 0zm0 0c0,0 0,0 0,1 0,1 0,1 0,2l0 -3zm11 -11l0 3 0 0 0 0 0 0 0 0 0 0 0 0 0 0 0 0 0 0 0 0 0 0 0 0 0 0 0 0 0 0 0 0 0 0 0 0 0 0 0 0 0 0 0 0 0 0 0 0 0 0 0 0 0 0 0 0 0 0 0 0 0 0 0 0 0 0 0 -3 0 0 0 0 0 0 0 0 0 0 0 0 0 0 0 0 0 0 0 0 0 0 0 0 0 0 0 0 0 0 0 0 0 0 0 0 0 0 0 0 0 0 0 0 0 0 0 0 0 0 0 0 0 0 0 0 0 0 0 0 0 0 0 0 0 0zm12 -10l0 3 0 0 0 0 0 0 0 0 0 0 0 0 0 0 0 0 0 0 0 0 0 0 0 0 0 0 0 0 0 0 0 0 0 0 0 0 0 0 0 0 0 0 0 0 0 0 0 0 0 0 0 0 0 0 0 0 0 0 0 0 0 0 0 0 0 0 0 -3 0 0 0 0 0 0 0 0 0 0 0 0 0 0 0 0 0 0 0 0 0 0 0 0 0 0 0 0 0 0 0 0 0 0 0 0 0 0 0 0 0 0 0 0 0 0 0 0 0 0 0 0 0 0 0 0 0 0 0 0 0 0 0 0 0 0zm11 -9l0 3 0 0 0 0 0 0 0 0 0 0 0 0 0 0 0 0 0 0 0 0 0 0 0 0 0 0 0 0 0 0 0 0 0 0 0 0 0 0 0 0 0 0 0 0 0 0 0 0 0 0 0 0 0 0 0 0 0 0 0 0 0 0 0 0 0 0 0 -3 0 0 0 0 0 0 0 0 0 0 0 0 0 0 0 0 0 0 0 0 0 0 0 0 0 0 0 0 0 0 0 0 0 0 0 0 0 0 0 0 0 0 0 0 0 0 0 0 0 0 0 0 0 0 0 0 0 0 0 0 0 0 0 0 0 0zm8 -3l0 -3 0 3 0 0 0 0 0 0 0 0 0 0 0 0 0 0 0 0 0 0 0 0 0 0 0 0 0 0 0 0 0 0 0 0 0 0 0 0 0 0 0 0 0 0 0 0 0 0 0 0 0 0 0 0 0 0 0 0 0 0 0 0 0 0 0 0 0 -3 0 0 0 0 0 0 0 0 0 0 0 0 0 0 0 0 0 0 0 0 0 0 0 0 0 0 0 0 0 0 0 0 0 0 0 0 0 0 0 0 0 0 0 0 0 0 0 0 0 0 0 0 0 0 0 0 0 0 0 0 0 0 0 0 0 3zm0 -3c0,0 0,0 0,1 0,1 0,1 0,1l0 -3zm-11 0l0 -3 0 0 0 0 0 0 0 0 0 0 0 0 0 0 0 0 0 0 0 0 0 0 0 0 0 0 0 0 0 0 0 0 0 0 0 0 0 0 0 0 0 0 0 0 0 0 0 0 0 0 0 0 0 0 0 0 0 0 0 0 0 0 0 0 0 0 0 3 0 0 0 0 0 0 0 0 0 0 0 0 0 0 0 0 0 0 0 0 0 0 0 0 0 0 0 0 0 0 0 0 0 0 0 0 0 0 0 0 0 0 0 0 0 0 0 0 0 0 0 0 0 0 0 0 0 0 0 0 0 0 0 0 0 0zm-14 -3l0 -3 0 0 0 0 0 0 0 0 0 0 0 0 0 0 0 0 0 0 0 0 0 0 0 0 0 0 0 0 0 0 0 0 0 0 0 0 0 0 0 0 0 0 0 0 0 0 0 0 0 0 0 0 0 0 0 0 0 0 0 0 0 0 0 0 0 0 0 3 0 0 0 0 0 0 0 0 0 0 0 0 0 0 0 0 0 0 0 0 0 0 0 0 0 0 0 0 0 0 0 0 0 0 0 0 0 0 0 0 0 0 0 0 0 0 0 0 0 0 0 0 0 0 0 0 0 0 0 0 0 0 0 0 0 0zm0 0c0,0 0,-1 0,-1 0,-1 0,-1 0,-1l0 3zm-10 -2l0 -3 0 0 0 0 0 0 0 0 0 0 0 0 0 0 0 0 0 0 0 0 0 0 0 0 0 0 0 0 0 0 0 0 0 0 0 0 0 0 0 0 0 0 0 0 0 0 0 0 0 0 0 0 0 0 0 0 0 0 0 0 0 0 0 0 0 0 0 3 0 0 0 0 0 0 0 0 0 0 0 0 0 0 0 0 0 0 0 0 0 0 0 0 0 0 0 0 0 0 0 0 0 0 0 0 0 0 0 0 0 0 0 0 0 0 0 0 0 0 0 0 0 0 0 0 0 0 0 0 0 0 0 0 0 0zm-13 -2l0 -3 0 0 0 0 0 0 0 0 0 0 0 0 0 0 0 0 0 0 0 0 0 0 0 0 0 0 0 0 0 0 0 0 0 0 0 0 0 0 0 0 0 0 0 0 0 0 0 0 0 0 0 0 0 0 0 0 0 0 0 0 0 0 0 0 0 0 0 3 0 0 0 0 0 0 0 0 0 0 0 0 0 0 0 0 0 0 0 0 0 0 0 0 0 0 0 0 0 0 0 0 0 0 0 0 0 0 0 0 0 0 0 0 0 0 0 0 0 0 0 0 0 0 0 0 0 0 0 0 0 0 0 0 0 0zm-14 -2l0 -3 0 0 0 0 0 0 0 0 0 0 0 0 0 0 0 0 0 0 0 0 0 0 0 0 0 0 0 0 0 0 0 0 0 0 0 0 0 0 0 0 0 0 0 0 0 0 0 0 0 0 0 0 0 0 0 0 0 0 0 0 0 0 0 0 0 0 0 3 0 0 0 0 0 0 0 0 0 0 0 0 0 0 0 0 0 0 0 0 0 0 0 0 0 0 0 0 0 0 0 0 0 0 0 0 0 0 0 0 0 0 0 0 0 0 0 0 0 0 0 0 0 0 0 0 0 0 0 0 0 0 0 0 0 0zm-13 -1l0 -3 0 0 0 0 0 0 0 0 0 0 0 0 0 0 0 0 0 0 0 0 0 0 0 0 0 0 0 0 0 0 0 0 0 0 0 0 0 0 0 0 0 0 0 0 0 0 0 0 0 0 0 0 0 0 0 0 0 0 0 0 0 0 0 0 0 0 0 3 0 0 0 0 0 0 0 0 0 0 0 0 0 0 0 0 0 0 0 0 0 0 0 0 0 0 0 0 0 0 0 0 0 0 0 0 0 0 0 0 0 0 0 0 0 0 0 0 0 0 0 0 0 0 0 0 0 0 0 0 0 0 0 0 0 0zm99 5l0 -3 0 0 0 0 0 0 0 0 0 0 0 0 0 0 0 0 0 0 0 0 0 0 0 0 0 0 0 0 0 0 0 0 0 0 0 0 0 0 0 0 0 0 0 0 0 0 0 0 0 0 0 0 0 0 0 0 0 0 0 0 0 0 0 0 0 0 0 3 0 0 0 0 0 0 0 0 0 0 0 0 0 0 0 0 0 0 0 0 0 0 0 0 0 0 0 0 0 0 0 0 0 0 0 0 0 0 0 0 0 0 0 0 0 0 0 0 0 0 0 0 0 0 0 0 0 0 0 0 0 0 0 0 0 0zm-12 2l0 3 0 -3 0 0 0 0 0 0 0 0 0 0 0 0 0 0 0 0 0 0 0 0 0 0 0 0 0 0 0 0 0 0 0 0 0 0 0 0 0 0 0 0 0 0 0 0 0 0 0 0 0 0 0 0 0 0 0 0 0 0 0 0 0 0 0 0 0 3 0 0 0 0 0 0 0 0 0 0 0 0 0 0 0 0 0 0 0 0 0 0 0 0 0 0 0 0 0 0 0 0 0 0 0 0 0 0 0 0 0 0 0 0 0 0 0 0 0 0 0 0 0 0 0 0 0 0 0 0 0 0 0 0 0 -3zm0 3c0,0 0,0 0,-1 0,-1 0,-1 0,-1l0 3zm16 1l0 3 0 0 0 0 0 0 0 0 0 0 0 0 0 0 0 0 0 0 0 0 0 0 0 0 0 0 0 0 0 0 0 0 0 0 0 0 0 0 0 0 0 0 0 0 0 0 -1 0 -1 0 -1 0 -1 0 -1 0 -1 0 -1 0 -1 0 -1 0 -1 0 0 -3 1 0 1 0 1 0 1 0 1 0 1 0 1 0 1 0 1 0 1 0 0 0 0 0 0 0 0 0 0 0 0 0 0 0 0 0 0 0 0 0 0 0 0 0 0 0 0 0 0 0 0 0 0 0 0 0 0 0 0 0 0 0 0 0 0 0zm12 1l0 3 0 0 0 0 0 0 0 0 0 0 0 0 0 0 0 0 0 0 0 0 0 0 0 0 0 0 0 0 0 0 0 0 0 0 0 0 0 0 0 0 0 0 0 0 0 0 0 0 0 0 0 0 0 0 0 0 0 0 0 0 0 0 0 0 0 0 0 -3 0 0 0 0 0 0 0 0 0 0 0 0 0 0 0 0 0 0 0 0 0 0 0 0 0 0 0 0 0 0 0 0 0 0 0 0 0 0 0 0 0 0 0 0 0 0 0 0 0 0 0 0 0 0 0 0 0 0 0 0 0 0 0 0 0 0zm9 -1l0 3 0 0 0 0 0 0 0 0 0 0 0 0 0 0 0 0 0 0 0 0 0 0 0 0 0 0 0 0 0 0 0 0 0 0 0 0 0 0 0 0 0 0 0 0 0 0 0 0 0 0 0 0 0 0 0 0 0 0 0 0 0 0 0 0 0 0 0 -3 0 0 0 0 0 0 0 0 0 0 0 0 0 0 0 0 0 0 0 0 0 0 0 0 0 0 0 0 0 0 0 0 0 0 0 0 0 0 0 0 0 0 0 0 0 0 0 0 0 0 0 0 0 0 0 0 0 0 0 0 0 0 0 0 0 0zm4 -3l0 1 0 0 0 0 0 0 0 0 0 0 0 0 0 0 0 0 0 0 0 0 0 0 0 0 0 0 0 0 0 0 0 0 0 0 0 0 0 0 0 0 0 0 0 0 0 0 0 0 0 0 0 0 0 0 0 0 0 0 0 0 0 0 0 0 0 0 0 -3 0 0 0 0 0 0 0 0 0 0 0 0 0 0 0 0 0 0 0 0 0 0 0 0 0 0 0 0 0 0 0 0 0 0 0 0 0 0 0 0 0 0 0 0 0 0 0 0 0 0 0 0 0 0 0 0 0 0 0 0 0 0 0 0 0 0zm-4 -2l0 -3 0 0 0 0 0 0 0 0 0 0 0 0 0 0 0 0 0 0 0 0 0 0 0 0 0 0 0 0 0 0 0 0 0 0 0 0 0 0 0 0 0 0 0 0 0 0 0 0 0 0 0 0 0 0 0 0 0 0 0 0 0 1 0 1 0 0 0 -1 0 0 0 0 0 0 0 0 0 0 0 0 0 0 0 0 0 0 0 0 0 0 0 0 0 0 0 0 0 0 0 0 0 0 0 0 0 0 0 0 0 0 0 0 0 0 0 0 0 0 0 0 0 0 0 0 0 0 0 0 0 0 0 0 0 0zm-11 -2l0 -3 0 0 0 0 0 0 0 0 0 0 0 0 0 0 0 0 0 0 0 0 0 0 0 0 0 0 0 0 0 0 0 0 0 0 0 0 0 0 0 0 0 0 0 0 0 0 0 0 0 0 0 0 0 0 0 0 0 0 0 0 0 0 0 0 0 0 0 3 0 0 0 0 0 0 0 0 0 0 0 0 0 0 0 0 0 0 0 0 0 0 0 0 0 0 0 0 0 0 0 0 0 0 0 0 0 0 0 0 0 0 0 0 0 0 0 0 0 0 0 0 0 0 0 0 0 0 0 0 0 0 0 0 0 0z"/>
   <path id="1" class="fil6" d="M172 123c-7,0 -13,1 -20,2 -6,1 -12,3 -17,6 -5,3 -9,6 -13,10 -3,4 -6,9 -7,14 -1,3 -1,6 -1,9 0,3 1,6 2,9 1,3 4,6 6,9 3,3 6,5 11,7 2,1 3,1 3,1 1,0 1,0 1,1 0,0 -1,1 -2,0 -1,0 -2,0 -4,-1 -9,-3 -15,-8 -19,-15 -4,-7 -5,-14 -4,-22 1,-5 3,-10 6,-15 3,-5 8,-9 13,-12 5,-3 12,-6 19,-8 7,-2 16,-3 25,-3 6,0 14,1 23,2 9,2 18,4 27,6 5,1 10,3 15,4 5,1 10,3 15,4 4,-2 9,-4 15,-6 6,-2 12,-2 17,-2 5,0 9,1 13,2 4,1 5,4 5,7 0,3 -2,5 -5,6 -3,1 -7,2 -12,2 -6,0 -12,0 -16,-1 -5,0 -10,-1 -16,-2 -2,1 -3,2 -5,4 -2,2 -4,4 -6,6 -2,2 -4,4 -6,7 -2,2 -4,4 -5,6 -4,6 -8,11 -12,15 -3,5 -7,9 -11,14 2,0 4,0 6,0 2,0 4,0 7,0 2,0 5,0 7,-1 2,0 4,-1 6,-1 1,-1 1,-2 2,-3 1,-1 2,-2 3,-3 1,-1 2,-2 4,-3 1,-1 3,-1 4,-1 2,1 3,2 1,3 -1,2 -4,4 -7,7 -3,3 -6,5 -8,7 -2,2 -4,4 -6,6 -1,1 -2,2 -2,2 0,1 -1,1 -1,1 -1,0 -1,-1 0,-2 0,-1 1,-2 1,-4 1,-2 2,-3 3,-5 1,-2 2,-3 2,-3 -3,1 -6,1 -11,2 -4,0 -9,0 -14,0 -1,1 -2,3 -3,4 -1,1 -2,3 -3,4 -12,13 -26,24 -40,32 -14,8 -30,12 -47,12 -4,0 -8,0 -12,-1 -4,-1 -8,-2 -11,-3 -3,-2 -6,-4 -8,-6 -2,-3 -3,-6 -3,-10 0,-4 1,-7 3,-10 3,-3 6,-5 10,-5 3,0 5,1 7,3 2,2 2,4 2,6 0,2 -1,3 -2,4 -1,1 -2,2 -3,3 -3,3 -4,5 -4,7 0,2 1,3 2,4 1,1 3,2 5,3 2,1 4,1 6,2 2,0 5,1 7,1 11,0 21,-3 31,-8 10,-5 19,-12 27,-20 4,-4 7,-7 10,-11 3,-3 5,-7 8,-11 -3,0 -6,0 -9,0 -3,0 -5,0 -7,0 -3,0 -5,0 -6,1 -1,0 -1,0 -1,-1 0,-1 1,-1 2,-1 1,0 4,-1 7,-1 2,0 4,0 7,0 3,0 6,0 8,0 2,-3 4,-5 7,-8 2,-3 5,-6 8,-10 3,-4 7,-7 11,-11 4,-4 8,-7 12,-10 4,-3 7,-6 11,-9 3,-3 6,-4 8,-6 -3,-1 -7,-2 -11,-3 -4,-1 -9,-2 -14,-3 -3,-1 -6,-1 -10,-2 -4,-1 -8,-2 -13,-2 -4,-1 -9,-1 -14,-2 -5,0 -9,-1 -13,-1zm112 3c-5,0 -9,1 -14,2 -4,1 -8,3 -12,5 5,1 11,3 16,3 5,1 9,1 12,1 3,0 6,0 9,-1 2,-1 4,-2 4,-4 0,-2 -1,-3 -4,-4 -3,-1 -7,-2 -12,-2z"/>
  </g>
  <g>
   <path class="fil7 str4" d="M279 178c7,0 15,2 22,5 7,4 12,8 17,14 2,-1 5,-1 8,-2 3,-1 6,-1 9,-1 5,0 10,0 14,0 5,1 9,2 12,4 4,2 6,4 8,7 2,3 2,7 1,12 -1,5 -3,9 -7,13 -4,4 -9,7 -15,9 -6,2 -12,4 -19,5 -7,1 -13,2 -19,2 -9,0 -17,-1 -26,-3 -8,-2 -16,-5 -21,-9 -6,5 -11,11 -16,17 -5,6 -9,12 -13,18 -4,6 -6,12 -8,18 -2,6 -3,11 -3,16 0,9 2,16 7,19 5,4 11,6 19,6 9,0 18,-2 25,-5 7,-3 14,-7 20,-11 4,-3 8,-6 11,-9 3,-3 6,-5 8,-7 2,-2 4,-3 5,-4 1,-1 2,-1 2,0 0,0 0,1 0,2 -1,1 -1,2 -2,2 -4,4 -8,7 -11,10 -4,3 -8,6 -11,8 -6,5 -14,9 -21,12 -8,3 -16,5 -26,6 -13,0 -23,-2 -32,-7 -8,-5 -13,-13 -13,-25 0,-7 1,-14 4,-21 3,-7 7,-14 12,-20 5,-7 10,-13 17,-19 6,-6 13,-11 19,-16 -2,-3 -4,-6 -6,-9 -1,-3 -2,-7 -2,-10 0,-4 1,-8 3,-12 2,-4 4,-7 7,-9 3,-3 6,-5 10,-6 4,-1 8,-2 12,-2zm32 66c6,0 11,-1 16,-2 5,-1 10,-3 15,-5 4,-2 8,-5 11,-8 3,-3 5,-7 6,-10 2,-7 0,-13 -4,-16 -4,-3 -11,-5 -19,-5 -2,0 -5,0 -9,1 -3,1 -6,1 -8,2 1,2 2,5 3,8 1,3 2,6 2,9 0,2 0,4 0,6 0,1 -1,2 -1,2 0,0 -1,-1 -1,-2 0,-1 0,-2 -1,-5 -1,-3 -2,-6 -3,-9 -1,-3 -3,-6 -4,-8 -8,3 -17,7 -25,13 -9,6 -16,11 -23,17 5,4 12,7 20,9 8,2 16,3 25,3zm-34 -62c-7,0 -12,2 -18,7 -5,4 -8,11 -8,19 0,6 2,12 6,17 9,-6 18,-11 27,-15 10,-5 19,-8 28,-11 -5,-5 -10,-10 -16,-12 -6,-3 -13,-4 -19,-4z"/>
   <path id="1" class="fil6" d="M279 178c7,0 15,2 22,5 7,4 12,8 17,14 2,-1 5,-1 8,-2 3,-1 6,-1 9,-1 5,0 10,0 14,0 5,1 9,2 12,4 4,2 6,4 8,7 2,3 2,7 1,12 -1,5 -3,9 -7,13 -4,4 -9,7 -15,9 -6,2 -12,4 -19,5 -7,1 -13,2 -19,2 -9,0 -17,-1 -26,-3 -8,-2 -16,-5 -21,-9 -6,5 -11,11 -16,17 -5,6 -9,12 -13,18 -4,6 -6,12 -8,18 -2,6 -3,11 -3,16 0,9 2,16 7,19 5,4 11,6 19,6 9,0 18,-2 25,-5 7,-3 14,-7 20,-11 4,-3 8,-6 11,-9 3,-3 6,-5 8,-7 2,-2 4,-3 5,-4 1,-1 2,-1 2,0 0,0 0,1 0,2 -1,1 -1,2 -2,2 -4,4 -8,7 -11,10 -4,3 -8,6 -11,8 -6,5 -14,9 -21,12 -8,3 -16,5 -26,6 -13,0 -23,-2 -32,-7 -8,-5 -13,-13 -13,-25 0,-7 1,-14 4,-21 3,-7 7,-14 12,-20 5,-7 10,-13 17,-19 6,-6 13,-11 19,-16 -2,-3 -4,-6 -6,-9 -1,-3 -2,-7 -2,-10 0,-4 1,-8 3,-12 2,-4 4,-7 7,-9 3,-3 6,-5 10,-6 4,-1 8,-2 12,-2zm32 66c6,0 11,-1 16,-2 5,-1 10,-3 15,-5 4,-2 8,-5 11,-8 3,-3 5,-7 6,-10 2,-7 0,-13 -4,-16 -4,-3 -11,-5 -19,-5 -2,0 -5,0 -9,1 -3,1 -6,1 -8,2 1,2 2,5 3,8 1,3 2,6 2,9 0,2 0,4 0,6 0,1 -1,2 -1,2 0,0 -1,-1 -1,-2 0,-1 0,-2 -1,-5 -1,-3 -2,-6 -3,-9 -1,-3 -3,-6 -4,-8 -8,3 -17,7 -25,13 -9,6 -16,11 -23,17 5,4 12,7 20,9 8,2 16,3 25,3zm-34 -62c-7,0 -12,2 -18,7 -5,4 -8,11 -8,19 0,6 2,12 6,17 9,-6 18,-11 27,-15 10,-5 19,-8 28,-11 -5,-5 -10,-10 -16,-12 -6,-3 -13,-4 -19,-4z"/>
  </g>
 </g>
</svg>
