<?xml version="1.0" encoding="UTF-8"?>
<!DOCTYPE svg PUBLIC "-//W3C//DTD SVG 1.1//EN" "http://www.w3.org/Graphics/SVG/1.1/DTD/svg11.dtd">
<!-- Creator: CorelDRAW 2017 -->
<svg xmlns="http://www.w3.org/2000/svg" xml:space="preserve" width="62.0898mm" height="20.2535mm" version="1.1" style="shape-rendering:geometricPrecision; text-rendering:geometricPrecision; image-rendering:optimizeQuality; fill-rule:evenodd; clip-rule:evenodd"
viewBox="0 0 60776 19825"
 xmlns:xlink="http://www.w3.org/1999/xlink">
 <defs>
  <style type="text/css">
   <![CDATA[
    .str0 {stroke:#4A4A4A;stroke-width:489.42;stroke-opacity:0.701961}
    .str1 {stroke:#949494;stroke-width:489.42}
    .fil2 {fill:none}
    .fil1 {fill:none}
    .fil4 {fill:#2B2A28}
    .fil3 {fill:#7F7D7A;fill-rule:nonzero}
    .fil0 {fill:#4A4A4A;fill-opacity:0.701961}
   ]]>
  </style>
 </defs>
<symbol id="Footer" viewBox="-22884 41428 39559 12127">
 <path class="fil0" d="M8070 49864l122 120c39,38 84,85 124,125l371 366c332,324 665,658 995,984 137,135 283,257 513,213 143,-27 235,-110 312,-181l824 -778c11,-10 19,-20 30,-30l478 -452c23,-21 42,-36 64,-60l255 -242c44,-39 85,-81 128,-119 4,-7 -7,-5 8,-6l0 2595c-35,8 -995,2 -1058,2l-2913 0c-52,0 -225,7 -264,-2l-1 -2541c21,-2 2,-1 10,5zm1925 1110c-20,-20 -38,-37 -59,-57l-282 -279c-75,-73 -153,-153 -226,-224l-1129 -1118 3704 0c-5,11 -101,100 -116,114 -97,88 -203,197 -297,281l-709 670c-21,19 -41,35 -60,56 -18,20 -40,37 -60,56 -21,19 -38,38 -59,57l-295 279c-22,20 -37,33 -59,56 -19,19 -40,36 -61,55 -43,39 -144,144 -178,166l-116 -112zm-1961 -2242c-196,14 -317,100 -404,198 -129,146 -134,287 -134,467l0 2399c0,200 -1,400 0,600 1,162 67,320 182,419 127,109 230,149 449,149l3898 0c288,0 490,34 698,-199 43,-49 83,-116 108,-192 31,-95 27,-172 27,-275l0 -2399c0,-200 1,-400 0,-600 -1,-158 -67,-323 -182,-419 -130,-109 -226,-149 -449,-149l-3898 0c-93,0 -204,-5 -295,1z"/>
 <path class="fil0" d="M8070 49864c-9,-7 11,-7 -10,-5l1 2541c39,9 212,2 264,2l2913 0c62,0 1023,6 1058,-2l0 -2595c-15,1 -4,-1 -8,6 6,10 4,19 4,37 0,13 0,26 0,39 0,836 3,1677 -4,2511l-4223 0 0 -2520c3,-16 -1,-6 6,-14z"/>
 <path class="fil1 str0" d="M-691 49018c52,28 140,36 206,69 205,102 210,344 236,582 27,250 1,799 -97,991 -129,251 -378,-13 -483,-146 -39,-49 -74,-103 -112,-161 -134,-207 -451,-828 -565,-1091 -67,-154 -83,-255 -229,-318 -133,-57 -884,-25 -1086,-22 -469,6 -253,274 -94,631 114,255 241,500 370,737 277,506 547,935 861,1341 340,440 394,493 842,812 89,63 244,156 352,207 255,121 563,209 895,204 135,-2 427,15 541,-11 332,-78 87,-465 307,-797 324,-487 667,419 1213,730 150,85 249,97 437,92 811,-22 1695,168 991,-722 -277,-350 -549,-546 -814,-841 -232,-258 -52,-439 161,-723 253,-337 758,-956 880,-1333 138,-427 -281,-328 -694,-325l-816 5c-155,17 -185,161 -243,303 -163,398 -444,902 -700,1239 -45,59 -222,248 -292,270 -315,96 -244,-670 -241,-831 5,-276 70,-820 -55,-1022 -138,-222 -1160,-166 -1455,-111 -119,22 -321,127 -317,239z"/>
 <path class="fil0" d="M-8557 52966l-1150 0c-131,0 -258,-5 -381,-13 -117,-7 -422,-38 -521,-69 -12,-4 -23,-6 -37,-10 -118,-34 -259,-112 -349,-198 -64,-62 -126,-145 -168,-225 -23,-44 -45,-83 -64,-133 -8,-21 -16,-54 -21,-78l-37 -164c-3,-14 -6,-23 -9,-38l-17 -133c-2,-23 -3,-67 -6,-92 -5,-31 1,-64 -2,-96 -2,-27 -9,-61 -9,-90 0,-69 -4,-126 -4,-197 0,-147 -6,-1305 1,-1355 4,-30 0,-66 4,-99 6,-55 8,-182 10,-196 9,-61 9,-123 18,-187 5,-33 5,-64 10,-93 24,-164 29,-239 111,-403 13,-26 22,-43 36,-66 37,-62 83,-127 140,-172 88,-71 206,-156 319,-194 56,-19 104,-29 162,-43l174 -31c108,-18 229,-11 337,-23 45,-5 103,-3 151,-4 23,0 28,-3 47,-4l1202 0c68,0 125,4 188,4l375 19 264 31c116,15 232,50 334,106l94 56c39,24 75,58 109,88 47,42 134,176 162,231 35,69 66,132 83,212 25,118 56,262 60,381 0,17 -1,34 0,51l12 283 0 1373c0,105 -9,180 -9,287 0,38 -4,65 -7,95 -4,32 -3,60 -7,92l-20 177c-14,101 -30,188 -64,283 -5,14 -9,21 -15,36 -35,85 -89,185 -153,249 -37,38 -61,61 -105,96l-58 41c-22,13 -38,25 -60,38l-134 67c-81,34 -236,61 -326,76 -60,10 -119,16 -180,17 -23,0 -25,4 -47,5 -17,0 -35,0 -52,0 -22,0 -24,3 -43,5 -17,1 -35,-1 -51,0l-192 9c-34,0 -69,0 -103,0zm-3255 -2934l0 1463c0,91 4,167 4,257l17 248c19,161 39,238 75,383 40,162 182,438 301,554l167 162 114 82c26,17 56,36 83,49 197,94 287,127 493,165 20,4 35,8 54,10 20,2 37,4 57,7 21,3 34,5 56,8 60,9 127,8 186,14 20,2 43,0 64,1 22,1 36,4 64,4 178,-1 343,4 522,4l834 0c76,0 222,8 289,-2 83,-13 204,8 287,-4 41,-6 137,-3 205,-13 21,-3 48,-4 67,-6 84,-11 166,-26 248,-43 41,-8 77,-19 115,-31l55 -18c22,-7 33,-11 54,-19 135,-47 306,-144 415,-240 13,-11 25,-22 39,-33 75,-59 151,-155 208,-232 65,-89 139,-235 169,-339 6,-21 12,-34 18,-55l56 -235c28,-139 39,-330 38,-471 0,-30 4,-41 4,-68l4 -796c0,-209 -4,-404 -4,-612 0,-53 -4,-94 -4,-150 0,-51 0,-103 0,-154 0,-101 -7,-356 -20,-446 -10,-69 -17,-133 -34,-197l-15 -62c-31,-98 -42,-136 -77,-231 -32,-85 -109,-230 -167,-299 -35,-42 -65,-88 -103,-128 -13,-14 -25,-25 -39,-38l-58 -58c-9,-8 -12,-9 -21,-17 -41,-38 -86,-68 -132,-99 -17,-12 -31,-18 -48,-29l-326 -140c-56,-15 -125,-37 -185,-46 -116,-17 -229,-39 -345,-40 -43,0 -101,-9 -145,-9 -51,0 -103,0 -154,0 -53,0 -94,-4 -150,-4 -191,0 -1343,-6 -1400,3 -74,11 -181,-3 -255,5 -39,4 -84,3 -123,5l-119 9c-71,7 -157,19 -225,36 -65,17 -136,33 -202,55l-139 53c-102,42 -198,101 -287,167 -86,64 -163,140 -232,222l-56 72c-103,156 -151,263 -207,443 -39,126 -52,254 -71,382 -5,38 -5,82 -7,122 -2,34 -9,84 -9,120 0,89 -4,166 -4,257z"/>
 <path class="fil0" d="M-9092 51648c-93,0 -149,2 -241,-16 -176,-34 -301,-113 -431,-228 -39,-34 -58,-57 -91,-93l-36 -46c-5,-7 -6,-10 -10,-16l-91 -174c-9,-25 -18,-54 -25,-82 -41,-152 -34,-353 11,-503 27,-91 74,-175 126,-250 65,-93 180,-203 281,-258 13,-7 23,-13 35,-20 164,-91 351,-111 544,-90 59,6 118,18 175,39 90,33 71,28 150,68 70,36 155,114 211,170 59,59 106,138 145,210 41,76 72,186 84,271 16,113 13,237 -16,346l-17 60c-37,99 -56,143 -118,233 -8,11 -14,18 -23,29 -123,154 -283,274 -478,322 -52,13 -124,28 -186,28zm-56 496c136,0 272,-18 401,-56 11,-3 23,-4 34,-9 188,-66 284,-121 437,-239l151 -144 94 -115c12,-16 22,-32 34,-48l34 -52c115,-174 197,-448 197,-650 0,-146 2,-143 -14,-290 -2,-22 -8,-46 -13,-68 -12,-51 -25,-118 -44,-166 -5,-13 -7,-21 -10,-32 -60,-181 -203,-375 -335,-507 -191,-191 -386,-295 -653,-356 -21,-5 -47,-7 -70,-11 -63,-12 -178,-19 -238,-19l-162 9 -146 25c-99,25 -200,51 -291,98l-84 44c-110,63 -240,163 -324,258l-49 58c-14,15 -25,31 -38,47 -59,71 -124,182 -164,268 -36,78 -70,175 -87,259 -9,45 -20,99 -25,146 -3,29 -5,49 -5,81 0,34 -4,51 -4,85 0,131 16,256 49,379 22,83 35,113 68,193 8,20 18,37 28,58 6,11 9,19 14,28 58,104 85,140 159,231 76,94 195,200 295,265l79 50c78,52 217,101 303,129 23,8 50,12 72,18 24,6 47,9 72,14 13,2 22,5 36,7l204 14z"/>
 <path class="fil0" d="M-8031 49305c0,104 25,167 95,239l4 4c0,0 5,5 7,6 64,58 122,97 219,97 48,0 96,-12 130,-28 95,-46 199,-167 199,-280 0,-67 -2,-97 -34,-158 -48,-92 -160,-188 -274,-188l-38 0c-145,0 -308,163 -308,308z"/>
 <path class="fil2 str1" d="M-16736 49946l0 386 546 0 -40 372c-3,22 -7,53 -9,76 -3,42 -16,123 -16,150l-481 0 0 1785 -804 0 0 -1775c0,-8 -2,-10 -10,-10l-304 0 0 -598 314 0c0,-161 -9,-450 15,-600 19,-120 56,-233 127,-328 31,-42 37,-43 73,-80 45,-45 132,-92 191,-113 96,-35 148,-42 249,-55l741 -7 0 598 -363 0c-157,0 -229,50 -229,199zm-3574 -853l0 3283c0,139 40,262 91,380 30,70 110,189 167,245l31 31c21,19 39,38 61,57 47,38 87,65 139,96 130,77 313,126 466,126l3243 0c143,0 293,-40 390,-87 62,-30 97,-50 151,-88 90,-62 177,-149 239,-239 110,-159 175,-344 175,-541l0 -3243c0,-109 -21,-207 -52,-301 -39,-117 -93,-207 -169,-302 -19,-24 -38,-41 -58,-63l-61 -57c-113,-95 -241,-166 -387,-202 -61,-15 -134,-29 -209,-29l-3283 0c-138,0 -282,45 -378,89 -44,21 -108,57 -147,85 -55,40 -58,47 -97,79 -13,11 -19,16 -31,28 -166,166 -282,413 -282,653z"/>
 <path class="fil3" d="M-21414 41607c-822,0 -1470,667 -1470,1489 0,832 648,1499 1470,1499 817,0 1455,-667 1455,-1499 0,-822 -638,-1489 -1455,-1489zm0 198c682,0 1213,570 1213,1291 0,735 -532,1300 -1213,1300 -696,0 -1228,-566 -1228,-1286 0,-735 532,-1305 1228,-1305zm648 551c-63,-58 -280,-131 -532,-131 -488,0 -923,348 -923,899 0,488 324,875 885,875 203,0 425,-39 595,-150l-58 -184c-111,73 -295,126 -488,126 -445,0 -682,-305 -682,-682 0,-387 222,-677 677,-677 227,0 406,77 469,111l58 -189z"/>
 <polygon id="1" class="fil3" points="-18393,44740 -17972,44740 -17972,43265 -16740,43265 -16740,42917 -17972,42917 -17972,41834 -16638,41834 -16638,41481 -18393,41481 "/>
 <path id="2" class="fil3" d="M-14265 42400l-425 0 0 1436c0,77 -14,155 -39,218 -77,189 -276,387 -561,387 -387,0 -522,-300 -522,-745l0 -1296 -425 0 0 1368c0,822 440,1025 807,1025 416,0 662,-247 773,-435l10 0 24 382 377 0c-14,-184 -19,-396 -19,-638l0 -1702z"/>
 <path id="3" class="fil3" d="M-13462 41839l0 561 -363 0 0 324 363 0 0 1276c0,276 44,483 164,609 102,116 261,179 459,179 164,0 295,-24 377,-58l-19 -319c-53,14 -135,29 -247,29 -237,0 -319,-164 -319,-454l0 -1262 609 0 0 -324 -609 0 0 -672 -416 111z"/>
 <path id="4" class="fil3" d="M-10001 42400l-425 0 0 1436c0,77 -14,155 -39,218 -77,189 -276,387 -561,387 -387,0 -522,-300 -522,-745l0 -1296 -425 0 0 1368c0,822 440,1025 807,1025 416,0 662,-247 773,-435l10 0 24 382 377 0c-14,-184 -19,-396 -19,-638l0 -1702z"/>
 <path id="5" class="fil3" d="M-9295 44740l421 0 0 -1247c0,-73 10,-140 19,-198 58,-319 271,-546 570,-546 58,0 102,5 145,14l0 -401c-39,-10 -73,-14 -121,-14 -285,0 -541,198 -648,512l-19 0 -14 -459 -372 0c14,218 19,454 19,730l0 1610z"/>
 <path id="6" class="fil3" d="M-6771 42347c-648,0 -1160,459 -1160,1242 0,740 488,1204 1122,1204 566,0 1165,-377 1165,-1242 0,-716 -454,-1204 -1126,-1204zm-10 319c503,0 701,503 701,899 0,527 -305,909 -711,909 -416,0 -711,-387 -711,-899 0,-445 218,-909 720,-909z"/>
 <path id="7" class="fil3" d="M-1879 44300c-169,82 -430,135 -686,135 -793,0 -1252,-513 -1252,-1310 0,-856 508,-1344 1271,-1344 271,0 498,58 657,135l102 -343c-111,-58 -367,-145 -773,-145 -1010,0 -1702,691 -1702,1711 0,1068 691,1648 1610,1648 396,0 706,-77 860,-155l-87 -333z"/>
 <path id="8" class="fil3" d="M369 44740c-29,-160 -39,-358 -39,-561l0 -875c0,-469 -174,-957 -889,-957 -295,0 -575,82 -769,208l97 280c164,-106 392,-174 609,-174 479,0 532,348 532,541l0 48c-904,-5 -1407,305 -1407,870 0,338 242,672 715,672 334,0 585,-164 715,-348l15 0 34 295 387 0zm-450 -788c0,43 -10,92 -24,135 -68,198 -261,392 -566,392 -218,0 -401,-130 -401,-406 0,-454 527,-537 991,-527l0 406z"/>
 <path id="9" class="fil3" d="M852 44628c164,97 401,160 657,160 556,0 875,-290 875,-701 0,-348 -208,-551 -614,-706 -305,-116 -445,-203 -445,-396 0,-174 140,-319 392,-319 217,0 387,77 479,135l106 -309c-131,-77 -338,-145 -575,-145 -503,0 -807,309 -807,686 0,280 198,512 619,662 314,116 435,227 435,430 0,193 -145,348 -454,348 -213,0 -435,-87 -561,-169l-106 324z"/>
 <path id="10" class="fil3" d="M4613 44740c-29,-160 -39,-358 -39,-561l0 -875c0,-469 -174,-957 -889,-957 -295,0 -575,82 -769,208l97 280c164,-106 392,-174 609,-174 479,0 532,348 532,541l0 48c-904,-5 -1407,305 -1407,870 0,338 242,672 715,672 334,0 585,-164 715,-348l15 0 34 295 387 0zm-450 -788c0,43 -10,92 -24,135 -68,198 -261,392 -566,392 -218,0 -401,-130 -401,-406 0,-454 527,-537 991,-527l0 406z"/>
 <path id="11" class="fil3" d="M5290 45305c135,-227 348,-764 459,-1175l-474 48c-53,353 -184,870 -290,1155l305 -29z"/>
 <path id="12" class="fil3" d="M9158 44740l0 -353 -1412 0 0 -10 251 -232c662,-638 1083,-1107 1083,-1687 0,-450 -285,-914 -962,-914 -363,0 -672,135 -889,319l135 300c145,-121 382,-266 667,-266 469,0 624,295 624,614 -5,474 -367,880 -1170,1644l-334 324 0 261 2006 0z"/>
 <path id="13" class="fil3" d="M10680 41544c-638,0 -1093,580 -1093,1634 10,1039 425,1615 1039,1615 696,0 1093,-590 1093,-1658 0,-1001 -377,-1590 -1039,-1590zm-24 329c440,0 638,508 638,1281 0,802 -208,1310 -643,1310 -387,0 -638,-464 -638,-1281 0,-856 271,-1310 643,-1310z"/>
 <polygon id="14" class="fil3" points="13035,44740 13446,44740 13446,41597 13083,41597 12397,41965 12479,42289 13025,41994 13035,41994 "/>
 <path id="15" class="fil3" d="M15607 44793c599,0 1068,-367 1068,-914 0,-382 -242,-657 -633,-812l0 -14c387,-184 517,-469 517,-735 0,-392 -305,-773 -914,-773 -551,0 -972,338 -972,836 0,271 150,541 498,706l5 14c-387,164 -624,445 -624,841 0,459 396,851 1054,851zm10 -309c-401,0 -643,-280 -629,-599 0,-300 198,-541 566,-648 425,121 691,305 691,686 0,324 -247,561 -628,561zm5 -2635c382,0 532,261 532,512 0,285 -208,479 -479,570 -363,-97 -599,-266 -599,-580 0,-271 193,-503 546,-503z"/>
</symbol>
 <g id="Слой_x0020_1">
  <metadata id="CorelCorpID_0Corel-Layer"/>
  <g id="_682465072">
   <path class="fil4" d="M38444 19181c35,-1560 3463,-7858 4412,-9566 819,-1473 4590,-8199 4932,-9240l-823 87c-911,758 -1019,1612 -2747,1623 -2539,16 -6708,-3656 -9605,412 -1399,1964 -1211,4918 1263,5612 2124,596 4753,-1176 5223,-3101 -1592,1119 -2188,2466 -4784,2031 -2330,-390 -2700,-2220 -1617,-4129 1021,-1800 3592,-864 5219,-442 4221,1096 4085,-78 5731,-254 -295,801 -1812,3226 -2341,4121l-4282 8680c-594,1373 -1874,3117 -1197,4596 1860,309 4330,-3861 5320,-5337 2529,-3768 5515,-9940 9451,-12085 1432,-780 2773,-982 4417,-969 2314,19 2258,708 3761,1683 -634,-2652 -5414,-3470 -7870,-2524 -7050,2715 -11954,18740 -14462,18802z"/>
   <path class="fil4" d="M8702 12594c-2898,-3470 -13594,5693 -6067,7059 7968,1445 19663,-8439 10552,-11685 -8030,-2861 3867,-9559 6002,-6472 689,997 -596,2564 -1314,3061 -363,251 -1181,754 -1597,830 -664,122 -1254,-615 -1131,295 1445,1192 5969,-2130 5705,-3912 -320,-2162 -4875,-1965 -7650,-759 -2023,879 -5051,3034 -4645,5588 444,2801 4868,1859 6146,4088 1968,3431 -6548,9449 -11275,8347 -3454,-805 -1227,-4737 703,-5868 893,-523 3176,-1366 3439,276 222,1389 -1517,1975 -2327,2503 1489,332 3731,-1558 3458,-3351z"/>
   <path class="fil4" d="M28208 10652c282,-940 981,-1864 2044,-1757 -100,1070 -1006,1821 -2044,1757zm-4521 1275l-24 510 -262 123c-9,62 -59,332 -59,392 1,336 0,133 97,368 637,169 1331,-28 1939,-305 1094,-499 565,-591 1347,-1094 193,1212 324,1949 2233,1215l-1153 -182c-800,-1767 138,-1917 1475,-2334 988,-308 2167,-1040 1632,-2190 -1461,-290 -3008,980 -3674,2096 -635,1064 -52,872 -1159,1742 -717,564 -925,939 -1913,761 -92,-1191 5483,-8831 5816,-10342l-817 76c-1227,1792 -4434,7984 -5478,9164z"/>
   <path class="fil4" d="M52482 8172c408,-915 1301,-1929 1445,-2872l-1003 320c-1041,1743 -3261,7616 -5590,7116 85,-886 1652,-3481 2085,-4578 -936,5 -737,25 -1172,849 -393,745 -2187,3331 -1860,3856 918,685 1724,290 2542,-406l431 596c1085,188 1457,82 2280,-619 -797,252 -599,488 -1587,327 -280,-830 823,-1989 1288,-2760 1185,-1962 628,-1214 2387,-1715l-1247 -115z"/>
   <path class="fil4" d="M54018 12607c-231,-1411 359,-2064 1223,-3085 290,-343 688,-947 1090,-1170 890,-493 1090,-22 1717,265 -239,1078 -1310,2975 -2200,3606 588,920 86,868 1281,914l-270 -865c555,-755 2138,-3141 2239,-3933 -1673,28 -2074,-1926 -5767,2513 -461,555 -1059,846 -1468,1403l1060 -799c26,783 -79,1045 531,1669l1265 -122 -702 -397z"/>
   <path class="fil4" d="M19749 12580c-607,311 -1017,681 -1614,331 -370,-618 591,-1629 972,-2263 355,-591 883,-1644 1457,-1912l-6 -468 1434 -2672 -884 125c-620,831 -1455,2609 -2016,3618 -582,1048 -1928,2689 -2000,3807 1279,315 1620,405 2658,-565z"/>
   <path class="fil4" d="M33115 14589c190,-1164 920,-2399 2176,-2461 -315,1007 -1127,2251 -2176,2461zm1664 30c294,-1659 1704,-3206 2209,-4754 -787,276 -987,1107 -1408,1860 -1545,436 -3179,1540 -3074,3343 936,-30 995,-369 1667,-909l139 852c622,-57 1040,-232 1475,-677l236 766c675,-30 1317,-437 1851,-853 -675,242 -564,366 -1451,464l1424 -2993c-759,178 -478,6 -867,781 -164,327 -314,630 -478,968 -408,841 -807,1041 -1724,1152z"/>
   <path class="fil4" d="M16393 14861c565,463 5839,201 6925,204 821,2 6356,244 7057,-204 -265,-183 -34,-126 -406,-213 -11,-2 -450,-16 -489,-17l-9725 12c-879,1 -2784,-305 -3360,218z"/>
   <path class="fil4" d="M45349 14861c664,501 2477,206 3403,206l8910 -1c1546,3 1157,164 1660,-205 -268,-212 27,-115 -364,-213 -9,-2 -443,-19 -479,-20l-6163 14c-799,0 -6406,-253 -6967,219z"/>
   <path class="fil4" d="M19749 12580l1185 -800c-242,742 -550,631 -300,1360 1057,760 1745,77 2531,-473l-43 -253c-635,393 -645,754 -1487,587 -216,-798 1606,-3570 1989,-4599 -887,-10 -762,40 -1202,861 -1630,3034 -1005,1568 -2673,3318z"/>
   <path class="fil4" d="M23316 18083l-342 -144c77,-791 445,-1235 1270,-1101 -426,719 -248,760 -928,1245zm0 0c493,120 85,-104 650,302 27,-47 61,-103 78,-143l591 -1603c-1061,-25 -2199,337 -2063,1577 592,136 315,198 744,-134z"/>
   <path class="fil4" d="M52009 17362c-28,596 81,567 -375,869l-581 1143c850,-471 1471,-1932 1863,-2818 -929,361 -279,264 -908,806z"/>
   <path class="fil4" d="M17468 18114c786,-608 1603,-1649 575,-2580l-674 244c40,18 201,75 239,91 867,357 439,1552 -141,2245z"/>
   <path class="fil4" d="M54087 15520l-774 174c730,349 1244,80 746,1973 910,-785 742,-1471 28,-2147z"/>
   <path class="fil4" d="M58162 17347l-199 -544 -263 325c191,532 313,402 430,617 179,329 -103,18 53,325 194,380 -157,28 291,197 382,-655 -183,-464 464,-1331l-116 -293c-312,-20 -273,-108 -216,172l-68 528 -376 2z"/>
   <path class="fil4" d="M28378 16651c-623,206 -978,996 -1079,1646 1155,-340 -24,-508 1339,-759l-490 -239 230 -647z"/>
   <path class="fil4" d="M26384 17171l-184 615 -112 579 726 -170 -267 -253 629 -1319c-747,163 -311,173 -792,547z"/>
   <path class="fil4" d="M46550 18240l55 -109 -648 -154c-160,-704 26,-612 357,-1164 -733,307 -1071,625 -800,1494l1034 -66z"/>
   <path class="fil4" d="M25675 17882l-131 -241 441 -1064c-615,297 -1054,1052 -1089,1783l778 -478z"/>
   <path class="fil4" d="M55126 18147l140 -560 393 -903c-576,19 -437,38 -722,642 -175,371 -250,525 -352,940l542 -118z"/>
   <path class="fil4" d="M19918 17224c-13,654 92,265 -171,595l-116 509 638 -118c-350,-592 189,-932 438,-1582 -687,123 -345,94 -789,597z"/>
   <path class="fil4" d="M50989 18260c207,-687 24,-288 350,-625l347 -997c-584,194 -988,1030 -1099,1636l402 -14z"/>
   <path class="fil4" d="M29172 18199c-263,-588 193,-987 488,-1598 -796,170 -864,855 -1086,1681l598 -84z"/>
   <path class="fil4" d="M49826 16867l-138 435 -294 1052 604 -174c-184,-432 193,-982 292,-1502l-464 189z"/>
   <path class="fil4" d="M21630 19105l7 -134 -1334 468 -237 -657 -354 620c94,84 43,250 531,280 392,24 1072,-354 1388,-576z"/>
   <path class="fil4" d="M18393 18271c727,-196 474,-66 714,-687 158,-409 247,-524 368,-967 -602,279 -902,1014 -1082,1653z"/>
   <path class="fil4" d="M56075 17247c42,299 181,513 -160,648l-118 372 646 -14c-344,-664 168,-976 426,-1635 -759,136 -264,-5 -794,628z"/>
   <path class="fil4" d="M53877 16709c-764,410 -956,719 -989,1653l741 -143c-293,-305 -243,-153 -289,-595l537 -915z"/>
   <path class="fil4" d="M21637 18971l-7 134 515 -705 -371 -785c31,-31 162,-263 227,-296l-684 257c266,872 382,350 320,1396z"/>
   <path class="fil4" d="M49126 17411l-109 -75 260 -347 -179 -346c-436,239 -570,960 -745,1503 525,-252 500,-195 773,-734z"/>
   <path class="fil4" d="M47342 17775l49 457c520,-377 670,-966 792,-1597 -701,285 -384,456 -841,1140z"/>
   <path class="fil4" d="M49662 6660c702,300 777,169 827,-523 -636,-204 -232,-252 -860,58l32 465z"/>
   <path class="fil4" d="M24687 6436c-414,-246 -134,-378 -748,-33 -220,397 -165,200 62,636 711,-17 595,9 686,-603z"/>
   <path class="fil4" d="M22001 17318c722,-267 511,-84 543,-672 -509,-249 -1148,-148 -1469,339 707,-126 243,-300 1040,-160l-114 493z"/>
   <path class="fil4" d="M37686 11164c636,-83 728,-33 648,-767 -674,72 -562,138 -648,767z"/>
   <path class="fil4" d="M20563 8736c524,-45 904,15 1286,-248l-1292 -220 6 468z"/>
   <path class="fil4" d="M29534 12857c645,-245 1447,-784 1335,-1508 -459,799 -808,889 -1335,1508z"/>
   <path class="fil4" d="M51339 17636c-326,337 -143,-62 -350,625l477 -337c296,181 434,-270 167,308 456,-302 347,-273 375,-869 -530,320 -173,195 -699,450l30 -177z"/>
   <path class="fil4" d="M48561 16319c559,185 1212,142 1727,-132 -772,-15 -1308,-189 -1727,132z"/>
   <path class="fil4" d="M16960 17331c217,106 189,-193 136,243 525,-404 428,-322 691,-919 -682,241 -514,10 -827,676z"/>
   <path class="fil4" d="M46316 16811c902,153 333,556 943,-23 -282,-543 -621,-245 -943,23z"/>
   <path class="fil4" d="M51053 19375c-836,324 -1095,-24 -1461,184 459,470 989,261 1461,-184z"/>
   <path class="fil4" d="M17468 18114l-311 -39 -61 -500c53,-437 81,-138 -136,-243l-210 868c515,125 254,201 718,-86z"/>
   <path class="fil4" d="M55266 17587l-140 560c495,-333 541,-696 789,-253 341,-135 201,-349 160,-648 -252,170 -687,668 -809,341z"/>
   <path class="fil4" d="M23122 12414l43 253 292 -82 -58 -26 262 -123 24 -510c-527,229 -491,40 -564,488z"/>
   <path class="fil4" d="M26211 16157c106,94 -271,376 645,197 289,-57 384,-205 563,-291l-1209 94z"/>
   <polygon class="fil4" points="49277,16988 49017,17336 49126,17411 49634,17241 49688,17302 49826,16867 "/>
   <polygon class="fil4" points="46606,18130 46550,18240 47391,18232 47342,17775 "/>
   <path class="fil4" d="M19746 17818c263,-329 158,59 171,-595l-711 384 539 211z"/>
   <path class="fil4" d="M57963 16803l199 544 -8 -490 451 -41c-57,-280 -97,-192 216,-172 -405,-200 -531,-133 -858,159z"/>
   <path class="fil4" d="M57537 18239c-314,-314 -382,-551 -721,-177 441,301 -41,219 721,177z"/>
   <path class="fil4" d="M25675 17882l390 -264 135 168 184 -615c-474,312 -412,246 -709,712z"/>
  </g>
 </g>
</svg>
