<svg xmlns="http://www.w3.org/2000/svg" width="68.316" height="63.215" viewBox="0 0 265 245" shape-rendering="geometricPrecision" text-rendering="geometricPrecision" image-rendering="optimizeQuality" fill-rule="evenodd" clip-rule="evenodd"><defs><style>.fil3,.fil4{fill:#ba9f65;fill-rule:nonzero}.fil3{fill:#7f7d7a}.fil0{fill:#4a4a4a;fill-opacity:.701961}</style></defs><symbol id="Footer" viewBox="-1200 936 592 181"><path class="fil0" d="M-737 1062l2 2 2 2 6 5 15 15c2 2 4 4 8 3 2 0 4-2 5-3l12-12 7-7 1-1 4-4 2-2v39h-64v-38zm29 17l-1-1-4-4-3-3-17-17h55s-2 1-2 2l-4 4-11 10-1 1-1 1-1 1-4 4s-1 0-1 1l-1 1c-1 1-2 2-3 2l-2-2zm-29-34c-3 0-5 1-6 3-2 2-2 4-2 7v45c0 2 1 5 3 6 2 2 3 2 7 2h58c4 0 7 1 10-3 1-1 1-2 2-3v-40-9c0-2-1-5-3-6-2-2-3-2-7-2h-62z"/><path class="fil0" d="M-737 1062v38h64v-39 40h-63v-38z"/><path d="M-868 1049c1 0 2 1 3 1 3 2 3 5 4 9 0 4 0 12-1 15-2 4-6 0-7-2-1-1-1-2-2-2-2-3-7-12-8-16-1-2-1-4-3-5s-13 0-16 0c-7 0-4 4-1 9 2 4 4 7 6 11 4 8 8 14 13 20 5 7 6 7 13 12 1 1 4 2 5 3 4 2 8 3 13 3h8c5-1 1-7 5-12 5-7 10 6 18 11 2 1 4 1 7 1 12 0 25 3 15-11-4-5-8-8-12-13-3-4-1-7 2-11 4-5 11-14 13-20s-4-5-10-5h-12c-2 0-3 2-4 5-2 6-7 13-10 19-1 1-3 4-4 4-5 1-4-10-4-12 0-4 1-12-1-15s-17-2-22-2c-2 0-5 2-5 4z" fill="none" stroke="#4a4a4a" stroke-width="7.318" stroke-opacity=".702"/><path class="fil0" d="M-985 1108h-23c-2 0-6-1-8-1h-1c-2-1-4-2-5-3l-3-3c0-1-1-1-1-2v-1l-1-2v-3-1-1-1-3-20-1-3-3-1c0-2 0-4 2-6 0 0 0-1 1-1 1-1 1-2 2-3s3-2 5-3c1 0 2 0 2-1h42c2 0 3 1 5 2l1 1c1 0 1 1 2 1 1 1 2 3 2 3 1 1 1 2 1 3 0 2 1 4 1 6v35c0 2 0 3-1 4v1c-1 1-1 3-2 4s-1 1-2 1l-1 1s-1 0-1 1l-2 1c-1 1-4 1-5 1h-3-1-1-1-6zm-49-44v30c0 2 1 4 1 6 1 2 3 7 4 8l2 2 2 1 1 1c3 1 4 2 7 2h40c1 0 2 0 4-1h4c2-1 5-2 6-4h1l3-3c1-1 2-4 3-5v-1l1-4c0-2 1-5 1-7v-13-9-2-2-7c0-1 0-2-1-3v-1c0-1-1-2-1-3s-2-3-2-4l-2-2-1-1-1-1c-1-1-1-1-2-1h-1l-5-2c-1 0-2-1-3-1-2 0-3-1-5-1h-35c-1 0-2 0-3 1-1 0-2 0-3 1l-2 1c-2 1-3 2-4 2l-3 3-1 1c-2 2-2 4-3 7-1 2-1 4-1 6v8z"/><path class="fil0" d="M-993 1088h-4c-3-1-5-2-6-3l-1-1-1-1-1-3v-1c-1-2-1-5 0-8 0-1 1-3 2-4l4-4h1c2-1 5-2 8-1 1 0 2 0 3 1 1 0 1 0 2 1l3 3c1 1 2 2 2 3 1 1 1 3 1 4v6c-1 1-1 2-2 3-2 2-4 4-7 5h-3zm-1 7c2 0 4 0 6-1h1c3-1 4-2 7-4l2-2 1-2 1-1 1-1c2-3 3-7 3-10v-4-1c0-1 0-2-1-2-1-3-3-6-5-8-3-3-6-4-10-5h-9c-1 0-3 1-4 1l-1 1c-2 1-4 2-5 4l-1 1-1 1c-1 1-2 3-2 4-1 1-1 3-1 4v4c0 2 0 4 1 6 0 1 1 2 1 3v1c1 2 1 2 2 3l4 4 1 1c1 1 3 2 5 2h6zM-977 1053c0 2 0 2 1 4 1 1 2 1 3 1h2c1-1 3-2 3-4 0-1 0-1-1-2s-2-3-4-3h-1c-2 0-5 2-5 5z"/><path d="M-1108 1063v6h8l-1 6v3h-7v27h-12v-27h-5v-9h5v-9c0-2 1-3 2-5 0-1 1-1 1-1 1-1 2-1 3-2s2-1 4-1h11v9h-5c-2 0-3 1-3 3zm-53-13v49c0 2 1 4 1 6 0 1 2 3 2 4l1 1c1 1 1 1 2 1 2 1 5 2 7 2h48c2 0 4-1 6-1 1 0 1-1 2-1 1-1 3-2 4-4 2-2 3-5 3-8v-48c0-2 0-3-1-5s-1-3-3-5l-1-1-1-1-6-3h-52c-2 0-4 1-6 1-1 0-2 1-2 1l-1 1c-2 2-4 6-4 10z" fill="none" stroke="#949494" stroke-width="7.318"/><path class="fil3" d="M-1178 938c-12 0-22 10-22 22s10 22 22 22 22-10 22-22-10-22-22-22zm0 3c10 0 18 9 18 19 0 11-8 19-18 19s-18-8-18-19 8-20 18-20zm10 8c-1-1-4-2-8-2-7 0-14 5-14 13 0 7 5 13 13 13 3 0 6-1 9-2l-1-3c-2 1-4 2-7 2-7 0-10-5-10-10 0-6 3-10 10-10 3 0 6 1 7 2l1-3z"/><path id="1" class="fil3" d="M-1132 985h6v-22h18v-5h-18v-16h20v-6h-26z"/><path id="2" class="fil3" d="M-1071 950h-6v21c0 1 0 2-1 3-1 3-4 6-8 6-6 0-8-4-8-11v-19h-6v20c0 12 7 15 12 15 6 0 10-4 12-7v6h6v-35z"/><path id="3" class="fil3" d="M-1059 942v8h-5v5h5v19c0 4 1 7 2 9 2 2 4 3 7 3 2 0 4 0 6-1v-5h-4c-4 0-5-2-5-7v-19h9v-5h-9v-10l-6 2z"/><path id="4" class="fil3" d="M-1007 950h-6v21c0 1 0 2-1 3-1 3-4 6-8 6-6 0-8-4-8-11v-19h-6v20c0 12 7 15 12 15 6 0 10-4 12-7v6h6v-35z"/><path id="5" class="fil3" d="M-996 985h6v-19-3c1-5 4-8 9-8h2v-6h-2c-4 0-8 3-10 8v-7h-6v35z"/><path id="6" class="fil3" d="M-959 949c-10 0-17 7-17 19 0 11 7 18 17 18 8 0 17-6 17-19 0-11-7-18-17-18zm0 5c8 0 10 8 10 13 0 8-5 14-11 14s-11-6-11-13 3-14 11-14z"/><path id="7" class="fil3" d="M-885 978c-3 1-6 2-10 2-12 0-19-8-19-20 0-13 8-20 19-20 4 0 7 1 10 2l2-5c-2-1-5-2-12-2-15 0-25 10-25 26s10 25 24 25c6 0 11-1 13-2l-1-5z"/><path id="8" class="fil3" d="M-852 985c0-2-1-5-1-8v-13c0-7-3-14-13-14-4 0-9 1-11 3l1 4c2-2 6-3 9-3 7 0 8 5 8 8v1c-14 0-21 5-21 13 0 5 4 10 11 10 5 0 9-2 11-5l1 4h6zm-7-12v2c-1 3-4 6-8 6-3 0-6-2-6-6 0-7 8-8 15-8v6z"/><path id="9" class="fil3" d="M-845 983c2 1 6 2 10 2 8 0 13-4 13-10 0-5-3-8-9-11-5-2-7-3-7-6s2-5 6-5c3 0 6 1 7 2l2-5c-2-1-5-2-9-2-8 0-12 5-12 10 0 4 3 8 9 10 5 2 7 3 7 6s-2 5-7 5c-3 0-7-1-8-3l-2 5z"/><path id="10" class="fil3" d="M-788 985c0-2-1-5-1-8v-13c0-7-3-14-13-14-4 0-9 1-11 3l1 4c2-2 6-3 9-3 7 0 8 5 8 8v1c-14 0-21 5-21 13 0 5 4 10 11 10 5 0 9-2 11-5l1 4h6zm-7-12v2c-1 3-4 6-8 6-3 0-6-2-6-6 0-7 8-8 15-8v6z"/><path id="11" class="fil3" d="M-778 993c2-3 5-11 7-18l-7 1c-1 5-3 13-4 17h5z"/><path id="12" class="fil3" d="M-720 985v-5h-21l4-3c10-10 16-17 16-25 0-7-4-14-14-14-5 0-10 2-13 5l2 4c2-2 6-4 10-4 7 0 9 4 9 9 0 7-5 13-17 25l-5 5v4h30z"/><path id="13" class="fil3" d="M-698 937c-10 0-16 9-16 24 0 16 6 24 16 24s16-9 16-25c0-15-6-24-16-24zm0 5c7 0 10 8 10 19 0 12-3 20-10 20-6 0-10-7-10-19 0-13 4-20 10-20z"/><path id="14" class="fil3" d="M-662 985h6v-47h-6l-10 6 1 4 8-4h1z"/><path id="15" class="fil3" d="M-624 986c9 0 16-5 16-14 0-6-4-10-9-12 6-3 8-7 8-11 0-6-5-12-14-12-8 0-15 5-15 13 0 4 2 8 7 11-6 2-9 7-9 13 0 7 6 13 16 13zm0-5c-6 0-10-4-9-9 0-4 3-8 8-10 6 2 10 5 10 10s-4 8-9 8zm0-39c6 0 8 4 8 8s-3 7-7 9c-5-1-9-4-9-9 0-4 3-8 8-8z"/></symbol><g id="Слой_x0020_3"><g id="_683755688"><path class="fil4" d="M111 232c-6 0-10-5-10-10 0-6 5-10 10-10 6 0 10 5 10 10 0 6-5 10-10 10zm0-34c-13 0-23 10-23 23s10 23 23 23 23-10 23-23-10-23-23-23zM193 232c-6 0-10-5-10-10 0-6 5-10 10-10 6 0 10 5 10 10 0 6-5 10-10 10zm0-34c-13 0-23 10-23 23s10 23 23 23 23-10 23-23-10-23-23-23zM105 89h93c4 0 6-3 6-6 0-4-3-6-6-6h-93c-4 0-6 3-6 6 0 4 3 6 6 6zM193 110h-83c-4 0-6 3-6 6 0 4 3 6 6 6h83c4 0 6-3 6-6 0-4-3-6-6-6z"/><path class="fil4" d="M233 143H70L52 55h200l-18 88zm28-96c-2-3-6-5-10-5H49l-4-20c-1-4-4-8-8-9L8 1C5 0 1 1-1 4c-1 3 0 7 3 9l29 12 31 153c1 6 7 10 13 10h156c4 0 6-3 6-6 0-4-3-6-6-6H75l-4-19h161c6 0 11-4 13-10l18-88c1-4 0-8-3-11z"/></g></g></svg>