<svg xmlns="http://www.w3.org/2000/svg" width="71.549" height="72.727" viewBox="0 0 167 170" shape-rendering="geometricPrecision" text-rendering="geometricPrecision" image-rendering="optimizeQuality" fill-rule="evenodd" clip-rule="evenodd"><defs><style>.fil4{fill:#967c58}.fil3{fill:#7f7d7a;fill-rule:nonzero}.fil0{fill:#4a4a4a;fill-opacity:.701961}</style></defs><symbol id="Footer" viewBox="-1125 -3097 357 110"><path class="fil0" d="M-846-3021l1 1 1 1 3 3 9 9c1 1 3 2 5 2 1 0 2-1 3-2l7-7 4-4 1-1 2-2 1-1v23h-36-2v-23zm17 10l-1-1-3-3-2-2-10-10h33l-1 1-3 3-6 6-1 1-1 1-1 1-3 3-1 1h-1s-1 1-2 1l-1-1zm-18-20c-2 0-3 1-4 2s-1 3-1 4v27c0 1 1 3 2 4s2 1 4 1h35c3 0 4 0 6-2 0 0 1-1 1-2v-24-5c0-1-1-3-2-4s-2-1-4-1h-38z"/><path class="fil0" d="M-846-3021v23h38v-23 23h-38v-23z"/><path d="M-925-3029s1 0 2 1c2 1 2 3 2 5s0 7-1 9-3 0-4-1l-1-1c-1-2-4-7-5-10-1-1-1-2-2-3s-8 0-10 0c-4 0-2 2-1 6 1 2 2 5 3 7 3 5 5 8 8 12s4 4 8 7c1 1 2 1 3 2 2 1 5 2 8 2h5c3-1 1-4 3-7 3-4 6 4 11 7 1 1 2 1 4 1 7 0 15 2 9-7-2-3-5-5-7-8-2-2 0-4 1-7 2-3 7-9 8-12 1-4-3-3-6-3h-7c-1 0-2 1-2 3-1 4-4 8-6 11 0 1-2 2-3 2-3 1-2-6-2-8s1-7 0-9-10-1-13-1c-1 0-3 1-3 2z" fill="none" stroke="#4a4a4a" stroke-width="4.421" stroke-opacity=".702"/><path class="fil0" d="M-996-2993h-13c-1 0-4 0-5-1-1 0-2-1-3-2l-2-2s0-1-1-1v-3-1-1-1-2-12-1-2-2-1c0-1 0-2 1-4v-1c0-1 1-1 1-2 1-1 2-1 3-2h25c1 0 2 0 3 1l1 1 1 1 1 2c0 1 1 1 1 2s1 2 1 3v22c0 1 0 2-1 3 0 1-1 2-1 2l-1 1h-1-1l-1 1c-1 0-2 1-3 1h-4-1zm-29-27v17c0 1 0 2 1 3 0 1 2 4 3 5l2 1 1 1h1c2 1 3 1 4 1h31c1 0 3-1 4-2l2-2c1-1 1-2 2-3l1-2v-4-8-6-1-1-4-3c0-1 0-1-1-2 0-1-1-2-2-3l-1-1-1-1-1-1-3-1h-5-1-1-16-7c-1 0-2 1-3 2l-2 2-1 1c-1 1-1 2-2 4 0 1 0 2-1 3v4z"/><path class="fil0" d="M-1001-3005h-2c-2 0-3-1-4-2l-1-1-1-2v-1-5c0-1 1-2 1-2 1-1 2-2 3-2 1-1 3-1 5-1h2c1 0 1 0 1 1 1 0 1 1 2 2s1 1 1 2 1 2 1 2v4c0 1-1 1-1 2-1 1-3 2-4 3h-2zm-1 4c1 0 2 0 4-1s3-1 4-2l1-1 1-1c1-2 2-4 2-6v-3-1-1c-1-2-2-3-3-5-2-2-3-3-6-3h-5c-1 0-2 0-3 1h-1c-1 1-2 1-3 2v1c-1 1-1 2-1 2 0 1-1 2-1 2v6c0 1 0 1 1 2v1c1 1 1 1 1 2 1 1 2 2 3 2h1c1 0 2 1 3 1h4zM-991-3026c0 1 0 2 1 2 1 1 1 1 2 1h1c1 0 2-2 2-3v-1c0-1-1-2-2-2s-3 1-3 3z"/><path d="M-1070-3020v3h5v5h-4v16h-7v-16h-3v-5h3v-5c0-1 1-2 1-3l1-1s1-1 2-1h9v5h-3c-1 0-2 0-2 2zm-32-8v30c0 1 0 2 1 3 0 1 1 2 2 2l1 1 1 1c1 1 3 1 4 1h29c1 0 3 0 4-1 1 0 1 0 1-1 1-1 2-1 2-2 1-1 2-3 2-5v-29-3c0-1-1-2-2-3l-1-1-1-1c-1-1-2-1-3-2h-32c-1 0-3 0-3 1l-1 1s-1 0-1 1c-1 1-3 4-3 6z" fill="none" stroke="#949494" stroke-width="4.421"/><path class="fil3" d="M-1112-3096c-7 0-13 6-13 13 0 8 6 14 13 14s13-6 13-14c0-7-6-13-13-13zm0 2c6 0 11 5 11 12s-5 12-11 12-11-5-11-12 5-12 11-12zm6 5c-1-1-3-1-5-1-4 0-8 3-8 8 0 4 3 8 8 8 2 0 4 0 5-1l-1-2c-1 1-3 1-4 1-4 0-6-3-6-6s2-6 6-6c2 0 4 1 4 1l1-2z"/><path id="1" class="fil3" d="M-1085-3067h4v-14h11v-3h-11v-10h12v-3h-16z"/><path id="2" class="fil3" d="M-1047-3088h-4v15c-1 2-2 3-5 3s-5-3-5-7v-12h-4v12c0 7 4 9 7 9 4 0 6-2 7-4v3h3v-21z"/><path id="3" class="fil3" d="M-1040-3093v5h-3v3h3v12c0 2 0 4 1 6 1 1 2 2 4 2 1 0 3 0 3-1v-3h-2c-2 0-3-1-3-4v-11h6v-3h-6v-6l-4 1z"/><path id="4" class="fil3" d="M-1009-3088h-4v15c-1 2-2 3-5 3s-5-3-5-7v-12h-4v12c0 7 4 9 7 9 4 0 6-2 7-4v3h3v-21z"/><path id="5" class="fil3" d="M-1002-3067h4v-11-2c1-3 2-5 5-5h1v-4h-1c-3 0-5 2-6 5v-4h-3v22z"/><path id="6" class="fil3" d="M-980-3089c-6 0-10 4-10 11s4 11 10 11c5 0 11-3 11-11 0-6-4-11-10-11zm0 3c5 0 6 5 6 8 0 5-3 8-6 8-4 0-6-3-6-8 0-4 2-8 7-8z"/><path id="7" class="fil3" d="M-935-3071c-2 1-4 1-6 1-7 0-11-5-11-12 0-8 5-12 11-12 2 0 4 1 6 1l1-3c-1-1-3-1-7-1-9 0-15 6-15 15 0 10 6 15 15 15 4 0 6-1 8-1l-1-3z"/><path id="8" class="fil3" d="M-915-3067v-13c0-4-2-9-8-9-3 0-5 1-7 2l1 3c1-1 4-2 6-2 4 0 5 3 5 5-8 0-13 3-13 8 0 3 2 6 6 6 3 0 5-1 6-3v3h3zm-4-7v1c-1 2-2 4-5 4-2 0-4-1-4-4 0-4 5-5 9-5v4z"/><path id="9" class="fil3" d="M-911-3068c1 1 4 1 6 1 5 0 8-3 8-6s-2-5-6-6c-3-1-4-2-4-4s1-3 4-3c2 0 3 1 4 1l1-3c-1-1-3-1-5-1-5 0-7 3-7 6s2 5 6 6c3 1 4 2 4 4s-1 3-4 3c-2 0-4-1-5-2l-1 3z"/><path id="10" class="fil3" d="M-877-3067v-13c0-4-2-9-8-9-3 0-5 1-7 2l1 3c1-1 4-2 6-2 4 0 5 3 5 5-8 0-13 3-13 8 0 3 2 6 6 6 3 0 5-1 6-3v3h3zm-4-7v1c-1 2-2 4-5 4-2 0-4-1-4-4 0-4 5-5 9-5v4z"/><path id="11" class="fil3" d="M-871-3062c1-2 3-7 4-11h-4c0 3-2 8-3 10h3z"/><path id="12" class="fil3" d="M-836-3067v-3h-13l2-2c6-6 10-10 10-15 0-4-3-8-9-8-3 0-6 1-8 3l1 3c1-1 3-2 6-2 4 0 6 3 6 6 0 4-3 8-11 15l-3 3v2h18z"/><path id="13" class="fil3" d="M-822-3096c-6 0-10 5-10 15 0 9 4 15 9 15 6 0 10-5 10-15 0-9-3-14-9-14zm0 3c4 0 6 5 6 12s-2 12-6 12c-3 0-6-4-6-12s2-12 6-12z"/><path id="14" class="fil3" d="M-801-3067h4v-29h-3l-7 4 1 3 5-3z"/><path id="15" class="fil3" d="M-778-3067c5 0 10-3 10-8 0-3-2-6-6-7 3-2 5-4 5-7 0-4-3-7-8-7s-9 3-9 8c0 2 1 5 4 6-3 1-6 4-6 8s4 8 10 8zm0-3c-4 0-6-3-6-5 0-3 2-5 5-6 4 1 6 3 6 6s-2 5-6 5zm0-24c3 0 5 2 5 5s-2 4-4 5c-3-1-5-2-5-5 0-2 2-5 5-5z"/></symbol><g id="Слой_x0020_3"><g id="_687339256"><path class="fil4" d="M164 59C150 15 103-10 59 4S-10 65 4 109l5-2C-4 66 19 22 60 9c20-6 41-4 59 5 18 10 32 26 38 46s4 41-5 59c-10 18-26 32-46 38-33 10-70-3-89-32l-5 3c16 24 43 38 70 38 8 0 17-1 25-4 21-7 39-21 49-41s12-42 6-64z"/><path class="fil4" d="M67 40l2-5-28-9c-1 0-2 0-3 1l-6 6c-1 1-1 2-1 3s1 2 2 2l26 11 2-5-22-10 2-2 27 8z"/><path class="fil4" d="M94 23c0-2-1-3-3-3-6 0-12 2-17 7L50 51l-10-2c-1 0-2 0-3 1l-6 6c-1 1-1 1-1 2s1 2 1 2l14 8 8 14c0 1 1 1 2 1s1 0 2-1l6-6c1-1 1-2 1-3l-2-10 24-24c4-4 6-10 6-16zM58 61c-1 1-1 2-1 3l2 10-2 2-7-11-1-1-11-7 2-2 10 2c1 0 2 0 3-1l25-25c3-3 6-4 9-5-1 4-2 7-5 9L56 60z"/><path class="fil4" d="M88 73l-9-29-5 2 8 27-2 2-9-22-5 2 11 26c0 1 1 1 2 2h1c1 0 1 0 2-1l6-5c1-1 1-2 1-3zM54 156c-20 10-36 11-43 3-13-13 1-50 32-87l-4-4C5 108-9 147 7 163c4 4 10 6 18 6 9 0 20-3 32-9l-2-5zM150 98c0-1-1-1-3-1h-10l-8-15c0-1-1-2-3-2H98c-2 0-3 1-3 3v23c0 2 1 3 3 3h9v31c0 2 1 3 3 3h14c1 0 1 0 2-1l11-11c1-1 1-1 1-2v-10l11-16c1-1 1-2 0-3zm-16 17v12l-10 10h-10v-31c0-2-1-3-3-3h-9V86h24l8 15c0 1 1 2 3 2h6l-8 13zM152 74l-11-18c-1-1-1-1-2-1h-17c-1 0-2 0-2 1l-5 7h-7V49h14c1 0 1 0 2-1l11-11h13v-6h-14c-1 0-1 0-2 1l-11 11h-16c-2 0-3 1-3 3v20c0 2 1 3 3 3h11c1 0 2 0 2-1l5-7h14l11 18c1 1 1 1 2 1h11v-6h-10z"/><path class="fil4" d="M82 102H66l-8-8c-1-1-1-1-2-1H42c-2 0-3 1-3 3v20c0 2 1 3 3 3h11v28c0 1 1 2 2 3h1c1 0 1 0 2-1l11-9c1-1 1-1 1-2v-7l13-10c1-1 1-1 1-2v-14c0-2-1-3-3-3zm-3 16l-13 10c-1 1-1 1-1 2v7l-6 4v-26c0-2-1-3-3-3H45V98h10l8 8c1 1 1 1 2 1h14v10zM25 61l-9-14c-1-1-1-1-2-1h-3v6h1l7 11-7 7c-1 1-1 1-1 2v9H2v6h11c2 0 3-1 3-3V74l8-8c1-1 1-2 0-3zM88 3v3l-9 2h-1l-7 5-16-8-3 5 17 9h3l8-5 11-3c1 0 2-1 2-3V2h-6z"/></g></g></svg>