<svg xmlns="http://www.w3.org/2000/svg" width="94.701" height="70.974" viewBox="0 0 298 224" data-name="Layer 1" shape-rendering="geometricPrecision" text-rendering="geometricPrecision" image-rendering="optimizeQuality" fill-rule="evenodd" clip-rule="evenodd"><defs><style>.fil4{fill:#967c58}.fil3{fill:#7f7d7a;fill-rule:nonzero}.fil0{fill:#4a4a4a;fill-opacity:.701961}</style></defs><symbol id="Footer" viewBox="-1493 -4519 481 148"><path class="fil0" d="M-1117-4416l1 1 2 2 5 4 12 12c2 2 3 3 6 3 2 0 3-1 4-2l10-9 6-5s1 0 1-1l3-3c1 0 1-1 2-1v32h-51v-31zm23 14l-1-1-3-3-3-3-14-14h45l-1 1c-1 1-2 2-4 3l-9 8s-1 0-1 1l-1 1-1 1-4 3-1 1-1 1c-1 0-2 2-2 2l-1-1zm-24-27c-2 0-4 1-5 2-2 2-2 3-2 6v36c0 2 1 4 2 5 2 1 3 2 5 2h47c4 0 6 0 8-2 1-1 1-1 1-2v-32-7c0-2-1-4-2-5-2-1-3-2-5-2h-51z"/><path class="fil0" d="M-1117-4416v31h51v-32 31h-51v-31z"/><path d="M-1223-4427c1 0 2 0 3 1 2 1 3 4 3 7s0 10-1 12c-2 3-5 0-6-2 0-1-1-1-1-2-2-3-5-10-7-13-1-2-1-3-3-4s-11 0-13 0c-6 0-3 3-1 8 1 3 3 6 5 9 3 6 7 11 10 16 4 5 5 6 10 10 1 1 3 2 4 3 3 1 7 3 11 2h7c4-1 1-6 4-10 4-6 8 5 15 9 2 1 3 1 5 1 10 0 21 2 12-9-3-4-7-7-10-10s-1-5 2-9 9-12 11-16c2-5-3-4-8-4h-10c-2 0-2 2-3 4-2 5-5 11-9 15-1 1-3 3-4 3-4 1-3-8-3-10 0-3 1-10-1-12-2-3-14-2-18-1-1 0-4 2-4 3z" fill="none" stroke="#4a4a4a" stroke-width="5.954" stroke-opacity=".702"/><path class="fil0" d="M-1319-4379h-19c-1 0-5 0-6-1-1 0-3-1-4-2s-2-2-2-3-1-1-1-2v-5-1-1-1-2-16-1-2-2-1c0-2 0-3 1-5v-1c0-1 1-2 2-2 1-1 3-2 4-2s1 0 2-1h34c1 0 3 1 4 1l1 1 1 1c1 1 2 2 2 3s1 2 1 3 1 3 1 5v28c0 1 0 2-1 3 0 1-1 2-2 3l-1 1h-1-1l-2 1c-1 0-3 1-4 1h-2-1-1-1-3-1zm-40-36v24c0 2 0 3 1 5 0 2 2 5 4 7l2 2 1 1s1 0 1 1c2 1 3 2 6 2h33c1 0 2 0 3-1h3c2-1 4-2 5-3l3-3c1-1 2-3 2-4v-1l1-3v-6-11-7-2-2-5-3c0-1-1-2-1-3s-1-3-2-4c0-1-1-1-1-2l-1-1s-1-1-2-1h-1l-4-2c-1 0-2 0-2-1h-30-6c-1 0-2 0-2 1l-2 1c-1 1-2 1-3 2l-3 3-1 1c-1 2-2 3-3 5 0 2-1 3-1 5v5z"/><path class="fil0" d="M-1326-4395h-3c-2 0-4-1-5-3l-1-1v-1l-1-2v-1-6c0-1 1-2 2-3l3-3c2-1 4-1 7-1h2c1 0 1 0 2 1 1 0 2 1 3 2s1 2 2 3 1 2 1 3v5c0 1-1 2-1 3-1 2-3 3-6 4h-2zm-1 6c2 0 3 0 5-1s3-1 5-3l2-2 1-1v-2c1-2 2-5 2-8v-4-1c0-1 0-1-1-2-1-2-2-5-4-6-2-2-5-4-8-4h-8c-1 0-2 1-4 1l-1 1c-1 1-3 2-4 3l-1 1v1c-1 1-2 2-2 3s-1 2-1 3v4c0 2 0 3 1 5 0 1 0 1 1 2v1c1 1 1 2 2 3s2 2 4 3l1 1c1 1 3 1 4 2h4zM-1313-4423c0 1 0 2 1 3s1 1 3 1h2c1-1 2-2 2-3v-2c-1-1-2-2-3-2-2 0-4 2-4 4z"/><path d="M-1419-4415v5h7v8h-6v22h-10v-22h-4v-7h4v-7c0-1 1-3 2-4 0-1 0-1 1-1 1-1 2-1 2-1 1 0 2-1 3-1h9v7h-4c-2 0-3 1-3 2zm-43-10v40c0 2 0 3 1 5 0 1 1 2 2 3l1 1c1 0 1 1 2 1 2 1 4 2 6 2h39c2 0 4 0 5-1 1 0 1-1 2-1l3-3c1-2 2-4 2-7v-39c0-1 0-3-1-4 0-1-1-3-2-4 0 0 0-1-1-1l-1-1c-1-1-3-2-5-2h-43c-2 0-3 1-5 1-1 0-1 1-2 1s-1 1-1 1c-2 2-3 5-3 8z" fill="none" stroke="#949494" stroke-width="5.954"/><path class="fil3" d="M-1476-4517c-10 0-18 8-18 18s8 18 18 18 18-8 18-18-8-18-18-18zm0 2c8 0 15 7 15 16s-6 16-15 16c-8 0-15-7-15-16s6-16 15-16zm8 7c-1-1-3-2-6-2-6 0-11 4-11 11 0 6 4 11 11 11 2 0 5 0 7-2l-1-2c-1 1-4 2-6 2-5 0-8-4-8-8 0-5 3-8 8-8 3 0 5 1 6 1l1-2z"/><path id="1" class="fil3" d="M-1439-4479h5v-18h15v-4h-15v-13h17v-4h-22z"/><path id="2" class="fil3" d="M-1389-4507h-5v20c-1 2-3 5-7 5-5 0-6-4-6-9v-16h-5v17c0 10 5 12 10 12s8-3 9-5v5h5v-29z"/><path id="3" class="fil3" d="M-1379-4514v7h-4v4h4v16c0 3 1 6 2 7s3 2 6 2c2 0 4 0 5-1v-4h-3c-3 0-4-2-4-6v-15h7v-4h-7v-8l-5 1z"/><path id="4" class="fil3" d="M-1337-4507h-5v20c-1 2-3 5-7 5-5 0-6-4-6-9v-16h-5v17c0 10 5 12 10 12s8-3 9-5v5h5v-29z"/><path id="5" class="fil3" d="M-1328-4479h5v-15-2c1-4 3-7 7-7h2v-5h-1c-3 0-7 2-8 6v-6h-5v29z"/><path id="6" class="fil3" d="M-1297-4508c-8 0-14 6-14 15s6 15 14 15c7 0 14-5 14-15 0-9-6-15-14-15zm0 4c6 0 9 6 9 11 0 6-4 11-9 11s-9-5-9-11c0-5 3-11 9-11z"/><path id="7" class="fil3" d="M-1238-4484c-2 1-5 2-8 2-10 0-15-6-15-16s6-16 15-16c3 0 6 1 8 2l1-4c-1-1-4-2-9-2-12 0-21 8-21 21s8 20 20 20c5 0 9-1 10-2l-1-4z"/><path id="8" class="fil3" d="M-1211-4479v-18c0-6-2-12-11-12-4 0-7 1-9 3l1 3c2-1 5-2 7-2 6 0 6 4 6 7v1c-11 0-17 4-17 11 0 4 3 8 9 8 4 0 7-2 9-4v4h5zm-5-10v2c-1 2-3 5-7 5-3 0-5-2-5-5 0-6 6-7 12-6v5z"/><path id="9" class="fil3" d="M-1205-4480c2 1 5 2 8 2 7 0 11-4 11-9 0-4-3-7-7-9-4-1-5-2-5-5 0-2 2-4 5-4s5 1 6 2l1-4c-2-1-4-2-7-2-6 0-10 4-10 8 0 3 2 6 8 8 4 1 5 3 5 5s-2 4-6 4c-3 0-5-1-7-2l-1 4z"/><path id="10" class="fil3" d="M-1159-4479v-18c0-6-2-12-11-12-4 0-7 1-9 3l1 3c2-1 5-2 7-2 6 0 6 4 6 7v1c-11 0-17 4-17 11 0 4 3 8 9 8 4 0 7-2 9-4v4h5zm-5-10v2c-1 2-3 5-7 5-3 0-5-2-5-5 0-6 6-7 12-6v5z"/><path id="11" class="fil3" d="M-1151-4472c2-3 4-9 6-14l-6 1c-1 4-2 11-4 14h4z"/><path id="12" class="fil3" d="M-1104-4479v-4h-17l3-3c8-8 13-13 13-21 0-5-3-11-12-11-4 0-8 2-11 4l2 4c2-1 5-3 8-3 6 0 8 4 8 7 0 6-4 11-14 20l-4 4v3h24z"/><path id="13" class="fil3" d="M-1085-4518c-8 0-13 7-13 20s5 20 13 20 13-7 13-20c0-12-5-19-13-19zm0 4c5 0 8 6 8 16s-3 16-8 16-8-6-8-16 3-16 8-16z"/><path id="14" class="fil3" d="M-1056-4479h5v-38h-5l-8 5 1 3 6-3h1z"/><path id="15" class="fil3" d="M-1025-4478c7 0 13-4 13-11 0-5-3-8-8-10 5-2 6-6 6-9 0-5-4-9-11-9s-12 4-12 10c0 3 2 7 6 9-5 2-8 5-8 10 0 6 5 10 13 10zm0-4c-5 0-8-3-8-7s2-7 7-8c5 1 8 4 8 8s-3 7-8 7zm0-32c5 0 6 3 6 6s-3 6-6 7c-4-1-7-3-7-7 0-3 2-6 7-6z"/></symbol><g id="Слой_x0020_3"><g id="_825259336"><path class="fil4" d="M295 4c-3 0-85-4-98-4-30 0-43 5-47 9-7-6-23-9-48-9C89 0 7 4 3 4 1 4 0 5 0 7v209c0 2 1 3 3 3 3 0 84 4 99 4 31 0 43-5 48-9 5 4 17 9 47 9 14 0 95-4 99-4 2 0 3-1 3-3V7c0-2-1-3-3-3zM146 210c-2 2-10 7-44 7-13 0-81-3-96-4V10c15-1 84-4 96-4 36 0 43 7 44 8v196zm146 3c-15 1-83 4-96 4-38 0-44-7-44-8V14c2-2 9-8 45-8 12 0 81 4 96 4l-1 203z"/><path class="fil4" d="M168 28v42c0 2 1 3 3 3h63c2 0 3-1 3-3V28c0-2-1-3-3-3h-63c-2 0-3 1-3 3zm10 0h56v35h-56V28zM273 88H171c-2 0-3 1-3 3v103c0 2 1 3 3 3h102c2 0 3-1 3-3V91c0-2-1-3-3-3zm-3 103h-96V95h96v96z"/><path class="fil4" d="M189 116h15c2 0 3-1 3-3s-1-3-3-3h-15c-2 0-3 1-3 3s1 3 3 3zM247 31h26c2 0 3-1 3-3s-1-3-3-3h-26c-2 0-3 1-3 3s1 3 3 3zM247 45h26c2 0 3-1 3-3s-1-3-3-3h-26c-2 0-3 1-3 3s1 3 3 3zM273 52h-26c-2 0-3 1-3 3s1 3 3 3h26c2 0 3-1 3-3s-1-3-3-3zM273 66h-26c-2 0-3 1-3 3s1 3 3 3h26c2 0 3-1 3-3s-1-3-3-3zM214 116h15c2 0 3-1 3-3s-1-3-3-3h-15c-2 0-3 1-3 3s1 3 3 3zM240 116h15c2 0 3-1 3-3s-1-3-3-3h-15c-2 0-3 1-3 3s1 3 3 3zM189 138h15c2 0 3-1 3-3s-1-3-3-3h-15c-2 0-3 1-3 3s1 3 3 3zM214 138h15c2 0 3-1 3-3s-1-3-3-3h-15c-2 0-3 1-3 3s1 3 3 3zM240 138h15c2 0 3-1 3-3s-1-3-3-3h-15c-2 0-3 1-3 3s1 3 3 3zM189 158h15c2 0 3-1 3-3s-1-3-3-3h-15c-2 0-3 1-3 3s1 3 3 3zM214 158h15c2 0 3-1 3-3s-1-3-3-3h-15c-2 0-3 1-3 3s1 3 3 3zM240 158h15c2 0 3-1 3-3s-1-3-3-3h-15c-2 0-3 1-3 3s1 3 3 3zM189 180h15c2 0 3-1 3-3s-1-3-3-3h-15c-2 0-3 1-3 3s1 3 3 3zM214 180h15c2 0 3-1 3-3s-1-3-3-3h-15c-2 0-3 1-3 3s1 3 3 3zM240 180h15c2 0 3-1 3-3s-1-3-3-3h-15c-2 0-3 1-3 3s1 3 3 3zM67 24H24c-2 0-3 1-3 3v24c0 2 1 3 3 3h43c2 0 3-1 3-3V27c0-2-1-3-3-3zm0 28H28V31h36l3 21zM24 71h43c2 0 3-1 3-3s-1-3-3-3H24c-2 0-3 1-3 3s1 3 3 3zM67 87H24c-2 0-3 1-3 3v24c0 2 1 3 3 3h43c2 0 3-1 3-3V90c0-2-1-3-3-3zm-3 24H28V93h36v18zM24 133h43c2 0 3-1 3-3s-1-3-3-3H24c-2 0-3 1-3 3s1 3 3 3zM67 151H24c-2 0-3 1-3 3v24c0 2 1 3 3 3h43c2 0 3-1 3-3v-24c0-2-1-3-3-3zm0 28H28v-21h36l3 21zM67 190H24c-2 0-3 1-3 3s1 3 3 3h43c2 0 3-1 3-3s-1-3-3-3zM81 28v24c0 2 1 3 3 3h43c2 0 3-1 3-3V28c0-2-1-3-3-3H84c-2 0-3 1-3 3zm10 0h36v18H91V28zM84 71h43c2 0 3-1 3-3s-1-3-3-3H84c-2 0-3 1-3 3s1 3 3 3zM127 87H84c-2 0-3 1-3 3v24c0 2 1 3 3 3h43c2 0 3-1 3-3V90c0-2-1-3-3-3zm0 28H91V97h36v18zM84 133h43c2 0 3-1 3-3s-1-3-3-3H84c-2 0-3 1-3 3s1 3 3 3zM127 151H84c-2 0-3 1-3 3v24c0 2 1 3 3 3h43c2 0 3-1 3-3v-24c0-2-1-3-3-3zm0 28H91v-18h36v18zM127 190H84c-2 0-3 1-3 3s1 3 3 3h43c2 0 3-1 3-3s-1-3-3-3zM199 42l-4 7 4 6h7l4-6-4-7z"/></g></g></svg>