<svg xmlns="http://www.w3.org/2000/svg" width="81.048" height="80.947" viewBox="0 0 216 215" shape-rendering="geometricPrecision" text-rendering="geometricPrecision" image-rendering="optimizeQuality" fill-rule="evenodd" clip-rule="evenodd"><defs><style>.fil4{fill:#967c58}.fil3,.fil5{fill:#7f7d7a;fill-rule:nonzero}.fil5{fill:#967c58}.fil0{fill:#4a4a4a;fill-opacity:.701961}</style></defs><symbol id="Footer" viewBox="-1275 -4113 406 125"><path class="fil0" d="M-957-4027l1 1 1 1 4 4 10 10c1 1 3 3 5 2 1 0 2-1 3-2l8-8 5-5 1-1 3-2 1-1v27h-44v-26zm20 11l-1-1-3-3-2-2-12-11h38l-1 1-3 3-7 7-1 1-1 1-1 1-3 3-1 1-1 1-2 2-1-1zm-20-23c-2 0-3 1-4 2s-1 3-1 5v31c0 2 1 3 2 4s2 2 5 2h40c3 0 5 0 7-2 0 0 1-1 1-2v-28-6c0-2-1-3-2-4s-2-2-5-2h-43z"/><path class="fil0" d="M-957-4027v26h44v-27 26h-43v-26z"/><path d="M-1047-4035c1 0 1 0 2 1 2 1 2 4 2 6 0 3 0 8-1 10-1 3-4 0-5-2 0-1-1-1-1-2-1-2-5-9-6-11s-1-3-2-3c-1-1-9 0-11 0-5 0-3 3-1 6 1 3 2 5 4 8 3 5 6 10 9 14 3 5 4 5 9 8 1 1 3 2 4 2 3 1 6 2 9 2h6c3-1 1-5 3-8 3-5 7 4 12 8 2 1 3 1 4 1 8 0 17 2 10-7-3-4-6-6-8-9s-1-5 2-7c3-3 8-10 9-14s-3-3-7-3h-8c-2 0-2 2-2 3-2 4-5 9-7 13 0 1-2 3-3 3-3 1-3-7-2-9 0-3 1-8-1-10-1-2-12-2-15-1-1 0-3 1-3 2z" fill="none" stroke="#4a4a4a" stroke-width="5.027" stroke-opacity=".702"/><path class="fil0" d="M-1128-3995h-16c-1 0-4 0-5-1-1 0-3-1-4-2l-2-2s0-1-1-1v-4-1-1-1-2-14-1-2-2-1c0-2 0-2 1-4v-1c0-1 1-1 1-2 1-1 2-2 3-2h30c1 0 2 1 3 1l1 1 1 1s1 2 2 2c0 1 1 1 1 2s1 3 1 4v25c0 1 0 2-1 3 0 1-1 2-2 3l-1 1h-1-1l-1 1c-1 0-2 1-3 1h-2-1-3-1zm-33-30v21c0 2 0 2 1 4 0 2 2 4 3 6l2 2 1 1s1 0 1 1c2 1 3 1 5 2h36c1 0 3-1 4-2l2-2c1-1 1-2 2-3v-1l1-2v-5-9-6-2-2-5-3c0-1 0-1-1-2 0-1-1-2-2-3l-1-1-1-1-1-1-3-1h-6-22-4c-1 0-1 0-2 1l-1 1c-1 0-2 1-3 2s-2 1-2 2l-1 1c-1 2-2 3-2 5 0 1-1 3-1 4v5z"/><path class="fil0" d="M-1134-4008h-2c-2 0-3-1-4-2l-1-1-1-2v-1-5c0-1 1-2 1-3l3-3c2-1 4-1 6-1h2c1 0 1 0 2 1 1 0 2 1 2 2 1 1 1 1 1 2s1 2 1 3v5c0 1-1 1-1 2-1 2-3 3-5 3h-2zm-1 5c1 0 3 0 4-1 2-1 3-1 4-2l2-1 1-1v-1c1-2 2-5 2-7v-3-1-2c-1-2-2-4-3-5-2-2-4-3-7-4h-7c-1 0-2 1-3 1h-1l-3 3-1 1c-1 1-1 2-2 3 0 1-1 2-1 3v7c0 1 0 1 1 2v1l2 2 3 3 1 1c1 1 2 1 3 1h4zM-1123-4032c0 1 0 2 1 2 1 1 1 1 2 1h1c1 0 2-2 2-3v-2c0-1-2-2-3-2s-3 2-3 3z"/><path d="M-1212-4026v4h6v7h-5v18h-8v-18h-3v-6h3v-6c0-1 1-2 1-3l1-1s1-1 2-1 2 0 3-1h8v6h-4c-2 0-2 1-2 2zm-37-9v34c0 1 0 3 1 4 0 1 1 2 2 3l1 1 1 1c1 1 3 1 5 1h33c1 0 3 0 4-1 1 0 1-1 2-1l2-2c1-2 2-4 2-6v-33c0-1 0-2-1-3 0-1-1-2-2-3l-1-1-1-1c-1-1-2-2-4-2h-36c-1 0-3 0-4 1 0 0-1 1-2 1s-1 0-1 1c-2 2-3 4-3 7z" fill="none" stroke="#949494" stroke-width="5.027"/><path class="fil3" d="M-1260-4112c-8 0-15 7-15 15 0 9 7 15 15 15s15-7 15-15-7-15-15-15zm0 2c7 0 12 6 12 13 0 8-5 13-12 13s-13-6-13-13c0-8 5-13 13-13zm7 6c-1-1-3-1-5-1-5 0-9 4-9 9s3 9 9 9c2 0 4 0 6-2l-1-2c-1 1-3 1-5 1-5 0-7-3-7-7s2-7 7-7c2 0 4 1 5 1l1-2z"/><path id="1" class="fil3" d="M-1229-4079h4v-16h13v-3h-13v-11h14v-4h-18z"/><path id="2" class="fil3" d="M-1187-4103h-4v17c-1 2-3 4-6 4-4 0-5-3-5-8v-13h-4v14c0 8 5 11 8 11 4 0 7-3 8-4v4h4v-24z"/><path id="3" class="fil3" d="M-1179-4109v6h-4v3h4v13c0 3 0 5 2 6 1 1 3 2 5 2s3 0 4-1v-3h-3c-2 0-3-2-3-5v-13h6v-3h-6v-7l-4 1z"/><path id="4" class="fil3" d="M-1143-4103h-4v17c-1 2-3 4-6 4-4 0-5-3-5-8v-13h-4v14c0 8 5 11 8 11 4 0 7-3 8-4v4h4v-24z"/><path id="5" class="fil3" d="M-1136-4079h4v-13-2c1-3 3-6 6-6h1v-4h-1c-3 0-6 2-7 5v-5h-4v24z"/><path id="6" class="fil3" d="M-1110-4104c-7 0-12 5-12 13s5 12 12 12c6 0 12-4 12-13 0-7-5-12-12-12zm0 3c5 0 7 5 7 9 0 5-3 9-7 9s-7-4-7-9 2-9 7-9z"/><path id="7" class="fil3" d="M-1060-4084c-2 1-4 1-7 1-8 0-13-5-13-13 0-9 5-14 13-14 3 0 5 1 7 1l1-4c-1-1-4-1-8-1-10 0-17 7-17 18s7 17 17 17c4 0 7-1 9-2l-1-3z"/><path id="8" class="fil3" d="M-1037-4079v-15c0-5-2-10-9-10-3 0-6 1-8 2l1 3c2-1 4-2 6-2 5 0 5 4 5 6-9 0-14 3-14 9 0 3 2 7 7 7 3 0 6-2 7-4v3h4zm-5-8v1c-1 2-3 4-6 4-2 0-4-1-4-4 0-5 5-6 10-5v4z"/><path id="9" class="fil3" d="M-1032-4081c2 1 4 2 7 2 6 0 9-3 9-7s-2-6-6-7c-3-1-5-2-5-4s1-3 4-3c2 0 4 1 5 1l1-3c-1-1-3-1-6-1-5 0-8 3-8 7 0 3 2 5 6 7 3 1 4 2 4 4s-1 4-5 4c-2 0-4-1-6-2l-1 3z"/><path id="10" class="fil3" d="M-993-4079v-15c0-5-2-10-9-10-3 0-6 1-8 2l1 3c2-1 4-2 6-2 5 0 5 4 5 6-9 0-14 3-14 9 0 3 2 7 7 7 3 0 6-2 7-4v3h4zm-5-8v1c-1 2-3 4-6 4-2 0-4-1-4-4 0-5 5-6 10-5v4z"/><path id="11" class="fil3" d="M-986-4074c1-2 4-8 5-12h-5c-1 4-2 9-3 12h3z"/><path id="12" class="fil3" d="M-946-4079v-4h-14l3-2c7-7 11-11 11-17 0-5-3-9-10-9-4 0-7 1-9 3l1 3c1-1 4-3 7-3 5 0 6 3 6 6 0 5-4 9-12 17l-3 3v3h21z"/><path id="13" class="fil3" d="M-931-4112c-7 0-11 6-11 17s4 17 11 17 11-6 11-17c0-10-4-16-11-16zm0 3c5 0 7 5 7 13s-2 13-7 13c-4 0-7-5-7-13 0-9 3-13 7-13z"/><path id="14" class="fil3" d="M-906-4079h4v-33h-4l-7 4 1 3 5-3h1z"/><path id="15" class="fil3" d="M-880-4079c6 0 11-4 11-9 0-4-2-7-7-8 4-2 5-5 5-8 0-4-3-8-9-8s-10 3-10 9c0 3 2 6 5 7-4 2-6 5-6 9 0 5 4 9 11 9zm0-3c-4 0-7-3-6-6 0-3 2-6 6-7 4 1 7 3 7 7 0 3-3 6-6 6zm0-27c4 0 5 3 5 5 0 3-2 5-5 6-4-1-6-3-6-6s2-5 6-5z"/></symbol><g id="Слой_x0020_3"><g id="_825258016"><path class="fil4" d="M111 161h17v47h-17v-47zm-24 1h17v47H87v-47zm-14-8c2 7 3-1 6 8l1 47H38V88h139v121h-42v-47c0-3 5 0 7-7H73zm124-56h-14v-8h25v119h-25V107h14v-8zm-179 9h13v101H7L6 89h24v9H17v9zm42-66c8-44 85-48 96 0h21v39H39V40l21 1zM0 82v132h216V82h-31l-1-43h8v-6h-30c-23-46-86-46-108 0H24l1 7h7v41H1z"/><path class="fil4" d="M143 131h13v12h-14v-12zm-7 19h28v-25h-29l1 25zM60 131h13v12H59v-12zm-7 18h28v-25H53v25zM102 131h13v12h-14l1-12zm-8 19h28v-25H93v25zM101 100h14v13h-14v-13zm-7 19h27l1-25H92l1 25zM143 100l14 1v12h-14v-12zm-7 19h27l1-25h-29l1 25zM59 100l14-1v12H59V99zm-7 18h27l1-25H51l1 25z"/><path class="fil5" d="M46 75V51h8c3 0 5 1 6 2s2 3 2 5c0 1 0 2-1 3s-1 2-2 2c1 0 2 1 3 2s1 2 1 3c0 2-1 4-2 5s-3 2-6 2h-9zm5-10v6h3c1 0 2 0 2-1s1-1 1-2c0-2-1-3-3-3h-4zm0-4h3c2 0 3-1 3-3 0-1 0-2-1-2 0 0-1-1-2-1h-3v6z"/><path id="1" class="fil5" d="M80 64h-8v7h9v4H67V51h14v4h-9v5h8z"/><path id="2" class="fil5" d="M92 66h-3v9h-5V51h8c3 0 5 1 6 2s2 3 2 5c0 3-1 5-4 7l5 10h-6l-4-9zm-3-4h3c1 0 2 0 2-1 1-1 1-2 1-3 0-2-1-4-3-4h-3v7z"/><path id="3" class="fil5" d="M110 71h9v4h-14V51h5z"/><path id="4" class="fil5" d="M139 65c0 3-1 6-2 8-2 2-4 3-7 3s-5-1-7-3-3-4-3-7v-4c0-3 1-6 2-8 2-2 4-3 7-3s5 1 7 3 3 4 3 8v4zm-5-4c0-2 0-4-1-5s-2-2-3-2-2 1-3 2-1 3-1 5v4c0 2 0 4 1 5s2 1 3 1 2 0 3-1 1-3 1-5v-4z"/><path id="5" class="fil5" d="M161 75h-5l-8-16v16h-5V51h5l8 15V51h5z"/><path id="6" class="fil5" d="M171 75h-5V51h5z"/></g></g></svg>