<svg xmlns="http://www.w3.org/2000/svg" width="70.612" height="70.667" viewBox="0 0 162 162" shape-rendering="geometricPrecision" text-rendering="geometricPrecision" image-rendering="optimizeQuality" fill-rule="evenodd" clip-rule="evenodd"><defs><style>.fil4{fill:#967c58}.fil3{fill:#7f7d7a;fill-rule:nonzero}.fil0{fill:#4a4a4a;fill-opacity:.701961}</style></defs><symbol id="Footer" viewBox="-1109 -3834 349 107"><path class="fil0" d="M-835-3760l1 1 1 1 3 3 9 9c1 1 3 2 5 2 1 0 2-1 3-2l7-7 4-4 1-1 2-2 1-1v23h-35-2v-22zm17 10l-1-1-2-2-2-2-10-10h33l-1 1c-1 1-2 2-3 2l-6 6h-1-1l-1 1-3 2h-1-1s-1 1-2 1l-1-1zm-17-20c-2 0-3 1-4 2s-1 3-1 4v26c0 1 1 3 2 4s2 1 4 1h34c3 0 4 0 6-2 0 0 1-1 1-2v-23-5c0-1-1-3-2-4s-2-1-4-1h-37z"/><path class="fil0" d="M-835-3760v22h37v-23 22h-37v-22z"/><path d="M-913-3767s1 0 2 1c2 1 2 3 2 5s0 7-1 9-3 0-4-1l-1-1c-1-2-4-7-5-10-1-1-1-2-2-3s-8 0-10 0c-4 0-2 2-1 6 1 2 2 4 3 7 2 4 5 8 8 12s3 4 7 7c1 1 2 1 3 2 2 1 5 2 8 2h5c3-1 1-4 3-7 3-4 6 4 11 6 1 1 2 1 4 1 7 0 15 1 9-6-2-3-5-5-7-7s0-4 1-6c2-3 7-8 8-12s-2-3-6-3h-7c-1 0-2 1-2 3-1 4-4 8-6 11 0 1-2 2-3 2-3 1-2-6-2-7 0-2 1-7 0-9s-10-1-13-1c-1 0-3 1-3 2z" fill="none" stroke="#4a4a4a" stroke-width="4.324" stroke-opacity=".702"/><path class="fil0" d="M-982-3733h-13c-1 0-4 0-5-1-1 0-2-1-3-2s-1-1-1-2c0 0 0-1-1-1v-3-1-1-1-2-12-1-2-2-1c0-1 0-2 1-4v-1c0-1 1-1 1-2 1-1 2-1 3-2h25c1 0 2 0 3 1h1l1 1 1 2c0 1 1 1 1 2s0 2 1 3v21c0 1 0 2-1 2 0 1-1 2-1 2l-1 1h-1-1l-1 1c-1 0-2 1-3 1h-4-1zm-29-26v17c0 1 0 2 1 3 0 1 2 4 3 5l1 1 1 1h1c2 1 3 1 4 1h29c1 0 3-1 4-2l2-2c1-1 1-2 1-3v-2-4-8-5-1-1-4-3c0-1 0-1-1-2 0-1-1-2-1-3l-1-1-1-1-1-1-3-1h-5-1-1-15-7c-1 0-2 1-3 1l-2 2v1c-1 1-1 2-2 4 0 1 0 2-1 3v4z"/><path class="fil0" d="M-987-3744h-2c-2 0-3-1-4-2l-1-1-1-2v-1-4c0-1 1-2 1-2l2-2c1-1 3-1 5-1h2c1 0 1 0 1 1 1 0 1 1 2 2s1 1 1 2 1 2 1 2v4c0 1 0 1-1 2s-2 2-4 3h-2zm0 4h4c2-1 3-1 4-2l1-1 1-1c1-2 2-4 2-6v-3-1-1c-1-2-2-3-3-4-2-2-3-3-6-3h-5c-1 0-2 0-3 1h-1c-1 1-2 1-3 2v1c-1 1-1 2-1 2 0 1-1 2-1 2v6c0 1 0 1 1 2v1c1 1 1 1 1 2 1 1 2 2 3 2h1c1 0 2 1 3 1h4zM-978-3765c0 1 0 1 1 2s1 1 2 1h1c1 0 2-1 2-2v-1c0-1-1-2-2-2s-3 1-3 3z"/><path d="M-1055-3759v3h5v5h-4v16h-7v-16h-3v-5h3v-5c0-1 0-2 1-3l1-1s1-1 2-1h9v5h-3c-1 0-2 0-2 2zm-32-8v29c0 1 0 2 1 3 0 1 1 2 1 2h1l1 1c1 1 3 1 4 1h29c1 0 3 0 3-1 1 0 1 0 1-1 1-1 2-1 2-2 1-1 2-3 2-5v-29-3c0-1-1-2-1-3l-1-1-1-1c-1-1-2-1-3-2h-31c-1 0-2 0-3 1l-1 1s-1 0-1 1c-1 1-2 4-2 6z" fill="none" stroke="#949494" stroke-width="4.324"/><path class="fil3" d="M-1096-3833c-7 0-13 6-13 13s6 13 13 13 13-6 13-13-6-13-13-13zm0 2c6 0 11 5 11 11s-5 11-11 11-11-5-11-11 5-12 11-12zm6 5c-1-1-2-1-5-1-4 0-8 3-8 8 0 4 3 8 8 8 2 0 4 0 5-1l-1-2c-1 1-3 1-4 1-4 0-6-3-6-6s2-6 6-6c2 0 4 1 4 1l1-2z"/><path id="1" class="fil3" d="M-1069-3805h4v-13h10v-3h-10v-10h11v-3h-15z"/><path id="2" class="fil3" d="M-1033-3826h-4v15c-1 2-2 3-5 3s-5-3-5-7v-11h-4v12c0 7 4 9 7 9 4 0 6-2 7-4v3h3v-21z"/><path id="3" class="fil3" d="M-1026-3831v5h-3v3h3v11c0 2 0 4 1 5s2 2 4 2c1 0 3 0 3-1v-3h-2c-2 0-3-1-3-4v-11h5v-3h-5v-6l-4 1z"/><path id="4" class="fil3" d="M-995-3826h-4v15c-1 2-2 3-5 3s-5-3-5-7v-11h-4v12c0 7 4 9 7 9 4 0 6-2 7-4v3h3v-21z"/><path id="5" class="fil3" d="M-989-3805h4v-11-2c1-3 2-5 5-5h1v-4h-1c-3 0-5 2-6 5v-4h-3v20z"/><path id="6" class="fil3" d="M-967-3826c-6 0-10 4-10 11s4 11 10 11c5 0 10-3 10-11 0-6-4-11-10-11zm0 3c4 0 6 4 6 8 0 5-3 8-6 8-4 0-6-3-6-8 0-4 2-8 6-8z"/><path id="7" class="fil3" d="M-923-3809c-1 1-4 1-6 1-7 0-11-5-11-12 0-8 4-12 11-12 2 0 4 1 6 1l1-3c-1-1-3-1-7-1-9 0-15 6-15 15s6 15 14 15c4 0 6-1 8-1l-1-3z"/><path id="8" class="fil3" d="M-903-3805v-13c0-4-2-8-8-8-3 0-5 1-7 2l1 2c1-1 3-2 5-2 4 0 5 3 5 5-8 0-12 3-12 8 0 3 2 6 6 6 3 0 5-1 6-3v3h3zm-4-7v1c-1 2-2 3-5 3-2 0-4-1-4-4 0-4 5-5 9-5v4z"/><path id="9" class="fil3" d="M-899-3806c1 1 4 1 6 1 5 0 8-3 8-6s-2-5-5-6-4-2-4-4 1-3 3-3 3 1 4 1l1-3c-1-1-3-1-5-1-4 0-7 3-7 6 0 2 2 5 5 6s4 2 4 4-1 3-4 3c-2 0-4-1-5-1l-1 3z"/><path id="10" class="fil3" d="M-866-3805v-13c0-4-2-8-8-8-3 0-5 1-7 2l1 2c1-1 3-2 5-2 4 0 5 3 5 5-8 0-12 3-12 8 0 3 2 6 6 6 3 0 5-1 6-3v3h3zm-4-7v1c-1 2-2 3-5 3-2 0-4-1-4-4 0-4 5-5 9-5v4z"/><path id="11" class="fil3" d="M-860-3800c1-2 3-7 4-10h-4c0 3-2 8-3 10h3z"/><path id="12" class="fil3" d="M-826-3805v-3h-12l2-2c6-6 10-10 10-15 0-4-3-8-8-8-3 0-6 1-8 3l1 3c1-1 3-2 6-2 4 0 6 3 6 5 0 4-3 8-10 15l-3 3v2h18z"/><path id="13" class="fil3" d="M-812-3833c-6 0-10 5-10 14s4 14 9 14c6 0 10-5 10-15 0-9-3-14-9-14zm0 3c4 0 6 4 6 11s-2 12-6 12c-3 0-6-4-6-11 0-8 2-12 6-12z"/><path id="14" class="fil3" d="M-792-3805h4v-28h-3l-6 3 1 3 4-2z"/><path id="15" class="fil3" d="M-769-3805c5 0 9-3 9-8 0-3-2-6-6-7 3-2 5-4 5-6 0-3-3-7-8-7s-9 3-9 7c0 2 1 5 4 6-3 1-6 4-6 7 0 4 4 8 9 8zm0-3c-4 0-6-2-6-5s2-5 5-6c4 1 6 3 6 6s-2 5-6 5zm0-23c3 0 5 2 5 5s-2 4-4 5c-3-1-5-2-5-5 0-2 2-4 5-4z"/></symbol><g id="Слой_x0020_3"><g id="_687345112"><path class="fil4" d="M155 35l-4-1h-3c-4 0-8 3-10 7l-2 7v-5c0-1 0-1-1-2L95 2s-1-1-2-1H14c-1 0-2 1-2 2v8H3c-1 0-2 1-2 2v147c0 1 1 2 2 2h119c1 0 2-1 2-2v-8h9c1 0 2-1 2-2v-33l7-9v-1l18-59c2-5-1-11-6-13zM95 9l32 31H95V9zm24 148H5V15h7v134c0 1 1 2 2 2h105v5zm12-10H17V5h74v37c0 1 1 2 2 2h38v18l-12 36v32c0 1 1 2 2 2s2 0 3-1l7-9v24zm-6-24v-20l12 4-12 16zm32-77l-18 56-14-5 18-56c1-3 4-4 7-3l4 1c3 1 5 4 4 7z"/><path class="fil4" d="M33 44h35c1 0 2-1 2-2V17c0-1-1-2-2-2H33c-1 0-2 1-2 2v25c0 1 1 2 2 2zm2-25h30v20H35V19zM28 67h74c1 0 2-1 2-2s-1-2-2-2H28c-1 0-2 1-2 2s1 2 2 2zM28 85h74c1 0 2-1 2-2s-1-2-2-2H28c-1 0-2 1-2 2s1 2 2 2zM28 103h74c1 0 2-1 2-2s-1-2-2-2H28c-1 0-2 1-2 2s1 2 2 2zM105 118c0-1-1-2-2-2H29c-1 0-2 1-2 2s1 2 2 2h74c1 0 2-1 2-2zM113 134H76c-1 0-2 1-2 2s1 2 2 2h37c1 0 2-1 2-2s-1-2-2-2z"/></g></g></svg>