<svg xmlns="http://www.w3.org/2000/svg" width="77.635" height="82.822" viewBox="0 0 342 365" shape-rendering="geometricPrecision" text-rendering="geometricPrecision" image-rendering="optimizeQuality" fill-rule="evenodd" clip-rule="evenodd"><defs><style>.fil3,.fil4{fill:#ba9f65;fill-rule:nonzero}.fil3{fill:#7f7d7a}.fil0{fill:#4a4a4a;fill-opacity:.701961}</style></defs><symbol id="Footer" viewBox="-1364 638 674 207"><path class="fil0" d="M-837 781l2 2 2 2 6 6 17 17c2 2 5 4 9 4 2 0 4-2 5-3l14-13 1-1 8-8 1-1 4-4 2-2v44h-72v-43zm33 19l-1-1-5-5-4-4-19-19h63l-2 2c-2 1-3 3-5 5l-12 11-1 1-1 1-1 1-5 5-1 1-1 1-3 3-2-2zm-33-38c-3 0-5 2-7 3-2 2-2 5-2 8v51c0 3 1 5 3 7s4 3 8 3h66c5 0 8 1 12-3 1-1 1-2 2-3 1-2 0-3 0-5v-41-10c0-3-1-5-3-7s-4-3-8-3h-71z"/><path class="fil0" d="M-837 781v43h72v-44 45h-72v-43z"/><path d="M-986 767c1 0 2 1 4 1 3 2 4 6 4 10s0 14-2 17c-2 4-6 0-8-2-1-1-1-2-2-3-2-4-8-14-10-19-1-3-1-4-4-5-2-1-15 0-18 0-8 0-4 5-2 11 2 4 4 9 6 13 5 9 9 16 15 23s7 8 14 14c2 1 4 3 6 4 4 2 10 4 15 3h9c6-1 1-8 5-14 6-8 11 7 21 12 3 1 4 2 7 2 14 0 29 3 17-12-5-6-9-9-14-14-4-4-1-7 3-12 4-6 13-16 15-23s-5-6-12-6h-14c-3 0-3 3-4 5-3 7-8 15-12 21l-5 5c-5 2-4-11-4-14 0-5 1-14-1-17-2-4-20-3-25-2-2 0-5 2-5 4z" fill="none" stroke="#4a4a4a" stroke-width="8.337" stroke-opacity=".702"/><path class="fil0" d="M-1120 834h-26c-2 0-7-1-9-1h-1l-6-3c-1-1-2-2-3-4 0-1-1-1-1-2v-1l-1-3v-3-2-2-2-3-23-2-3-3-2c0-3 0-4 2-7 0 0 0-1 1-1 1-1 1-2 2-3s4-3 5-3 2-1 3-1l3-1h39l4 1c2 0 4 1 6 2l2 1c1 0 1 1 2 2s2 3 3 4 1 2 1 4 1 4 1 6v41c0 2-1 3-1 5v1c-1 1-2 3-3 4l-2 2-1 1s-1 0-1 1l-2 1c-1 1-4 1-6 1h-3-1-1-1-6zm-55-50v33c0 3 1 4 1 7 1 3 3 7 5 9l3 3 2 1 1 1c3 2 5 2 8 3h45c1 0 3 0 4-1 1 0 1 0 2-1h2c2-1 5-2 7-4l1-1 4-4 3-6v-1l1-4c0-2 1-6 1-8v-15-10-3-3-8c0-1 0-2-1-3v-1c-1-2-1-2-1-4-1-1-2-4-3-5l-2-2-1-1-1-1-2-2h-1l-6-2c-1 0-2-1-3-1-2 0-4-1-6-1h-40c-1 0-3 0-4 1-1 0-2 1-3 1l-2 1c-2 1-3 2-5 3-1 1-3 2-4 4l-1 1c-2 3-3 4-4 8-1 2-1 4-1 7v8z"/><path class="fil0" d="M-1129 812h-4c-3-1-5-2-7-4l-2-2-1-1-2-3v-1c-1-3-1-6 0-9 0-2 1-3 2-4 1-2 3-3 5-4h1c3-2 6-2 9-2 1 0 2 0 3 1 2 1 1 0 3 1 1 1 3 2 4 3s2 2 2 4c1 1 1 3 1 5v7l-2 4c-2 3-5 5-8 5h-3zm-1 8c2 0 5 0 7-1h1c3-1 5-2 7-4l3-2 2-2s0-1 1-1l1-1c2-3 3-8 3-11v-5-1c0-1 0-2-1-3v-1c-1-3-3-6-6-9s-7-5-11-6h-10c-2 0-3 1-5 2l-1 1c-2 1-4 3-6 4l-1 1s0 1-1 1c-1 1-2 3-3 5-1 1-1 3-1 4v4c0 2 0 4 1 6 0 1 1 2 1 3v1c1 2 1 2 3 4 1 2 3 3 5 5l1 1c1 1 4 2 5 2h6zM-1111 772c0 2 0 3 2 4 1 1 2 2 4 2h2c2-1 3-3 3-5 0-1 0-2-1-3-1-2-3-3-5-3h-1c-2 0-5 3-5 5z"/><path d="M-1259 783v7h9l-1 6v4h-8v30h-14v-30h-5v-10h5v-10c0-2 1-4 2-6l1-1c1-1 2-2 3-2 2-1 3-1 4-1h13v10h-6c-3 0-4 1-4 3zm-61-15v56c0 2 1 4 2 6 1 1 2 3 3 4l1 1 1 1 2 2c2 1 5 2 8 2h55c2 0 5-1 7-1 1-1 2-1 3-1 2-1 3-3 4-4 2-3 3-6 3-9v-55c0-2 0-4-1-5-1-2-2-4-3-5l-1-1-1-1c-2-2-4-3-7-3-1 0-2-1-4-1h-56c-2 0-5 1-6 2-1 0-2 1-3 1-1 1-1 1-2 1h-1c-3 3-5 7-5 11z" fill="none" stroke="#949494" stroke-width="8.337"/><path class="fil3" d="M-1339 641c-14 0-25 11-25 25s11 26 25 26 25-11 25-26c0-14-11-25-25-25zm0 3c12 0 21 10 21 22 0 13-9 22-21 22s-21-10-21-22c0-13 9-22 21-22zm11 9c-1-1-5-2-9-2-8 0-16 6-16 15 0 8 6 15 15 15 3 0 7-1 10-3l-1-3c-2 1-5 2-8 2-8 0-12-5-12-12s4-12 12-12c4 0 7 1 8 2l1-3z"/><path id="1" class="fil3" d="M-1287 694h7v-25h21v-6h-21v-18h22v-6h-29z"/><path id="2" class="fil3" d="M-1217 654h-7v24c0 1 0 3-1 4-1 3-5 7-10 7-7 0-9-5-9-13v-22h-7v23c0 14 7 17 14 17s11-4 13-7v7h6v-40z"/><path id="3" class="fil3" d="M-1203 645v10h-6v6h6v22c0 5 1 8 3 10s4 3 8 3c3 0 5 0 6-1v-5h-4c-4 0-5-3-5-8v-21h10v-6h-10v-11l-7 2z"/><path id="4" class="fil3" d="M-1145 654h-7v24c0 1 0 3-1 4-1 3-5 7-10 7-7 0-9-5-9-13v-22h-7v23c0 14 7 17 14 17s11-4 13-7v7h6v-40z"/><path id="5" class="fil3" d="M-1132 694h7v-21-3c1-5 5-9 10-9h2v-7h-2c-5 0-9 3-11 9v-8h-6v39z"/><path id="6" class="fil3" d="M-1090 653c-11 0-20 8-20 21s8 21 19 21c10 0 20-6 20-21 0-12-8-21-19-21zm0 5c9 0 12 9 12 15 0 9-5 15-12 15s-12-7-12-15 4-15 12-15z"/><path id="7" class="fil3" d="M-1006 687c-3 1-7 2-12 2-14 0-21-9-21-22 0-15 9-23 22-23 5 0 8 1 11 2l2-6c-2-1-6-2-13-2-17 0-29 12-29 29 0 18 12 28 27 28 7 0 12-1 15-3l-1-6z"/><path id="8" class="fil3" d="M-968 694c0-3-1-6-1-10v-15c0-8-3-16-15-16-5 0-10 1-13 4l2 5c3-2 7-3 10-3 8 0 9 6 9 9v1c-15 0-24 5-24 15 0 6 4 11 12 11 6 0 10-3 12-6l1 5h7zm-8-13v2c-1 3-4 7-10 7-4 0-7-2-7-7 0-8 9-9 17-9v7z"/><path id="9" class="fil3" d="M-960 692c3 2 7 3 11 3 9 0 15-5 15-12 0-6-4-9-10-12-5-2-8-3-8-7 0-3 2-5 7-5 4 0 7 1 8 2l2-5c-2-1-6-2-10-2-9 0-14 5-14 12 0 5 3 9 11 11 5 2 7 4 7 7s-2 6-8 6c-4 0-7-1-10-3l-2 6z"/><path id="10" class="fil3" d="M-896 694c0-3-1-6-1-10v-15c0-8-3-16-15-16-5 0-10 1-13 4l2 5c3-2 7-3 10-3 8 0 9 6 9 9v1c-15 0-24 5-24 15 0 6 4 11 12 11 6 0 10-3 12-6l1 5h7zm-8-13v2c-1 3-4 7-10 7-4 0-7-2-7-7 0-8 9-9 17-9v7z"/><path id="11" class="fil3" d="M-884 704c2-4 6-13 8-20l-8 1c-1 6-3 15-5 20h5z"/><path id="12" class="fil3" d="M-818 694v-6h-24l4-4c11-11 18-19 18-29 0-8-5-16-16-16-6 0-11 2-15 5l2 5c2-2 7-5 11-5 8 0 11 5 11 10 0 8-6 15-20 28l-6 6v4h34z"/><path id="13" class="fil3" d="M-792 640c-11 0-19 10-19 28s7 28 18 28c12 0 19-10 19-28 0-17-6-27-18-27zm0 6c7 0 11 9 11 22 0 14-4 22-11 22s-11-8-11-22c0-15 5-22 11-22z"/><path id="14" class="fil3" d="M-752 694h7v-54h-6l-12 7 1 5 10-5z"/><path id="15" class="fil3" d="M-708 695c10 0 18-6 18-16 0-7-4-11-11-14 7-3 9-8 9-13 0-7-5-13-16-13-9 0-17 6-17 14 0 5 3 9 8 12-7 3-11 8-11 14 0 8 7 14 18 14zm0-5c-7 0-11-5-11-10s3-9 10-11c7 2 12 5 12 12 0 6-4 10-11 10zm0-45c7 0 9 4 9 9s-4 8-8 10c-6-2-10-5-10-10s3-9 9-9z"/></symbol><g id="Слой_x0020_3"><g id="_683756264"><path class="fil4" d="M177 351V168l37-18c3-1 4-4 2-7-1-3-4-4-7-2l-38 18-15-7c-3-1-6 0-7 2-1 3 0 6 2 7l14 7v183L10 276V93l118 57c1 0 2 1 2 1 2 0 4-1 5-3 1-3 0-6-2-7L17 85l53-26 161 78v64c0 2 1 4 3 5 1 1 2 1 3 1s2 0 2-1l40-19c2-1 3-3 3-5v-65l49-24v183l-155 75zm66-214l29-14v56l-29 14v-56zM115 39l153 74-31 15L84 54l31-15zm56-27l154 74-45 21s-1 0-1-1L126 32l44-21zm168 69L173 1c-1-1-3-1-5 0L2 81c-2 1-3 3-3 5v194c0 2 1 4 3 5l166 80c1 0 2 1 2 1 1 0 2 0 2-1l166-80c2-1 3-3 3-5V86c0-2-1-4-3-5z"/><path class="fil4" d="M55 256l-24-12c-3-1-6 0-7 2-1 3 0 6 2 7l24 12c1 0 2 1 2 1 2 0 4-1 5-3 1-3 0-6-2-7zM77 241l-47-23c-3-1-6 0-7 2-1 3 0 6 2 7l47 23c1 0 2 1 2 1 2 0 4-1 5-3 1-3 0-6-2-7z"/></g></g></svg>