<svg xmlns="http://www.w3.org/2000/svg" width="27.022" height="17.817" viewBox="0 0 407 268" shape-rendering="geometricPrecision" text-rendering="geometricPrecision" image-rendering="optimizeQuality" fill-rule="evenodd" clip-rule="evenodd"><defs><style>.fil3{fill:#7f7d7a;fill-rule:nonzero}.fil0{fill:#4a4a4a;fill-opacity:.701961}</style></defs><symbol id="Footer" viewBox="-792 2818 2299 705"><path class="fil0" d="M1007 3308l7 7 7 7 22 21c19 19 39 38 58 57 8 8 16 15 30 12 8-2 14-6 18-11l48-45 2-2 28-26c1-1 2-2 4-3l15-14c3-2 5-5 7-7v151h-245v-148h1zm112 65l-3-3-16-16-13-13-66-65h215c0 1-6 6-7 7-6 5-12 11-17 16l-41 39-3 3-3 3-3 3-17 16-3 3c-1 1-2 2-4 3l-10 10-7-7zm-114-130c-11 1-18 6-23 12-8 8-8 17-8 27v174c0 9 4 19 11 24 7 6 13 9 26 9h227c17 0 28 2 41-12 3-3 5-7 6-11 2-6 2-10 2-16v-139-35c0-9-4-19-11-24-8-6-13-9-26-9h-244z"/><path class="fil0" d="M1007 3308h-1v148c2 1 12 0 15 0h230v-151c-1 0 0 0 0 0v150h-245v-146-1z"/><path d="M498 3259c3 2 8 2 12 4 12 6 12 20 14 34s0 46-6 58c-7 15-22-1-28-8l-6-9c-8-12-26-48-33-63-4-9-5-15-13-18s-51-1-63-1c-27 0-15 16-5 37 7 15 14 29 22 43 16 29 32 54 50 78 20 26 23 29 49 47 5 4 14 9 20 12 15 7 33 12 52 12 8 0 25 1 31-1 19-5 5-27 18-46 19-28 39 24 70 42 9 5 14 6 25 5 47-1 98 10 58-42-16-20-32-32-47-49-13-15-3-26 9-42 15-20 44-56 51-77 8-25-16-19-40-19h-47c-9 1-11 9-14 18-9 23-26 52-41 72-3 3-13 14-17 16-18 6-14-39-14-48 0-16 4-48-3-59-8-13-67-10-85-6-7 1-19 7-18 14z" fill="none" stroke="#4a4a4a" stroke-width="28.439" stroke-opacity=".702"/><path class="fil0" d="M41 3488h-67c-8 0-15 0-22-1-7 0-25-2-30-4-1 0-1 0-2-1-7-2-15-6-20-12-4-4-7-8-10-13-1-3-3-5-4-8 0-1-1-3-1-5l-2-10c0-1 0-1-1-2l-1-8v-5-6-5-11-79-6c0-3 0-11 1-11 1-4 1-7 1-11 0-2 0-4 1-5 1-10 2-14 6-23 1-1 1-2 2-4 2-4 5-7 8-10 5-4 12-9 19-11l9-3 10-2c6-1 13-1 20-1h93l22 1 15 2c7 1 13 3 19 6l5 3c2 1 4 3 6 5 3 2 8 10 9 13 2 4 4 8 5 12 1 7 3 15 3 22v3l1 16v80c0 6-1 10-1 17v11l-1 10c-1 6-2 11-4 16 0 1-1 1-1 2-2 5-5 11-9 14l-6 6-3 2c-1 1-2 1-4 2l-8 4c-5 2-14 4-19 4-3 1-7 1-10 1H59l-11 1h-6zm-189-170v100l1 14c1 9 2 14 4 22 2 9 11 25 17 32l10 9 7 5c2 1 3 2 5 3 11 5 17 7 29 10 1 0 2 0 3 1h6c4 1 7 0 11 1H48c5-1 12 0 17 0 2 0 8 0 12-1h4c5-1 10-2 14-3 2 0 4-1 7-2l3-1c1 0 2-1 3-1 8-3 18-8 24-14l2-2c4-3 9-9 12-13 4-5 8-14 10-20 0-1 1-2 1-3l3-14c2-8 2-19 2-27v-50-36-9-9c0-6 0-21-1-26-1-4-1-8-2-11l-1-4c-2-6-2-8-4-13s-6-13-10-17c-2-2-4-5-6-7l-2-2-3-3c-1 0-1 0-1-1-2-2-5-4-8-6-1-1-2-1-3-2l-19-8c-3-1-7-2-11-3-7-1-13-2-20-2-3 0-6-1-8-1h-99c-4 1-11 0-15 0h-7l-7 1c-4 0-9 1-13 2l-12 3-8 3c-6 2-12 6-17 10s-9 8-13 13l-3 4c-6 9-9 15-12 26-2 7-3 15-4 22v7c0 2-1 5-1 7v15z"/><path class="fil0" d="M10 3412c-5 0-9 0-14-1-10-2-18-7-25-13l-5-5-2-3s0-1-1-1l-5-10c-1-1-1-3-1-5-2-9-2-21 1-29 2-5 4-10 7-15 4-5 10-12 16-15 1 0 1-1 2-1 10-5 20-6 32-5 3 0 7 1 10 2 5 2 4 2 9 4 4 2 9 7 12 10s6 8 8 12 4 11 5 16c1 7 1 14-1 20l-1 3c-2 6-3 8-7 14 0 1-1 1-1 2-7 9-16 16-28 19-3 1-7 2-11 2zm-3 29c8 0 16-1 23-3h2c11-4 17-7 25-14l9-8 5-7c1-1 1-2 2-3l2-3c7-10 11-26 11-38 0-8 0-8-1-17 0-1 0-3-1-4-1-3-1-7-3-10 0-1 0-1-1-2-3-10-12-22-19-29-11-11-22-17-38-21-1 0-3 0-4-1-4-1-10-1-14-1l-9 1-9 1c-6 1-12 3-17 6l-5 3c-6 4-14 9-19 15l-3 3c-1 1-1 2-2 3-3 4-7 11-10 16-2 5-4 10-5 15-1 3-1 6-1 8v10c0 8 1 15 3 22 1 5 2 7 4 11 0 1 1 2 2 3 0 1 1 1 1 2 3 6 5 8 9 13s11 12 17 15l5 3c5 3 13 6 18 8 1 0 3 1 4 1s3 1 4 1h2l12 1zM71 3276c0 6 1 10 5 14 4 3 7 6 13 6 3 0 6-1 8-2 6-3 12-10 12-16 0-4 0-6-2-9-3-5-9-11-16-11h-2c-8 0-18 9-18 18z"/><path d="M-435 3313v22h32l-2 22c0 1 0 3-1 4 0 2-1 7-1 9h-28v104h-47v-103s0-1-1-1h-18v-35h18c0-9-1-26 1-35 1-7 3-14 7-19 2-2 2-3 4-5 3-3 8-5 11-7 6-2 9-2 14-3h43v35h-21c-9 0-13 3-13 12zm-208-50v191c0 8 2 15 5 22 2 4 6 11 10 14l2 2c1 1 2 2 4 3 3 2 5 4 8 6 8 4 18 7 27 7h188c8 0 17-2 23-5 4-2 6-3 9-5 5-4 10-9 14-14 6-9 10-20 10-31v-188c0-6-1-12-3-18-2-7-5-12-10-18-1-1-2-2-3-4l-4-3c-7-6-14-10-22-12-4-1-8-2-12-2h-191c-8 0-16 3-22 5-3 1-6 3-9 5s-3 3-6 5l-2 2c-10 10-16 24-16 38z" fill="none" stroke="#949494" stroke-width="28.439"/><path class="fil3" d="M-706 2828c-48 0-85 39-85 87s38 87 85 87 85-39 85-87-37-87-85-87zm0 12c40 0 71 33 71 75 0 43-31 76-71 76s-71-33-71-75c0-43 31-76 71-76zm38 32c-4-3-16-8-31-8-28 0-54 20-54 52 0 28 19 51 51 51 12 0 25-2 35-9l-3-11c-6 4-17 7-28 7-26 0-40-18-40-40s13-39 39-39c13 0 24 4 27 6l3-11z"/><path id="1" class="fil3" d="M-531 3010h25v-85h71v-20h-71v-63h77v-21h-102z"/><path id="2" class="fil3" d="M-291 2875h-25v83c0 4-1 9-2 13-4 11-16 22-33 22-22 0-30-17-30-43v-75h-25v79c0 48 26 60 47 60 24 0 38-14 45-25h1l1 22h22c-1-11-1-23-1-37v-99z"/><path id="3" class="fil3" d="M-244 2842v33h-21v19h21v74c0 16 3 28 10 35 6 7 15 10 27 10 10 0 17-1 22-3l-1-19c-3 1-8 2-14 2-14 0-19-10-19-26v-73h35v-19h-35v-39l-24 6z"/><path id="4" class="fil3" d="M-43 2875h-25v83c0 4-1 9-2 13-4 11-16 22-33 22-22 0-30-17-30-43v-75h-25v79c0 48 26 60 47 60 24 0 38-14 45-25h1l1 22h22c-1-11-1-23-1-37v-99z"/><path id="5" class="fil3" d="M-2 3010h24v-72c0-4 1-8 1-12 3-19 16-32 33-32 3 0 6 0 8 1v-23c-2-1-4-1-7-1-17 0-31 12-38 30h-1l-1-27H-5c1 13 1 26 1 42v94z"/><path id="6" class="fil3" d="M144 2871c-38 0-67 27-67 72 0 43 28 70 65 70 33 0 68-22 68-72 0-42-26-70-65-70zm-1 19c29 0 41 29 41 52 0 31-18 53-41 53-24 0-41-22-41-52 0-26 13-53 42-53z"/><path id="7" class="fil3" d="M429 2985c-10 5-25 8-40 8-46 0-73-30-73-76 0-50 29-78 74-78 16 0 29 3 38 8l6-20c-6-3-21-8-45-8-59 0-99 40-99 99 0 62 40 96 94 96 23 0 41-4 50-9l-5-19z"/><path id="8" class="fil3" d="M559 3010c-2-9-2-21-2-33v-51c0-27-10-56-52-56-17 0-33 5-45 12l6 16c10-6 23-10 35-10 28 0 31 20 31 31v3c-53 0-82 18-82 51 0 20 14 39 42 39 19 0 34-10 42-20h1l2 17h22zm-26-46c0 3-1 5-1 8-4 12-15 23-33 23-13 0-23-8-23-24 0-26 31-31 58-31v24z"/><path id="9" class="fil3" d="M587 3004c10 6 23 9 38 9 32 0 51-17 51-41 0-20-12-32-36-41-18-7-26-12-26-23 0-10 8-19 23-19 13 0 22 4 28 8l6-18c-8-4-20-8-33-8-29 0-47 18-47 40 0 16 12 30 36 38 18 7 25 13 25 25 0 11-8 20-26 20-12 0-25-5-33-10l-6 19z"/><path id="10" class="fil3" d="M806 3010c-2-9-2-21-2-33v-51c0-27-10-56-52-56-17 0-33 5-45 12l6 16c10-6 23-10 35-10 28 0 31 20 31 31v3c-53 0-82 18-82 51 0 20 14 39 42 39 19 0 34-10 42-20h1l2 17h22zm-26-46c0 3-1 5-1 8-4 12-15 23-33 23-13 0-23-8-23-24 0-26 31-31 58-31v24z"/><path id="11" class="fil3" d="M845 3043c8-13 20-44 27-68l-28 3c-3 21-11 51-17 67l18-2z"/><path id="12" class="fil3" d="M1070 3010v-21h-82v-1l15-13c38-37 63-64 63-98 0-26-17-53-56-53-21 0-39 8-52 19l8 17c8-7 22-15 39-15 27 0 36 17 36 36 0 28-21 51-68 96l-19 19v15h117z"/><path id="13" class="fil3" d="M1158 2825c-37 0-63 34-63 95 1 60 25 94 60 94 40 0 63-34 63-96 0-58-22-92-60-92zm-1 19c26 0 37 29 37 74 0 47-12 76-37 76-22 0-37-27-37-74 0-50 16-76 37-76z"/><path id="14" class="fil3" d="M1295 3010h24v-182h-21l-40 21 5 19 32-17z"/><path id="15" class="fil3" d="M1445 3014c35 0 62-21 62-53 0-22-14-38-37-47v-1c22-11 30-27 30-43 0-23-18-45-53-45-32 0-56 20-56 49 0 16 9 31 29 41v1c-22 10-36 26-36 49 0 27 23 49 61 49zm1-18c-23 0-37-16-37-35 0-17 12-31 33-38 25 7 40 18 40 40 0 19-14 33-37 33zm0-153c22 0 31 15 31 30 0 17-12 28-28 33-21-6-35-15-35-34 0-16 11-29 32-29z"/></symbol><path d="M407 125l-8-7c-3 3-6 4-9 4s-7-1-13-4l-5-3c-11-5-21-6-30-3 5-7 7-14 7-21s-3-13-8-18c-7-7-15-10-25-9s-18 5-26 13c-12 12-16 27-12 43l11-1c0-9 2-15 6-20 4-4 8-6 13-6s9 1 13 5c3 3 4 6 4 10s-1 8-4 10c-5 5-16 9-32 11l-8 1c-4 1-9 1-13 2v-5c0-12-4-23-12-32s-17-14-28-14c-8 0-14 2-19 7s-8 10-8 16c0 8 4 16 13 24 0-2-1-4-1-5 0-8 2-14 7-20s10-9 17-9c4 0 8 2 11 5s4 7 4 11c0 8-8 21-23 37-4 3-7 5-10 8s-6 7-9 11l-11 11c-6-9-11-21-16-37s-7-29-7-41c0-20 6-38 19-51 12-14 28-21 47-21 4 0 8 1 12 2-4-20-12-30-26-30-18 0-33 9-46 28s-20 40-20 66c0 14 5 33 14 57l-2-1-8-8c-10-10-19-21-25-33-7-11-10-20-10-27 0-5 2-10 5-13 3-4 7-5 11-5h4c-5-13-11-20-19-20-5 0-10 3-14 8s-6 12-6 20v5c-8-7-16-11-25-12-10-1-18 2-25 9-5 5-8 11-8 18s2 14 7 21c-9-4-19-3-30 3l-5 3c-6 3-10 4-13 4s-6-2-9-4l-8 7 16 16c13 13 24 21 33 25 9 3 19 3 29-1-1 6-1 11 0 15 1 5 3 9 7 12 5 5 12 8 20 8s15-3 21-9c5-5 9-12 14-22l-10-4c-2 4-3 7-5 8-3 3-6 5-9 5s-6-1-9-4-4-6-4-11c0-4 2-8 5-11 6-6 15-9 27-7 11 1 21 6 29 15 9 9 13 19 13 31s-4 22-12 29c-8 8-17 12-27 13-10 0-19-3-28-11l-7 7 2 2c14 14 28 22 43 23 10 1 18 0 26-4 1 3 3 7 5 9 5 7 12 10 19 10 8 0 14-3 19-9 4-4 6-10 7-16 10 8 22 12 36 10 15-2 30-9 43-23l2-2-8-7c-9 8-18 11-28 11s-19-4-27-13c-8-8-12-18-12-30v-1c15-15 25-27 30-35 2-3 3-5 4-8 3-1 6-1 9-2 11-1 20 1 27 7 3 3 5 7 5 11s-1 8-4 11-6 4-9 4-6-2-9-5c-2-2-4-5-5-8l-10 4c4 10 9 18 14 22 6 6 13 9 21 9s15-2 20-8c3-3 6-7 7-12s1-10 0-15c10 4 20 5 29 1 9-3 20-12 33-25l16-16zm-254 13c-8-3-18-5-28-6l-8-1c-16-2-27-6-32-11-3-3-4-6-4-10s2-8 4-10c3-3 8-5 13-5s9 2 13 6c4 5 7 11 6 20l11 1c1-4 2-9 1-13 6 9 14 19 24 29zm53 78c2 6 5 12 9 17 0 7-1 12-3 15s-5 5-9 5c-3 0-5-1-6-3s-2-5-2-9c0-8 4-16 12-25zM91 143c-9-6-22-7-39-2l-3 1c-7 2-14 2-19-1 19 19 39 20 61 2zm225 0c9-6 22-7 39-2l3 1c7 2 14 2 19-1-19 19-39 20-61 2z" fill="#ba9f65" id="Слой_x0020_3"/></svg>