<svg xmlns="http://www.w3.org/2000/svg" width="183.463" height="17.817" viewBox="0 0 4320 420" shape-rendering="geometricPrecision" text-rendering="geometricPrecision" image-rendering="optimizeQuality" fill-rule="evenodd" clip-rule="evenodd"><defs><style>.fil3,.fil4{fill:#ba9f65;fill-rule:nonzero}.fil3{fill:#7f7d7a}.fil0{fill:#4a4a4a;fill-opacity:.701961}</style></defs><symbol id="Footer" viewBox="629 4410 3597 1103"><path class="fil0" d="M3443 5177l11 11c4 3 8 8 11 11l34 33c30 29 61 60 91 89 12 12 26 23 47 19 13-2 21-10 28-16l75-71 3-3 43-41c2-2 4-3 6-5l23-22c4-4 8-7 12-11 0-1-1 0 1-1v236c-3 1-90 0-96 0h-265c-5 0-20 1-24 0v-231h1zm175 101l-5-5-26-25c-7-7-14-14-21-20l-103-102h337c0 1-9 9-11 10-9 8-18 18-27 26l-64 61c-2 2-4 3-5 5-2 2-4 3-5 5l-5 5-27 25-5 5c-2 2-4 3-6 5-4 4-13 13-16 15l-11-10zm-178-204c-18 1-29 9-37 18-12 13-12 26-12 42v273c0 15 6 29 17 38 12 10 21 14 41 14h354c26 0 45 3 63-18 4-4 8-11 10-17 3-9 2-16 2-25v-218-55c0-14-6-29-17-38-12-10-21-14-41-14h-381z"/><path class="fil0" d="M3443 5177c-1-1 1-1-1 0v231c4 1 19 0 24 0h265c6 0 93 1 96 0v-236c-1 0 0 0-1 1 1 1 0 2 0 3v232h-384v-229c0-1 0-1 1-1z"/><path d="M2647 5100c5 3 13 3 19 6 19 9 19 31 21 53 2 23 0 73-9 90-12 23-34-1-44-13-4-4-7-9-10-15-12-19-41-75-51-99-6-14-8-23-21-29-12-5-80-2-99-2-43 1-23 25-9 57 10 23 22 45 34 67 25 46 50 85 78 122 31 40 36 45 77 74 8 6 22 14 32 19 23 11 51 19 81 19 12 0 39 1 49-1 30-7 8-42 28-72 29-44 61 38 110 66 14 8 23 9 40 8 74-2 154 15 90-66-25-32-50-50-74-76-21-23-5-40 15-66 23-31 69-87 80-121 13-39-26-30-63-30h-74c-14 2-17 15-22 28-15 36-40 82-64 113-4 5-20 23-27 25-29 9-22-61-22-76 0-25 6-75-5-93-13-20-105-15-132-10-11 2-29 12-29 22z" fill="none" stroke="#4a4a4a" stroke-width="44.502" stroke-opacity=".702"/><path class="fil0" d="M1931 5459h-105c-12 0-23 0-35-1-11-1-38-3-47-6-1 0-2-1-3-1-11-3-24-10-32-18-6-6-11-13-15-20l-6-12c-1-2-1-5-2-7l-3-15c0-1-1-2-1-3l-2-12c0-2 0-6-1-8v-9c0-2-1-6-1-8v-18c0-13-1-119 0-123v-9c1-5 1-17 1-18 1-6 1-11 2-17 0-3 0-6 1-8 2-15 3-22 10-37l3-6c3-6 8-12 13-16 8-6 19-14 29-18 5-2 9-3 15-4l16-3c10-2 21-1 31-2h144l34 2 24 3c11 1 21 5 30 10l9 5c4 2 7 5 10 8 4 4 12 16 15 21 3 6 6 12 8 19 2 11 5 24 5 35v5l1 26v125c0 10-1 16-1 26 0 3 0 6-1 9 0 3 0 5-1 8l-2 16c-1 9-3 17-6 26 0 1-1 2-1 3-3 8-8 17-14 23-3 3-6 6-10 9l-5 4c-2 1-3 2-5 3l-12 6c-7 3-21 6-30 7-5 1-11 1-16 2h-18l-17 1h-9zm-296-267v156l2 23c2 15 4 22 7 35 4 15 17 40 27 50l15 15 10 7c2 2 5 3 8 4 18 9 26 12 45 15 2 0 3 1 5 1s3 0 5 1c2 0 3 0 5 1 5 1 12 1 17 1h135c7 0 20 1 26 0 8-1 19 1 26 0 4-1 12 0 19-1 2 0 4 0 6-1 8-1 15-2 23-4 4-1 7-2 10-3l5-2c2-1 3-1 5-2 12-4 28-13 38-22 1-1 2-2 4-3 7-5 14-14 19-21 6-8 13-21 15-31 1-2 1-3 2-5l5-21c3-13 4-30 3-43v-78-56-14-14c0-9-1-32-2-41l-3-18-1-6-7-21c-3-8-10-21-15-27l-9-12c-1-1-2-2-4-3l-5-5-2-2-12-9c-2-1-3-2-4-3l-30-13c-5-1-11-3-17-4-11-2-21-4-31-4-4 0-9-1-13-1h-28c-17 0-122-1-127 0-7 1-16 0-23 0h-11l-11 1c-6 1-14 2-20 3-6 2-12 3-18 5l-13 5c-9 4-18 9-26 15s-15 13-21 20l-5 7c-9 14-14 24-19 40-4 11-5 23-6 35 0 3 0 7-1 11 0 3-1 8-1 11v23z"/><path class="fil0" d="M1883 5339c-8 0-14 0-22-1-16-3-27-10-39-21-4-3-5-5-8-8l-3-4c0-1-1-1-1-1l-8-16c-1-2-2-5-2-7-4-14-3-32 1-46 2-8 7-16 11-23 6-8 16-18 26-23 1-1 2-1 3-2 15-8 32-10 49-8 5 1 11 2 16 4 8 3 6 3 14 6 6 3 14 10 19 15s10 13 13 19c4 7 7 17 8 25 1 10 1 22-1 31l-2 5c-3 9-5 13-11 21-1 1-1 2-2 3-11 14-26 25-43 29-5 1-11 3-17 3zm-5 45c12 0 25-2 37-5 1 0 2 0 3-1 17-6 26-11 40-22l14-13 9-10c1-1 2-3 3-4l3-5c10-16 18-41 18-59 0-13 0-13-1-26 0-2-1-4-1-6-1-5-2-11-4-15 0-1-1-2-1-3-5-16-18-34-30-46-17-17-35-27-59-32-2 0-4-1-6-1-6-1-16-2-22-2l-15 1-13 2c-9 2-18 5-26 9l-8 4c-10 6-22 15-29 23l-4 5c-1 1-2 3-3 4-5 6-11 17-15 24-3 7-6 16-8 24-1 4-2 9-2 13v15c0 12 1 23 4 34 2 8 3 10 6 18 1 2 2 3 3 5 1 1 1 2 1 3 5 9 8 13 14 21 7 9 18 18 27 24l7 5c7 5 20 9 28 12 2 1 5 1 7 2s4 1 7 1c1 0 2 0 3 1l19 1zM1979 5126c0 9 2 15 9 22l1 1c6 5 11 9 20 9 4 0 9-1 12-3 9-4 18-15 18-25 0-6 0-9-3-14-4-8-15-17-25-17h-3c-13 0-28 15-28 28z"/><path d="M1188 5184v35h50l-4 34c0 2-1 5-1 7 0 4-1 11-1 14h-44v162h-73v-161c0-1 0-1-1-1h-28v-54h29c0-15-1-41 1-55 2-11 5-21 12-30 3-4 3-4 7-7 4-4 12-8 17-10 9-3 13-4 23-5l67-1v54h-33c-14 0-21 5-21 18zm-325-78v298c0 13 4 24 8 35 3 6 10 17 15 22l3 3c2 2 4 3 6 5 4 3 8 6 13 9 12 7 28 11 42 11h295c13 0 27-4 35-8 6-3 9-5 14-8 8-6 16-14 22-22 10-14 16-31 16-49v-295c0-10-2-19-5-27-4-11-8-19-15-27-2-2-3-4-5-6l-6-5c-10-9-22-15-35-18-6-1-12-3-19-3H949c-13 0-26 4-34 8-4 2-10 5-13 8-5 4-5 4-9 7-1 1-2 1-3 3-15 15-26 38-26 59z" fill="none" stroke="#949494" stroke-width="44.502"/><path class="fil3" d="M762 4426c-75 0-134 61-134 135 0 76 59 136 134 136 74 0 132-61 132-136s-58-135-132-135zm0 18c62 0 110 52 110 117 0 67-48 118-110 118-63 0-112-51-112-117 0-67 48-119 112-119zm59 50c-6-5-25-12-48-12-44 0-84 32-84 82 0 44 29 80 80 80 18 0 39-4 54-14l-5-17c-10 7-27 11-44 11-40 0-62-28-62-62 0-35 20-62 62-62 21 0 37 7 43 10l5-17z"/><path id="1" class="fil3" d="M1037 4711h38v-134h112v-32h-112v-98h121v-32h-159z"/><path id="2" class="fil3" d="M1412 4498h-39v131c0 7-1 14-4 20-7 17-25 35-51 35-35 0-47-27-47-68v-118h-39v124c0 75 40 93 73 93 38 0 60-22 70-40h1l2 35h34c-1-17-2-36-2-58v-155z"/><path id="3" class="fil3" d="M1485 4447v51h-33v29h33v116c0 25 4 44 15 55 9 11 24 16 42 16 15 0 27-2 34-5l-2-29c-5 1-12 3-22 3-22 0-29-15-29-41v-115h55v-29h-55v-61l-38 10z"/><path id="4" class="fil3" d="M1800 4498h-39v131c0 7-1 14-4 20-7 17-25 35-51 35-35 0-47-27-47-68v-118h-39v124c0 75 40 93 73 93 38 0 60-22 70-40h1l2 35h34c-1-17-2-36-2-58v-155z"/><path id="5" class="fil3" d="M1864 4711h38v-113c0-7 1-13 2-18 5-29 25-50 52-50 5 0 9 0 13 1v-36c-4-1-7-1-11-1-26 0-49 18-59 47h-2l-1-42h-34c1 20 2 41 2 66v146z"/><path id="6" class="fil3" d="M2094 4493c-59 0-105 42-105 113 0 67 44 109 102 109 51 0 106-34 106-113 0-65-41-109-102-109zm-1 29c46 0 64 46 64 82 0 48-28 83-65 83-38 0-65-35-65-82 0-40 20-83 65-83z"/><path id="7" class="fil3" d="M2538 4671c-15 7-39 12-62 12-72 0-114-47-114-119 0-78 46-122 116-122 25 0 45 5 60 12l9-31c-10-5-33-13-70-13-92 0-155 63-155 156 0 97 63 150 146 150 36 0 64-7 78-14l-8-30z"/><path id="8" class="fil3" d="M2743 4711c-3-15-4-33-4-51v-80c0-43-16-87-81-87-27 0-52 7-70 19l9 25c15-10 36-16 55-16 44 0 48 32 48 49v4c-82 0-128 28-128 79 0 31 22 61 65 61 30 0 53-15 65-32h1l3 27h35zm-41-72c0 4-1 8-2 12-6 18-24 36-51 36-20 0-36-12-36-37 0-41 48-49 90-48v37z"/><path id="9" class="fil3" d="M2787 4701c15 9 36 15 60 15 51 0 80-26 80-64 0-32-19-50-56-64-28-11-40-18-40-36 0-16 13-29 36-29 20 0 35 7 44 12l10-28c-12-7-31-13-52-13-46 0-73 28-73 62 0 25 18 47 56 60 29 11 40 21 40 39s-13 32-41 32c-19 0-40-8-51-15l-10 29z"/><path id="10" class="fil3" d="M3129 4711c-3-15-4-33-4-51v-80c0-43-16-87-81-87-27 0-52 7-70 19l9 25c15-10 36-16 55-16 44 0 48 32 48 49v4c-82 0-128 28-128 79 0 31 22 61 65 61 30 0 53-15 65-32h1l3 27h35zm-41-72c0 4-1 8-2 12-6 18-24 36-51 36-20 0-36-12-36-37 0-41 48-49 90-48v37z"/><path id="11" class="fil3" d="M3190 4762c12-21 32-69 42-107l-43 4c-5 32-17 79-26 105l28-3z"/><path id="12" class="fil3" d="M3542 4711v-32h-128v-1l23-21c60-58 98-101 98-153 0-41-26-83-87-83-33 0-61 12-81 29l12 27c13-11 35-24 61-24 43 0 57 27 57 56 0 43-33 80-106 149l-30 29v24h182z"/><path id="13" class="fil3" d="M3681 4420c-58 0-99 53-99 149 1 95 39 147 95 147 63 0 99-54 99-151 0-91-34-145-95-145zm-2 30c40 0 58 46 58 116 0 73-19 119-58 119-35 0-58-42-58-116 0-78 25-119 58-119z"/><path id="14" class="fil3" d="M3895 4711h37v-286h-33l-62 34 7 29 50-27h1z"/><path id="15" class="fil3" d="M4128 4716c55 0 97-33 97-83 0-35-22-60-58-74v-1c35-17 47-43 47-67 0-36-28-70-83-70-50 0-88 31-88 76 0 25 14 49 45 64v1c-35 15-57 40-57 76 0 42 36 77 96 77zm1-28c-36 0-58-25-57-55 0-27 18-49 51-59 39 11 63 28 63 62 0 29-22 51-57 51zm0-240c35 0 48 24 48 47 0 26-19 44-44 52-33-9-55-24-55-53 0-25 18-46 50-46z"/></symbol><g id="Слой_x0020_3"><path class="fil4" d="M9 164v91c-5 0-9-20-9-46 0-25 4-46 9-46zm1828 0v91H9v-91h1828zm0 91v-91c5 0 9 20 9 46 0 25-4 46-9 46zM2517 164v91c-5 0-9-20-9-46 0-25 4-46 9-46zm1794 0v91H2517v-91h1794zm0 91v-91c5 0 9 20 9 46 0 25-4 46-9 46z"/><path d="M2504 195l-12-12c-4 4-9 7-13 7-5 0-11-2-20-6l-8-4c-17-9-33-10-47-4 7-11 11-21 10-32 0-11-4-20-12-28-11-11-24-15-39-14s-29 8-41 21c-19 19-25 42-19 68l17-1c0-14 3-24 10-31 6-6 13-9 21-9s14 2 20 7c4 4 7 10 7 16s-2 12-7 16c-8 8-25 14-50 17l-13 2c-7 1-14 2-20 3v-8c0-19-6-35-19-50-13-14-27-22-43-22-12 0-22 3-30 11-8 7-12 16-12 26 0 13 7 25 21 37-1-3-1-6-1-8 0-12 4-23 11-32s16-13 27-13c7 0 12 2 17 7s7 10 7 17c0 13-12 32-36 58-6 4-11 8-16 13s-10 11-13 17l-17 17c-9-14-18-33-25-57s-11-46-11-64c0-32 10-59 29-80s44-32 73-32c7 0 13 1 19 2-6-31-19-47-41-47-28 0-52 14-73 43s-31 63-31 103c0 22 7 52 22 90l-2-2-13-13c-16-16-29-33-40-51s-16-32-16-42c0-8 2-15 7-21s11-9 18-9c2 0 4 0 7 1-8-20-18-31-30-31-8 0-16 4-22 13-6 8-9 19-9 31 0 3 0 5 1 8-12-12-25-18-40-19s-28 4-39 14c-8 8-12 17-12 28s3 22 10 32c-14-6-29-4-47 4l-8 4c-9 4-15 6-20 6s-9-2-13-7l-12 12 24 25c20 20 37 33 51 38s29 5 45-2c-2 9-2 17 0 24s5 13 11 19c8 9 19 13 32 12 13 0 24-5 33-15 8-8 15-19 21-35l-15-6c-2 6-5 10-8 13-5 5-10 7-15 8-5 0-9-2-14-7s-7-10-6-16c0-6 3-12 7-17 10-10 24-14 42-11 18 2 33 10 46 23 13 14 20 29 21 48 0 18-6 34-18 46-13 13-27 19-42 20-15 0-30-5-43-17l-12 12 4 4c21 22 44 34 68 36 15 2 29-1 41-7 2 5 5 10 8 15 8 10 18 15 30 15s22-5 30-15c6-7 9-15 11-25 16 13 35 18 56 16 24-3 47-15 68-36l4-4-12-12c-13 12-28 18-43 17-15 0-30-7-42-20-13-12-19-28-18-46v-1c23-24 39-42 46-55 3-4 5-8 6-12 4-1 9-2 14-3 18-2 32 2 42 12 5 5 7 10 8 17 0 6-2 12-6 16-5 5-9 7-14 7s-10-3-15-8c-3-3-6-7-8-13l-15 6c7 16 14 28 21 35 9 9 20 14 33 15 13 0 23-4 32-12 5-5 9-12 11-19s2-15 0-24c16 7 31 7 45 2s31-18 51-38l24-25zm-397 20c-13-4-27-8-43-10l-13-2c-26-3-42-9-50-17-4-4-7-10-7-16s2-12 7-16c5-5 12-8 20-7 8 0 15 4 21 9 7 7 10 18 10 31l17 1c2-7 2-14 2-20 9 14 22 29 37 46zm82 123c3 10 7 18 14 26 0 10-2 18-5 23s-8 8-14 8c-4 0-8-2-10-5s-3-8-3-14c0-12 6-25 19-39zm-180-115c-14-9-34-10-60-3l-5 1c-12 3-21 3-30-1 30 30 61 31 95 3zm353 0c14-9 34-11 60-3l5 1c12 3 21 3 30-1-30 30-61 31-95 3z" fill="#ba9f65"/></g></svg>