<svg xmlns="http://www.w3.org/2000/svg" width="78.403" height="56.192" viewBox="0 0 203 145" shape-rendering="geometricPrecision" text-rendering="geometricPrecision" image-rendering="optimizeQuality" fill-rule="evenodd" clip-rule="evenodd"><defs><style>.fil3{fill:#7f7d7a;fill-rule:nonzero}.fil0{fill:#4a4a4a;fill-opacity:.701961}</style></defs><symbol id="Footer" viewBox="-1235 -1456 395 121"><path class="fil0" d="M-926-1372l1 1 1 1 4 4 10 10c1 1 3 3 5 2 1 0 2-1 3-2l8-8 5-5 1-1 3-2 1-1v26h-43v-25zm19 11l-1-1-3-3-2-2-11-11h37l-1 1-3 3-7 7-1 1-1 1-1 1-3 3-1 1-1 1-2 2-1-1zm-20-22c-2 0-3 1-4 2s-1 3-1 5v30c0 2 1 3 2 4s2 1 4 1h39c3 0 5 0 7-2 0 0 1-1 1-2v-27-6c0-2-1-3-2-4s-2-1-4-1h-42z"/><path class="fil0" d="M-926-1372v25h43v-26 25h-42v-25z"/><path d="M-1013-1380c1 0 1 0 2 1 2 1 2 3 2 6 0 2 0 8-1 10-1 3-4 0-5-1 0 0-1-1-1-2-1-2-5-8-6-11-1-2-1-3-2-3-1-1-9 0-11 0-5 0-3 3-1 6 1 3 2 5 4 7 3 5 5 9 9 13 3 4 4 5 8 8 1 1 2 2 4 2 3 1 6 2 9 2h5c3-1 1-5 3-8 3-5 7 4 12 7 1 1 2 1 4 1 8 0 17 2 10-7l-8-8c-2-3-1-4 2-7s8-10 9-13c1-4-3-3-7-3h-8c-2 0-2 2-2 3-2 4-4 9-7 12 0 1-2 2-3 3-3 1-2-7-2-8 0-3 1-8-1-10-1-2-12-2-15-1-1 0-3 1-3 2z" fill="none" stroke="#4a4a4a" stroke-width="4.892" stroke-opacity=".702"/><path class="fil0" d="M-1092-1341h-15c-1 0-4 0-5-1-1 0-3-1-3-2l-2-2s0-1-1-1v-4-1-1-1-2-14-1-2-2-1c0-2 0-2 1-4v-1c0-1 1-1 1-2 1-1 2-2 3-2h30c1 0 2 0 3 1l1 1 1 1s1 2 2 2c0 1 1 1 1 2s1 3 1 4v25c0 1 0 2-1 3 0 1-1 2-2 2l-1 1h-1-1l-1 1c-1 0-2 1-3 1h-2-1-3-1zm-33-29v20c0 2 0 2 1 4 0 2 2 4 3 6l2 2 1 1h1c2 1 3 1 5 2h34c1 0 3-1 4-2l2-2c1-1 1-2 2-3v-1l1-2v-5-9-6-1-2-4-3c0-1 0-1-1-2 0-1-1-2-2-3l-1-1-1-1-1-1-3-1h-5-21-4c-1 0-1 0-2 1l-1 1c-1 0-2 1-3 2s-2 1-2 2l-1 1c-1 2-2 3-2 4s-1 3-1 4v5z"/><path class="fil0" d="M-1097-1354h-2c-2 0-3-1-4-2l-1-1-1-2v-1-5c0-1 1-2 1-3l3-3c2-1 4-1 5-1h2c1 0 1 0 1 1 1 0 2 1 2 2 1 1 1 1 1 2s1 2 1 3v4c0 1-1 1-1 2-1 2-3 3-5 3h-2zm-1 5c1 0 3 0 4-1 2-1 3-1 4-2l2-1 1-1v-1c1-2 2-4 2-6v-3-1-2c-1-2-2-4-3-5-2-2-4-3-7-4h-6c-1 0-2 1-3 1h-1l-3 3v1c-1 1-1 2-2 3 0 1-1 2-1 3v7c0 1 0 1 1 2v1l2 2 3 3h1c1 1 2 1 3 1h4zM-1086-1377c0 1 0 2 1 2 1 1 1 1 2 1h1c1 0 2-2 2-3v-2c0-1-2-2-3-2s-3 2-3 3z"/><path d="M-1173-1371v4h5v7h-5v18h-8v-18h-3v-6h3v-6c0-1 1-2 1-3l1-1s1-1 2-1 1 0 2-1h7v6h-4c-2 0-2 1-2 2zm-36-9v33c0 1 0 3 1 4 0 1 1 2 2 2l1 1 1 1c1 1 3 1 5 1h32c1 0 3 0 4-1 1 0 1 0 2-1s2-1 2-2c1-2 2-3 2-5v-32c0-1 0-2-1-3 0-1-1-2-2-3l-1-1-1-1c-1-1-2-2-4-2h-35c-1 0-3 0-4 1l-1 1c-1 0-1 0-1 1-2 2-3 4-3 7z" fill="none" stroke="#949494" stroke-width="4.892"/><path class="fil3" d="M-1220-1454c-8 0-15 7-15 15s6 15 15 15c8 0 15-7 15-15s-6-15-15-15zm0 2c7 0 12 6 12 13s-5 13-12 13-12-6-12-13 5-13 12-13zm6 6c-1-1-3-1-5-1-5 0-9 3-9 9 0 5 3 9 9 9 2 0 4 0 6-1l-1-2c-1 1-3 1-5 1-4 0-7-3-7-7s2-7 7-7c2 0 4 1 5 1l1-2z"/><path id="1" class="fil3" d="M-1190-1423h4v-15h13v-3h-13v-11h14v-4h-18z"/><path id="2" class="fil3" d="M-1149-1446h-4v16c-1 2-3 4-6 4-4 0-5-3-5-7v-13h-4v14c0 8 4 10 8 10s7-2 8-4v4h4v-23z"/><path id="3" class="fil3" d="M-1141-1452v6h-4v3h4v13c0 3 0 5 2 6 1 1 3 2 5 2s3 0 4-1v-3h-2c-2 0-3-2-3-5v-13h6v-3h-6v-7l-4 1z"/><path id="4" class="fil3" d="M-1106-1446h-4v16c-1 2-3 4-6 4-4 0-5-3-5-7v-13h-4v14c0 8 4 10 8 10s7-2 8-4v4h4v-23z"/><path id="5" class="fil3" d="M-1099-1423h4v-12-2c1-3 3-5 6-5h1v-4h-1c-3 0-5 2-6 5v-5h-4v23z"/><path id="6" class="fil3" d="M-1074-1447c-6 0-12 5-12 12s5 12 11 12 12-4 12-12c0-7-5-12-11-12zm0 3c5 0 7 5 7 9 0 5-3 9-7 9s-7-4-7-9c0-4 2-9 7-9z"/><path id="7" class="fil3" d="M-1025-1427c-2 1-4 1-7 1-8 0-13-5-13-13 0-9 5-13 13-13 3 0 5 1 7 1l1-3c-1-1-4-1-8-1-10 0-17 7-17 17 0 11 7 16 16 16 4 0 7-1 9-2l-1-3z"/><path id="8" class="fil3" d="M-1002-1423v-15c0-5-2-10-9-10-3 0-6 1-8 2l1 3c2-1 4-2 6-2 5 0 5 3 5 5-9 0-14 3-14 9 0 3 2 7 7 7 3 0 6-2 7-3v3h4zm-4-8v1c-1 2-3 4-6 4-2 0-4-1-4-4 0-5 5-5 10-5v4z"/><path id="9" class="fil3" d="M-998-1424c2 1 4 2 7 2 6 0 9-3 9-7 0-3-2-6-6-7-3-1-4-2-4-4s1-3 4-3c2 0 4 1 5 1l1-3c-1-1-3-1-6-1-5 0-8 3-8 7 0 3 2 5 6 7 3 1 4 2 4 4s-1 3-5 3c-2 0-4-1-6-2l-1 3z"/><path id="10" class="fil3" d="M-960-1423v-15c0-5-2-10-9-10-3 0-6 1-8 2l1 3c2-1 4-2 6-2 5 0 5 3 5 5-9 0-14 3-14 9 0 3 2 7 7 7 3 0 6-2 7-3v3h4zm-4-8v1c-1 2-3 4-6 4-2 0-4-1-4-4 0-5 5-5 10-5v4z"/><path id="11" class="fil3" d="M-953-1417c1-2 3-8 5-12h-5c-1 4-2 9-3 12h3z"/><path id="12" class="fil3" d="M-915-1423v-4h-14l3-2c7-6 11-11 11-17 0-4-3-9-10-9-4 0-7 1-9 3l1 3c1-1 4-3 7-3 5 0 6 3 6 6 0 5-4 9-12 16l-3 3v3h20z"/><path id="13" class="fil3" d="M-899-1455c-6 0-11 6-11 16s4 16 10 16c7 0 11-6 11-17 0-10-4-16-10-16zm0 3c4 0 6 5 6 13s-2 13-6 13-6-5-6-13c0-9 3-13 6-13z"/><path id="14" class="fil3" d="M-876-1423h4v-31h-3l-7 3 1 3 5-2z"/><path id="15" class="fil3" d="M-850-1422c6 0 11-4 11-9 0-4-2-7-6-8 4-2 5-5 5-7 0-4-3-8-9-8s-10 3-10 8c0 3 1 5 5 7-4 2-6 4-6 8 0 5 4 9 11 9zm0-3c-4 0-6-3-6-6s2-5 6-6c4 1 7 3 7 7 0 3-2 6-6 6zm0-26c4 0 5 3 5 5 0 3-2 5-5 6-4-1-6-3-6-6s2-5 5-5z"/></symbol><g id="Слой_x0020_3"><g id="_724281584"><path d="M202 63c-1-3-2-5-4-7l2-13c2-10-5-20-14-23-6-2-12-1-17 2-1 0-1 1-2 1-1-6-5-12-11-14s-12-2-17 1c-1 1-3 2-4 3l-3-6c-4-4-9-7-15-7H87c-6 0-11 2-15 7-1 2-3 4-3 6-1-1-3-2-4-3-5-3-12-3-17-1-6 3-10 8-11 14 0 0-1-1-2-1-5-3-11-4-16-2C8 23 2 34 4 45l2 12c-2 2-4 6-5 9-1 8 3 15 10 18v32c0 6 4 11 10 13v14c0 2 2 3 3 3h10c1 0 3-1 3-2l6-15h117l6 15c1 1 2 2 3 2h10c2 0 3-2 3-3v-14c6-1 10-7 10-13V84c8-3 12-11 10-20zm-30-36c3-2 8-3 11-2 7 2 11 9 10 16l-2 10h-3-3c-11 0-20 9-20 20v16c-2-1-4-1-6-2l5-35 2-13c1-4 3-8 6-10zM38 101c-1 0-2-1-2-2v-6c1 0 1 0 2-1 1 0 2-1 4-1 1 0 3-1 4-1s2 0 3-1c2 0 4-1 6-1h2c2 0 4 0 6-1h10c2 0 4 0 6 1h6c2 0 4 1 6 1h1c2 1 4 1 6 2h1v8H40zm66-8h1c2-1 4-1 6-2h1c2-1 4-1 6-1h6c2 0 4 0 6-1h10c2 0 4 0 6 1h2c2 0 4 1 6 1 1 0 2 0 3 1 1 0 3 1 4 1s2 1 4 1c1 0 1 0 2 1v6c0 1-1 2-2 2h-59v-8zm37-78c4-2 8-2 11 0 5 2 8 8 7 14l-3 18-5 37c-9-2-18-2-26-1l9-58c1-4 3-7 6-9zm-65-4c2-3 6-4 10-4h30c4 0 7 2 10 4 2 3 4 7 3 10v2l-9 59c-1 0-3 0-4 1h-1c-1 0-2 1-3 1h-1c-1 0-2 1-3 1s-1 0-2 1c-1 0-2 1-2 1h-1-1c-1 0-2-1-2-1-1 0-1 0-2-1-1 0-2-1-3-1h-1c-1 0-2-1-3-1h-1c-1 0-3-1-4-1l-9-59v-2c-1-4 0-7 3-10zm-27 4c2-1 3-1 5-1s4 1 6 2c3 2 6 5 6 9l9 58c-9-1-18 0-26 1l-7-48-1-6c-1-6 2-11 7-14zM10 52l-2-9c-1-8 3-15 11-17 4-1 7-1 11 1 3 2 5 5 6 9l7 49c-2 1-4 1-6 2V71c0-10-7-18-16-19h-8c-1 0-2 0-3 1zm21 87h-4v-10h9l-4 10zm144 0h-4l-4-10h9v10zm13-61h-6c-2 0-3 2-3 3 0 2 2 3 3 3h3v31c0 4-3 6-6 6H23c-4 0-6-3-6-6V84h3c2 0 3-2 3-3 0-2-2-3-3-3h-5-1c-5-1-8-6-8-11 0-2 2-5 4-6 4-3 10-4 15 1 3 3 4 7 4 11v32c0 2 2 3 3 3h134c2 0 3-2 3-3V73c0-4 1-7 3-10s5-5 8-5h5c1 0 3 1 4 2 2 1 3 3 3 5 2 6-2 11-7 12z" fill="#967c58"/></g></g></svg>