<svg xmlns="http://www.w3.org/2000/svg" width="66.945" height="66.945" viewBox="0 0 145 145" shape-rendering="geometricPrecision" text-rendering="geometricPrecision" image-rendering="optimizeQuality" fill-rule="evenodd" clip-rule="evenodd"><defs><style>.fil4{fill:#967c58}.fil3{fill:#7f7d7a;fill-rule:nonzero}.fil0{fill:#4a4a4a;fill-opacity:.701961}</style></defs><symbol id="Footer" viewBox="-1051 -1404 331 102"><path class="fil0" d="M-792-1334l1 1 1 1 3 3 8 8c1 1 2 2 4 2 1 0 2-1 3-2l7-7 4-4 1-1 2-2 1-1v22h-33-2v-21zm16 9l-2-2-2-2-9-9h31l-1 1-2 2-6 6h-1-1l-2 2h-1l-1 1-1-1zm-16-19c-2 0-3 1-3 2-1 1-1 2-1 4v25c0 1 1 3 2 4s2 1 4 1h33c2 0 4 0 6-2 0 0 1-1 1-2v-22-5c0-1-1-3-2-4s-2-1-4-1h-35z"/><path class="fil0" d="M-792-1334v21h35v-22 21h-35v-21z"/><path d="M-865-1341s1 0 2 1c2 1 2 3 2 5s0 7-1 8c-1 2-3 0-4-1l-1-1c-1-2-4-7-5-9-1-1-1-2-2-3h-9c-4 0-2 2-1 5l3 6c2 4 5 8 7 11 3 4 3 4 7 7 1 1 2 1 3 2 2 1 5 2 7 2h5c3-1 1-4 3-7 3-4 6 4 10 6 1 1 2 1 4 1 7 0 14 1 8-6-2-3-5-5-7-7s0-4 1-6c2-3 6-8 7-11 1-4-2-3-6-3h-7c-1 0-2 1-2 3-1 3-4 8-6 10l-2 2c-3 1-2-6-2-7 0-2 1-7 0-9s-10-1-12-1c-1 0-3 1-3 2z" fill="none" stroke="#4a4a4a" stroke-width="4.098" stroke-opacity=".702"/><path class="fil0" d="M-931-1308h-13c-1 0-4 0-4-1-1 0-2-1-3-2s-1-1-1-2c0 0 0-1-1-1v-3-1-1-1-2-11-1-2-2-1c0-1 0-2 1-3v-1c0-1 1-1 1-1 1-1 2-1 3-2h23c1 0 2 0 3 1h1s1 0 1 1c0 0 1 1 1 2s1 1 1 2v21c0 1 0 2-1 2 0 1-1 2-1 2l-1 1h-1l-1 1c-1 0-2 1-3 1h-4-1zm-27-25v16c0 1 0 2 1 3 0 1 2 4 3 5l1 1 1 1h1c2 1 2 1 4 1h25c1 0 3-1 3-2 1 0 1-1 2-2s1-2 1-3v-2-4-8-5-1-1-4-3c0-1 0-1-1-2 0-1-1-2-1-3l-1-1-1-1-3-1h-5-1-1-15-7c-1 0-2 1-2 1l-2 2v1c-1 1-1 2-2 4 0 1 0 2-1 3v4z"/><path class="fil0" d="M-936-1319h-2c-1 0-3-1-4-2l-1-1-1-1v-1-4c0-1 1-1 1-2l2-2c1-1 3-1 5-1h1c1 0 1 0 1 1 1 0 1 1 2 1 0 0 1 1 1 2s1 2 1 2v4c0 1 0 1-1 2s-2 2-4 3h-2zm0 4h3l4-2 1-1 1-1c1-1 2-4 2-5v-2-1-1c-1-2-2-3-3-4-2-2-3-2-5-3h-5c-1 0-2 0-2 1h-1c-1 1-2 1-3 2 0 1-1 2-1 2 0 1-1 1-1 2v6c0 1 0 1 1 2 0 1 1 1 1 2l2 2h1c1 0 2 1 3 1h4zM-927-1338c0 1 0 1 1 2 1 0 1 1 2 1h1c1 0 2-1 2-2v-1c0-1-1-2-2-2s-3 1-3 3z"/><path d="M-1000-1333v3h5v5h-4v15h-7v-15h-3v-5h3v-5c0-1 0-2 1-3l1-1s1-1 2-1h8v5h-3c-1 0-2 0-2 2zm-30-7v27c0 1 0 2 1 3 0 1 1 2 1 2h1l1 1c1 1 3 1 4 1h27c1 0 2 0 3-1 1 0 1 0 1-1l2-2c1-1 1-3 1-5v-27-3c0-1-1-2-1-3v-1h-1c-1-1-2-1-3-2h-29c-1 0-2 0-3 1 0 0-1 0-1 1l-1 1c-1 1-2 3-2 5z" fill="none" stroke="#949494" stroke-width="4.098"/><path class="fil3" d="M-1039-1403c-7 0-12 6-12 12 0 7 5 13 12 13s12-6 12-13-5-12-12-12zm0 2c6 0 10 5 10 11s-4 11-10 11-10-5-10-11 4-11 10-11zm5 5c-1 0-2-1-4-1-4 0-8 3-8 8 0 4 3 7 7 7 2 0 4 0 5-1v-2c-1 1-2 1-4 1-4 0-6-3-6-6s2-6 6-6c2 0 3 1 4 1v-2z"/><path id="1" class="fil3" d="M-1014-1377h4v-12h10v-3h-10v-9h11v-3h-15z"/><path id="2" class="fil3" d="M-979-1396h-4v14c-1 2-2 3-5 3s-4-3-4-6v-11h-4v11c0 7 4 9 7 9s6-2 6-4v3h3v-19z"/><path id="3" class="fil3" d="M-972-1401v5h-3v3h3v11c0 2 0 4 1 5s2 1 4 1h3v-3h-2c-2 0-3-1-3-4v-11h5v-3h-5v-6l-3 1z"/><path id="4" class="fil3" d="M-943-1396h-4v14c-1 2-2 3-5 3s-4-3-4-6v-11h-4v11c0 7 4 9 7 9s6-2 6-4v3h3v-19z"/><path id="5" class="fil3" d="M-937-1377h4v-10-2c0-3 2-5 5-5h1v-3h-1c-2 0-5 2-5 4v-4h-3v19z"/><path id="6" class="fil3" d="M-916-1397c-5 0-10 4-10 10s4 10 9 10 10-3 10-10c0-6-4-10-9-10zm0 3c4 0 6 4 6 8s-3 8-6 8-6-3-6-8c0-4 2-8 6-8z"/><path id="7" class="fil3" d="M-875-1380c-1 1-4 1-6 1-7 0-10-4-10-11s4-11 11-11c2 0 4 0 6 1l1-3c-1 0-3-1-6-1-8 0-14 6-14 14 0 9 6 14 13 14 3 0 6-1 7-1l-1-3z"/><path id="8" class="fil3" d="M-857-1377v-12c0-4-1-8-7-8-2 0-5 1-6 2l1 2c1-1 3-1 5-1 4 0 4 3 4 5-8 0-12 3-12 7 0 3 2 6 6 6 3 0 5-1 6-3v2h3zm-4-7v1c-1 2-2 3-5 3-2 0-3-1-3-3 0-4 4-4 8-4v3z"/><path id="9" class="fil3" d="M-853-1378c1 1 3 1 6 1 5 0 7-2 7-6 0-3-2-5-5-6s-4-2-4-3 1-3 3-3 3 1 4 1l1-3c-1-1-3-1-5-1-4 0-7 3-7 6 0 2 2 4 5 6 3 1 4 2 4 4s-1 3-4 3c-2 0-4-1-5-1l-1 3z"/><path id="10" class="fil3" d="M-821-1377v-12c0-4-1-8-7-8-2 0-5 1-6 2l1 2c1-1 3-1 5-1 4 0 4 3 4 5-8 0-12 3-12 7 0 3 2 6 6 6 3 0 5-1 6-3v2h3zm-4-7v1c-1 2-2 3-5 3-2 0-3-1-3-3 0-4 4-4 8-4v3z"/><path id="11" class="fil3" d="M-815-1372c1-2 3-6 4-10h-4c0 3-2 7-2 10h3z"/><path id="12" class="fil3" d="M-783-1377v-3h-12l2-2c6-5 9-9 9-14 0-4-2-8-8-8-3 0-6 1-7 3l1 3c1-1 3-2 6-2 4 0 5 2 5 5 0 4-3 7-10 14l-3 3v2h17z"/><path id="13" class="fil3" d="M-770-1403c-5 0-9 5-9 14s4 14 9 14c6 0 9-5 9-14 0-8-3-13-9-13zm0 3c4 0 5 4 5 11s-2 11-5 11-5-4-5-11 2-11 5-11z"/><path id="14" class="fil3" d="M-751-1377h4v-26h-3l-6 3 1 3 4-3z"/><path id="15" class="fil3" d="M-729-1376c5 0 9-3 9-8 0-3-2-6-5-7 3-2 4-4 4-6 0-3-3-6-8-6s-8 3-8 7c0 2 1 5 4 6-3 1-5 4-5 7 0 4 3 7 9 7zm0-3c-3 0-5-2-5-5s2-5 5-5c4 1 6 3 6 6s-2 5-5 5zm0-22c3 0 4 2 4 4s-2 4-4 5c-3-1-5-2-5-5 0-2 2-4 5-4z"/></symbol><g id="Слой_x0020_3"><g id="_724284656"><path class="fil4" d="M111 98l30-17-23-41-30 17 17-30L64 4 47 34V0H0v122c0 13 11 23 23 23h122V98h-34zm5-51l19 32-33 19H27l89-51zM66 11l32 19-19 33-65 37 51-89zM5 5h37v38L5 108V5zm19 136c-10 0-19-8-19-19 0-3 1-6 2-9v-1c2-3 4-5 6-6l1-1c3-1 6-2 9-2h117v37H23z"/><path class="fil4" d="M23 110c-6 0-12 5-12 12 0 6 5 12 12 12 6 0 12-5 12-12 0-6-5-12-12-12zm0 19c-4 0-7-3-7-7s3-7 7-7 7 3 7 7-3 7-7 7zM52 129h80v5H52zM40 129h7v5h-7z"/></g></g></svg>