<svg xmlns="http://www.w3.org/2000/svg" width="133.601" height="133.601" viewBox="0 0 447 447" shape-rendering="geometricPrecision" text-rendering="geometricPrecision" image-rendering="optimizeQuality" fill-rule="evenodd" clip-rule="evenodd"><defs><style>.fil2{fill:none}.fil3,.fil4,.fil6{fill:#3d342d;fill-rule:nonzero}.fil3,.fil6{fill:#4c3d2f}.fil3{fill:#7f7d7a}.fil0{fill:#4a4a4a;fill-opacity:.701961}</style></defs><symbol id="Footer" viewBox="1512 631 512 157"><path class="fil0" d="M1912 741l2 2c1 0 1 1 2 2l5 5 13 13c2 2 4 3 7 3 2 0 3-1 4-2l11-10 6-6s1 0 1-1l3-3 2-2v34h-55v-33zm25 14l-1-1-4-4-3-3-15-14h48s-1 1-2 1l-4 4-9 9s-1 0-1 1c0 0-1 0-1 1l-1 1-4 4-1 1s-1 0-1 1l-2 2-1-1zm-25-29c-3 0-4 1-5 3-2 2-2 4-2 6v39c0 2 1 4 2 5 2 1 3 2 6 2h50c4 0 6 0 9-3 1-1 1-1 1-2v-35-8c0-2-1-4-2-5-2-1-3-2-6-2h-54z"/><path class="fil0" d="M1912 741v33h55v-34 32h-55v-33z"/><path d="M1799 730c1 0 2 0 3 1 3 1 3 4 3 8 0 3 0 10-1 13-2 3-5 0-6-2-1-1-1-1-1-2-2-3-6-11-7-14-1-2-1-3-3-4s-11 0-14 0c-6 0-3 4-1 8 1 3 3 6 5 10 4 7 7 12 11 17 4 6 5 6 11 11 1 1 3 2 5 3 3 2 7 3 12 3h7c4-1 1-6 4-10 4-6 9 5 16 9 2 1 3 1 6 1 10 0 22 2 13-9-4-5-7-7-11-11-3-3-1-6 2-9 3-4 10-12 11-17 2-6-4-4-9-4h-11c-2 0-2 2-3 4-2 5-6 12-9 16-1 1-3 3-4 3-4 1-3-9-3-11 0-4 1-11-1-13-2-3-15-2-19-1-2 0-4 2-4 3z" fill="none" stroke="#4a4a4a" stroke-width="6.328" stroke-opacity=".702"/><path class="fil0" d="M1697 781h-20c-2 0-5 0-7-1-2 0-3-1-5-3-1-1-2-2-2-3s-1-1-1-2v-5-1-1-1-3-18-1-3-2-1c0-2 0-3 1-5v-1c0-1 1-2 2-2 1-1 3-2 4-3 1 0 1 0 2-1h35c1 0 3 1 4 1l1 1 1 1c1 1 2 2 2 3s1 2 1 3c0 2 1 3 1 5v31c0 1 0 2-1 4 0 1-1 2-2 3l-1 1-1 1h-1l-2 1c-1 0-3 1-4 1h-2-1-1-1-3-1zm-42-38v25c0 2 0 3 1 5s2 6 4 7l2 2 1 1s1 0 1 1c3 1 4 2 6 2h37c1 0 2 0 3-1h3c2-1 4-2 5-3h1l3-3c1-1 2-3 2-4v-1l1-3c0-2 1-4 0-6v-11-8-2-2-6-4c0-1-1-2-1-3s-1-3-2-4c0-1-1-1-1-2l-1-1c-1 0-1-1-2-1h-1l-4-2c-1 0-2 0-2-1-1 0-3-1-4-1h-34c-1 0-2 0-3 1l-2 1c-1 1-3 1-4 2l-3 3-1 1c-1 2-2 3-3 6-1 2-1 3-1 5v7z"/><path class="fil0" d="M1690 764h-3c-2 0-4-1-6-3-1 0-1-1-1-1v-1l-1-2v-1c-1-2 0-5 0-6s1-2 2-3 2-3 4-3c2-1 5-1 7-1 1 0 2 0 2 1 1 0 1 0 2 1 1 0 2 1 3 2s1 2 2 3 1 2 1 4v5c0 1-1 2-2 3-2 2-4 4-6 4h-2zm-1 6c2 0 4 0 5-1l6-3 2-2 1-1v-2c1-2 3-6 3-8v-4-1c0-1 0-2-1-2-1-2-3-5-4-7-2-2-5-4-8-5h-8c-1 0-3 1-4 1l-1 1c-1 1-3 2-4 3l-1 1v1c-1 1-2 2-2 3s-1 2-1 3v4c0 2 0 3 1 5 0 1 0 1 1 2v1c1 1 1 2 2 3s3 3 4 3l1 1c1 1 3 1 4 2h5zM1704 733c0 1 0 2 1 3s2 1 3 1h2c1-1 3-2 3-4v-2c-1-1-2-2-4-2s-4 2-4 4z"/><path class="fil2" d="M1591 742v5h7l-1 5v3h-6v23h-10v-23h-4v-8h4v-8c0-2 1-3 2-4 0-1 0-1 1-1 1-1 2-1 2-1 1 0 2-1 3-1h10v8h-5c-2 0-3 1-3 3zm-46-11v42c0 2 1 3 1 5 0 1 1 2 2 3 0 0 1 0 1 1 1 0 1 1 2 1 2 1 4 2 6 2h42c2 0 4-1 5-1s1-1 2-1l3-3c1-2 2-4 2-7v-42c0-1 0-3-1-4-1-2-1-3-2-4 0 0 0-1-1-1l-1-1c-1-1-3-2-5-3h-45c-2 0-4 1-5 1s-1 1-2 1l-1 1c-2 2-4 5-4 8z" stroke="#949494" stroke-width="6.328"/><path class="fil3" d="M1531 634c-11 0-19 9-19 19 0 11 8 19 19 19s19-9 19-19c0-11-8-19-19-19zm0 3c9 0 16 7 16 17s-7 17-16 17-16-7-16-17 7-17 16-17zm8 7c-1-1-4-2-7-2-6 0-12 5-12 12 0 6 4 11 11 11 3 0 6 0 8-2l-1-2c-1 1-4 2-6 2-6 0-9-4-9-9s3-9 9-9c3 0 5 1 6 1l1-2z"/><path id="1" class="fil3" d="M1570 674h5v-19h16v-4h-16v-14h17v-5h-22z"/><path id="2" class="fil3" d="M1623 644h-6v22c-1 2-4 5-7 5-5 0-7-4-7-10v-17h-6v18c0 11 6 13 10 13 5 0 9-3 10-6v5h5v-30z"/><path id="3" class="fil3" d="M1634 637v7h-5v4h5v17c0 4 1 6 2 8 1 1 3 2 6 2 2 0 4 0 5-1v-4h-3c-3 0-4-2-4-6v-16h8v-4h-8v-9l-5 1z"/><path id="4" class="fil3" d="M1678 644h-6v22c-1 2-4 5-7 5-5 0-7-4-7-10v-17h-6v18c0 11 6 13 10 13 5 0 9-3 10-6v5h5v-30z"/><path id="5" class="fil3" d="M1687 674h5v-16-3c1-4 3-7 7-7h2v-5h-2c-4 0-7 3-8 7v-6h-5v30z"/><path id="6" class="fil3" d="M1720 643c-8 0-15 6-15 16s6 16 15 16c7 0 15-5 15-16 0-9-6-16-15-16zm0 4c7 0 9 7 9 12 0 7-4 12-9 12s-9-5-9-12c0-6 3-12 9-12z"/><path id="7" class="fil3" d="M1783 669c-2 1-6 2-9 2-10 0-16-7-16-17 0-11 7-17 16-17 3 0 6 1 9 2l1-4c-1-1-5-2-10-2-13 0-22 9-22 22 0 14 9 21 21 21 5 0 9-1 11-2l-1-4z"/><path id="8" class="fil3" d="M1812 674v-18c0-6-2-12-12-12-4 0-7 1-10 3l1 4c2-1 5-2 8-2 6 0 7 5 7 7v1c-12 0-18 4-18 11 0 4 3 9 9 9 4 0 8-2 9-5v4h5zm-6-10v2c-1 3-3 5-7 5-3 0-5-2-5-5 0-6 7-7 13-7v5z"/><path id="9" class="fil3" d="M1819 673c2 1 5 2 9 2 7 0 11-4 11-9s-3-7-8-9c-4-1-6-3-6-5s2-4 5-4 5 1 6 2l1-4c-2-1-4-2-7-2-7 0-10 4-10 9 0 4 3 7 8 9 4 2 6 3 6 6 0 2-2 5-6 5-3 0-6-1-7-2l-1 4z"/><path id="10" class="fil3" d="M1867 674v-18c0-6-2-12-12-12-4 0-7 1-10 3l1 4c2-1 5-2 8-2 6 0 7 5 7 7v1c-12 0-18 4-18 11 0 4 3 9 9 9 4 0 8-2 9-5v4h5zm-6-10v2c-1 3-3 5-7 5-3 0-5-2-5-5 0-6 7-7 13-7v5z"/><path id="11" class="fil3" d="M1876 682c2-3 5-10 6-15l-6 1c-1 5-2 11-4 15h4z"/><path id="12" class="fil3" d="M1926 674v-5h-18l3-3c9-8 14-14 14-22 0-6-4-12-12-12-5 0-9 2-12 4l2 4c2-2 5-3 9-3 6 0 8 4 8 8 0 6-5 11-15 21l-4 4v3h26z"/><path id="13" class="fil3" d="M1946 633c-8 0-14 8-14 21s6 21 13 21c9 0 14-8 14-21s-5-21-13-21zm0 4c6 0 8 7 8 17s-3 17-8 17-8-6-8-17 4-17 8-17z"/><path id="14" class="fil3" d="M1976 674h5v-40h-4l-9 4 1 5 7-4z"/><path id="15" class="fil3" d="M2009 675c8 0 14-5 14-12 0-5-3-9-8-11 5-2 7-6 7-10 0-5-4-10-12-10-7 0-13 4-13 11 0 3 2 7 6 9-5 2-8 6-8 11 0 6 5 11 14 11zm0-4c-5 0-8-4-8-8s3-7 7-8c6 2 9 4 9 9 0 4-3 7-8 7zm0-34c5 0 7 3 7 7s-3 6-6 7c-5-1-8-3-8-8 0-3 3-7 7-7z"/></symbol><g id="Слой_x0020_1"><path class="fil2" d="M224 2c122 0 221 99 221 221s-99 221-221 221S3 345 3 223 102 2 224 2z" stroke="#3d342d" stroke-width="4.464"/><path class="fil2" stroke="#4c3d2f" stroke-width="3.164" d="M34 40h380v379H34z"/><path class="fil4" d="M75 358s-1-1-1-3 0-3 1-3v6zm127 0H75v-6h127v6zm0-6s1 1 1 3 0 3-1 3v-6zM249 358s-1-1-1-3 0-3 1-3v6zm125 0H249v-6h125v6zm0-6s1 1 1 3 0 3-1 3v-6z"/><path d="M248 356l-1 1h-1-2c-1 1-2 1-3 0 0 1 1 1 1 2s0 1-1 2-2 1-3 1-2-1-3-1c-1-1-2-3-1-5h1c0 1 0 2 1 2l1 1h1v-1-1c-1-1-2-1-3-1h-1-1v1c0 1 0 2-1 3s-2 2-3 2-2 0-2-1c-1 0-1-1-1-2s0-2 1-3v1c0 1 0 2 1 2 1 1 1 1 2 1h1v-1c0-1-1-2-2-4l-1-1-1-1-1-1c-1 1-1 2-2 4 0 2-1 3-1 4 0 2 1 4 2 6 1 1 3 2 5 2h1c0 2-1 3-3 3s-4-1-5-3-2-4-2-7c0-2 1-4 2-6l-1 1c-1 1-2 2-3 4-1 1-1 2-1 3v1l1 1c-1 1-1 2-2 2s-1 0-2-1c0-1-1-1-1-2v-1c-1 1-2 1-3 1s-2 0-3-1-1-1-1-2 0-2 1-2h-5-1l-1-1 2-2c1-1 3-2 4-3h3v-2s0-1 1-1c1-1 1-1 2-1s2 0 2 1c1 1 1 1 1 2h-1s0-1-1-1l-1-1h-1v1s0 1 1 1c1 1 2 1 3 1s2-1 3-2 1-2 1-3 0-2-1-3-2-1-3-1-2 0-3 1l-1-1c1-2 3-2 5-3h3s0-1 1-1c1-1 1-1 2-1s2 0 2 1c0 0 1 1 1 2 1-1 2-1 4-1s3 1 5 3l-1 1c-1-1-2-1-3-1s-2 0-3 1-1 2-1 3c2 2 3 3 3 4v1h1c1 0 2 0 3-1l1-1v-1h-1s-1 0-1 1c0 0 0 1-1 1h-1c0-1 1-2 1-2 1-1 1-1 2-1s2 0 2 1l1 1v2h3c1 0 2 1 4 3l2 2zm-28-1c-1 0-2 1-3 1h-1c-2 0-3 1-3 1v2s1 1 1 0c1 0 1 0 1-1 0 0 1-1 1-2h1v1l3-3zm6-9c0-1 1-1 1-2v-2l-1-1h-1v1c0 1 0 2 1 3zm-12 8c-1 1-2 1-4 0h-2c2-2 4-2 7 0zm25 0c1 1 2 1 4 0h2c-2-2-4-2-7 0z" fill="#3d342d"/><path class="fil6" d="M152 126v-3h32v3h-32zm-17 6v-3h23v3h-23zm-13 10v-3 3zm-7 14v-7 3zm0 0v-2 2zm0 7v3zm2 8v2-1zm6 9v3-2zm11 7v3-3zm0 0v2-3zm3 1v3-3zm1 3v-2 1-3 2zm-2 1v-3 2zm-4-1v-3 3zm0 0v-1-1 3zm-19-15v-2 11l1 1h20v3h-19l-1-1-1-1-1-1v-10zm-4-24v36-32zm0 0c0-1 0-1 0 0v2-1zm6-16v2-13zm13-12v3h-1v-2h2zm19-8v3h-32v-3h32zm25-3v3h-32v-3h32zm23 2v3h-32v-3h32zm27 6v3h-32v-3h32zm0 0v2-3zm15 4v3-3zm15 4v3-3zm0 0v2-3zm15-6v3h-8v-3h8zm17-2v3h-32v-3h32zm13 2v3-3zm5 9v-4 4zm0 0v-1 1zm-5 7v-3 1zm-12 2v-3 3zm-16-1v-3h20v3h-20zm-16-2v-3h13v3h-13zm0 0v-1-1 3zm-5 4v-3 3zm-6 6v-3 3zm-6 7v-3 3zm-5 6v-3 3zm0 0v-1-2 3zm-12 15v-12 11zm-11 12v3-3 3-3zm0 3v-1-2 3zm6-3v3-3zm7 0v3-3zm7-1v3-3zm5-1v3-3zm0 0v2-3zm2-3v3-3zm3-4v3-3zm4-3v3-3zm4-1v3-3zm0 0v2-3zm1 6v-3 1-3 3zm-7 7v-3 3zm0 0v-1-1 3zm-8 7v-3 3zm-6 6v-3 3zm0 0v-1-2 3zm-2 2v-2 3zm-1 1v-3 2zm0 0v-1-1 3zm0-5v5zm1-4v2-2zm3-5v2-2zm3-1v-3 3-2 3zm0-3v3-3zm-11 4v-3 3zm-14 0v-2 3zm0 0v-1-1 3zm-3 4v-3 2zm-3 4v-3 3zm0 0v-1-2 3zm-40 32v-3l1-1 1-1 1-1 1-1 1-1 1-1 1-1 1-1 1-1 1-1 1-1 1-1 1-1 1-1 1-1 1-1 1-1 1-1 1-1 1-1 1-1 1-1 1-1 1-1 1-1 1-1 1-1 1-1 1-1 1-1 1-1 1-1v3l-1 1-1 1-1 1-1 1-1 1-1 1-1 1-1 1-1 1-1 1-1 1-1 1-1 1-1 1-1 1-1 1-1 1-1 1-1 1-1 1-1 1-1 1-1 1-1 1-1 1-1 1-1 1-1 1-1 1-1 1-1 1-1 1zm-47 12v-3h31l1-1 1-1 1-1 1-1 1-1 1-1 1-1 1-1 1-1 1-1 1-1v3l-1 1-1 1-1 1-1 1-1 1-1 1-1 1-1 1-1 1-1 1-1 1h-31zm-12-1v-3 3zm0 0v-1-1 3zm-11-4v-3 3zm0 0v-1-1 3zm-8-6v-3 3zm-4-11v-1 3zm0 0v-2 2zm4-12v4-1zm11-5v3-3zm7 3v3-3zm2 9v-5zm0 0c0 1 0 1 0 0v-2 2zm-2 5v-2 2zm-3 3v-3 2zm-4 5v3zm2 3v3zm5 3v3-3zm6 2v3-3zm7 1v3-3zm31-8v3h-32v-3h32zm27-20v3l-1 1-1 1-1 1-1 1-1 1-1 1-1 1-1 1-1 1-1 1-1 1-1 1-1 1-1 1-1 1-1 1-1 1-1 1-1 1-1 1-1 1-1 1-1 1-1 1-1 1-1 1-1 1-1 1-1 1-1 1h-2v-3h2l1-1 1-1 1-1 1-1 1-1 1-1 1-1 1-1 1-1 1-1 1-1 1-1 1-1 1-1 1-1 1-1 1-1 1-1 1-1 1-1 1-1 1-1 1-1 1-1 1-1 1-1 1-1 1-1 1-1 1-1zm0 0v3-3zm10-11v3-3zm0 0v3-3zm8-8v-3 3-3 3zm0-3v3-3zm-9 3v-3 3zm-7 0v-3 3zm0 0v-1-1 3zm-6 1v-3 3zm-2-3v2-1 3-1zm0 1v-1 1zm3-3v3-2zm7-1v3-3zm0 0v2-3zm7 0v3-3zm8 0v3-3zm0 0v2-3zm6-8v3-3zm8-10v3-3zm0 0v3-3zm11-11v3-3zm12-10v3-3zm11-9v3-3zm8-3v-3 3-3 3zm0-3v2-3zm-11 0v-3 3zm-14-3v-3 3zm0 0v-1-1 3zm-10-2v-3 3zm-13-2v-3 3zm-14-2v-3 3zm-13-1v-3 3zm99 5v-3 3zm-12 2v3-3 3-3zm0 3v-1-1 3zm16 1v3h-10v-3h10zm12 1v3-3zm9-1v3-3zm4-3v1-3zm-4-2v-3 2-1zm-11-2v-3 3z"/><path id="1" class="fil6" d="M172 123c-7 0-13 1-20 2-6 1-12 3-17 6s-9 6-13 10c-3 4-6 9-7 14-1 3-1 6-1 9s1 6 2 9 4 6 6 9c3 3 6 5 11 7 2 1 3 1 3 1 1 0 1 0 1 1 0 0-1 1-2 0-1 0-2 0-4-1-9-3-15-8-19-15s-5-14-4-22c1-5 3-10 6-15s8-9 13-12 12-6 19-8 16-3 25-3c6 0 14 1 23 2l27 6c5 1 10 3 15 4s10 3 15 4c4-2 9-4 15-6s12-2 17-2 9 1 13 2 5 4 5 7-2 5-5 6-7 2-12 2c-6 0-12 0-16-1-5 0-10-1-16-2-2 1-3 2-5 4l-6 6c-2 2-4 4-6 7-2 2-4 4-5 6-4 6-8 11-12 15-3 5-7 9-11 14h13c2 0 5 0 7-1 2 0 4-1 6-1 1-1 1-2 2-3l3-3c1-1 2-2 4-3 1-1 3-1 4-1 2 1 3 2 1 3-1 2-4 4-7 7s-6 5-8 7l-6 6-2 2c0 1-1 1-1 1-1 0-1-1 0-2 0-1 1-2 1-4 1-2 2-3 3-5s2-3 2-3c-3 1-6 1-11 2h-14c-1 1-2 3-3 4s-2 3-3 4c-12 13-26 24-40 32s-30 12-47 12c-4 0-8 0-12-1s-8-2-11-3c-3-2-6-4-8-6-2-3-3-6-3-10s1-7 3-10c3-3 6-5 10-5 3 0 5 1 7 3s2 4 2 6-1 3-2 4l-3 3c-3 3-4 5-4 7s1 3 2 4 3 2 5 3 4 1 6 2c2 0 5 1 7 1 11 0 21-3 31-8s19-12 27-20c4-4 7-7 10-11 3-3 5-7 8-11h-16c-3 0-5 0-6 1-1 0-1 0-1-1s1-1 2-1 4-1 7-1h15c2-3 4-5 7-8 2-3 5-6 8-10s7-7 11-11 8-7 12-10 7-6 11-9c3-3 6-4 8-6-3-1-7-2-11-3s-9-2-14-3c-3-1-6-1-10-2s-8-2-13-2c-4-1-9-1-14-2-5 0-9-1-13-1zm112 3c-5 0-9 1-14 2-4 1-8 3-12 5 5 1 11 3 16 3 5 1 9 1 12 1s6 0 9-1c2-1 4-2 4-4s-1-3-4-4-7-2-12-2z"/><g><path d="M279 178c7 0 15 2 22 5 7 4 12 8 17 14 2-1 5-1 8-2s6-1 9-1h14c5 1 9 2 12 4 4 2 6 4 8 7s2 7 1 12-3 9-7 13-9 7-15 9-12 4-19 5-13 2-19 2c-9 0-17-1-26-3-8-2-16-5-21-9-6 5-11 11-16 17s-9 12-13 18-6 12-8 18-3 11-3 16c0 9 2 16 7 19 5 4 11 6 19 6 9 0 18-2 25-5s14-7 20-11c4-3 8-6 11-9s6-5 8-7 4-3 5-4 2-1 2 0v2c-1 1-1 2-2 2-4 4-8 7-11 10-4 3-8 6-11 8-6 5-14 9-21 12-8 3-16 5-26 6-13 0-23-2-32-7-8-5-13-13-13-25 0-7 1-14 4-21s7-14 12-20c5-7 10-13 17-19 6-6 13-11 19-16l-6-9c-1-3-2-7-2-10 0-4 1-8 3-12s4-7 7-9c3-3 6-5 10-6s8-2 12-2zm32 66c6 0 11-1 16-2s10-3 15-5c4-2 8-5 11-8s5-7 6-10c2-7 0-13-4-16s-11-5-19-5c-2 0-5 0-9 1-3 1-6 1-8 2 1 2 2 5 3 8s2 6 2 9v6c0 1-1 2-1 2s-1-1-1-2 0-2-1-5l-3-9c-1-3-3-6-4-8-8 3-17 7-25 13-9 6-16 11-23 17 5 4 12 7 20 9s16 3 25 3zm-34-62c-7 0-12 2-18 7-5 4-8 11-8 19 0 6 2 12 6 17 9-6 18-11 27-15 10-5 19-8 28-11-5-5-10-10-16-12-6-3-13-4-19-4z" fill="none" fill-rule="nonzero" stroke="#4c3d2f" stroke-width=".027" stroke-linecap="round" stroke-linejoin="round"/><path id="1" class="fil6" d="M279 178c7 0 15 2 22 5 7 4 12 8 17 14 2-1 5-1 8-2s6-1 9-1h14c5 1 9 2 12 4 4 2 6 4 8 7s2 7 1 12-3 9-7 13-9 7-15 9-12 4-19 5-13 2-19 2c-9 0-17-1-26-3-8-2-16-5-21-9-6 5-11 11-16 17s-9 12-13 18-6 12-8 18-3 11-3 16c0 9 2 16 7 19 5 4 11 6 19 6 9 0 18-2 25-5s14-7 20-11c4-3 8-6 11-9s6-5 8-7 4-3 5-4 2-1 2 0v2c-1 1-1 2-2 2-4 4-8 7-11 10-4 3-8 6-11 8-6 5-14 9-21 12-8 3-16 5-26 6-13 0-23-2-32-7-8-5-13-13-13-25 0-7 1-14 4-21s7-14 12-20c5-7 10-13 17-19 6-6 13-11 19-16l-6-9c-1-3-2-7-2-10 0-4 1-8 3-12s4-7 7-9c3-3 6-5 10-6s8-2 12-2zm32 66c6 0 11-1 16-2s10-3 15-5c4-2 8-5 11-8s5-7 6-10c2-7 0-13-4-16s-11-5-19-5c-2 0-5 0-9 1-3 1-6 1-8 2 1 2 2 5 3 8s2 6 2 9v6c0 1-1 2-1 2s-1-1-1-2 0-2-1-5l-3-9c-1-3-3-6-4-8-8 3-17 7-25 13-9 6-16 11-23 17 5 4 12 7 20 9s16 3 25 3zm-34-62c-7 0-12 2-18 7-5 4-8 11-8 19 0 6 2 12 6 17 9-6 18-11 27-15 10-5 19-8 28-11-5-5-10-10-16-12-6-3-13-4-19-4z"/></g></g></svg>